<svg id="Capa_1" data-name="Capa 1" xmlns="http://www.w3.org/2000/svg" xmlns:xlink="http://www.w3.org/1999/xlink" viewBox="0 0 512 512"><defs><style>.cls-1{fill:url(#linear-gradient);}.cls-2{fill:url(#linear-gradient-2);}.cls-3{fill:url(#linear-gradient-3);}.cls-4{fill:url(#linear-gradient-4);}.cls-5{fill:url(#linear-gradient-5);}.cls-6{fill:url(#linear-gradient-6);}.cls-7{fill:url(#linear-gradient-7);}.cls-8{fill:url(#linear-gradient-8);}.cls-9{fill:url(#linear-gradient-9);}.cls-10{fill:url(#linear-gradient-10);}.cls-11{fill:url(#linear-gradient-11);}.cls-12{fill:url(#linear-gradient-12);}.cls-13{fill:url(#linear-gradient-13);}.cls-14{fill:url(#linear-gradient-14);}.cls-15{fill:url(#linear-gradient-15);}.cls-16{fill:url(#linear-gradient-16);}.cls-17{fill:url(#linear-gradient-17);}.cls-18{fill:url(#linear-gradient-18);}.cls-19{fill:url(#linear-gradient-19);}.cls-20{fill:url(#linear-gradient-20);}.cls-21{fill:url(#linear-gradient-21);}.cls-22{fill:url(#linear-gradient-22);}.cls-23{fill:url(#linear-gradient-23);}.cls-24{fill:url(#linear-gradient-24);}.cls-25{fill:url(#linear-gradient-25);}.cls-26{fill:url(#linear-gradient-26);}.cls-27{fill:url(#linear-gradient-27);}.cls-28{fill:url(#linear-gradient-28);}.cls-29{fill:url(#linear-gradient-29);}.cls-30{fill:url(#linear-gradient-30);}.cls-31{fill:url(#linear-gradient-31);}.cls-32{fill:url(#linear-gradient-32);}.cls-33{fill:url(#linear-gradient-33);}.cls-34{fill:url(#linear-gradient-34);}.cls-35{fill:url(#linear-gradient-35);}.cls-36{fill:url(#linear-gradient-36);}.cls-37{fill:url(#linear-gradient-37);}.cls-38{fill:url(#linear-gradient-38);}</style><linearGradient id="linear-gradient" x1="59.73" y1="229.02" x2="509.4" y2="251.73" gradientUnits="userSpaceOnUse"><stop offset="0.07" stop-color="#061c73"/><stop offset="0.22" stop-color="#053083"/><stop offset="0.53" stop-color="#0364ad"/><stop offset="0.96" stop-color="#00b8f0"/><stop offset="0.97" stop-color="#00b9f1"/></linearGradient><linearGradient id="linear-gradient-2" x1="59.91" y1="225.5" x2="509.57" y2="248.21" xlink:href="#linear-gradient"/><linearGradient id="linear-gradient-3" x1="319.35" y1="235.12" x2="366.21" y2="235.12" xlink:href="#linear-gradient"/><linearGradient id="linear-gradient-4" x1="230.86" y1="235.12" x2="432.38" y2="235.12" xlink:href="#linear-gradient"/><linearGradient id="linear-gradient-5" x1="120.06" y1="293.5" x2="121.32" y2="293.5" xlink:href="#linear-gradient"/><linearGradient id="linear-gradient-6" x1="340.42" y1="303.18" x2="341.68" y2="303.18" xlink:href="#linear-gradient"/><linearGradient id="linear-gradient-7" x1="226.16" y1="295.42" x2="227.42" y2="295.42" xlink:href="#linear-gradient"/><linearGradient id="linear-gradient-8" x1="424.9" y1="306.27" x2="426.16" y2="306.27" xlink:href="#linear-gradient"/><linearGradient id="linear-gradient-9" x1="108" y1="193.95" x2="109.26" y2="193.95" xlink:href="#linear-gradient"/><linearGradient id="linear-gradient-10" x1="281.52" y1="163.12" x2="282.78" y2="163.12" xlink:href="#linear-gradient"/><linearGradient id="linear-gradient-11" x1="214.75" y1="172.27" x2="216" y2="172.27" xlink:href="#linear-gradient"/><linearGradient id="linear-gradient-12" x1="424" y1="171.51" x2="425.26" y2="171.51" xlink:href="#linear-gradient"/><linearGradient id="linear-gradient-13" x1="337.45" y1="198.84" x2="338.71" y2="198.84" xlink:href="#linear-gradient"/><linearGradient id="linear-gradient-14" x1="62.31" y1="177.94" x2="511.98" y2="200.65" xlink:href="#linear-gradient"/><linearGradient id="linear-gradient-15" x1="57.55" y1="272.13" x2="507.22" y2="294.84" xlink:href="#linear-gradient"/><linearGradient id="linear-gradient-16" x1="20.09" y1="353.28" x2="494.19" y2="357.12" xlink:href="#linear-gradient"/><linearGradient id="linear-gradient-17" x1="20.09" y1="353.1" x2="494.2" y2="356.93" xlink:href="#linear-gradient"/><linearGradient id="linear-gradient-18" x1="20.09" y1="352.94" x2="494.2" y2="356.77" xlink:href="#linear-gradient"/><linearGradient id="linear-gradient-19" x1="20.09" y1="352.8" x2="494.2" y2="356.63" xlink:href="#linear-gradient"/><linearGradient id="linear-gradient-20" x1="20.09" y1="352.69" x2="494.2" y2="356.52" xlink:href="#linear-gradient"/><linearGradient id="linear-gradient-21" x1="20.09" y1="352.57" x2="494.2" y2="356.4" xlink:href="#linear-gradient"/><linearGradient id="linear-gradient-22" x1="20.09" y1="352.37" x2="494.2" y2="356.2" xlink:href="#linear-gradient"/><linearGradient id="linear-gradient-23" x1="20.1" y1="352.17" x2="494.2" y2="356" xlink:href="#linear-gradient"/><linearGradient id="linear-gradient-24" x1="20.1" y1="351.96" x2="494.2" y2="355.79" xlink:href="#linear-gradient"/><linearGradient id="linear-gradient-25" x1="20.1" y1="351.79" x2="494.21" y2="355.62" xlink:href="#linear-gradient"/><linearGradient id="linear-gradient-26" x1="20.1" y1="351.65" x2="494.21" y2="355.48" xlink:href="#linear-gradient"/><linearGradient id="linear-gradient-27" x1="20.1" y1="351.53" x2="494.21" y2="355.37" xlink:href="#linear-gradient"/><linearGradient id="linear-gradient-28" x1="20.1" y1="351.41" x2="494.21" y2="355.24" xlink:href="#linear-gradient"/><linearGradient id="linear-gradient-29" x1="20.1" y1="351.33" x2="494.21" y2="355.16" xlink:href="#linear-gradient"/><linearGradient id="linear-gradient-30" x1="20.1" y1="351.17" x2="494.21" y2="355.01" xlink:href="#linear-gradient"/><linearGradient id="linear-gradient-31" x1="20.11" y1="350.94" x2="494.21" y2="354.77" xlink:href="#linear-gradient"/><linearGradient id="linear-gradient-32" x1="20.11" y1="350.75" x2="494.21" y2="354.58" xlink:href="#linear-gradient"/><linearGradient id="linear-gradient-33" x1="20.11" y1="350.55" x2="494.22" y2="354.38" xlink:href="#linear-gradient"/><linearGradient id="linear-gradient-34" x1="20.11" y1="350.4" x2="494.22" y2="354.23" xlink:href="#linear-gradient"/><linearGradient id="linear-gradient-35" x1="20.11" y1="350.42" x2="494.22" y2="354.25" xlink:href="#linear-gradient"/><linearGradient id="linear-gradient-36" x1="20.11" y1="350.04" x2="494.22" y2="353.87" xlink:href="#linear-gradient"/><linearGradient id="linear-gradient-37" x1="20.11" y1="349.89" x2="494.22" y2="353.72" xlink:href="#linear-gradient"/><linearGradient id="linear-gradient-38" x1="20.12" y1="349.69" x2="494.22" y2="353.52" xlink:href="#linear-gradient"/></defs><path class="cls-1" d="M118.53,225a1.29,1.29,0,0,1-1.26,1h-8a1.29,1.29,0,0,1-1.28-1.54,47.27,47.27,0,0,1,83.12-20.53,1.31,1.31,0,0,1-.22,1.85l-3.08,2.36-3.11,2.39a1.3,1.3,0,0,1-1.81-.22A37,37,0,0,0,118.53,225Zm35.88,16.93a1.3,1.3,0,0,0,1.3,1.3h29.57a1.31,1.31,0,0,1,1.28,1.56,30.34,30.34,0,0,1-11.28,19,34.1,34.1,0,0,1-20.87,7,37,37,0,0,1-35.88-28.15,1.3,1.3,0,0,0-1.26-1h-8a1.3,1.3,0,0,0-1.29,1.54,47.42,47.42,0,0,0,46.39,38c12.5,0,23.28-4.54,31-12.2s12.2-18.45,12.2-31v-3.9a1.31,1.31,0,0,0-1.31-1.31H155.71a1.31,1.31,0,0,0-1.3,1.31v7.8Z"/><path class="cls-2" d="M269.67,189.56H239.74a1.3,1.3,0,0,0-1.3,1.3v63a1.3,1.3,0,0,0,1.3,1.3h7.81a1.3,1.3,0,0,0,1.3-1.3V201.27a1.3,1.3,0,0,1,1.3-1.3h19.52a35.4,35.4,0,0,1,0,70.79H239.74a1.3,1.3,0,0,0-1.3,1.3v7.81a1.31,1.31,0,0,0,1.3,1.3h29.93a45.81,45.81,0,0,0,0-91.61Z"/><path class="cls-3" d="M354.09,190.38a1.31,1.31,0,0,1,1.31-1.31h7.85a1.31,1.31,0,0,1,1.31,1.31v89.48a1.31,1.31,0,0,1-1.31,1.31H355.4a1.31,1.31,0,0,1-1.31-1.31V190.38Z"/><path class="cls-4" d="M414.79,228.58a1.3,1.3,0,0,1-1.31,1.3H381.56a1.31,1.31,0,0,0-1.31,1.31V239a1.31,1.31,0,0,0,1.31,1.31h31.92a1.31,1.31,0,0,1,1.31,1.31v38.2a1.31,1.31,0,0,0,1.31,1.31H424a1.31,1.31,0,0,0,1.31-1.31V190.38a1.31,1.31,0,0,0-1.31-1.31H416.1a1.31,1.31,0,0,0-1.31,1.31v38.2Z"/><path class="cls-5" d="M120.69,313.38h0a.63.63,0,0,1-.63-.63V274.26a.63.63,0,0,1,.63-.63h0a.63.63,0,0,1,.63.63v38.49A.63.63,0,0,1,120.69,313.38Z"/><path class="cls-6" d="M341.05,323.93h0a.63.63,0,0,1-.63-.63V283.06a.63.63,0,0,1,.63-.63h0a.63.63,0,0,1,.63.63V323.3A.63.63,0,0,1,341.05,323.93Z"/><path class="cls-7" d="M226.79,313.5h0a.63.63,0,0,1-.63-.63V278a.63.63,0,0,1,.63-.63h0a.63.63,0,0,1,.63.63v34.9A.63.63,0,0,1,226.79,313.5Z"/><path class="cls-8" d="M425.53,319h0a.63.63,0,0,1-.63-.63V294.13a.63.63,0,0,1,.63-.63h0a.63.63,0,0,1,.63.63v24.28A.63.63,0,0,1,425.53,319Z"/><path class="cls-9" d="M108.63,226h0a.63.63,0,0,1-.63-.63V162.54a.63.63,0,0,1,.63-.63h0a.63.63,0,0,1,.63.63v62.82A.63.63,0,0,1,108.63,226Z"/><path class="cls-10" d="M282.15,180h0a.63.63,0,0,1-.63-.62V146.89a.63.63,0,0,1,.63-.63h0a.63.63,0,0,1,.63.63v32.46A.63.63,0,0,1,282.15,180Z"/><path class="cls-11" d="M215.38,194.57h0a.63.63,0,0,1-.63-.63V150.6a.63.63,0,0,1,.63-.63h0a.63.63,0,0,1,.62.63v43.34A.63.63,0,0,1,215.38,194.57Z"/><path class="cls-12" d="M424.63,192.13h0a.63.63,0,0,1-.63-.62v-40a.63.63,0,0,1,.63-.63h0a.63.63,0,0,1,.63.63v40A.63.63,0,0,1,424.63,192.13Z"/><path class="cls-13" d="M338.08,223.88h0a.63.63,0,0,1-.63-.63V174.44a.63.63,0,0,1,.63-.63h0a.63.63,0,0,1,.63.63v48.81A.63.63,0,0,1,338.08,223.88Z"/><path class="cls-14" d="M93,173.81a3.55,3.55,0,1,0,3.55,3.54A3.54,3.54,0,0,0,93,173.81Zm108.82,29.08a3.55,3.55,0,1,0,3.54,3.55A3.54,3.54,0,0,0,201.84,202.89Zm57.46-40a3.54,3.54,0,1,0,3.55,3.54A3.54,3.54,0,0,0,259.3,162.9Zm154.77,9.91a3.54,3.54,0,1,0,3.54,3.54A3.54,3.54,0,0,0,414.07,172.81Z"/><path class="cls-15" d="M416.28,302.59a3.55,3.55,0,1,0-3.54-3.54A3.55,3.55,0,0,0,416.28,302.59Zm-85-25.54a3.55,3.55,0,1,0-3.55-3.54A3.55,3.55,0,0,0,331.32,277.05Zm-59,21.92a3.55,3.55,0,1,0-3.54-3.55A3.55,3.55,0,0,0,272.34,299ZM111.2,286a3.55,3.55,0,1,0-3.54-3.55A3.55,3.55,0,0,0,111.2,286Z"/><path class="cls-16" d="M46.37,363.29a17,17,0,0,1-3.69,1.26,21.28,21.28,0,0,1-4.62.45,13.2,13.2,0,0,1-4.88-.86,11.07,11.07,0,0,1-3.8-2.39,10.85,10.85,0,0,1-2.47-3.67,12.16,12.16,0,0,1-.89-4.71,12,12,0,0,1,.92-4.78A10.52,10.52,0,0,1,29.46,345a11.16,11.16,0,0,1,3.78-2.3,13.46,13.46,0,0,1,4.73-.81,14.56,14.56,0,0,1,4.83.76,9.8,9.8,0,0,1,3.53,2l-2.7,2.92A6.73,6.73,0,0,0,41.28,346a8.28,8.28,0,0,0-3.28-.65,7.85,7.85,0,0,0-3.16.62,7.23,7.23,0,0,0-2.41,1.71,7.84,7.84,0,0,0-1.54,2.55,9.15,9.15,0,0,0-.54,3.18,9.43,9.43,0,0,0,.54,3.25,7.41,7.41,0,0,0,1.56,2.56,7,7,0,0,0,2.45,1.7,8.52,8.52,0,0,0,3.28.61,11.33,11.33,0,0,0,4.39-.78v-5.6H37.94v-3.24h8.43Z"/><path class="cls-17" d="M49.44,353.37a12.34,12.34,0,0,1,.89-4.78A10.38,10.38,0,0,1,52.79,345a10.84,10.84,0,0,1,3.73-2.3,13.31,13.31,0,0,1,4.71-.81,13.55,13.55,0,0,1,4.76.81,11,11,0,0,1,3.77,2.3,10.4,10.4,0,0,1,2.47,3.62,12.34,12.34,0,0,1,.89,4.78,12.16,12.16,0,0,1-.89,4.71,11,11,0,0,1-2.47,3.67A11.23,11.23,0,0,1,66,364.14a12.71,12.71,0,0,1-4.76.86,12.49,12.49,0,0,1-4.71-.86,10.86,10.86,0,0,1-6.19-6.06A12.16,12.16,0,0,1,49.44,353.37Zm4.27,0a9.43,9.43,0,0,0,.54,3.25,7.41,7.41,0,0,0,1.56,2.56,7.14,7.14,0,0,0,2.39,1.7,7.63,7.63,0,0,0,3.06.61,7.73,7.73,0,0,0,3.08-.61,7,7,0,0,0,2.41-1.7,7.41,7.41,0,0,0,1.56-2.56,9.43,9.43,0,0,0,.54-3.25,9.15,9.15,0,0,0-.54-3.18,7.84,7.84,0,0,0-1.54-2.55,7.25,7.25,0,0,0-2.39-1.71,7.69,7.69,0,0,0-3.12-.62,7.51,7.51,0,0,0-3.09.62,7.31,7.31,0,0,0-2.38,1.71,7.84,7.84,0,0,0-1.54,2.55A9.15,9.15,0,0,0,53.71,353.37Z"/><path class="cls-18" d="M76.29,342.42h8.58a10.74,10.74,0,0,1,2.46.29,6.25,6.25,0,0,1,2.16,1A5,5,0,0,1,91,345.4a5.11,5.11,0,0,1,.59,2.55A4.51,4.51,0,0,1,90.57,351a6,6,0,0,1-2.77,1.75v.06a5.68,5.68,0,0,1,3.42,1.62A4.83,4.83,0,0,1,92.56,358a5.92,5.92,0,0,1-.72,3A5.81,5.81,0,0,1,90,363a7.92,7.92,0,0,1-2.67,1.07,14.36,14.36,0,0,1-3.07.33H76.29Zm3.92,9h3.48a4.89,4.89,0,0,0,3-.78,2.62,2.62,0,0,0,1-2.21,2.27,2.27,0,0,0-1-2.12,6.81,6.81,0,0,0-3.3-.62H80.21Zm0,9.76h3.51a11.81,11.81,0,0,0,1.62-.11,5.12,5.12,0,0,0,1.6-.45,3.17,3.17,0,0,0,1.22-1,2.89,2.89,0,0,0,.48-1.74,2.58,2.58,0,0,0-1.18-2.43,7.3,7.3,0,0,0-3.58-.68H80.21Z"/><path class="cls-19" d="M95.79,342.42h3.92v22H95.79Z"/><path class="cls-20" d="M103.94,342.42h14.59v3.42H107.86v5.6H118v3.3H107.86V361h11.23v3.48H103.94Z"/><path class="cls-21" d="M122.29,342.42H130a14.23,14.23,0,0,1,3,.32,7.76,7.76,0,0,1,2.6,1.08,5.53,5.53,0,0,1,1.82,2,5.88,5.88,0,0,1,.68,3,5.65,5.65,0,0,1-1.35,3.91,6.81,6.81,0,0,1-3.69,2l5.88,9.77h-4.72l-5.11-9.33h-2.86v9.33h-3.92Zm7.13,9.48a11.87,11.87,0,0,0,1.68-.12,4.63,4.63,0,0,0,1.5-.47,2.73,2.73,0,0,0,1.54-2.61,2.53,2.53,0,0,0-.4-1.48,2.91,2.91,0,0,0-1-.91,4.11,4.11,0,0,0-1.41-.47,10.33,10.33,0,0,0-1.54-.13h-3.55v6.19Z"/><path class="cls-22" d="M141.24,342.42h5.19l10.23,16.48h.07V342.42h3.92v22h-5l-10.45-17h-.06v17h-3.92Z"/><path class="cls-23" d="M163.82,353.37a12.16,12.16,0,0,1,.89-4.78,10.35,10.35,0,0,1,2.45-3.62,10.8,10.8,0,0,1,3.74-2.3,13.31,13.31,0,0,1,4.71-.81,13.59,13.59,0,0,1,4.76.81,11,11,0,0,1,3.76,2.3,10.27,10.27,0,0,1,2.47,3.62,12.34,12.34,0,0,1,.89,4.78,12.16,12.16,0,0,1-.89,4.71,10.85,10.85,0,0,1-2.47,3.67,11.19,11.19,0,0,1-3.76,2.39,12.75,12.75,0,0,1-4.76.86,12.49,12.49,0,0,1-4.71-.86,10.78,10.78,0,0,1-6.19-6.06A12,12,0,0,1,163.82,353.37Zm4.26,0a9.43,9.43,0,0,0,.54,3.25,7.72,7.72,0,0,0,1.56,2.56,7.09,7.09,0,0,0,2.4,1.7,7.6,7.6,0,0,0,3.06.61,7.77,7.77,0,0,0,3.08-.61,7.22,7.22,0,0,0,2.41-1.7,7.54,7.54,0,0,0,1.55-2.56,9.2,9.2,0,0,0,.55-3.25,8.93,8.93,0,0,0-.55-3.18,7.67,7.67,0,0,0-1.54-2.55,7.25,7.25,0,0,0-2.39-1.71,8.09,8.09,0,0,0-6.21,0,7.42,7.42,0,0,0-2.38,1.71,8,8,0,0,0-1.54,2.55A9.15,9.15,0,0,0,168.08,353.37Z"/><path class="cls-24" d="M197.82,342.42h7.8A17,17,0,0,1,210,343a11.15,11.15,0,0,1,3.92,1.85,9.74,9.74,0,0,1,2.83,3.39,11.32,11.32,0,0,1,1.09,5.21,10.7,10.7,0,0,1-1.09,5,10.22,10.22,0,0,1-2.83,3.42,11.76,11.76,0,0,1-3.92,2,15.14,15.14,0,0,1-4.33.64h-7.8ZM205,361a13.24,13.24,0,0,0,3.05-.36,7.93,7.93,0,0,0,2.75-1.21,6.43,6.43,0,0,0,2-2.32,7.8,7.8,0,0,0,.78-3.7,8.33,8.33,0,0,0-.78-3.86,6.3,6.3,0,0,0-2-2.33,7.48,7.48,0,0,0-2.75-1.15,15,15,0,0,0-3.05-.31h-3.26V361Z"/><path class="cls-25" d="M221,342.42h3.92v22H221Z"/><path class="cls-26" d="M248.39,363.29a17,17,0,0,1-3.68,1.26,21.28,21.28,0,0,1-4.62.45,13.2,13.2,0,0,1-4.88-.86,11.07,11.07,0,0,1-3.8-2.39,10.85,10.85,0,0,1-2.47-3.67,12.16,12.16,0,0,1-.89-4.71,12,12,0,0,1,.92-4.78,10.52,10.52,0,0,1,2.52-3.62,11.16,11.16,0,0,1,3.78-2.3,13.46,13.46,0,0,1,4.73-.81,14.56,14.56,0,0,1,4.83.76,9.89,9.89,0,0,1,3.53,2l-2.7,2.92a6.82,6.82,0,0,0-2.35-1.59,8.28,8.28,0,0,0-3.28-.65,7.85,7.85,0,0,0-3.16.62,7.23,7.23,0,0,0-2.41,1.71,7.84,7.84,0,0,0-1.54,2.55,9.16,9.16,0,0,0-.55,3.18,9.43,9.43,0,0,0,.55,3.25,7.54,7.54,0,0,0,1.55,2.56,7.13,7.13,0,0,0,2.46,1.7,8.52,8.52,0,0,0,3.28.61,11.33,11.33,0,0,0,4.39-.78v-5.6H240v-3.24h8.43Z"/><path class="cls-27" d="M252.53,342.42h3.92v22h-3.92Z"/><path class="cls-28" d="M265.13,345.84h-6.75v-3.42H275.8v3.42h-6.75v18.6h-3.92Z"/><path class="cls-29" d="M282.77,342.42h3.39l9.48,22h-4.48l-2.05-5h-9.55l-2,5h-4.39Zm5,13.62-3.39-9-3.45,9Z"/><path class="cls-30" d="M297.2,342.42h3.92V361h9.36v3.48H297.2Z"/><path class="cls-31" d="M318.88,342.42h3.92v8.89h10.29v-8.89H337v22h-3.92v-9.77H322.8v9.77h-3.92Z"/><path class="cls-32" d="M340.19,353.37a12.34,12.34,0,0,1,.88-4.78,10.38,10.38,0,0,1,2.46-3.62,10.84,10.84,0,0,1,3.73-2.3,13.31,13.31,0,0,1,4.71-.81,13.51,13.51,0,0,1,4.76.81,10.93,10.93,0,0,1,3.77,2.3,10.27,10.27,0,0,1,2.47,3.62,12.34,12.34,0,0,1,.89,4.78,12.16,12.16,0,0,1-.89,4.71,10.85,10.85,0,0,1-2.47,3.67,11.13,11.13,0,0,1-3.77,2.39A12.68,12.68,0,0,1,352,365a12.49,12.49,0,0,1-4.71-.86,10.86,10.86,0,0,1-6.19-6.06A12.16,12.16,0,0,1,340.19,353.37Zm4.26,0a9.43,9.43,0,0,0,.54,3.25,7.41,7.41,0,0,0,1.56,2.56,7.14,7.14,0,0,0,2.39,1.7,7.65,7.65,0,0,0,3.07.61,7.77,7.77,0,0,0,3.08-.61,7.22,7.22,0,0,0,2.41-1.7,7.54,7.54,0,0,0,1.55-2.56,9.43,9.43,0,0,0,.55-3.25,9.16,9.16,0,0,0-.55-3.18,7.67,7.67,0,0,0-1.54-2.55,7.25,7.25,0,0,0-2.39-1.71,7.68,7.68,0,0,0-3.11-.62,7.56,7.56,0,0,0-3.1.62,7.31,7.31,0,0,0-2.38,1.71,7.84,7.84,0,0,0-1.54,2.55A9.15,9.15,0,0,0,344.45,353.37Z"/><path class="cls-33" d="M367,342.42h5.19l10.24,16.48h.06V342.42h3.92v22h-5l-10.45-17H371v17H367Z"/><path class="cls-34" d="M390.67,342.42h7.81a17,17,0,0,1,4.32.56,11.15,11.15,0,0,1,3.92,1.85,9.74,9.74,0,0,1,2.83,3.39,11.19,11.19,0,0,1,1.09,5.21,10.58,10.58,0,0,1-1.09,5,10.22,10.22,0,0,1-2.83,3.42,11.76,11.76,0,0,1-3.92,2,15.13,15.13,0,0,1-4.32.64h-7.81Zm7.19,18.6a13.15,13.15,0,0,0,3-.36,8,8,0,0,0,2.76-1.21,6.41,6.41,0,0,0,2-2.32,7.8,7.8,0,0,0,.78-3.7,8.33,8.33,0,0,0-.78-3.86,6.28,6.28,0,0,0-2-2.33,7.52,7.52,0,0,0-2.76-1.15,14.94,14.94,0,0,0-3-.31h-3.27V361Z"/><path class="cls-35" d="M431.36,356.35a9,9,0,0,1-.69,3.6,8.17,8.17,0,0,1-1.86,2.72,8.33,8.33,0,0,1-2.8,1.72,10.43,10.43,0,0,1-7,0,8.42,8.42,0,0,1-2.82-1.72,7.91,7.91,0,0,1-1.87-2.72,9.39,9.39,0,0,1-.66-3.6V342.42h3.91V356.2a7.76,7.76,0,0,0,.25,1.91,4.73,4.73,0,0,0,.83,1.7,4.29,4.29,0,0,0,1.52,1.21,6.11,6.11,0,0,0,4.7,0,4.29,4.29,0,0,0,1.52-1.21,4.73,4.73,0,0,0,.83-1.7,7.76,7.76,0,0,0,.25-1.91V342.42h3.92Z"/><path class="cls-36" d="M435.4,342.42h7.65a14.33,14.33,0,0,1,3,.32,7.85,7.85,0,0,1,2.6,1.08,5.62,5.62,0,0,1,1.82,2,6,6,0,0,1,.68,3,5.65,5.65,0,0,1-1.35,3.91,6.85,6.85,0,0,1-3.69,2l5.88,9.77h-4.73l-5.1-9.33h-2.86v9.33H435.4Zm7.12,9.48a11.87,11.87,0,0,0,1.68-.12,4.77,4.77,0,0,0,1.51-.47,2.73,2.73,0,0,0,1.54-2.61,2.53,2.53,0,0,0-.4-1.48,3,3,0,0,0-1-.91,4.24,4.24,0,0,0-1.42-.47,10.22,10.22,0,0,0-1.54-.13h-3.54v6.19Z"/><path class="cls-37" d="M461.25,342.42h3.39l9.49,22h-4.48l-2.06-5H458l-2,5h-4.38Zm5,13.62-3.39-9-3.45,9Z"/><path class="cls-38" d="M486.91,347a4.74,4.74,0,0,0-1.76-1.35,5.3,5.3,0,0,0-2.28-.55,5.78,5.78,0,0,0-1.37.17,4.66,4.66,0,0,0-1.25.53,2.82,2.82,0,0,0-.91.94,2.53,2.53,0,0,0-.36,1.38,2.48,2.48,0,0,0,.31,1.28,2.91,2.91,0,0,0,.85.9,6.1,6.1,0,0,0,1.33.65c.51.19,1.08.37,1.71.56s1.43.49,2.19.78a8.26,8.26,0,0,1,2.08,1.15,5.78,5.78,0,0,1,1.56,1.8,5.57,5.57,0,0,1,.61,2.71,6.9,6.9,0,0,1-.66,3.1,6.27,6.27,0,0,1-1.74,2.19,7.5,7.5,0,0,1-2.55,1.3,10.77,10.77,0,0,1-3.08.44,11.54,11.54,0,0,1-4.2-.79,8.08,8.08,0,0,1-3.36-2.35l2.8-2.61A5.73,5.73,0,0,0,479,361a6.19,6.19,0,0,0,2.66.65,5.64,5.64,0,0,0,1.4-.17,3.58,3.58,0,0,0,1.29-.57,3.16,3.16,0,0,0,.94-1,3,3,0,0,0,.35-1.5,2.46,2.46,0,0,0-.4-1.45,3.64,3.64,0,0,0-1.09-1,7.88,7.88,0,0,0-1.62-.73l-2-.65a21.14,21.14,0,0,1-2-.75,6.6,6.6,0,0,1-1.79-1.15,5.77,5.77,0,0,1-1.29-1.75,6.09,6.09,0,0,1-.49-2.6,5.69,5.69,0,0,1,.7-2.9,6.15,6.15,0,0,1,1.83-2,8.22,8.22,0,0,1,2.58-1.18,11.31,11.31,0,0,1,2.94-.39,10.59,10.59,0,0,1,3.41.59,8.23,8.23,0,0,1,3,1.77Z"/></svg>