<?xml version="1.0" encoding="utf-8"?>
<!-- Generator: Adobe Illustrator 24.0.0, SVG Export Plug-In . SVG Version: 6.00 Build 0)  -->
<svg version="1.1" xmlns="http://www.w3.org/2000/svg" xmlns:xlink="http://www.w3.org/1999/xlink" x="0px" y="0px"
	 viewBox="0 0 512 512" style="enable-background:new 0 0 512 512;" xml:space="preserve">
<style type="text/css">
	.st0{fill:#263238;}
	.st1{fill:#848484;}
	.st2{opacity:0.6;}
	.st3{fill:#FFFFFF;}
	.st4{opacity:0.3;}
	.st5{fill:#455A64;}
	.st6{fill:#6993F6;}
	.st7{fill:#FFB000;}
	.st8{opacity:0.2;}
	.st9{fill:#FAFAFA;}
	.st10{fill:#A36957;}
	.st11{fill:#7C3B29;}
	.st12{fill:#EA81DB;}
	.st13{fill:#B77153;}
	.st14{fill:#995037;}
	.st15{fill:none;stroke:#4E585D;stroke-width:1.5925;stroke-miterlimit:10;}
	.st16{fill:#FBFBFB;}
	.st17{fill:#FFBE9D;}
	.st18{opacity:0.6;fill:#FFFFFF;enable-background:new    ;}
	.st19{fill:#E0E0E0;}
	.st20{fill:#EB996E;}
	.st21{fill:#D1734A;}
	.st22{fill:#F7B73E;}
	.st23{fill:#FFAD9D;}
	.st24{fill:#E88774;}
	.st25{fill:#EF67D6;}
	.st26{fill:#A2CE63;}
	.st27{fill:#EAA98C;}
	.st28{fill:none;stroke:#4E585D;stroke-width:1.9822;stroke-miterlimit:10;}
	.st29{clip-path:url(#SVGID_2_);}
	.st30{fill:#3A2110;}
	.st31{fill:#231409;}
	.st32{opacity:0.4;}
	.st33{fill:#E8505B;}
	.st34{fill:#828282;}
	.st35{fill:none;stroke:#4E585D;stroke-width:1.348;stroke-miterlimit:10;}
	.st36{fill:#0C45A8;}
	.st37{clip-path:url(#SVGID_4_);}
	.st38{fill:#B78876;}
	.st39{fill:#AA6550;}
	.st40{fill:#183D72;}
	.st41{fill:none;stroke:#4E585D;stroke-width:2.5071;stroke-miterlimit:10;}
</style>
<g id="Layer_2">
</g>
<g id="Layer_3">
</g>
<g id="Layer_4">
</g>
<g id="Layer_5">
</g>
<g id="Layer_6">
	<g>
		<g>
			<defs>
				<rect id="SVGID_1_" x="-40" y="103.56" width="568.39" height="269.65"/>
			</defs>
			<clipPath id="SVGID_2_">
				<use xlink:href="#SVGID_1_"  style="overflow:visible;"/>
			</clipPath>
			<g class="st29">
				<g>
					<g>
						<path class="st27" d="M476.89,292.43c-2.95-3.37-17.59,8.23-18.9,9.12c-1.27,0.86-2.64-0.97-1.42-1.71
							c1.76-1.06,20.02-12.7,17.15-16.04c-1.59-1.85-4.65,1.31-4.65,1.31s-16.28,12.15-17.57,10.52c-1.32-1.65,8-9.1,11.32-11.39
							c3.28-2.26,3.54-4.74,1.33-5.36c-1.51-0.42-11.84,6.35-15.07,8.7c-3.23,2.34-11.97,8.92-10.3,2.17
							c1.67-6.75,0.41-12.57-1.03-13.91c-1.44-1.34-3.82,0.17-3.41,2.3c0.33,1.72-0.01,4.74-0.36,7.01c-0.29,1.89-0.9,3.72-1.81,5.4
							c-1.03,1.91-1.98,3.49-2.82,4.81c-8.52,4.64-35.25,18.04-60.51,20.41c-6.04,0.57-11.8-0.52-17.13-5.74l-13.39-15.96
							l-25.87,19.69c0,0,8.06,10.01,19.27,23.53c29.36,35.4,114.77-19.34,114.77-19.34l-0.05-0.09c7.68-3.02,16.14-6.52,20.53-8.97
							c9.04-5.04,8.6-5.86,7.84-6.81c-2.06-2.56-16.24,8.26-14.54,4.17C461.97,302.14,479.16,295.02,476.89,292.43z"/>
					</g>
				</g>
				<g>
					<g>
						<path class="st27" d="M107.24,405.09c-0.4-3.96,16.03-6.43,17.4-6.74c1.33-0.3,0.97-2.31-0.25-1.96
							c-1.76,0.5-20.41,5.3-20.84,1.41c-0.24-2.16,3.67-2.23,3.67-2.23s17.77-3.2,17.51-5.03c-0.27-1.86-10.77-0.33-14.27,0.44
							c-3.46,0.76-5.23-0.58-4.29-2.39c0.64-1.24,11.31-3.83,14.8-4.51c3.48-0.68,13.07-2.36,7.67-5.37
							c-5.4-3.01-8.42-7.36-8.41-9.11c0-1.74,2.43-2.38,3.56-0.82c0.92,1.25,3.09,2.87,4.77,4.02c1.4,0.96,2.96,1.67,4.6,2.1
							c1.86,0.49,3.47,0.83,4.84,1.09c8.19-2.72,37.16-15.53,54.03-30.51c4.03-3.58,8.35-50.51,8.35-50.51l0,0l32.8,5.7l-4.01,38.59
							c-0.66,41.33-86.9,61.59-86.9,61.59l-0.03-0.09c-6.62,3.16-14.04,6.52-18.29,7.89c-8.76,2.82-9.03,2.03-9.18,0.96
							c-0.41-2.89,15.23-5.54,11.54-6.92C122.61,401.29,107.55,408.13,107.24,405.09z"/>
					</g>
				</g>
				<g>
					<g>
						<path class="st26" d="M229.08,241.24c0,0-0.24,0.09-0.68,0.29c-3.67,1.66-21.42,10.96-30.59,39.5
							c-10.26,31.94-10.26,31.94-10.26,31.94l32.7-0.69"/>
					</g>
					<g>
						<g>
							<g>
								<path class="st26" d="M204.61,290.26c-0.89,4.71-1.92,9.47-1.66,14.16c0.41,7.66,4.3,14.82,9.5,20.46
									c0.04,0.04,0.09,0.09,0.13,0.13l10.15,54.54l83.38-11.62l-8.97-17.76l5.43-43.42l7.13,9.51l30.43-22.75l-8.61-17.25
									c-3.54-7.42-8.51-16.13-13.78-21.72c-7.43-7.88-17.49-12.74-28.2-14.4c-7.68-1.19-15.08-1.64-15.08-1.64l-33.02,2.56
									c-1.55,0.34,4.11-0.11-12.36,0.18L204.61,290.26"/>
							</g>
						</g>
						<g>
							<g>
								<g>
									<path class="st0" d="M216.29,330.75c-0.05,0.05-0.63-0.43-1.59-1.41c-0.96-0.97-2.27-2.47-3.69-4.47
										c-2.84-3.97-5.97-10.21-7.11-17.67c-1.15-7.46-0.03-14.35,1.49-18.99c0.75-2.33,1.55-4.16,2.18-5.37
										c0.63-1.22,1.04-1.85,1.1-1.82c0.18,0.08-1.26,2.75-2.56,7.4c-1.31,4.62-2.28,11.34-1.16,18.61
										c1.11,7.27,4.05,13.4,6.68,17.41C214.26,328.5,216.43,330.62,216.29,330.75z"/>
								</g>
							</g>
						</g>
						<g>
							<g>
								<g>
									<path class="st0" d="M279.58,329.45c0.01,0.07-0.52,0.25-1.5,0.47c-0.99,0.22-2.44,0.43-4.25,0.49
										c-3.61,0.15-8.75-0.5-13.77-2.96c-5.03-2.46-8.7-6.11-10.79-9.05c-1.06-1.47-1.79-2.75-2.23-3.66
										c-0.44-0.91-0.61-1.44-0.55-1.47c0.16-0.09,1.15,1.92,3.38,4.67c2.2,2.75,5.82,6.19,10.67,8.55
										c4.84,2.37,9.77,3.11,13.3,3.16C277.37,329.73,279.55,329.27,279.58,329.45z"/>
								</g>
							</g>
						</g>
						<g>
							<g>
								<g>
									<path class="st0" d="M299.44,243.06c0.01,0.12-1,0.17-2.72,0.71c-1.71,0.53-4.09,1.7-6.4,3.91
										c-2.3,2.2-4.49,5.46-5.62,9.52c-1.13,4.05-1.04,8.83,0.04,13.59c1.11,4.78,2.99,9.11,4.94,12.91
										c1.95,3.81,3.91,7.15,5.46,10.01c1.57,2.86,2.75,5.22,3.49,6.89c0.74,1.67,1.07,2.63,1.01,2.65
										c-0.08,0.03-0.53-0.87-1.38-2.47c-0.85-1.6-2.13-3.9-3.77-6.7c-1.64-2.81-3.66-6.11-5.68-9.93
										c-2.02-3.82-3.97-8.22-5.11-13.13c-1.12-4.9-1.19-9.86,0.05-14.1c1.24-4.23,3.59-7.59,6.05-9.8
										c2.48-2.22,5.01-3.33,6.8-3.75c0.9-0.2,1.61-0.32,2.09-0.32C299.18,243.02,299.43,243.02,299.44,243.06z"/>
								</g>
							</g>
						</g>
					</g>
					<g>
						<g>
							<g>
								<g>
									<path class="st26" d="M356.54,654.54c0,0-12.61,24.52-45.54,12.61c0,0-32.23,17.52-63.06-2.1c0,0-39.92,5.35-61.64-5.16
										l27.93-240.9l8.06-49.75l77.37-9.04c0,0,20.07,15.19,33.05,87.42c10.31,57.39,16.82,142.46,16.82,142.46L356.54,654.54z"/>
								</g>
							</g>
						</g>
					</g>
					<g>
						<g>
							<path class="st0" d="M297.26,353.45c0.03,0.01-0.04,0.29-0.21,0.82c-0.16,0.53-0.42,1.32-0.89,2.27
								c-0.89,1.92-2.59,4.56-5.39,7.16c-2.81,2.57-6.66,5.05-11.27,7.03c-4.6,2.02-9.92,3.5-15.55,4.7
								c-11.3,2.4-21.84,2.61-29.36,2.07c-3.77-0.25-6.79-0.7-8.87-1.02c-0.94-0.18-1.73-0.33-2.38-0.46
								c-0.54-0.12-0.83-0.19-0.82-0.22c0.01-0.07,1.17,0.05,3.26,0.31c2.09,0.21,5.11,0.55,8.86,0.71
								c7.48,0.36,17.92,0.04,29.12-2.33c5.59-1.2,10.87-2.63,15.4-4.58c4.56-1.9,8.36-4.27,11.17-6.72
								c2.79-2.48,4.53-4.99,5.51-6.82c0.52-0.91,0.83-1.66,1.05-2.17C297.09,353.71,297.23,353.44,297.26,353.45z"/>
						</g>
					</g>
					<g>
						<g>
							<path class="st9" d="M297.24,378.6c0.01-0.01,0.1,0.12,0.24,0.37c0.17,0.31,0.37,0.68,0.62,1.14
								c0.42,1.05,1.1,2.62,1.35,4.79c0.62,4.29-0.46,10.86-4.59,17.47c-2.05,3.32-4.9,6.48-8.05,9.74
								c-3.14,3.26-6.65,6.6-9.79,10.55c-3.17,3.93-5.61,8.69-7.5,13.84c-1.88,5.17-3.25,10.73-4.68,16.43
								c-1.44,5.69-2.93,11.27-5.1,16.42c-2.17,5.15-5.03,9.77-8.29,13.73c-3.26,3.96-6.86,7.29-10.54,9.97
								c-3.71,2.65-7.45,4.69-10.99,6.25c-7.16,3-13.46,3.91-17.75,4.1c-1.08,0.02-2.04,0.09-2.87,0.06
								c-0.81-0.05-1.5-0.09-2.1-0.13c-0.52-0.04-0.94-0.07-1.29-0.1c-0.29-0.03-0.44-0.05-0.43-0.07c0-0.02,0.15-0.03,0.44-0.03
								c0.35,0,0.77,0,1.29,0c0.59,0.01,1.28,0.02,2.09,0.04c0.83,0,1.78-0.1,2.85-0.15c4.26-0.3,10.47-1.3,17.5-4.35
								c3.48-1.58,7.15-3.63,10.79-6.27c3.61-2.67,7.14-5.98,10.33-9.89c3.19-3.91,5.98-8.47,8.1-13.53
								c2.12-5.08,3.59-10.61,5.03-16.3c1.43-5.69,2.81-11.28,4.72-16.51c1.92-5.22,4.43-10.09,7.69-14.07
								c3.21-4.01,6.76-7.33,9.91-10.56c3.15-3.22,6.01-6.33,8.04-9.55c4.12-6.45,5.29-12.85,4.79-17.06
								C298.61,380.67,297.09,378.65,297.24,378.6z"/>
						</g>
					</g>
					<g>
						<g>
							<path class="st9" d="M330.87,434.05c0.08,0.05-0.93,1.55-3.27,3.2c-2.3,1.65-6.09,3.32-10.51,3.32
								c-4.42-0.01-8.22-1.68-10.51-3.33c-2.34-1.66-3.34-3.15-3.26-3.2c0.12-0.12,1.29,1.19,3.64,2.64
								c2.31,1.45,5.95,2.94,10.14,2.94c4.19,0,7.83-1.48,10.14-2.93C329.58,435.24,330.75,433.93,330.87,434.05z"/>
						</g>
					</g>
					<g>
						<g>
							<path class="st0" d="M294.03,360.21c0,0,0.14,0.28,0.37,0.86c0.24,0.61,0.56,1.46,0.99,2.55c0.86,2.29,2.11,5.59,3.71,9.82
								c1.6,4.28,3.55,9.51,5.81,15.56c2.19,6.06,5.06,13,5.84,21.23c0.35,4.08,0.01,8.51-1.61,12.74
								c-1.55,4.24-4.04,8.21-6.42,12.34c-2.35,4.13-4.71,8.58-5.24,13.61c-0.7,5,0.29,10.22,1.7,15.37
								c1.41,5.17,3.35,10.36,4.71,15.88c0.65,2.76,1.22,5.6,1.3,8.52c0.13,1.46-0.03,2.93-0.12,4.4c-0.06,0.74-0.25,1.46-0.38,2.19
								c-0.13,0.73-0.27,1.47-0.53,2.17c-0.8,2.89-2.28,5.56-3.95,8.06c-1.67,2.51-3.66,4.81-5.71,7.05
								c-4.08,4.49-8.58,8.72-11.99,13.85c-1.68,2.57-3.05,5.31-3.84,8.22c-0.75,2.92-0.93,5.94-0.81,8.94
								c0.24,6,1.5,11.91,1.34,17.86c-0.3,11.99-7.32,22.8-16.74,28.28c-4.74,2.79-9.96,4.01-14.62,5.96
								c-4.69,1.83-8.91,4.77-10.95,9.07c-2.1,4.24-2.64,8.9-3.61,13.25c-1.03,4.35-2.42,8.47-4.37,12.08
								c-3.86,7.25-8.97,12.86-14.12,16.81c-5.14,4-10.24,6.49-14.55,8c-2.14,0.83-4.14,1.23-5.83,1.7
								c-1.73,0.29-3.2,0.58-4.39,0.71c-1.17,0.08-2.07,0.15-2.73,0.2c-0.61,0.04-0.93,0.03-0.93,0.03s0.31-0.06,0.92-0.13
								c0.65-0.07,1.55-0.17,2.71-0.29c1.18-0.17,2.64-0.48,4.35-0.8c1.68-0.49,3.66-0.92,5.77-1.77c4.25-1.56,9.28-4.08,14.34-8.07
								c5.07-3.95,10.09-9.53,13.85-16.7c1.91-3.58,3.25-7.63,4.25-11.93c0.95-4.31,1.46-9.02,3.62-13.45
								c1.09-2.19,2.68-4.2,4.68-5.76c1.98-1.59,4.28-2.75,6.66-3.74c4.74-2,9.91-3.23,14.49-5.95
								c9.15-5.35,15.98-15.91,16.25-27.54c0.15-5.81-1.1-11.69-1.35-17.8c-0.13-3.05,0.05-6.18,0.84-9.22
								c0.82-3.03,2.24-5.88,3.96-8.51c3.5-5.26,8.04-9.5,12.09-13.97c2.04-2.22,4-4.49,5.63-6.94c1.63-2.44,3.07-5.02,3.83-7.8
								c0.26-0.67,0.39-1.38,0.51-2.08c0.12-0.71,0.31-1.4,0.37-2.11c0.09-1.42,0.24-2.84,0.12-4.26c-0.07-2.84-0.62-5.62-1.26-8.35
								c-1.33-5.45-3.26-10.63-4.67-15.86c-1.41-5.2-2.42-10.54-1.68-15.71c0.56-5.21,3.01-9.77,5.38-13.9
								c2.41-4.15,4.88-8.07,6.41-12.2c1.59-4.11,1.94-8.41,1.63-12.43c-0.72-8.08-3.52-15.02-5.67-21.1
								c-2.2-6.08-4.1-11.32-5.65-15.62c-1.52-4.26-2.71-7.59-3.54-9.89c-0.38-1.1-0.68-1.96-0.9-2.58
								C294.11,360.51,294.03,360.21,294.03,360.21z"/>
						</g>
					</g>
					<g class="st8">
						<g>
							<path d="M190.27,657.43c9.16,2.61,18.5,5.25,28.02,4.95c9.52-0.3,19.42-4,24.91-11.78c5.69-8.07,6.1-19.54,13.47-26.11
								c5.2-4.63,12.56-5.63,19.21-7.71c20.32-6.38,36.02-25.48,38.34-46.64c1.93-17.61-4.53-36.26,2.04-52.71
								c3.5-8.77,10.48-16.07,12.57-25.28c3.41-15.02-6.98-29.35-16.75-41.25c-2.5-3.05-12.68-10.12-12.68-10.12
								s-3.37,11.17-3.08,15.97c0.79,13.01,10.69,25.66,7.96,38.41c-3.07,14.29-20.31,23.45-24.85,37.35
								c-4.85,14.84,4.2,32.89-8.89,49.86c-6.56,8.5-25.28,11.01-32.15,19.26c-4.47,5.36-5.24,16.37-7.43,23
								c-6.75,20.5-18.08,27.46-39.07,32.47"/>
						</g>
					</g>
					<g>
						<g>
							<path class="st9" d="M296.27,295.97c0.03,0.01-0.06,0.36-0.26,1.03c-0.11,0.37-0.24,0.78-0.39,1.24
								c-0.21,0.49-0.44,1.03-0.7,1.63c-1.13,2.39-3.12,5.83-6.74,9c-3.52,3.22-8.69,6.17-14.99,7.2c-3.14,0.49-6.55,0.45-9.92-0.27
								c-3.39-0.69-6.75-1.91-10.08-3.35c-6.64-2.92-12.72-6.2-18.75-7.74c-2.99-0.78-5.93-1.17-8.67-1.04
								c-2.74,0.08-5.23,0.79-7.35,1.75c-4.27,1.95-6.81,5.02-7.95,7.35c-1.11,2.38-1.12,3.9-1.25,3.87c0,0-0.13-1.53,0.91-4.03
								c1.06-2.44,3.61-5.71,8-7.8c2.17-1.03,4.76-1.81,7.6-1.93c2.83-0.16,5.86,0.21,8.93,0.98c6.17,1.53,12.33,4.83,18.9,7.72
								c3.3,1.43,6.6,2.63,9.89,3.31c3.29,0.71,6.56,0.77,9.6,0.32c6.11-0.94,11.18-3.75,14.68-6.83c3.59-3.04,5.64-6.34,6.85-8.65
								c0.28-0.58,0.54-1.1,0.77-1.57c0.18-0.45,0.33-0.84,0.47-1.19C296.09,296.3,296.24,295.96,296.27,295.97z"/>
						</g>
					</g>
					<g>
						<g>
							<path class="st9" d="M295.69,352.52c-0.07,0.09-0.94-0.72-2.82-1.59c-0.94-0.43-2.16-0.82-3.6-1.08
								c-1.45-0.22-3.13-0.29-4.98-0.11c-3.69,0.36-7.98,1.74-12.25,4.19c-4.32,2.39-8.76,5.65-14.05,8.06
								c-5.29,2.48-11.1,3.03-16.05,2.19c-4.99-0.77-9.23-2.45-12.65-4c-3.43-1.57-6.09-3.07-7.92-4.11
								c-0.91-0.52-1.61-0.95-2.08-1.24c-0.47-0.29-0.71-0.46-0.69-0.49c0.03-0.06,1.08,0.46,2.95,1.4
								c1.88,0.94,4.58,2.34,8.02,3.82c3.43,1.47,7.64,3.05,12.51,3.75c4.85,0.76,10.38,0.22,15.53-2.19
								c5.17-2.35,9.62-5.58,14.02-7.96c4.37-2.46,8.81-3.81,12.62-4.1c1.9-0.15,3.64-0.03,5.13,0.25c1.49,0.32,2.72,0.77,3.67,1.27
								c0.94,0.5,1.63,0.96,2.04,1.34C295.5,352.29,295.71,352.49,295.69,352.52z"/>
						</g>
					</g>
					<g>
						<g>
							<path class="st9" d="M318.57,255.16c0.06,0,0.14,0.67,0.13,1.88c0,1.21-0.16,2.98-0.65,5.1c-0.93,4.22-3.56,9.99-8.67,14.4
								c-5.12,4.4-11.22,6.15-15.53,6.45c-2.17,0.17-3.94,0.06-5.14-0.11c-1.2-0.17-1.85-0.35-1.84-0.41
								c0.02-0.19,2.67,0.34,6.91-0.15c4.19-0.46,10.04-2.26,14.97-6.5c4.92-4.25,7.56-9.77,8.64-13.84
								C318.52,257.86,318.38,255.15,318.57,255.16z"/>
						</g>
					</g>
					<g>
						<g>
							<path class="st9" d="M268.15,265.95c0.03,0.02-0.08,0.25-0.32,0.68c-0.26,0.42-0.55,1.09-1.12,1.84
								c-1.02,1.56-2.83,3.64-5.48,5.7c-2.64,2.07-6.28,3.94-10.6,5.05c-2.17,0.51-4.51,0.8-6.94,0.78
								c-2.43-0.01-4.94-0.46-7.41-1.2c-4.92-1.58-9.06-4.2-12.93-6.21c-3.84-2.08-7.52-3.48-10.76-4
								c-3.23-0.55-5.92-0.25-7.67,0.25c-1.76,0.5-2.66,1.04-2.7,0.95c-0.02-0.03,0.2-0.17,0.62-0.43c0.42-0.26,1.08-0.58,1.97-0.88
								c1.77-0.63,4.55-1.05,7.89-0.57c3.34,0.44,7.17,1.83,11.07,3.88c3.93,1.98,8.05,4.56,12.81,6.08
								c4.75,1.53,9.65,1.42,13.85,0.47c4.2-1.03,7.77-2.78,10.4-4.73C266.16,269.71,267.94,265.77,268.15,265.95z"/>
						</g>
					</g>
					<g>
						<g>
							<path class="st0" d="M292.5,360.38c-0.03,0.05-0.63-0.15-1.68-0.62c-1.05-0.48-2.54-1.22-4.31-2.28
								c-1.77-1.06-3.82-2.42-5.95-4.13c-1.07-0.87-2.14-1.76-3.25-2.84c-0.52-0.55-1.12-1.37-0.96-2.39
								c0.14-1.04,1.1-1.69,1.9-1.91c0.83-0.25,1.7-0.28,2.49-0.15c0.79,0.1,1.54,0.28,2.27,0.49c1.45,0.46,2.77,1.14,3.93,1.92
								c2.32,1.57,3.91,3.58,4.93,5.41c1.02,1.83,1.43,3.51,1.57,4.66c0.15,1.15,0.09,1.8,0.04,1.8c-0.23,0.05-0.11-2.64-2.2-6.12
								c-1.04-1.7-2.62-3.57-4.83-5.01c-1.1-0.71-2.35-1.33-3.71-1.75c-1.36-0.36-2.88-0.74-4.21-0.33c-0.67,0.2-1.17,0.6-1.24,1.14
								c-0.11,0.53,0.24,1.11,0.71,1.6c0.99,0.99,2.1,1.94,3.12,2.79c2.07,1.72,4.05,3.12,5.75,4.24
								C290.28,359.13,292.56,360.24,292.5,360.38z"/>
						</g>
					</g>
					<g>
						<g>
							<path class="st0" d="M293.09,362.07c-0.06,0.01-0.27-0.59-0.53-1.72c-0.26-1.12-0.58-2.76-0.82-4.82
								c-0.23-2.05-0.39-4.51-0.31-7.25c0.04-1.37,0.13-2.8,0.29-4.28c0.09-0.75,0.22-1.54,0.56-2.32c0.32-0.77,0.94-1.52,1.77-1.91
								c0.8-0.41,1.93-0.42,2.69,0.19c0.76,0.6,1.06,1.46,1.23,2.21c0.27,1.55,0.29,2.97,0.23,4.36c-0.13,2.77-0.75,5.2-1.48,7.15
								c-0.74,1.95-1.6,3.41-2.24,4.36c-0.65,0.96-1.1,1.42-1.14,1.39c-0.16-0.1,1.44-2.13,2.74-5.98c0.63-1.92,1.17-4.29,1.24-6.96
								c0.03-1.31-0.01-2.77-0.27-4.12c-0.15-0.66-0.42-1.31-0.89-1.66c-0.46-0.36-1.11-0.37-1.7-0.08
								c-1.24,0.57-1.65,2.07-1.8,3.47c-0.17,1.45-0.28,2.86-0.34,4.2c-0.12,2.69-0.04,5.12,0.1,7.15
								C292.73,359.54,293.25,362.03,293.09,362.07z"/>
						</g>
					</g>
					<g class="st8">
						<g>
							<path d="M248.34,313.21c-0.21,5.16-0.41,10.42,0.9,15.42c1.31,5,4.38,9.8,9.08,11.93c3.62,1.64,8.01,1.5,11.52-0.36
								c3.51-1.87,6.08-5.42,6.75-9.34c-11.06,1.75-22.92-3.8-28.67-13.42"/>
						</g>
					</g>
					<g>
						<g>
							<g>
								<g>
									<path class="st30" d="M232.95,146c-3.8-3.99-10.52-4.29-15.23-1.44c-4.72,2.85-7.49,8.26-8.18,13.73
										c-0.43,3.42-0.17,7.09-1.87,10.09c-1.83,3.23-5.51,4.92-8.02,7.66c-3.75,4.08-4.49,10.63-1.75,15.45
										c1.49,2.62,3.99,5.22,3.28,8.15c-0.75,3.11-4.53,4.23-6.76,6.52c-3.31,3.41-2.79,8.89-1.81,13.54
										c0.44,2.09,1.1,4.42,2.99,5.42c1.51,0.8,3.33,0.5,5.02,0.26c10.64-1.48,21.41,0.76,32.14,1.34
										c10.73,0.58,22.42-0.88,30.23-8.26"/>
								</g>
							</g>
							<g>
								<g>
									<g>
										<g>
											<g>
												<path class="st27" d="M272.57,166.57l1.03,86.41c-0.21,10.65-8.9,19.18-19.56,19.18l0,0c-10.8,0-19.56-8.76-19.56-19.56
													V225c0,0-13.77-2.29-16.63-20.26c-1.42-8.94-0.97-23.59-0.22-35.57c0.68-10.78,7.74-24.33,22.1-24.29
													C239.74,144.88,271.08,142.6,272.57,166.57z"/>
											</g>
										</g>
									</g>
									<g>
										<g>
											<g>
												<g>
													<g>
														<g>
															<path class="st0" d="M223.08,181.13c-0.04,1.22,0.95,2.26,2.22,2.33c1.27,0.07,2.33-0.86,2.38-2.08
																c0.04-1.22-0.95-2.26-2.22-2.33C224.19,178.98,223.12,179.91,223.08,181.13z"/>
														</g>
													</g>
												</g>
											</g>
										</g>
										<g>
											<g>
												<g>
													<g>
														<g>
															<g>
																<path class="st0" d="M220.29,179.04c0.29,0.3,2.03-0.99,4.51-0.99c2.48-0.03,4.3,1.25,4.57,0.94
																	c0.13-0.13-0.16-0.68-0.95-1.25c-0.78-0.57-2.11-1.13-3.66-1.13c-1.54,0.01-2.84,0.58-3.59,1.16
																	C220.41,178.36,220.15,178.91,220.29,179.04z"/>
															</g>
														</g>
													</g>
												</g>
											</g>
										</g>
									</g>
									<g>
										<g>
											<g>
												<g>
													<g>
														<g>
															<path class="st0" d="M247.07,181.13c-0.04,1.22,0.95,2.26,2.22,2.33c1.27,0.07,2.33-0.86,2.38-2.08
																c0.04-1.22-0.95-2.26-2.22-2.33C248.17,178.98,247.11,179.91,247.07,181.13z"/>
														</g>
													</g>
												</g>
											</g>
										</g>
										<g>
											<g>
												<g>
													<g>
														<g>
															<g>
																<path class="st0" d="M244.68,179.04c0.29,0.3,2.03-0.99,4.51-0.98c2.48-0.03,4.3,1.25,4.57,0.94
																	c0.13-0.13-0.16-0.68-0.95-1.25c-0.78-0.57-2.11-1.13-3.66-1.13c-1.54,0.01-2.84,0.58-3.59,1.16
																	C244.8,178.36,244.54,178.91,244.68,179.04z"/>
															</g>
														</g>
													</g>
												</g>
											</g>
										</g>
									</g>
									<g>
										<g>
											<g>
												<g>
													<g>
														<g>
															<path class="st0" d="M236.19,197.69c0.01-0.14-1.53-0.41-4.03-0.73c-0.63-0.07-1.23-0.19-1.34-0.62
																c-0.15-0.46,0.12-1.14,0.42-1.88c0.6-1.53,1.22-3.14,1.87-4.82c2.6-6.87,4.48-12.51,4.21-12.61
																c-0.28-0.1-2.61,5.38-5.21,12.25c-0.63,1.69-1.22,3.31-1.79,4.85c-0.24,0.72-0.65,1.54-0.33,2.49
																c0.17,0.47,0.64,0.82,1.04,0.93c0.41,0.12,0.76,0.13,1.08,0.15C234.62,197.82,236.18,197.83,236.19,197.69z"/>
														</g>
													</g>
												</g>
											</g>
										</g>
									</g>
									<g>
										<g>
											<g>
												<g>
													<g>
														<path class="st20" d="M234.48,225c0,0,12.09,0.78,24.07-6.42c0,0-5.84,12.35-23.83,10.66L234.48,225z"/>
													</g>
												</g>
											</g>
										</g>
									</g>
									<g>
										<g>
											<path class="st20" d="M237.26,206.21c-0.46-0.74-0.43-1.76,0.09-2.46c0.52-0.7,1.48-1.04,2.32-0.81
												c-0.12-0.85,0.51-1.7,1.32-1.98c0.81-0.28,1.74-0.06,2.44,0.43c1.36,0.95,1.88,2.9,1.25,4.44
												c-0.63,1.54-2.31,2.55-3.97,2.47s-3.2-1.19-3.88-2.71"/>
										</g>
									</g>
									<g>
										<g>
											<g>
												<g>
													<g>
														<g>
															<path class="st0" d="M243.49,199.41c-0.4-0.02-0.41,2.67-2.71,4.58c-2.3,1.92-5.17,1.61-5.19,1.99
																c-0.04,0.17,0.64,0.52,1.85,0.56c1.19,0.04,2.92-0.34,4.33-1.51c1.41-1.17,2.01-2.74,2.1-3.84
																C243.98,200.06,243.68,199.39,243.49,199.41z"/>
														</g>
													</g>
												</g>
											</g>
										</g>
									</g>
									<g>
										<g>
											<g>
												<g>
													<g>
														<path class="st0" d="M242.51,174.7c0.24,0.67,2.72,0.35,5.63,0.71c2.92,0.29,5.26,1.14,5.65,0.54
															c0.17-0.29-0.24-0.92-1.19-1.58c-0.94-0.65-2.44-1.27-4.19-1.47c-1.75-0.19-3.35,0.09-4.41,0.52
															C242.94,173.85,242.41,174.38,242.51,174.7z"/>
													</g>
												</g>
											</g>
										</g>
									</g>
									<g>
										<g>
											<g>
												<g>
													<g>
														<path class="st0" d="M220.64,174.25c0.44,0.56,2.14-0.02,4.2-0.05c2.05-0.1,3.79,0.38,4.19-0.21
															c0.18-0.29-0.1-0.85-0.86-1.38c-0.75-0.53-2-0.97-3.41-0.92c-1.41,0.04-2.63,0.56-3.35,1.13
															C220.68,173.4,220.44,173.98,220.64,174.25z"/>
													</g>
												</g>
											</g>
										</g>
									</g>
								</g>
							</g>
							<g>
								<g>
									<path class="st30" d="M259.72,199.4c-0.13,2.37-0.15,4.45-0.1,6.25c0.16,5.73,3.29,11.01,8.33,13.74
										c3.91,2.12,8.01,3.72,12.42,3.93c4.76,0.22,9.42-1.23,13.92-2.78c7.69-2.66,15.26-5.67,22.67-9.03
										c1.09-0.5,2.27-1.08,2.8-2.15c0.58-1.19,0.21-2.6-0.18-3.86c-1.04-3.43-2.08-6.85-3.12-10.28c-0.6-1.96-1.2-3.95-2.28-5.7
										c-1.08-1.75-2.71-3.25-4.7-3.73c-1.63-0.4-3.39-0.1-4.97-0.67c-1.7-0.62-2.91-2.18-3.61-3.85
										c-0.7-1.67-0.96-3.48-1.36-5.25c-0.86-3.8-2.65-7.8-6.2-9.42c-2.01-0.92-4.33-0.94-6.38-1.77
										c-2.89-1.17-4.91-3.82-6.38-6.57c-1.47-2.75-2.54-5.72-4.3-8.29c-1.32-1.93-3.14-3.67-5.28-4.5
										c-1.11-1.02-2.32-1.93-3.68-2.68c-5.95-3.28-13.13-3.07-19.92-2.77c-6.57,0.29-21.62-5.95-22.57,11.45
										c1.97-2.23,6.67-2.93,8.79,0.76c1.48,2.58,1.97,4.55,1.47,7.47c-0.5,2.93-0.87,6.16,0.71,8.67
										c1.62,2.58,4.95,3.67,7.98,3.44c3.04-0.22,5.88-1.52,8.64-2.8c0,0,2.2,11.39,9.78,14.15L259.72,199.4z"/>
								</g>
							</g>
							<g>
								<g>
									<g>
										<path class="st0" d="M251.91,188.04c-0.11,0.27-0.41,0.41-0.68,0.3c-0.27-0.11-0.39-0.41-0.28-0.69
											c0.11-0.27,0.41-0.41,0.68-0.3C251.89,187.46,252.02,187.77,251.91,188.04z"/>
									</g>
								</g>
							</g>
						</g>
						<g>
							<path class="st30" d="M268.18,146.83c-1.96-3.76-1.37-8.64,1.25-11.97c2.62-3.33,7.09-5.03,11.3-4.52
								c2.29,0.28,4.6,1.24,6,3.07c1.8,2.34,1.81,5.66,0.83,8.45c-1.55,4.4-5.64,7.97-10.29,8.31c-4.65,0.34-9.47-2.98-10.27-7.58"
								/>
						</g>
						<g>
							<g>
								<path class="st26" d="M277.4,152.71c-0.28,0.07-0.73-3.49-3.59-6.58c-2.79-3.15-6.29-3.94-6.19-4.22
									c0.02-0.11,0.92-0.09,2.28,0.4c1.36,0.48,3.13,1.53,4.62,3.17c1.49,1.65,2.35,3.52,2.7,4.91
									C277.58,151.8,277.52,152.7,277.4,152.71z"/>
							</g>
						</g>
						<g>
							<g>
								<path class="st31" d="M276.43,148.71c0.03-0.01,0.09,0.23,0.18,0.68c0.07,0.45,0.13,1.13,0.09,2
									c-0.1,1.72-0.72,4.31-2.65,6.82c-3.63,5.23-13.49,8.38-22.45,4.49c-2.19-1.03-4.06-2.75-5.06-4.86
									c-1.01-2.08-1.37-4.22-1.98-6.12c-1.1-3.84-3.85-6.47-6.46-7.9c-2.64-1.46-5.14-1.81-6.82-1.82c-1.69,0-2.62,0.24-2.64,0.15
									c-0.01-0.03,0.22-0.11,0.66-0.22c0.44-0.13,1.11-0.23,1.98-0.3c1.72-0.1,4.34,0.15,7.15,1.6c2.76,1.4,5.77,4.18,6.98,8.23
									c0.65,1.96,1.04,4.07,1.98,5.97c0.92,1.9,2.59,3.44,4.64,4.41c2.04,0.99,4.27,1.44,6.42,1.6c2.16,0.15,4.26,0.01,6.2-0.41
									c3.89-0.83,7.04-2.86,8.88-5.23c1.9-2.34,2.6-4.78,2.81-6.44C276.52,149.67,276.34,148.72,276.43,148.71z"/>
							</g>
						</g>
					</g>
				</g>
			</g>
			<g class="st29">
				<g>
					<g>
						<path class="st19" d="M389.26,163.85c-14.54,3.25-14.63,23.55-11.65,34.59c1.41,5.24,4.06,10.73,2.19,15.82
							c-1.32,3.61-4.72,6.24-5.7,9.95c-1.18,4.52,1.53,9.01,3.69,13.15c2.16,4.14-4.83,30.82-7.8,34.42
							c8.7,0.69,29.07-1.02,37.73-2.1c8.66-1.08,14.28-22.94,20.77-28.77"/>
					</g>
				</g>
				<g>
					<g>
						<g>
							<g>
								<path class="st17" d="M350.31,299.31l-10.08,27.14l-7.63-61.3c-0.34-5.7,1.37-9.73,2.24-11.36c0.82-1.53,1.58-3.09,2.73-4.4
									c1.39-1.59,3.32-3.62,4.71-4.42c1.72-0.98,1.41-3.53-0.35-3.72c-1.76-0.19-6.57,2.4-10.36,7.57
									c-3.78,5.17-4.18-4.78-4.39-8.41c-0.21-3.62-1.39-14.79-2.55-15.58c-1.7-1.16-3.3,0.5-3,4.11c0.3,3.66,0.42,14.53-1.5,14.59
									c-1.88,0.07-2.71-18.4-2.71-18.4s0.46-3.99-1.75-3.99c-3.99,0.01-1.68,19.54-1.41,21.39c0.19,1.29-1.89,1.44-2.02,0.04
									c-0.13-1.44-0.39-18.45-4.45-18.48c-3.12-0.02,1.75,16.09-0.14,19.7c-1.9,3.61-2.45-12.63-5.43-12.53
									c-1.11,0.04-1.94,0.22-0.28,9.46c0.89,4.97,4.17,12.12,5.17,21.82l0.27,2.51c0.18,12.08,1.61,57.63,12.59,85.34
									c6.64,16.74,29.54,19,39.5,4c6.76-10.18,14.93-24.45,21.46-41.81L350.31,299.31z"/>
							</g>
							<g>
								<path class="st25" d="M334.67,266.82l4.72,54.35l26.11-56.67l15.43,49.54c-6.53,17.37-14.69,31.63-21.46,41.81
									c-9.96,15-34.38,15.84-41.02-0.9c-10.98-27.71-10.89-76.36-11.08-88.44l-0.27-2.51L334.67,266.82z"/>
							</g>
							<g>
								<g>
									<path class="st20" d="M313.05,257.5c0,0.09,0.63,0.08,1.59,0.42c0.94,0.33,2.26,1.09,3.07,2.54l0.38,0.68l0.22-0.75
										c0.28-0.98,0.78-2,1.47-2.95c1.49-2.03,3.54-3.24,5.1-3.75c1.57-0.56,2.64-0.53,2.63-0.66c0.01-0.06-1.08-0.28-2.78,0.19
										c-1.68,0.42-3.92,1.63-5.52,3.81c-0.75,1.01-1.26,2.13-1.54,3.19l0.59-0.07c-0.97-1.61-2.48-2.36-3.52-2.6
										C313.68,257.28,313.04,257.44,313.05,257.5z"/>
								</g>
							</g>
						</g>
					</g>
					<g>
						<g>
							<g>
								<path class="st17" d="M497.64,455.95c0.4,1.35,0.83,2.95,1.25,4.86c0.36,1.64,0.42,3.32,0.21,4.99
									c-0.25,2.02-0.7,4.68-1.39,6.06c-0.86,1.71,0.81,3.58,2.36,2.79c1.55-0.79,4.04-5.45,4.26-11.62
									c0.22-6.17,6.08,1.58,8.26,4.36c2.19,2.78,9.35,11.08,10.74,11.08c2.04,0.01,2.42-2.17,0.17-4.9
									c-2.28-2.76-8.41-11.39-6.89-12.47c1.5-1.07,12.44,13.25,12.44,13.25s1.84,3.44,3.65,2.25c3.25-2.15-9.49-16.52-10.74-17.86
									c-0.87-0.93,0.75-2.17,1.63-1.12c0.9,1.08,10.58,14.54,13.91,12.38c2.56-1.66-10.38-11.91-10.83-15.82
									c-0.46-3.91,9.02,8.78,11.4,7.09c0.89-0.63,1.46-1.22-5.03-7.72c-3.15-3.15-15.27-12.71-15.27-12.71l-24.59-85.88h-32.28
									L497.64,455.95z"/>
							</g>
						</g>
						<g>
							<g>
								<g>
									<path class="st25" d="M516.5,436.45c-5.9-19.6-28.8-130.22-33.78-148.77c-7.21-26.86-49.63-36.99-49.63-36.99l-38.01-1.82
										c0,0-1.92-0.47-5.27-0.31c-17.41,0.87-29.96,17.14-27.3,34.36l-1.48,9.09c-3.91,23.93-2.74,48.41,3.43,71.86l2.8,11.57
										h83.92c0,0,3.26-13.08,2.86-20.49c-0.4-7.41-4.09-26.82-4.09-26.82l41.89,116.25L516.5,436.45z"/>
								</g>
							</g>
						</g>
						<g>
							<g>
								<path class="st0" d="M442.66,255.86c0,0,1.31,1.6,2.69,5.02c1.33,3.37,2.85,8.79,1.51,15.36c-0.64,3.25-2.22,6.69-4.84,9.62
									c-2.6,2.92-6.25,5.36-10.59,6.36c-2.16,0.5-4.49,0.58-6.78,0.13c-2.3-0.45-4.51-1.49-6.42-2.97
									c-3.82-2.92-6.58-7.75-6.41-12.98c0.06-0.56,0.12-1.12,0.19-1.67c0.13-0.54,0.27-1.07,0.39-1.57l0.93,0.18
									c-0.21,2.51-1.24,4.87-2.74,6.77c-1.53,1.88-3.48,3.33-5.59,4.31c-2.11,0.99-4.42,1.44-6.66,1.37
									c-2.25-0.08-4.4-0.74-6.28-1.75c-3.77-2.04-6.37-5.4-7.85-8.83c-1.5-3.45-1.76-7.08-1.28-10.2
									c1.04-6.33,4.42-10.55,6.85-12.97c2.51-2.45,4.27-3.31,4.27-3.31c0.07,0.09-1.62,1.06-4.01,3.56
									c-2.32,2.46-5.54,6.67-6.45,12.81c-0.42,3.03-0.13,6.48,1.34,9.79c1.45,3.27,3.97,6.46,7.54,8.37
									c1.78,0.94,3.8,1.55,5.89,1.61c2.09,0.05,4.26-0.37,6.24-1.31c1.98-0.93,3.81-2.3,5.24-4.06c1.4-1.77,2.33-3.95,2.53-6.24
									l0.93,0.18c-0.12,0.47-0.24,0.96-0.36,1.45c-0.06,0.51-0.11,1.03-0.17,1.55c-0.16,4.84,2.42,9.43,6.03,12.19
									c1.8,1.4,3.88,2.39,6.02,2.82c2.15,0.43,4.35,0.37,6.41-0.09c4.13-0.93,7.67-3.24,10.19-6.03c2.54-2.8,4.1-6.08,4.76-9.23
									c1.39-6.36,0.01-11.71-1.19-15.08C443.74,257.59,442.55,255.91,442.66,255.86z"/>
							</g>
						</g>
						<g>
							<g>
								<path class="st5" d="M439,400.77c0.19-0.02,0.26,2.9,1.62,7.32c1.33,4.39,4.24,10.29,9.39,15.1
									c5.16,4.81,11.24,7.32,15.71,8.34c4.51,1.06,7.42,0.93,7.42,1.12c0,0.06-0.72,0.14-2.03,0.14c-1.31,0-3.22-0.14-5.53-0.59
									c-4.6-0.87-10.91-3.34-16.22-8.3c-5.31-4.96-8.21-11.09-9.39-15.61c-0.61-2.27-0.88-4.17-0.97-5.47
									C438.91,401.5,438.95,400.78,439,400.77z"/>
							</g>
						</g>
						<g>
							<g>
								<path class="st5" d="M355.11,433.87c-0.06-0.17,1.85-0.84,4.62-2.48c1.39-0.81,2.95-1.93,4.58-3.29
									c1.6-1.4,3.24-3.07,4.74-5c1.48-1.95,2.68-3.97,3.62-5.87c0.9-1.92,1.59-3.72,2.01-5.27c0.88-3.1,1.04-5.12,1.21-5.1
									c0.07,0,0.07,0.51,0.03,1.43c-0.03,0.92-0.22,2.24-0.58,3.85c-0.35,1.61-0.98,3.48-1.87,5.48
									c-0.93,1.98-2.13,4.07-3.66,6.08c-1.55,1.99-3.26,3.69-4.94,5.09c-1.7,1.37-3.35,2.46-4.81,3.21
									c-1.46,0.76-2.69,1.29-3.57,1.55C355.62,433.8,355.13,433.93,355.11,433.87z"/>
							</g>
						</g>
						<g>
							<g>
								<path class="st5" d="M425.5,406.53c0,0,0.08,0.3,0.18,0.91c0.11,0.64,0.25,1.53,0.44,2.67c0.37,2.4,0.91,5.86,1.6,10.29
									c1.38,8.94,3.37,21.87,5.98,37.83c5.14,31.93,12.69,75.97,21.91,124.44c4.65,24.24,9.27,47.29,13.66,68.21
									c4.45,20.91,8.56,39.72,12.27,55.46c0.92,3.94,1.79,7.68,2.62,11.23c0.86,3.54,1.68,6.87,2.44,9.99
									c1.52,6.24,2.81,11.62,3.96,15.99c1.1,4.35,1.96,7.74,2.55,10.09c0.27,1.13,0.49,2,0.64,2.63c0.14,0.59,0.19,0.91,0.19,0.91
									s-0.11-0.29-0.28-0.88c-0.18-0.63-0.42-1.49-0.73-2.61c-0.64-2.34-1.55-5.72-2.73-10.05c-1.2-4.36-2.55-9.73-4.12-15.96
									c-0.78-3.12-1.62-6.45-2.51-9.98c-0.85-3.54-1.74-7.29-2.68-11.22c-3.79-15.72-7.98-34.52-12.47-55.43
									c-4.44-20.92-9.09-43.97-13.74-68.22c-9.22-48.48-16.66-92.55-21.63-124.51c-2.52-15.98-4.41-28.93-5.67-37.88
									c-0.61-4.45-1.09-7.92-1.42-10.32c-0.15-1.15-0.26-2.04-0.35-2.69C425.51,406.85,425.5,406.53,425.5,406.53z"/>
							</g>
						</g>
						<g>
							<g>
								<path class="st5" d="M393.4,755.06c0,0-0.05-0.29-0.09-0.85c-0.04-0.6-0.09-1.43-0.16-2.49c-0.13-2.24-0.31-5.46-0.54-9.59
									c-0.45-8.38-1.1-20.42-1.91-35.28c-0.43-7.45-0.9-15.6-1.4-24.35c-0.56-8.75-1.09-18.11-2.03-27.91
									c-1.87-19.63-3.93-41.22-5.72-63.91c-1.79-22.7-3.11-44.36-3.75-64.08c-0.67-19.72-0.66-37.5-0.24-52.41
									c0.14-7.46,0.54-14.2,0.79-20.12c0.4-5.91,0.69-11.01,1.03-15.17c0.38-4.12,0.68-7.33,0.88-9.57
									c0.11-1.06,0.19-1.88,0.25-2.49c0.06-0.56,0.12-0.84,0.12-0.84s0.01,0.29-0.02,0.85c-0.04,0.6-0.09,1.43-0.16,2.49
									c-0.16,2.24-0.4,5.45-0.7,9.58c-0.29,4.16-0.52,9.26-0.87,15.17c-0.2,5.92-0.56,12.65-0.65,20.11
									c-0.34,14.9-0.27,32.66,0.44,52.37c0.69,19.7,2.03,41.35,3.82,64.03c1.79,22.68,3.81,44.27,5.64,63.9
									c0.93,9.83,1.42,19.19,1.95,27.95c0.46,8.75,0.89,16.91,1.29,24.36c0.67,14.87,1.22,26.91,1.6,35.29
									c0.15,4.13,0.28,7.36,0.36,9.6c0.03,1.06,0.05,1.89,0.07,2.5C393.42,754.77,393.4,755.06,393.4,755.06z"/>
							</g>
						</g>
					</g>
				</g>
				<g>
					<g>
						<g>
							<g>
								<g>
									<path class="st19" d="M383.4,193.79c-9.35-23.09,4.25-36.98,13.03-41.93c5.23-2.95,11.4-3.52,17.35-3.61
										c5.88-0.09,11.81,0.24,17.47,1.8c5.66,1.56,11.07,4.44,15.01,8.86c6.99,7.85,8.42,19.4,7.57,30.03
										c-1,12.51-4.73,24.84-10.99,35.69c-0.8,1.39-1.71,2.83-3.11,3.59c-1.4,0.76-3.41,0.57-4.2-0.82"/>
								</g>
							</g>
						</g>
						<g>
							<g>
								<g>
									<g>
										<g>
											<g>
												<g>
													<g>
														<g>
															<g>
																<path class="st17" d="M414.99,273.05c10.09,0.82,19.09-7.92,20.47-23.81l6.99-80.76l-0.48,5.58
																	c0.12-3.37-2.3-6.25-5.58-6.64l-31.3-3.68c-10.79-1.27-20.49,6.91-21.36,17.98c-0.97,12.3-1.68,27.34-0.41,36.54
																	c2.56,18.49,16.37,20.96,16.37,20.96l-1.35,13.38C397.29,263.01,404.79,272.22,414.99,273.05L414.99,273.05z"/>
															</g>
														</g>
													</g>
												</g>
											</g>
											<g>
												<g>
													<g>
														<g>
															<g>
																<g>
																	<path class="st0" d="M401.93,209.09c0.01-0.15-1.53-0.43-4.04-0.78c-0.64-0.07-1.24-0.21-1.34-0.65
																		c-0.14-0.47,0.14-1.17,0.46-1.92c0.63-1.57,1.28-3.21,1.97-4.94c2.74-7.03,4.73-12.81,4.45-12.92
																		c-0.28-0.11-2.72,5.5-5.46,12.53c-0.66,1.73-1.29,3.39-1.89,4.97c-0.25,0.74-0.68,1.57-0.37,2.55
																		c0.16,0.49,0.62,0.84,1.03,0.96c0.41,0.13,0.76,0.14,1.08,0.16C400.35,209.2,401.92,209.23,401.93,209.09z"/>
																</g>
															</g>
														</g>
													</g>
												</g>
											</g>
											<g>
												<g>
													<g>
														<g>
															<g>
																<path class="st20" d="M399.69,239.22c0,0,12.15,0.91,24.32-6.37c0,0-6.71,12.71-24.77,10.82L399.69,239.22z"/>
															</g>
														</g>
													</g>
												</g>
											</g>
											<g>
												<g>
													<g>
														<g>
															<g>
																<path class="st20" d="M402.88,215.24c0.92-1.2,2.5-1.85,4.06-1.67c1.08,0.13,2.17,0.67,2.81,1.58
																	c0.64,0.91,0.76,2.19,0.15,3.04c-0.69,0.96-2.1,1.17-3.29,0.81c-1.18-0.36-2.2-1.17-3.16-1.97
																	c-0.27-0.22-0.54-0.46-0.7-0.76c-0.16-0.3-0.19-0.7,0.02-0.95"/>
															</g>
														</g>
													</g>
												</g>
											</g>
											<g>
												<g>
													<g>
														<g>
															<g>
																<g>
																	<path class="st0" d="M409.24,210.92c-0.41-0.03-0.46,2.74-2.81,4.68c-2.35,1.95-5.23,1.61-5.26,2
																		c-0.04,0.17,0.63,0.54,1.85,0.59c1.19,0.05,2.95-0.32,4.39-1.51c1.43-1.19,2.07-2.79,2.18-3.92
																		C409.72,211.59,409.43,210.9,409.24,210.92z"/>
																</g>
															</g>
														</g>
													</g>
												</g>
											</g>
										</g>
									</g>
								</g>
								<g>
									<g>
										<g>
											<g>
												<g>
													<path class="st19" d="M410.26,185.81c0.23,0.69,2.73,0.39,5.65,0.78c2.93,0.33,5.27,1.22,5.67,0.61
														c0.18-0.3-0.22-0.95-1.17-1.63c-0.93-0.68-2.43-1.33-4.19-1.54c-1.75-0.21-3.37,0.06-4.44,0.49
														C410.71,184.94,410.16,185.48,410.26,185.81z"/>
												</g>
											</g>
										</g>
									</g>
								</g>
								<g>
									<g>
										<g>
											<g>
												<g>
													<path class="st19" d="M387.83,182.21c0.43,0.58,2.16,0,4.23-0.01c2.07-0.08,3.81,0.42,4.22-0.18
														c0.18-0.29-0.08-0.87-0.84-1.43c-0.74-0.55-2-1.01-3.42-0.98c-1.42,0.03-2.66,0.55-3.39,1.13
														C387.89,181.33,387.64,181.93,387.83,182.21z"/>
												</g>
											</g>
										</g>
									</g>
								</g>
							</g>
						</g>
					</g>
					<g>
						<g>
							<path class="st19" d="M398.46,150.79c17.71-9.84,36.37-2.59,50.25,12.13c3.06,3.24,5.8,7.05,9.84,8.88
								c4.36,1.98,10.22,1.74,12.76,5.86c2.96,4.82-1.29,11.52,0.84,16.78c1.96,4.85,8.41,6.32,10.73,11
								c1.82,3.67,0.55,8.08-0.42,12.1c-0.98,4.02-1.41,8.85,1.5,11.69l-37.97,14.15c-1.7,0.63-3.54,0.91-5.31,0.52
								c-5.33-1.15-5.62-6.22-5.03-10.4c0.44-3.12,1.17-6.44-0.07-9.32c-1.46-3.4-5.32-5.26-6.62-8.73
								c-2.31-6.12,4.56-12.38,3.88-18.91c-0.43-4.11-3.48-8.87-7.16-10.57c-3.68-1.69-9.11-2.48-11.73-3.73
								c-8.32-3.96-16.15-9.67-19.78-18.98C392.33,158.61,394.13,153.26,398.46,150.79L398.46,150.79z"/>
						</g>
					</g>
					<g>
						<g>
							<path class="st20" d="M412.04,198.42c0.17-0.22,1.66,0.84,3.78,0.73c2.12-0.05,3.54-1.2,3.72-1
								c0.08,0.08-0.16,0.52-0.79,0.99c-0.63,0.47-1.67,0.92-2.89,0.96c-1.22,0.04-2.3-0.32-2.96-0.75
								C412.23,198.93,411.96,198.51,412.04,198.42z"/>
						</g>
					</g>
					<g>
						<g>
							<path class="st20" d="M387.18,197.23c0.14-0.23,1.9,0.97,4.21,0.52c2.31-0.44,3.54-2.18,3.76-2c0.1,0.06-0.05,0.59-0.62,1.26
								c-0.56,0.66-1.6,1.42-2.96,1.68c-1.36,0.26-2.61-0.07-3.37-0.5C387.43,197.77,387.11,197.32,387.18,197.23z"/>
						</g>
					</g>
					<g>
						<g>
							<path class="st20" d="M408.65,209.53c-0.09-0.25,0.79-0.66,1.76-0.17c0.97,0.48,1.17,1.43,0.92,1.51
								c-0.25,0.11-0.7-0.34-1.35-0.65C409.34,209.87,408.71,209.79,408.65,209.53z"/>
						</g>
					</g>
					<g>
						<g>
							<path class="st20" d="M399.64,217.07c0.23,0.15,0.28,0.48,0.36,0.8c0.05,0.32,0.12,0.65-0.02,0.87
								c-0.13,0.24-0.78,0.02-0.92-0.69C398.91,217.35,399.42,216.9,399.64,217.07z"/>
						</g>
					</g>
					<g>
						<g>
							<path class="st20" d="M407.24,224.12c-0.25-0.05,0.24-2.04,2.19-3.43c1.94-1.42,4-1.24,3.96-0.98
								c0.02,0.28-1.73,0.52-3.39,1.76C408.3,222.66,407.49,224.23,407.24,224.12z"/>
						</g>
					</g>
					<g>
						<g>
							<path class="st20" d="M413.6,212.6c-0.16,0-0.08-0.86-0.69-1.91c-0.31-0.52-0.78-1.05-1.49-1.38
								c-0.7-0.37-1.68-0.55-2.61-1.23c-1.87-1.39-2.05-3.82-1.46-5.08c0.56-1.33,1.4-1.76,1.45-1.67c0.11,0.11-0.5,0.69-0.81,1.88
								c-0.35,1.14-0.07,3,1.39,4.1c0.69,0.52,1.63,0.75,2.45,1.22c0.85,0.46,1.41,1.21,1.68,1.86
								C414.07,211.75,413.7,212.65,413.6,212.6z"/>
						</g>
					</g>
					<g>
						<g>
							<g>
								<g>
									<g>
										<g>
											<path class="st0" d="M390.05,193.59c-0.13,1.2,0.77,2.3,2,2.44c1.23,0.15,2.32-0.71,2.45-1.91
												c0.13-1.2-0.77-2.3-1.99-2.45C391.27,191.53,390.17,192.39,390.05,193.59z"/>
										</g>
									</g>
								</g>
							</g>
						</g>
						<g>
							<g>
								<g>
									<g>
										<g>
											<g>
												<path class="st0" d="M387.49,191.35c0.26,0.32,2.04-0.86,4.45-0.7c2.41,0.13,4.08,1.5,4.37,1.22
													c0.14-0.12-0.11-0.68-0.84-1.3c-0.72-0.62-1.97-1.26-3.47-1.35c-1.5-0.09-2.8,0.4-3.57,0.93
													C387.65,190.69,387.36,191.21,387.49,191.35z"/>
											</g>
										</g>
									</g>
								</g>
							</g>
						</g>
					</g>
					<g>
						<g>
							<g>
								<g>
									<g>
										<g>
											<path class="st0" d="M413.32,195.09c-0.13,1.2,0.77,2.3,2,2.44c1.23,0.15,2.32-0.71,2.45-1.91
												c0.13-1.2-0.77-2.3-1.99-2.45C414.55,193.03,413.45,193.88,413.32,195.09z"/>
										</g>
									</g>
								</g>
							</g>
						</g>
						<g>
							<g>
								<g>
									<g>
										<g>
											<g>
												<path class="st0" d="M411.15,192.87c0.26,0.32,2.04-0.86,4.45-0.7c2.41,0.13,4.08,1.5,4.37,1.22
													c0.14-0.12-0.1-0.68-0.84-1.3c-0.72-0.62-1.97-1.26-3.47-1.35c-1.5-0.09-2.8,0.4-3.57,0.93
													C411.31,192.21,411.02,192.73,411.15,192.87z"/>
											</g>
										</g>
									</g>
								</g>
							</g>
						</g>
					</g>
					<g>
						<path class="st19" d="M435.44,235.43c-0.37,6.95,3.06,8.7,1.98,12.15c-0.73,2.33-2.37,4.29-3.01,6.65
							c-1.14,4.22,1.12,8.47,2.84,12.45c1.72,3.98,2.78,9.14-0.17,12.32c7.69,1.34,15.58,1.48,23.33,0.43
							c0.52-2.05,1.03-4.09,1.55-6.14c0.2,3.17,3.5,5.35,6.61,5.4c3.11,0.06,6.04-1.43,8.82-2.86c2.79-1.43,5.74-2.89,8.85-2.75
							c0.26-1.42,0.52-2.85,0.78-4.27c2.87,2.21,6.78,2.61,10.33,1.91c3.55-0.71,6.83-2.4,10.06-4.07
							c-5.76-4.15-9.51-11.07-9.91-18.29c-0.16-2.98,0.19-6.1-0.95-8.84c-1.73-4.16-6.25-6.14-9.86-8.75
							c-3.61-2.61-6.68-7.7-4.14-11.44"/>
					</g>
					<g>
						<g>
							<path class="st9" d="M481.33,229.78c0,0-0.4-0.25-0.98-0.93c-0.58-0.67-1.32-1.79-1.88-3.4c-0.54-1.61-0.89-3.68-0.98-6.08
								c-0.12-2.4,0.1-5.12-0.15-8.07c-0.23-2.9-0.95-6.3-3.5-8.6c-2.5-2.35-6.52-2.94-9.62-5.8c-1.53-1.45-2.44-3.47-2.91-5.53
								c-0.5-2.08-0.6-4.22-0.79-6.36c-0.17-2.14-0.4-4.31-1.07-6.36c-0.65-2.05-1.93-3.88-3.58-5.37
								c-3.32-3.03-7.59-4.55-11.47-6.47c-1.95-0.95-3.83-2.06-5.48-3.38c-1.65-1.31-3.12-2.74-4.53-4.15
								c-2.79-2.81-5.42-5.51-8.42-7.27c-2.99-1.75-6.12-2.78-9.04-3.28c-5.87-0.98-10.76-0.21-13.95,0.67
								c-3.22,0.88-4.88,1.75-4.92,1.65c-0.01-0.03,0.4-0.25,1.2-0.63c0.8-0.38,2.01-0.9,3.62-1.38c3.2-1,8.15-1.89,14.17-0.98
								c2.99,0.47,6.22,1.48,9.33,3.27c3.13,1.8,5.84,4.55,8.64,7.33c1.41,1.39,2.86,2.79,4.47,4.05c1.6,1.27,3.4,2.33,5.33,3.26
								c3.81,1.88,8.19,3.4,11.71,6.6c1.74,1.56,3.15,3.57,3.84,5.78c0.71,2.2,0.93,4.44,1.1,6.59c0.18,2.15,0.28,4.26,0.75,6.23
								c0.44,1.97,1.27,3.8,2.64,5.11c2.76,2.64,6.81,3.31,9.53,5.85c1.37,1.24,2.26,2.85,2.78,4.44c0.53,1.6,0.75,3.2,0.85,4.71
								c0.21,3.03-0.06,5.75,0.01,8.11c0.03,2.37,0.32,4.39,0.8,5.98C479.81,228.53,481.45,229.71,481.33,229.78z"/>
						</g>
					</g>
					<g>
						<g>
							<path class="st3" d="M475,211.98c-0.12,0.05,0.05-1.62-1.65-3.69c-0.84-1.01-2.1-2.05-3.77-2.91
								c-1.66-0.9-3.71-1.63-5.79-2.93c-2.12-1.27-3.9-3.5-5.01-6.15c-1.12-2.65-1.72-5.67-2.28-8.78
								c-0.59-3.08-1.25-6.38-2.94-9.27c-0.85-1.44-1.98-2.71-3.4-3.68c-1.41-0.99-3.04-1.71-4.73-2.37
								c-1.69-0.67-3.41-1.28-5.04-2.08c-1.64-0.8-3.14-1.82-4.48-2.94c-2.68-2.27-4.84-4.83-7.01-7.12
								c-2.16-2.28-4.34-4.35-6.75-5.72c-2.38-1.42-4.88-2.21-7.19-2.72c-4.65-0.97-8.56-0.87-11.23-0.87
								c-1.25,0.02-2.27,0.03-3.08,0.05c-0.71,0.01-1.08,0-1.08-0.04c0-0.03,0.37-0.09,1.07-0.16c0.7-0.07,1.74-0.16,3.08-0.23
								c2.67-0.11,6.6-0.32,11.37,0.58c2.37,0.48,4.96,1.25,7.45,2.69c2.52,1.4,4.79,3.51,6.99,5.8c2.21,2.29,4.37,4.82,6.97,7
								c1.3,1.09,2.73,2.05,4.3,2.81c1.57,0.77,3.26,1.37,4.97,2.05c1.71,0.67,3.41,1.42,4.92,2.48c1.52,1.05,2.77,2.45,3.66,3.99
								c1.79,3.11,2.42,6.49,3,9.59c0.54,3.12,1.09,6.07,2.14,8.63c1.04,2.56,2.65,4.64,4.64,5.89c1.97,1.28,4.01,2.07,5.68,3.03
								c1.69,0.94,2.98,2.06,3.8,3.15c0.84,1.09,1.19,2.13,1.32,2.83c0.05,0.36,0.08,0.63,0.07,0.81
								C475.03,211.89,475.02,211.98,475,211.98z"/>
						</g>
					</g>
					<g>
						<g>
							<path class="st9" d="M476,274.05c0,0-0.57,0.16-1.68,0.14c-1.09-0.04-2.77-0.28-4.63-1.34c-1.84-1.02-3.79-3.04-4.66-5.96
								c-0.44-1.45-0.61-3.1-0.33-4.81c0.29-1.71,0.96-3.39,1.69-5.1c0.71-1.71,1.54-3.49,1.79-5.43c0.28-1.93-0.3-3.99-1.72-5.55
								c-1.39-1.59-3.32-2.78-5.21-4.18c-1.92-1.36-3.7-3.23-4.82-5.5c-1.15-2.26-1.77-4.86-1.68-7.52c0.05-2.7,1.1-5.24,1.88-7.75
								c0.39-1.26,0.71-2.55,0.75-3.84c0.04-1.28-0.25-2.57-0.95-3.65c-1.43-2.18-4.13-3.29-6.78-4.04
								c-2.69-0.74-5.59-1.32-7.97-3.05c-1.18-0.86-2.12-2.07-2.65-3.41c-0.55-1.34-0.71-2.77-0.72-4.14
								c-0.02-2.74,0.46-5.35,0.34-7.86c-0.06-2.51-0.97-4.84-2.52-6.67c-3.09-3.74-7.66-5.37-11.77-6.68
								c-2.08-0.67-4.11-1.29-6.02-2.07c-1.9-0.78-3.65-1.7-5.25-2.68c-6.41-4.01-10.15-9.06-12.23-12.64
								c-2.09-3.63-2.64-5.91-2.64-5.91c0.02-0.01,0.08,0.12,0.2,0.38c0.14,0.31,0.31,0.68,0.51,1.14c0.47,0.99,1.16,2.45,2.25,4.21
								c2.15,3.49,5.92,8.4,12.26,12.26c1.58,0.94,3.31,1.82,5.17,2.57c1.87,0.74,3.89,1.34,5.98,2c2.09,0.66,4.27,1.37,6.4,2.42
								c2.12,1.06,4.18,2.49,5.81,4.45c1.67,1.92,2.7,4.53,2.76,7.19c0.13,2.65-0.34,5.27-0.32,7.89c-0.03,2.59,0.81,5.27,3,6.79
								c2.14,1.56,4.91,2.15,7.66,2.89c2.71,0.78,5.64,1.9,7.32,4.45c0.82,1.25,1.14,2.76,1.1,4.19c-0.06,1.44-0.41,2.8-0.8,4.09
								c-0.81,2.58-1.81,5-1.86,7.51c-0.1,2.49,0.48,4.95,1.55,7.08c1.06,2.16,2.67,3.87,4.54,5.22c1.83,1.39,3.81,2.61,5.31,4.34
								c1.55,1.69,2.2,4.08,1.86,6.17c-0.3,2.1-1.17,3.91-1.9,5.61c-0.75,1.7-1.42,3.32-1.72,4.93c-0.28,1.6-0.15,3.18,0.24,4.56
								c0.79,2.8,2.59,4.76,4.34,5.79c1.76,1.06,3.38,1.36,4.45,1.46C475.42,274.08,475.99,274.01,476,274.05z"/>
						</g>
					</g>
				</g>
				<g>
					<g>
						<path class="st0" d="M407.77,307.58c-0.01-0.05,0.21-0.19,0.68-0.2c0.46-0.01,1.15,0.17,1.8,0.71
							c0.62,0.53,1.26,1.47,1.16,2.68c-0.07,1.24-1.19,2.33-2.48,2.59c-1.28,0.31-2.75-0.2-3.35-1.29c-0.6-1.06-0.43-2.18-0.09-2.92
							c0.36-0.77,0.9-1.23,1.33-1.41c0.42-0.19,0.69-0.16,0.7-0.11c0.07,0.14-0.95,0.42-1.39,1.76c-0.2,0.64-0.24,1.52,0.21,2.21
							c0.42,0.7,1.41,1.03,2.39,0.82c0.97-0.22,1.73-0.94,1.81-1.75c0.12-0.82-0.29-1.6-0.75-2.09
							C408.8,307.55,407.76,307.74,407.77,307.58z"/>
					</g>
				</g>
				<g>
					<g>
						<path class="st0" d="M404.22,342.59c0.03-0.09,0.82-0.08,1.89,0.67c0.51,0.36,1.1,1.09,1.13,2.05
							c0.02,0.47-0.08,0.99-0.4,1.44c-0.31,0.46-0.9,0.79-1.51,0.78c-1.23-0.07-2.02-0.96-2.29-1.85c-0.25-0.95,0.05-1.74,0.34-2.3
							c0.65-1.11,1.32-1.51,1.4-1.43c0.12,0.1-0.37,0.68-0.78,1.72c-0.18,0.5-0.32,1.17-0.11,1.75c0.19,0.57,0.83,1.15,1.45,1.16
							c0.61,0.02,1.03-0.61,1.02-1.25c0.02-0.64-0.31-1.17-0.69-1.55C404.88,343.02,404.15,342.73,404.22,342.59z"/>
					</g>
				</g>
				<g>
					<g>
						<path class="st0" d="M453.16,336.8c-0.12,0.05-0.85-1.52-1.86-4.12c-1.01-2.6-2.28-6.23-3.58-10.28
							c-1.3-4.05-2.38-7.74-3.11-10.43c-0.73-2.69-1.1-4.38-0.97-4.41s0.73,1.58,1.62,4.22c0.97,2.98,2.11,6.48,3.37,10.34
							c1.23,3.87,2.35,7.37,3.3,10.35C452.78,335.1,453.29,336.75,453.16,336.8z"/>
					</g>
				</g>
				<g>
					<g>
						<path class="st0" d="M365.51,362.52c-0.03,0.01-0.15-0.27-0.35-0.81c-0.23-0.65-0.5-1.44-0.83-2.4
							c-0.36-1.04-0.78-2.32-1.17-3.84c-0.41-1.51-0.93-3.22-1.33-5.15c-0.93-3.83-1.75-8.46-2.37-13.64
							c-0.56-5.19-0.89-10.93-0.73-16.95c0.2-6.02,0.87-11.74,1.77-16.88c0.52-2.56,0.97-5,1.6-7.23c0.54-2.26,1.18-4.32,1.79-6.2
							c0.55-1.89,1.24-3.55,1.78-5.02c0.53-1.47,1.07-2.71,1.53-3.71c0.42-0.91,0.77-1.67,1.07-2.3c0.25-0.52,0.4-0.79,0.43-0.77
							c0.03,0.01-0.06,0.31-0.25,0.85c-0.24,0.65-0.54,1.43-0.9,2.37c-0.41,1.02-0.9,2.27-1.38,3.75c-0.49,1.48-1.13,3.14-1.63,5.03
							c-0.56,1.88-1.16,3.94-1.66,6.19c-0.59,2.23-1.01,4.66-1.5,7.2c-0.85,5.11-1.48,10.78-1.68,16.75
							c-0.16,5.98,0.14,11.67,0.65,16.82c0.57,5.15,1.32,9.76,2.15,13.59c0.36,1.93,0.83,3.64,1.19,5.16
							c0.35,1.52,0.71,2.81,1.01,3.87c0.26,0.97,0.48,1.78,0.66,2.44C365.48,362.21,365.54,362.51,365.51,362.52z"/>
					</g>
				</g>
				<g>
					<g>
						<path class="st0" d="M336.17,339.33c-0.1,0.04-0.62-0.98-1.01-2.79c-0.39-1.79-0.55-4.39,0-7.16
							c0.56-2.77,1.69-5.11,2.74-6.62c1.05-1.52,1.92-2.26,2-2.19c0.25,0.17-2.78,3.63-3.79,9
							C334.99,334.91,336.46,339.27,336.17,339.33z"/>
					</g>
				</g>
				<g>
					<g>
						<path class="st9" d="M514.41,432.69c0.06,0.26-5.41,1.78-12.22,3.41c-6.81,1.62-12.38,2.73-12.44,2.47
							c-0.06-0.26,5.41-1.78,12.22-3.41C508.77,433.54,514.35,432.44,514.41,432.69z"/>
					</g>
				</g>
				<g>
					<g>
						<path class="st9" d="M514.45,427.85c0.06,0.26-5.79,1.86-13.07,3.58c-7.28,1.72-13.23,2.9-13.29,2.64
							c-0.06-0.26,5.79-1.86,13.07-3.58C508.44,428.78,514.39,427.59,514.45,427.85z"/>
					</g>
				</g>
				<g>
					<g>
						<path class="st9" d="M445.82,324.22c0,0.27-19.35,0.33-43.21,0.14c-23.87-0.19-43.21-0.56-43.21-0.82
							c0-0.26,19.35-0.33,43.22-0.13C426.47,323.59,445.82,323.96,445.82,324.22z"/>
					</g>
				</g>
				<g>
					<g>
						<path class="st9" d="M448.96,327.29c0,0.27-19.92,0.83-44.51,1.26c-24.59,0.43-44.52,0.57-44.53,0.3
							c0-0.26,19.92-0.83,44.51-1.26C429.01,327.16,448.95,327.02,448.96,327.29z"/>
					</g>
				</g>
				<g>
					<g>
						<path class="st0" d="M406.24,373.32c-0.01,0.03-0.34-0.11-0.96-0.41c-0.6-0.32-1.47-0.87-2.4-1.81
							c-1.92-1.82-3.7-5.35-4.54-9.93c-0.43-2.29-0.67-4.84-0.78-7.55c-0.18-2.72-0.22-5.62-0.24-8.68c0-6.12,0.37-12.85,1.28-19.86
							c1.76-14.04,5.43-26.39,8.66-35.04c1.65-4.32,3.14-7.76,4.24-10.09c0.53-1.08,0.97-1.96,1.31-2.67
							c0.31-0.61,0.49-0.92,0.52-0.9c0.03,0.01-0.09,0.35-0.34,0.98c-0.3,0.73-0.68,1.63-1.15,2.74c-1,2.38-2.39,5.84-3.95,10.17
							c-3.06,8.68-6.6,20.97-8.35,34.93c-0.9,6.97-1.3,13.66-1.35,19.74c0,3.04,0.01,5.94,0.15,8.64c0.08,2.71,0.27,5.21,0.65,7.47
							c0.74,4.51,2.37,7.96,4.15,9.8C404.88,372.73,406.31,373.21,406.24,373.32z"/>
					</g>
				</g>
			</g>
			<g class="st29">
				<g>
					<g>
						<g>
							<g>
								<g>
									<g>
										<path class="st33" d="M6.7,360.12c5.96-19.79,16.36-54.67,21.39-73.4c7.28-27.12,50.1-37.34,50.1-37.34l38.38-1.84
											c0,0,1.94-0.48,5.32-0.31c17.57,0.87,30.25,17.3,27.56,34.69l-5.74,37.09l1.25,71.57l-84.8-7.93c0,0,7.15-24.3,7.55-31.78
											c0.4-7.48-6.54-23.3-6.54-23.3l-11.04,36.35L6.7,360.12z"/>
									</g>
								</g>
							</g>
						</g>
						<g>
							<polygon class="st33" points="145.9,262.34 171.2,318.89 143.37,347.9 							"/>
						</g>
						<g>
							<g>
								<path class="st0" d="M139.45,270.34c0.06-0.02,0.49,1.04,1.23,3c0.19,0.5,0.39,1.05,0.6,1.63c0.18,0.62,0.37,1.28,0.57,1.99
									c0.41,1.43,0.9,3.05,1.25,4.89c0.2,0.92,0.4,1.88,0.61,2.87c0.16,1.01,0.32,2.06,0.49,3.15c0.39,2.17,0.54,4.52,0.82,6.97
									c0.37,4.93,0.53,10.37,0.47,16.06c-0.18,11.4-0.83,21.67-0.99,29.12c-0.09,3.72-0.15,6.74-0.13,8.82
									c0,2.08-0.03,3.24-0.1,3.24c-0.06,0-0.16-1.15-0.27-3.23c-0.13-2.08-0.18-5.11-0.17-8.84c-0.01-7.47,0.54-17.76,0.72-29.12
									c0.06-5.68-0.07-11.08-0.4-15.98c-0.25-2.44-0.38-4.78-0.73-6.93c-0.15-1.08-0.29-2.12-0.43-3.13
									c-0.19-0.99-0.37-1.95-0.55-2.86c-0.3-1.83-0.74-3.46-1.1-4.89c-0.18-0.71-0.34-1.37-0.5-2c-0.19-0.59-0.36-1.14-0.52-1.65
									C139.71,271.48,139.39,270.36,139.45,270.34z"/>
							</g>
						</g>
						<g>
							<g>
								<path class="st0" d="M69.27,298.62c0.25,0.07-1.59,7.06-4.11,15.6c-2.52,8.55-4.76,15.41-5.01,15.34
									c-0.25-0.07,1.59-7.06,4.11-15.61C66.77,305.41,69.02,298.54,69.27,298.62z"/>
							</g>
						</g>
						<g>
							<g>
								<path class="st9" d="M139.18,253.34c0,0,0.7,1.79,0.7,5.21c0.03,3.39-1.09,8.44-4.56,13.5c-1.73,2.51-4.01,5.03-6.91,7.17
									c-2.9,2.14-6.38,3.87-10.24,5.07c-7.73,2.45-16.77,2.66-25.94,1.57c-9.19-1.11-17.78-3.06-25.68-4.01
									c-7.89-1.04-15.11-0.98-21.02,0.13c-5.92,1.06-10.44,3.03-13.32,4.75c-2.89,1.71-4.28,2.99-4.35,2.91
									c-0.02-0.02,0.32-0.34,1-0.92c0.33-0.3,0.76-0.64,1.3-1.02c0.52-0.4,1.14-0.83,1.86-1.27c2.85-1.84,7.4-3.93,13.39-5.09
									c5.97-1.21,13.3-1.34,21.25-0.34c7.97,0.92,16.57,2.84,25.69,3.94c9.09,1.08,17.99,0.89,25.57-1.46
									c3.78-1.15,7.19-2.82,10.03-4.87c2.85-2.05,5.09-4.49,6.82-6.92c3.46-4.9,4.66-9.81,4.74-13.13
									C139.63,255.19,139.05,253.36,139.18,253.34z"/>
							</g>
						</g>
						<g>
							<g>
								<path class="st9" d="M25.02,309.39c-0.22-0.17,2.62-4.09,5.49-9.3c2.89-5.2,4.7-9.69,4.96-9.59
									c0.23,0.07-1.21,4.77-4.14,10.05C28.42,305.84,25.2,309.55,25.02,309.39z"/>
							</g>
						</g>
						<g>
							<g>
								<path class="st9" d="M39.07,312c-0.24-0.1,1.59-5,4.08-10.95c2.5-5.95,4.71-10.69,4.95-10.59c0.24,0.1-1.59,5-4.08,10.95
									C41.52,307.36,39.31,312.1,39.07,312z"/>
							</g>
						</g>
						<g>
							<g>
								<path class="st9" d="M54.02,310.96c-0.25-0.09,1.1-4.48,3-9.81c1.9-5.33,3.65-9.59,3.89-9.5c0.24,0.09-1.1,4.48-3,9.81
									C56.01,306.8,54.26,311.05,54.02,310.96z"/>
							</g>
						</g>
						<g>
							<g>
								<path class="st9" d="M84.33,313.98c0.05,0.01,0.06,0.18,0.04,0.55l-0.27-0.04c-0.05-1.37,0.25-5.7,0.77-10.8
									c0.64-6.24,1.37-11.28,1.63-11.25c0.26,0.03-0.05,5.11-0.69,11.35c-0.52,5.1-1.1,9.4-1.44,10.73l-0.27-0.04
									C84.21,314.13,84.28,313.97,84.33,313.98z"/>
							</g>
						</g>
						<g>
							<g>
								<path class="st9" d="M100.59,312.84c0.04,0.03-0.02,0.22-0.2,0.59l-0.23,0.48l-0.04-0.57c-0.11-1.4-0.04-5.43-0.3-10.16
									c-0.29-5.93-0.98-10.71-0.71-10.76c0.24-0.05,1.35,4.71,1.65,10.71c0.26,4.79-0.08,8.85-0.34,10.23l-0.28-0.09
									C100.4,312.95,100.55,312.81,100.59,312.84z"/>
							</g>
						</g>
						<g>
							<g>
								<path class="st9" d="M118.87,310.54c-0.25,0.06-1.47-4.31-2.72-9.75c-1.25-5.44-2.06-9.9-1.81-9.96
									c0.25-0.06,1.47,4.3,2.72,9.75C118.32,306.02,119.13,310.48,118.87,310.54z"/>
							</g>
						</g>
						<g>
							<g>
								<path class="st9" d="M131.45,302.85c-0.27,0.03-0.86-3.7-2.08-8.17c-1.2-4.48-2.59-7.99-2.34-8.1
									c0.22-0.11,2.02,3.3,3.24,7.86C131.52,298.99,131.69,302.83,131.45,302.85z"/>
							</g>
						</g>
						<g>
							<g>
								<path class="st9" d="M139.62,294.74c-0.29,0.01-0.31-3.75-1.83-8.02c-1.47-4.29-3.78-7.25-3.54-7.43
									c0.15-0.17,2.9,2.63,4.43,7.12C140.25,290.88,139.85,294.78,139.62,294.74z"/>
							</g>
						</g>
						<g>
							<g>
								<path class="st9" d="M140.94,308.73c0.03,0.02-0.11,0.26-0.39,0.7c-0.29,0.43-0.68,1.1-1.29,1.89
									c-1.16,1.62-2.98,3.85-5.52,6.36c-5.01,5.01-13.3,10.9-23.84,13.9c-10.54,2.99-20.7,2.33-27.59,0.7
									c-3.47-0.8-6.2-1.74-8.04-2.51c-0.93-0.36-1.61-0.72-2.09-0.93c-0.47-0.23-0.71-0.36-0.7-0.39
									c0.03-0.07,1.05,0.33,2.91,0.98c1.86,0.66,4.6,1.5,8.05,2.2c6.85,1.45,16.84,1.98,27.2-0.96
									c10.36-2.94,18.57-8.64,23.64-13.47c2.56-2.41,4.45-4.57,5.69-6.1C140.21,309.56,140.87,308.69,140.94,308.73z"/>
							</g>
						</g>
						<g>
							<g>
								<path class="st9" d="M55.61,268.12c-0.12-0.01,0.42-1.1,2.08-1.19c0.78-0.03,1.8,0.21,2.55,1.07
									c0.77,0.86,0.84,2.3,0.25,3.4c-0.56,1.11-1.78,1.88-2.93,1.73c-1.14-0.12-1.92-0.83-2.34-1.48
									c-0.87-1.42-0.28-2.48-0.21-2.39c0.15,0.01-0.09,0.97,0.75,2c0.4,0.49,1.07,0.97,1.86,1c0.77,0.06,1.6-0.47,2.04-1.3
									c0.43-0.84,0.4-1.81-0.09-2.41c-0.48-0.62-1.25-0.9-1.88-0.95C56.35,267.49,55.71,268.24,55.61,268.12z"/>
							</g>
						</g>
						<g>
							<g>
								<path class="st9" d="M79.65,271.83c0.06,0.15-1.03,0.31-1.66,1.65c-0.29,0.63-0.43,1.54-0.05,2.32
									c0.36,0.78,1.34,1.26,2.38,1.16c1.04-0.1,1.92-0.75,2.12-1.59c0.23-0.83-0.08-1.7-0.49-2.27c-0.87-1.2-1.97-1.15-1.94-1.3
									c-0.01-0.05,0.25-0.16,0.72-0.1c0.47,0.05,1.15,0.34,1.73,0.98c0.56,0.63,1.07,1.67,0.81,2.9
									c-0.24,1.25-1.52,2.21-2.87,2.31c-1.34,0.15-2.78-0.55-3.26-1.73c-0.49-1.15-0.18-2.27,0.25-3
									c0.45-0.74,1.06-1.15,1.52-1.29C79.38,271.72,79.65,271.78,79.65,271.83z"/>
							</g>
						</g>
						<g>
							<g>
								<path class="st9" d="M107.69,273.48c-0.08-0.09,1.05-0.5,2.25,0.6c0.55,0.52,1.09,1.41,0.96,2.52
									c-0.1,1.14-1.13,2.12-2.32,2.38c-1.18,0.29-2.54-0.15-3.12-1.13c-0.6-0.95-0.5-1.98-0.23-2.69c0.6-1.51,1.8-1.64,1.77-1.52
									c0.08,0.13-0.82,0.47-1.13,1.73c-0.14,0.59-0.12,1.39,0.32,2c0.41,0.62,1.31,0.9,2.2,0.7c0.88-0.2,1.57-0.85,1.67-1.59
									c0.13-0.74-0.2-1.47-0.59-1.94C108.63,273.55,107.67,273.63,107.69,273.48z"/>
							</g>
						</g>
						<g>
							<g>
								<path class="st9" d="M128.56,260.2c-0.01-0.1,1.2-0.03,2.28,1.4c0.51,0.69,0.91,1.8,0.61,2.99
									c-0.27,1.15-1.18,2.34-2.6,2.71c-1.44,0.34-2.82-0.34-3.52-1.33c-0.77-1.02-0.61-2.33-0.14-3.07
									c0.45-0.78,1.11-1.18,1.58-1.3c0.48-0.12,0.74-0.04,0.74,0.01c0.05,0.14-1.11,0.23-1.73,1.59c-0.3,0.65-0.33,1.54,0.25,2.25
									c0.54,0.7,1.62,1.18,2.6,0.94c1-0.25,1.74-1.14,1.99-2.02c0.27-0.89,0.04-1.77-0.33-2.4
									C129.52,260.67,128.49,260.34,128.56,260.2z"/>
							</g>
						</g>
						<g>
							<g>
								<path class="st9" d="M27.3,339.38c-0.09-0.08,0.86-0.64,2.19,0.08c0.61,0.35,1.3,1.02,1.48,2.05
									c0.21,1.04-0.37,2.2-1.32,2.83c-0.94,0.65-2.24,0.74-3.12,0.16c-0.88-0.56-1.25-1.44-1.34-2.14
									c-0.17-1.5,0.71-2.17,0.75-2.06c0.13,0.08-0.39,0.78-0.09,1.93c0.15,0.55,0.51,1.19,1.13,1.52c0.6,0.35,1.46,0.27,2.15-0.2
									c0.69-0.47,1.09-1.24,0.99-1.92c-0.08-0.69-0.53-1.27-0.99-1.61C28.17,339.31,27.32,339.53,27.3,339.38z"/>
							</g>
						</g>
						<g>
							<g>
								<path class="st9" d="M44.47,340.67c-0.08-0.09,1.04-0.5,2.27,0.56c0.56,0.51,1.12,1.37,1.05,2.49
									c-0.05,1.13-1,2.18-2.17,2.52c-1.15,0.37-2.53,0.05-3.21-0.85c-0.69-0.88-0.71-1.91-0.54-2.65
									c0.41-1.57,1.57-1.86,1.55-1.74c0.1,0.12-0.74,0.59-0.9,1.87c-0.07,0.61,0.05,1.4,0.55,1.96c0.48,0.57,1.4,0.78,2.27,0.51
									c0.87-0.27,1.51-0.96,1.58-1.71c0.1-0.75-0.25-1.47-0.66-1.93C45.41,340.74,44.46,340.83,44.47,340.67z"/>
							</g>
						</g>
						<g>
							<g>
								<path class="st9" d="M80.02,345.47c-0.04-0.03,0.04-0.27,0.4-0.52c0.35-0.25,1.01-0.44,1.78-0.25
									c0.75,0.15,1.69,0.94,1.74,2.09c0.08,1.08-0.52,2.32-1.73,2.85c-1.21,0.49-2.47,0.09-3.26-0.58
									c-0.83-0.69-1.12-1.67-1.13-2.42c-0.01-1.55,0.75-2.26,0.81-2.19c0.14,0.06-0.32,0.86-0.15,2.13
									c0.09,0.62,0.39,1.33,1.02,1.8c0.61,0.48,1.56,0.72,2.35,0.39c0.77-0.31,1.25-1.2,1.22-1.93c0-0.76-0.52-1.28-1.08-1.5
									C80.81,344.88,80.09,345.58,80.02,345.47z"/>
							</g>
						</g>
						<g>
							<g>
								<path class="st9" d="M100.63,343.15c-0.05-0.01-0.02-0.33,0.37-0.67c0.38-0.34,1.16-0.64,2.08-0.34
									c0.96,0.27,1.72,1.49,1.54,2.73c-0.09,1.28-1.22,2.48-2.56,2.84c-1.33,0.41-2.77,0.17-3.76-0.57
									c-0.5-0.36-0.88-0.89-1.03-1.44c-0.17-0.57-0.02-1.19,0.25-1.57c0.53-0.81,1.36-1.07,1.89-0.97
									c0.54,0.12,0.67,0.43,0.63,0.46c-0.05,0.06-0.27-0.11-0.66-0.09c-0.38,0.01-0.97,0.31-1.28,0.94
									c-0.36,0.59-0.07,1.45,0.71,1.97c0.77,0.53,1.92,0.71,2.99,0.38c1.08-0.31,1.85-1.12,1.97-2.05c0.16-0.92-0.29-1.75-0.92-2
									c-0.64-0.29-1.28-0.16-1.64,0.02C100.84,342.97,100.7,343.19,100.63,343.15z"/>
							</g>
						</g>
						<g>
							<g>
								<path class="st9" d="M116.45,340.47c-0.04-0.02-0.01-0.31,0.39-0.63c0.38-0.32,1.17-0.5,2.01-0.2
									c0.41,0.15,0.85,0.42,1.19,0.86c0.35,0.45,0.5,1.08,0.43,1.67c-0.13,1.23-1.05,2.34-2.29,2.87
									c-1.27,0.53-2.68,0.32-3.65-0.4c-0.48-0.37-0.83-0.87-0.96-1.42c-0.14-0.57,0.03-1.1,0.24-1.49
									c0.44-0.8,1.18-1.14,1.68-1.12c0.51,0.03,0.71,0.26,0.68,0.3c-0.03,0.07-0.27-0.02-0.64,0.07
									c-0.36,0.08-0.86,0.42-1.12,1.05c-0.3,0.61-0.11,1.41,0.64,1.91c0.71,0.48,1.83,0.64,2.77,0.23
									c0.96-0.4,1.68-1.27,1.79-2.11c0.16-0.88-0.39-1.51-1.01-1.82c-0.62-0.3-1.22-0.26-1.56-0.1
									C116.68,340.31,116.52,340.52,116.45,340.47z"/>
							</g>
						</g>
						<g>
							<g>
								<path class="st9" d="M134.01,332.28c0.05,0.15-1.16,0.18-1.98,1.56c-0.38,0.65-0.64,1.63-0.29,2.51
									c0.32,0.89,1.36,1.48,2.5,1.43c1.14-0.04,2.13-0.71,2.38-1.62c0.28-0.9-0.05-1.85-0.49-2.47c-0.93-1.32-2.13-1.25-2.1-1.4
									c-0.01-0.05,0.27-0.16,0.78-0.09c0.51,0.06,1.23,0.38,1.85,1.08c0.58,0.69,1.12,1.82,0.8,3.12c-0.3,1.33-1.73,2.3-3.18,2.33
									c-1.45,0.08-2.94-0.76-3.35-2.07c-0.42-1.27,0.02-2.44,0.55-3.18c0.56-0.75,1.26-1.12,1.75-1.23
									C133.74,332.14,134.02,332.23,134.01,332.28z"/>
							</g>
						</g>
						<g>
							<g>
								<path class="st9" d="M155.68,310.42c-0.09-0.05,0.8-0.95,2.62-0.73c0.86,0.12,1.98,0.65,2.53,1.81
									c0.53,1.08,0.54,2.68-0.53,3.79c-1.13,1.09-2.79,1-3.82,0.28c-0.53-0.36-0.89-0.92-1-1.5c-0.11-0.57,0.02-1.1,0.21-1.52
									c0.39-0.84,1.08-1.28,1.57-1.38c0.5-0.1,0.77,0.03,0.76,0.07c0,0.08-0.26,0.09-0.64,0.27c-0.37,0.17-0.84,0.6-1.08,1.28
									c-0.25,0.67-0.12,1.58,0.66,2.05c0.73,0.48,1.98,0.48,2.67-0.23c0.72-0.72,0.78-1.93,0.41-2.76
									c-0.36-0.86-1.16-1.34-1.87-1.52C156.69,309.99,155.74,310.57,155.68,310.42z"/>
							</g>
						</g>
						<g class="st4">
							<g>
								<path d="M60.9,327.39c1.05,3.18,2.5,6.23,4.31,9.05c0.41,0.64,1.1,1.37,1.81,1.08c0.41-0.17,0.62-0.62,0.79-1.04
									c3.66-9.22,3.74-19.8,0.23-29.08c-3.65,6.11-6.1,12.92-7.18,19.95"/>
							</g>
						</g>
					</g>
					<g>
						<g>
							<g>
								<path class="st13" d="M161.77,298.46l10.18,27.4l7.7-61.88c0.34-5.75-1.38-9.83-2.26-11.47c-0.83-1.54-1.6-3.12-2.76-4.44
									c-1.4-1.6-3.35-3.66-4.76-4.46c-1.74-0.99-1.43-3.56,0.35-3.76c1.78-0.2,6.64,2.42,10.45,7.64
									c3.82,5.22,4.22-4.83,4.44-8.49c0.21-3.66,1.4-14.93,2.57-15.73c1.72-1.17,3.33,0.5,3.03,4.15
									c-0.3,3.69-0.42,14.66,1.51,14.73c1.9,0.07,2.73-18.58,2.73-18.58s-0.47-4.03,1.77-4.03c4.03,0.01,1.69,19.73,1.42,21.6
									c-0.19,1.3,1.91,1.45,2.04,0.04c0.13-1.45,0.4-18.63,4.5-18.66c3.15-0.02-1.77,16.24,0.15,19.89
									c1.92,3.64,2.47-12.75,5.48-12.65c1.12,0.04,1.95,0.22,0.28,9.56c-0.9,5.02-4.2,12.24-5.22,22.03l-0.27,2.54
									c-0.19,12.2-1.63,58.18-12.71,86.15c-6.7,16.9-29.82,19.18-39.88,4.04c-6.83-10.28-15.07-24.68-21.66-42.21L161.77,298.46z"
									/>
							</g>
							<g>
								<g>
									<path class="st14" d="M199.38,256.25c0,0.09-0.63,0.08-1.6,0.42c-0.95,0.33-2.28,1.11-3.1,2.56l-0.38,0.68l-0.22-0.76
										c-0.28-0.99-0.78-2.02-1.49-2.98c-1.5-2.05-3.57-3.27-5.15-3.79c-1.58-0.57-2.66-0.53-2.66-0.67
										c-0.01-0.06,1.09-0.28,2.8,0.19c1.69,0.42,3.96,1.65,5.57,3.85c0.75,1.02,1.28,2.15,1.55,3.22l-0.6-0.08
										c0.98-1.63,2.5-2.38,3.55-2.62C198.74,256.04,199.39,256.19,199.38,256.25z"/>
								</g>
							</g>
						</g>
					</g>
					<g>
						<g>
							<path class="st9" d="M16.67,751.12c0,0,0.03-0.34,0.14-0.99c0.12-0.68,0.28-1.64,0.5-2.88c0.46-2.56,1.14-6.27,2-11.04
								c1.75-9.58,4.37-23.44,7.68-40.54c6.61-34.21,16.12-81.39,27.35-133.35c11.25-51.97,22.11-98.87,30.23-132.75
								c4.06-16.94,7.4-30.64,9.77-40.09c1.18-4.69,2.1-8.35,2.74-10.88c0.32-1.21,0.56-2.15,0.74-2.82
								c0.17-0.63,0.28-0.95,0.28-0.95s-0.05,0.33-0.19,0.98c-0.15,0.68-0.37,1.62-0.64,2.85c-0.6,2.53-1.46,6.21-2.57,10.92
								c-2.25,9.52-5.48,23.23-9.48,40.15c-7.96,33.92-18.71,80.83-29.96,132.8c-11.24,51.95-20.84,99.11-27.62,133.28
								c-3.36,17.06-6.08,30.89-7.97,40.48c-0.94,4.75-1.67,8.45-2.18,11.01c-0.25,1.23-0.45,2.18-0.59,2.86
								C16.77,750.8,16.67,751.12,16.67,751.12z"/>
						</g>
					</g>
					<g>
						<g>
							<path class="st9" d="M83.47,371.48c0.25,0.05-16.95,84.48-38.43,188.56C23.56,664.15,5.94,748.48,5.69,748.42
								c-0.25-0.05,16.95-84.47,38.43-188.58C65.59,455.77,83.21,371.43,83.47,371.48z"/>
						</g>
					</g>
					<g>
						<g>
							<path class="st9" d="M76.54,370.6c0,0-0.13,0.32-0.42,0.91c-0.31,0.63-0.75,1.5-1.32,2.63c-0.59,1.17-1.32,2.59-2.18,4.27
								c-0.43,0.84-0.9,1.75-1.4,2.72c-0.45,0.99-0.93,2.05-1.44,3.17c-1.02,2.24-2.15,4.73-3.39,7.45
								c-1.12,2.78-2.33,5.79-3.63,9.03c-2.51,6.52-5.12,14.04-7.65,22.46c-5.14,16.82-9.53,37.35-13.27,60.3
								c-3.7,22.97-6.64,48.39-10.2,75.02C24.45,611.84,15.2,659.65,7.55,694.02c-3.81,17.19-7.15,31.04-9.55,40.59
								c-1.22,4.74-2.16,8.43-2.82,10.98c-0.33,1.22-0.58,2.17-0.76,2.85c-0.18,0.64-0.29,0.96-0.29,0.96s0.05-0.34,0.2-0.99
								c0.16-0.68,0.38-1.64,0.67-2.87c0.61-2.56,1.5-6.26,2.65-11.02c2.29-9.57,5.53-23.44,9.26-40.64
								c7.49-34.39,16.62-82.19,23.8-135.44c3.57-26.61,6.53-52.04,10.28-75.03c3.8-22.97,8.26-43.52,13.49-60.35
								c2.57-8.43,5.24-15.95,7.8-22.46c1.33-3.23,2.57-6.25,3.71-9.02c1.27-2.71,2.42-5.2,3.47-7.43c0.52-1.11,1.02-2.17,1.48-3.15
								c0.51-0.96,0.99-1.86,1.44-2.7c0.89-1.66,1.64-3.08,2.26-4.23c0.6-1.11,1.07-1.98,1.41-2.59
								C76.36,370.89,76.54,370.6,76.54,370.6z"/>
						</g>
					</g>
					<g>
						<g>
							<path class="st9" d="M115.88,370.77c0,0,0.03,0.34,0.03,1c0,0.7,0,1.68,0,2.95c-0.02,2.63-0.04,6.44-0.08,11.32
								c-0.03,4.92-0.1,10.93-0.27,17.92c-0.15,6.98-0.29,14.94-0.58,23.72c-0.48,17.58-1.34,38.5-2.44,61.72
								c-1.15,23.22-2.59,48.74-4.27,75.51c-7.14,106.7-12.62,188.72-12.97,193.89c0,0-0.01-0.34,0.01-1
								c0.03-0.7,0.07-1.68,0.12-2.94c0.13-2.62,0.32-6.43,0.57-11.31c0.5-9.82,1.33-24.02,2.41-41.57
								c2.28-35.12,5.43-83.58,8.92-137.12c1.68-26.77,3.15-52.28,4.35-75.5c1.15-23.22,2.07-44.13,2.64-61.7
								c0.34-8.78,0.52-16.73,0.72-23.71c0.22-6.98,0.35-12.99,0.43-17.91c0.11-4.89,0.19-8.69,0.25-11.32
								c0.04-1.27,0.07-2.24,0.09-2.94C115.84,371.11,115.88,370.77,115.88,370.77z"/>
						</g>
					</g>
					<g>
						<g>
							<path class="st9" d="M113.89,758.42c0,0-0.01-0.34,0.01-1c0.03-0.69,0.06-1.66,0.11-2.92c0.12-2.6,0.29-6.37,0.52-11.21
								c0.45-9.77,1.09-23.85,1.88-41.22c1.51-34.81,3.34-82.91,5.17-136.05c1.74-53.14,3.32-101.24,4.46-136.1
								c0.56-17.39,1.01-31.47,1.33-41.24c0.17-4.84,0.3-8.61,0.4-11.21c0.05-1.25,0.1-2.22,0.13-2.92
								c0.03-0.66,0.07-0.99,0.07-0.99s0.02,0.34,0.02,1c-0.01,0.69-0.02,1.66-0.03,2.92c-0.05,2.6-0.12,6.38-0.22,11.22
								c-0.24,9.78-0.59,23.86-1.03,41.25c-0.93,34.83-2.35,82.96-4.19,136.11c-1.83,53.14-3.77,101.24-5.45,136.04
								c-0.86,17.4-1.57,31.49-2.18,41.21c-0.3,4.83-0.53,8.6-0.69,11.2c-0.09,1.25-0.16,2.22-0.2,2.91
								C113.94,758.09,113.89,758.42,113.89,758.42z"/>
						</g>
					</g>
					<g>
						<g>
							<path class="st9" d="M126.87,756.08c0,0-0.02-0.34,0-0.99c0.02-0.69,0.06-1.65,0.1-2.9c0.11-2.58,0.27-6.33,0.48-11.13
								c0.46-9.71,1.12-23.68,1.94-40.94c1.69-34.57,4.09-82.32,6.95-135.04c1.45-26.37,2.82-51.5,4.45-74.31
								c0.5-11.41,0.32-22.29,0.17-32.45c-0.18-10.17-0.43-19.64-0.71-28.29c-0.55-17.29-1.13-31.28-1.53-40.95
								c-0.2-4.8-0.35-8.55-0.45-11.13c-0.04-1.24-0.08-2.21-0.1-2.9c-0.02-0.65,0-0.99,0-0.99s0.05,0.33,0.1,0.98
								c0.05,0.69,0.11,1.65,0.19,2.89c0.15,2.58,0.36,6.32,0.63,11.13c0.51,9.66,1.19,23.65,1.83,40.95
								c0.32,8.65,0.62,18.12,0.83,28.3c0.18,10.18,0.4,21.05-0.08,32.51c-1.58,22.84-2.93,47.95-4.38,74.32
								c-2.82,52.71-5.38,100.43-7.23,135.02c-0.94,17.25-1.71,31.22-2.24,40.92c-0.28,4.8-0.5,8.54-0.65,11.13
								c-0.08,1.24-0.15,2.2-0.19,2.89C126.91,755.74,126.87,756.08,126.87,756.08z"/>
						</g>
					</g>
				</g>
				<g>
					<g>
						<path class="st13" d="M13.03,456.6c-0.41,1.36-0.84,2.98-1.26,4.9c-0.36,1.65-0.43,3.35-0.22,5.03
							c0.25,2.03,0.7,4.72,1.41,6.12c0.87,1.73-0.81,3.61-2.38,2.82c-1.56-0.8-4.08-5.5-4.3-11.73s-6.13,1.59-8.34,4.4
							c-2.21,2.81-9.44,11.18-10.85,11.19c-2.05,0.01-2.44-2.19-0.17-4.95c2.3-2.79,8.49-11.49,6.95-12.59
							c-1.52-1.08-12.56,13.38-12.56,13.38s-1.86,3.47-3.68,2.27c-3.29-2.17,9.58-16.68,10.84-18.03c0.87-0.94-0.76-2.19-1.64-1.13
							c-0.91,1.09-10.68,14.68-14.04,12.49c-2.58-1.67,10.47-12.03,10.93-15.97c0.46-3.94-9.1,8.86-11.51,7.16
							c-0.89-0.63-1.47-1.23,5.08-7.79c3.18-3.18,15.41-12.83,15.41-12.83l24.82-86.7h32.59L13.03,456.6z"/>
					</g>
				</g>
				<g>
					<g>
						<g>
							<g>
								<g>
									<g>
										<path class="st7" d="M6.7,360.12c5.96-19.79,16.36-54.67,21.39-73.4c7.28-27.12,50.1-37.34,50.1-37.34l38.38-1.84
											c0,0,1.94-0.48,5.32-0.31c17.57,0.87,30.25,17.3,27.56,34.69l-5.74,37.09l1.25,71.57l-84.8-7.93c0,0,7.15-24.3,7.55-31.78
											c0.4-7.48-6.54-23.3-6.54-23.3l-11.04,36.35L6.7,360.12z"/>
									</g>
								</g>
							</g>
						</g>
						<g>
							<polygon class="st7" points="145.9,262.34 171.2,318.89 143.37,347.9 							"/>
						</g>
						<g>
							<g>
								<path class="st0" d="M139.45,270.34c0.06-0.02,0.49,1.04,1.23,3c0.19,0.5,0.39,1.05,0.6,1.63c0.18,0.62,0.37,1.28,0.57,1.99
									c0.41,1.43,0.9,3.05,1.25,4.89c0.2,0.92,0.4,1.88,0.61,2.87c0.16,1.01,0.32,2.06,0.49,3.15c0.39,2.17,0.54,4.52,0.82,6.97
									c0.37,4.93,0.53,10.37,0.47,16.06c-0.18,11.4-0.83,21.67-0.99,29.12c-0.09,3.72-0.15,6.74-0.13,8.82
									c0,2.08-0.03,3.24-0.1,3.24c-0.06,0-0.16-1.15-0.27-3.23c-0.13-2.08-0.18-5.11-0.17-8.84c-0.01-7.47,0.54-17.76,0.72-29.12
									c0.06-5.68-0.07-11.08-0.4-15.98c-0.25-2.44-0.38-4.78-0.73-6.93c-0.15-1.08-0.29-2.12-0.43-3.13
									c-0.19-0.99-0.37-1.95-0.55-2.86c-0.3-1.83-0.74-3.46-1.1-4.89c-0.18-0.71-0.34-1.37-0.5-2c-0.19-0.59-0.36-1.14-0.52-1.65
									C139.71,271.48,139.39,270.36,139.45,270.34z"/>
							</g>
						</g>
						<g>
							<g>
								<path class="st0" d="M69.27,298.62c0.25,0.07-1.59,7.06-4.11,15.6c-2.52,8.55-4.76,15.41-5.01,15.34
									c-0.25-0.07,1.59-7.06,4.11-15.61C66.77,305.41,69.02,298.54,69.27,298.62z"/>
							</g>
						</g>
						<g>
							<g>
								<path class="st9" d="M139.18,253.34c0,0,0.7,1.79,0.7,5.21c0.03,3.39-1.09,8.44-4.56,13.5c-1.73,2.51-4.01,5.03-6.91,7.17
									c-2.9,2.14-6.38,3.87-10.24,5.07c-7.73,2.45-16.77,2.66-25.94,1.57c-9.19-1.11-17.78-3.06-25.68-4.01
									c-7.89-1.04-15.11-0.98-21.02,0.13c-5.92,1.06-10.44,3.03-13.32,4.75c-2.89,1.71-4.28,2.99-4.35,2.91
									c-0.02-0.02,0.32-0.34,1-0.92c0.33-0.3,0.76-0.64,1.3-1.02c0.52-0.4,1.14-0.83,1.86-1.27c2.85-1.84,7.4-3.93,13.39-5.09
									c5.97-1.21,13.3-1.34,21.25-0.34c7.97,0.92,16.57,2.84,25.69,3.94c9.09,1.08,17.99,0.89,25.57-1.46
									c3.78-1.15,7.19-2.82,10.03-4.87c2.85-2.05,5.09-4.49,6.82-6.92c3.46-4.9,4.66-9.81,4.74-13.13
									C139.63,255.19,139.05,253.36,139.18,253.34z"/>
							</g>
						</g>
						<g>
							<g>
								<path class="st9" d="M25.02,309.39c-0.22-0.17,2.62-4.09,5.49-9.3c2.89-5.2,4.7-9.69,4.96-9.59
									c0.23,0.07-1.21,4.77-4.14,10.05C28.42,305.84,25.2,309.55,25.02,309.39z"/>
							</g>
						</g>
						<g>
							<g>
								<path class="st9" d="M39.07,312c-0.24-0.1,1.59-5,4.08-10.95c2.5-5.95,4.71-10.69,4.95-10.59c0.24,0.1-1.59,5-4.08,10.95
									C41.52,307.36,39.31,312.1,39.07,312z"/>
							</g>
						</g>
						<g>
							<g>
								<path class="st9" d="M54.02,310.96c-0.25-0.09,1.1-4.48,3-9.81c1.9-5.33,3.65-9.59,3.89-9.5c0.24,0.09-1.1,4.48-3,9.81
									C56.01,306.8,54.26,311.05,54.02,310.96z"/>
							</g>
						</g>
						<g>
							<g>
								<path class="st9" d="M84.33,313.98c0.05,0.01,0.06,0.18,0.04,0.55l-0.27-0.04c-0.05-1.37,0.25-5.7,0.77-10.8
									c0.64-6.24,1.37-11.28,1.63-11.25c0.26,0.03-0.05,5.11-0.69,11.35c-0.52,5.1-1.1,9.4-1.44,10.73l-0.27-0.04
									C84.21,314.13,84.28,313.97,84.33,313.98z"/>
							</g>
						</g>
						<g>
							<g>
								<path class="st9" d="M100.59,312.84c0.04,0.03-0.02,0.22-0.2,0.59l-0.23,0.48l-0.04-0.57c-0.11-1.4-0.04-5.43-0.3-10.16
									c-0.29-5.93-0.98-10.71-0.71-10.76c0.24-0.05,1.35,4.71,1.65,10.71c0.26,4.79-0.08,8.85-0.34,10.23l-0.28-0.09
									C100.4,312.95,100.55,312.81,100.59,312.84z"/>
							</g>
						</g>
						<g>
							<g>
								<path class="st9" d="M118.87,310.54c-0.25,0.06-1.47-4.31-2.72-9.75c-1.25-5.44-2.06-9.9-1.81-9.96
									c0.25-0.06,1.47,4.3,2.72,9.75C118.32,306.02,119.13,310.48,118.87,310.54z"/>
							</g>
						</g>
						<g>
							<g>
								<path class="st9" d="M131.45,302.85c-0.27,0.03-0.86-3.7-2.08-8.17c-1.2-4.48-2.59-7.99-2.34-8.1
									c0.22-0.11,2.02,3.3,3.24,7.86C131.52,298.99,131.69,302.83,131.45,302.85z"/>
							</g>
						</g>
						<g>
							<g>
								<path class="st9" d="M139.62,294.74c-0.29,0.01-0.31-3.75-1.83-8.02c-1.47-4.29-3.78-7.25-3.54-7.43
									c0.15-0.17,2.9,2.63,4.43,7.12C140.25,290.88,139.85,294.78,139.62,294.74z"/>
							</g>
						</g>
						<g>
							<g>
								<path class="st9" d="M140.94,308.73c0.03,0.02-0.11,0.26-0.39,0.7c-0.29,0.43-0.68,1.1-1.29,1.89
									c-1.16,1.62-2.98,3.85-5.52,6.36c-5.01,5.01-13.3,10.9-23.84,13.9c-10.54,2.99-20.7,2.33-27.59,0.7
									c-3.47-0.8-6.2-1.74-8.04-2.51c-0.93-0.36-1.61-0.72-2.09-0.93c-0.47-0.23-0.71-0.36-0.7-0.39
									c0.03-0.07,1.05,0.33,2.91,0.98c1.86,0.66,4.6,1.5,8.05,2.2c6.85,1.45,16.84,1.98,27.2-0.96
									c10.36-2.94,18.57-8.64,23.64-13.47c2.56-2.41,4.45-4.57,5.69-6.1C140.21,309.56,140.87,308.69,140.94,308.73z"/>
							</g>
						</g>
						<g>
							<g>
								<path class="st9" d="M55.61,268.12c-0.12-0.01,0.42-1.1,2.08-1.19c0.78-0.03,1.8,0.21,2.55,1.07
									c0.77,0.86,0.84,2.3,0.25,3.4c-0.56,1.11-1.78,1.88-2.93,1.73c-1.14-0.12-1.92-0.83-2.34-1.48
									c-0.87-1.42-0.28-2.48-0.21-2.39c0.15,0.01-0.09,0.97,0.75,2c0.4,0.49,1.07,0.97,1.86,1c0.77,0.06,1.6-0.47,2.04-1.3
									c0.43-0.84,0.4-1.81-0.09-2.41c-0.48-0.62-1.25-0.9-1.88-0.95C56.35,267.49,55.71,268.24,55.61,268.12z"/>
							</g>
						</g>
						<g>
							<g>
								<path class="st9" d="M79.65,271.83c0.06,0.15-1.03,0.31-1.66,1.65c-0.29,0.63-0.43,1.54-0.05,2.32
									c0.36,0.78,1.34,1.26,2.38,1.16c1.04-0.1,1.92-0.75,2.12-1.59c0.23-0.83-0.08-1.7-0.49-2.27c-0.87-1.2-1.97-1.15-1.94-1.3
									c-0.01-0.05,0.25-0.16,0.72-0.1c0.47,0.05,1.15,0.34,1.73,0.98c0.56,0.63,1.07,1.67,0.81,2.9
									c-0.24,1.25-1.52,2.21-2.87,2.31c-1.34,0.15-2.78-0.55-3.26-1.73c-0.49-1.15-0.18-2.27,0.25-3
									c0.45-0.74,1.06-1.15,1.52-1.29C79.38,271.72,79.65,271.78,79.65,271.83z"/>
							</g>
						</g>
						<g>
							<g>
								<path class="st9" d="M107.69,273.48c-0.08-0.09,1.05-0.5,2.25,0.6c0.55,0.52,1.09,1.41,0.96,2.52
									c-0.1,1.14-1.13,2.12-2.32,2.38c-1.18,0.29-2.54-0.15-3.12-1.13c-0.6-0.95-0.5-1.98-0.23-2.69c0.6-1.51,1.8-1.64,1.77-1.52
									c0.08,0.13-0.82,0.47-1.13,1.73c-0.14,0.59-0.12,1.39,0.32,2c0.41,0.62,1.31,0.9,2.2,0.7c0.88-0.2,1.57-0.85,1.67-1.59
									c0.13-0.74-0.2-1.47-0.59-1.94C108.63,273.55,107.67,273.63,107.69,273.48z"/>
							</g>
						</g>
						<g>
							<g>
								<path class="st9" d="M128.56,260.2c-0.01-0.1,1.2-0.03,2.28,1.4c0.51,0.69,0.91,1.8,0.61,2.99
									c-0.27,1.15-1.18,2.34-2.6,2.71c-1.44,0.34-2.82-0.34-3.52-1.33c-0.77-1.02-0.61-2.33-0.14-3.07
									c0.45-0.78,1.11-1.18,1.58-1.3c0.48-0.12,0.74-0.04,0.74,0.01c0.05,0.14-1.11,0.23-1.73,1.59c-0.3,0.65-0.33,1.54,0.25,2.25
									c0.54,0.7,1.62,1.18,2.6,0.94c1-0.25,1.74-1.14,1.99-2.02c0.27-0.89,0.04-1.77-0.33-2.4
									C129.52,260.67,128.49,260.34,128.56,260.2z"/>
							</g>
						</g>
						<g>
							<g>
								<path class="st9" d="M27.3,339.38c-0.09-0.08,0.86-0.64,2.19,0.08c0.61,0.35,1.3,1.02,1.48,2.05
									c0.21,1.04-0.37,2.2-1.32,2.83c-0.94,0.65-2.24,0.74-3.12,0.16c-0.88-0.56-1.25-1.44-1.34-2.14
									c-0.17-1.5,0.71-2.17,0.75-2.06c0.13,0.08-0.39,0.78-0.09,1.93c0.15,0.55,0.51,1.19,1.13,1.52c0.6,0.35,1.46,0.27,2.15-0.2
									c0.69-0.47,1.09-1.24,0.99-1.92c-0.08-0.69-0.53-1.27-0.99-1.61C28.17,339.31,27.32,339.53,27.3,339.38z"/>
							</g>
						</g>
						<g>
							<g>
								<path class="st9" d="M44.47,340.67c-0.08-0.09,1.04-0.5,2.27,0.56c0.56,0.51,1.12,1.37,1.05,2.49
									c-0.05,1.13-1,2.18-2.17,2.52c-1.15,0.37-2.53,0.05-3.21-0.85c-0.69-0.88-0.71-1.91-0.54-2.65
									c0.41-1.57,1.57-1.86,1.55-1.74c0.1,0.12-0.74,0.59-0.9,1.87c-0.07,0.61,0.05,1.4,0.55,1.96c0.48,0.57,1.4,0.78,2.27,0.51
									c0.87-0.27,1.51-0.96,1.58-1.71c0.1-0.75-0.25-1.47-0.66-1.93C45.41,340.74,44.46,340.83,44.47,340.67z"/>
							</g>
						</g>
						<g>
							<g>
								<path class="st9" d="M80.02,345.47c-0.04-0.03,0.04-0.27,0.4-0.52c0.35-0.25,1.01-0.44,1.78-0.25
									c0.75,0.15,1.69,0.94,1.74,2.09c0.08,1.08-0.52,2.32-1.73,2.85c-1.21,0.49-2.47,0.09-3.26-0.58
									c-0.83-0.69-1.12-1.67-1.13-2.42c-0.01-1.55,0.75-2.26,0.81-2.19c0.14,0.06-0.32,0.86-0.15,2.13
									c0.09,0.62,0.39,1.33,1.02,1.8c0.61,0.48,1.56,0.72,2.35,0.39c0.77-0.31,1.25-1.2,1.22-1.93c0-0.76-0.52-1.28-1.08-1.5
									C80.81,344.88,80.09,345.58,80.02,345.47z"/>
							</g>
						</g>
						<g>
							<g>
								<path class="st9" d="M100.63,343.15c-0.05-0.01-0.02-0.33,0.37-0.67c0.38-0.34,1.16-0.64,2.08-0.34
									c0.96,0.27,1.72,1.49,1.54,2.73c-0.09,1.28-1.22,2.48-2.56,2.84c-1.33,0.41-2.77,0.17-3.76-0.57
									c-0.5-0.36-0.88-0.89-1.03-1.44c-0.17-0.57-0.02-1.19,0.25-1.57c0.53-0.81,1.36-1.07,1.89-0.97
									c0.54,0.12,0.67,0.43,0.63,0.46c-0.05,0.06-0.27-0.11-0.66-0.09c-0.38,0.01-0.97,0.31-1.28,0.94
									c-0.36,0.59-0.07,1.45,0.71,1.97c0.77,0.53,1.92,0.71,2.99,0.38c1.08-0.31,1.85-1.12,1.97-2.05c0.16-0.92-0.29-1.75-0.92-2
									c-0.64-0.29-1.28-0.16-1.64,0.02C100.84,342.97,100.7,343.19,100.63,343.15z"/>
							</g>
						</g>
						<g>
							<g>
								<path class="st9" d="M116.45,340.47c-0.04-0.02-0.01-0.31,0.39-0.63c0.38-0.32,1.17-0.5,2.01-0.2
									c0.41,0.15,0.85,0.42,1.19,0.86c0.35,0.45,0.5,1.08,0.43,1.67c-0.13,1.23-1.05,2.34-2.29,2.87
									c-1.27,0.53-2.68,0.32-3.65-0.4c-0.48-0.37-0.83-0.87-0.96-1.42c-0.14-0.57,0.03-1.1,0.24-1.49
									c0.44-0.8,1.18-1.14,1.68-1.12c0.51,0.03,0.71,0.26,0.68,0.3c-0.03,0.07-0.27-0.02-0.64,0.07
									c-0.36,0.08-0.86,0.42-1.12,1.05c-0.3,0.61-0.11,1.41,0.64,1.91c0.71,0.48,1.83,0.64,2.77,0.23
									c0.96-0.4,1.68-1.27,1.79-2.11c0.16-0.88-0.39-1.51-1.01-1.82c-0.62-0.3-1.22-0.26-1.56-0.1
									C116.68,340.31,116.52,340.52,116.45,340.47z"/>
							</g>
						</g>
						<g>
							<g>
								<path class="st9" d="M134.01,332.28c0.05,0.15-1.16,0.18-1.98,1.56c-0.38,0.65-0.64,1.63-0.29,2.51
									c0.32,0.89,1.36,1.48,2.5,1.43c1.14-0.04,2.13-0.71,2.38-1.62c0.28-0.9-0.05-1.85-0.49-2.47c-0.93-1.32-2.13-1.25-2.1-1.4
									c-0.01-0.05,0.27-0.16,0.78-0.09c0.51,0.06,1.23,0.38,1.85,1.08c0.58,0.69,1.12,1.82,0.8,3.12c-0.3,1.33-1.73,2.3-3.18,2.33
									c-1.45,0.08-2.94-0.76-3.35-2.07c-0.42-1.27,0.02-2.44,0.55-3.18c0.56-0.75,1.26-1.12,1.75-1.23
									C133.74,332.14,134.02,332.23,134.01,332.28z"/>
							</g>
						</g>
						<g>
							<g>
								<path class="st9" d="M155.68,310.42c-0.09-0.05,0.8-0.95,2.62-0.73c0.86,0.12,1.98,0.65,2.53,1.81
									c0.53,1.08,0.54,2.68-0.53,3.79c-1.13,1.09-2.79,1-3.82,0.28c-0.53-0.36-0.89-0.92-1-1.5c-0.11-0.57,0.02-1.1,0.21-1.52
									c0.39-0.84,1.08-1.28,1.57-1.38c0.5-0.1,0.77,0.03,0.76,0.07c0,0.08-0.26,0.09-0.64,0.27c-0.37,0.17-0.84,0.6-1.08,1.28
									c-0.25,0.67-0.12,1.58,0.66,2.05c0.73,0.48,1.98,0.48,2.67-0.23c0.72-0.72,0.78-1.93,0.41-2.76
									c-0.36-0.86-1.16-1.34-1.87-1.52C156.69,309.99,155.74,310.57,155.68,310.42z"/>
							</g>
						</g>
						<g class="st4">
							<g>
								<path d="M60.9,327.39c1.05,3.18,2.5,6.23,4.31,9.05c0.41,0.64,1.1,1.37,1.81,1.08c0.41-0.17,0.62-0.62,0.79-1.04
									c3.66-9.22,3.74-19.8,0.23-29.08c-3.65,6.11-6.1,12.92-7.18,19.95"/>
							</g>
						</g>
					</g>
				</g>
			</g>
		</g>
		<g>
			<g>
				<path class="st0" d="M506,373.29c0,0.15-111.53,0.28-249.07,0.28c-137.59,0-249.09-0.12-249.09-0.28
					c0-0.15,111.5-0.27,249.09-0.27C394.47,373.01,506,373.14,506,373.29z"/>
			</g>
		</g>
		<g id="freepik--character-1--inject-2_1_">
			
				<rect x="68.59" y="218.56" transform="matrix(0.9963 -0.0856 0.0856 0.9963 -19.2703 6.7831)" class="st34" width="1.77" height="19.13"/>
			<path class="st0" d="M68.71,179.23c-5.86,3.17-37.64,5.75-41.3,0.2c-3.6-5.88-2.36-13.52,2.92-17.96
				c-3.14-3.32-4.97-7.68-5.12-12.25c-0.1-4.61,2.07-8.97,5.82-11.66c3.86-2.6,8.92-2.52,12.7,0.18c-2.58-1.86-1.68-5.98,0.2-8.54
				c5.59-7.57,16.25-9.17,23.81-3.58c1.27,0.94,2.4,2.04,3.36,3.29c2.76-8.14,11.6-12.49,19.73-9.72
				c5.96,2.02,10.11,7.43,10.52,13.71c5.25-2.13,11.48,1.74,13.59,7c2.11,5.25,1.13,11.32-0.63,16.67"/>
			<path class="st7" d="M52.36,199.45c-2.62-3.21-3.92-7.3-3.65-11.44c0.3-4.11,1.46-8.11,3.42-11.73
				c8.54-16.47,25.47-26.87,44.02-27.06c7.33-0.22,14.51,2.04,20.38,6.43c5.89,4.57,8.66,12.11,7.13,19.41"/>
			<path class="st13" d="M112.26,254.43c-0.32-6.97-0.48-13.29-0.48-13.29s15.35-3.31,14.67-19.2c-0.68-15.9-5.41-52.26-5.41-52.26
				l-29.75-11.32L68.08,183.1L77,256.97c1.59,10.44,7.97,18.89,18.43,17.48l0,0C105.37,273.12,112.66,264.45,112.26,254.43z"/>
			<path class="st0" d="M80.49,165.84c-4.53,7.45-1.34,11.96,4.53,18.39c2.44,3.03,6.17,4.71,10.05,4.53
				c3.8-0.45,7.18-4.37,6.05-8.04c-0.97,4.26,1.69,8.49,5.95,9.46c4.26,0.97,8.49-1.69,9.46-5.95c0.34-1.51,0.24-3.09-0.31-4.53
				c0.47,1.69,1.23,3.29,2.26,4.71c1.04,1.42,2.78,2.16,4.53,1.92c2.26-0.52,5.39-0.68,5.66-4.53c0.63-8.58-2.11-15.44-7.68-20.04
				c-6.45-4.64-14.44-6.61-22.3-5.5c-7.18,1.26-13.75,4.83-18.7,10.17"/>
			<path class="st0" d="M85.11,165.46c2.38,4.31,3.88,9.05,4.39,13.95c0.52,4.93-0.91,9.87-3.99,13.77
				c-3.18,3.89-8.32,5.61-13.2,4.39c1.63,4.2,1.3,8.9-0.88,12.84c-2.38,3.91-7.17,5.61-11.48,4.08c-3.67-1.61-5.55-5.73-6.36-9.65
				c-3.68-17.59,7.6-34.83,25.19-38.51c2.3-0.48,4.64-0.71,6.99-0.69"/>
			<path class="st13" d="M71.16,205.74c-2.4-0.89-5.11-0.06-6.59,2.04c-3.34,3.72-3.03,9.45,0.69,12.79
				c2.56,2.29,6.19,2.94,9.38,1.68"/>
			<path class="st14" d="M71.45,217.72c0,0-0.68,0.23-1.81,0c-1.52-0.29-2.8-1.31-3.44-2.72c-0.32-0.82-0.32-1.72,0-2.54
				c0.25-0.65,0.67-1.22,1.22-1.65c0.93-0.7,1.68-0.72,1.7-0.66c0.02,0.07-0.61,0.34-1.36,1.06c-0.96,0.89-1.27,2.29-0.77,3.51
				c0.57,1.2,1.63,2.1,2.9,2.47C70.77,217.43,71.45,217.47,71.45,217.72z"/>
			<path class="st0" d="M102.29,214.78c0,0,0.2,0.32,0,0.79c-0.14,0.64-0.46,1.24-0.93,1.7c-0.46,0.46-1.05,0.78-1.7,0.91
				c-0.5,0-0.79,0-0.82,0c-0.02,0,1.09-0.43,1.97-1.34C101.7,215.93,102.09,214.76,102.29,214.78z"/>
			<path class="st0" d="M122.17,197.95c0.14,1.24-0.75,2.37-1.99,2.51c-0.02,0-0.03,0-0.05,0c-1.22,0.18-2.36-0.66-2.56-1.88
				c-0.14-1.24,0.75-2.37,1.99-2.51c0.02,0,0.03,0,0.05,0C120.84,195.9,121.98,196.73,122.17,197.95z"/>
			<path class="st0" d="M123.69,194.6c-0.25,0.32-2.11-0.84-4.53-0.61s-4.19,1.63-4.53,1.34c-0.34-0.29,0-0.68,0.84-1.34
				c1.01-0.83,2.25-1.34,3.56-1.45c1.3-0.11,2.6,0.19,3.71,0.86C123.53,193.92,123.83,194.44,123.69,194.6z"/>
			<path class="st0" d="M98.96,200.17c0.14,1.24-0.75,2.37-1.99,2.51c-0.02,0-0.03,0-0.05,0c-1.22,0.18-2.36-0.66-2.56-1.88
				c-0.14-1.24,0.75-2.37,1.99-2.51c0.02,0,0.03,0,0.05,0C97.63,198.12,98.77,198.95,98.96,200.17z"/>
			<path class="st0" d="M99.28,196.69c-0.27,0.32-2.13-0.82-4.53-0.59c-2.4,0.23-4.19,1.61-4.53,1.34c-0.34-0.27,0-0.7,0.84-1.34
				c1.01-0.85,2.26-1.36,3.58-1.45c1.29-0.12,2.59,0.18,3.69,0.86C99.1,196.03,99.39,196.55,99.28,196.69z"/>
			<path class="st0" d="M109.38,214.64c1.27-0.52,2.6-0.89,3.96-1.09c0.63,0,1.22-0.29,1.29-0.72c0-0.67-0.2-1.32-0.59-1.86
				l-2.26-4.66c-2.09-3.94-3.87-8.05-5.3-12.27c2.39,3.77,4.46,7.72,6.2,11.82l2.26,4.71c0.46,0.73,0.66,1.59,0.54,2.45
				c-0.14,0.48-0.51,0.85-0.97,1.02c-0.34,0.13-0.7,0.21-1.06,0.25C112.12,214.58,110.75,214.7,109.38,214.64z"/>
			<path class="st14" d="M109.04,223.27c0.5-1.15-0.03-2.48-1.18-2.98c-0.48-0.21-1.02-0.24-1.52-0.1
				c-0.01-0.89-0.63-1.66-1.49-1.86c-0.86-0.19-1.76,0.04-2.42,0.63c-1.27,1.15-1.62,3-0.86,4.53c0.82,1.5,2.49,2.35,4.19,2.13
				c1.7-0.25,3.11-1.43,3.65-3.06"/>
			<path class="st0" d="M102.2,216.98c0.41,0,0.66,2.65,3.12,4.37c2.47,1.72,5.32,1.15,5.37,1.54c0.05,0.38-0.59,0.59-1.81,0.72
				c-1.6,0.16-3.2-0.25-4.53-1.15c-1.27-0.85-2.15-2.17-2.45-3.67C101.77,217.72,102.02,216.98,102.2,216.98z"/>
			<path class="st0" d="M101.07,192.16c-0.18,0.7-2.69,0.59-5.57,1.18c-2.88,0.59-5.19,1.61-5.62,1.04s0.16-0.95,1.04-1.7
				c2.44-1.83,5.58-2.44,8.54-1.68C100.57,191.34,101.14,191.82,101.07,192.16z"/>
			<path class="st0" d="M122.94,189.82c-0.38,0.61-2.26,0.16-4.21,0.32s-3.76,0.7-4.21,0.14c-0.45-0.57,0-0.86,0.72-1.45
				c0.97-0.74,2.14-1.16,3.35-1.22c1.21-0.08,2.41,0.22,3.44,0.86C122.83,188.96,123.1,189.53,122.94,189.82z"/>
			<path class="st14" d="M111.78,241.14c-7.38,0.43-14.72-1.3-21.13-4.98c0,0,5.82,11.14,21.2,8.88L111.78,241.14z"/>
			<path class="st9" d="M58.66,179.68c0,0-0.48-0.29-1.09-0.97c-0.81-0.89-1.45-1.93-1.88-3.06c-0.42-1.14-0.59-2.35-0.5-3.56
				c-0.01-0.5,0.09-0.99,0.29-1.45c-0.03,1.64,0.19,3.27,0.66,4.85C56.83,176.97,57.68,178.37,58.66,179.68z"/>
			<path class="st9" d="M64.23,173.52c-0.39-0.26-0.74-0.59-1.02-0.97c-0.74-0.86-1.37-1.81-1.88-2.83
				c-0.49-1.02-0.87-2.09-1.15-3.19c-0.16-0.44-0.24-0.91-0.23-1.38c0.16,0,0.7,2.02,1.81,4.37
				C62.87,171.87,64.36,173.41,64.23,173.52z"/>
			<path class="st9" d="M72.76,168.24c0,0-0.48-0.41-1.13-1.18c-0.84-1.01-1.6-2.08-2.26-3.22c-0.64-1.14-1.21-2.32-1.7-3.53
				c-0.23-0.49-0.4-1.01-0.5-1.54c0.16,0,1.13,2.26,2.6,4.85C71.25,166.21,72.9,168.15,72.76,168.24z"/>
			<path class="st9" d="M83.45,163.13c-0.18,0-1-2.47-2.67-5.21s-3.71-4.53-3.58-4.53c0.49,0.31,0.93,0.7,1.31,1.13
				c0.99,0.99,1.88,2.07,2.65,3.24c0.75,1.19,1.35,2.46,1.81,3.78C83.2,162.05,83.36,162.58,83.45,163.13z"/>
			<path class="st9" d="M92.49,157.92c-0.32-1.53-0.74-3.05-1.25-4.53c-0.84-1.27-1.77-2.47-2.79-3.6c0,0,0.48,0.25,1.11,0.82
				c0.86,0.73,1.57,1.61,2.11,2.6c0.46,1.02,0.74,2.12,0.82,3.24C92.58,156.93,92.58,157.43,92.49,157.92z"/>
			<path class="st9" d="M103.09,155.86c-0.14,0-0.61-1.59-1.68-3.37c-1.06-1.79-2.26-2.97-2.13-3.08c1.09,0.71,1.96,1.69,2.54,2.85
				C102.55,153.33,102.98,154.57,103.09,155.86z"/>
			<path class="st9" d="M112.23,157.38c-0.14,0-0.36-1.47-1.06-3.12c-0.48-0.98-1.11-1.88-1.86-2.67c1.07,0.46,1.9,1.36,2.26,2.47
				C112.1,155.07,112.33,156.23,112.23,157.38z"/>
			<path class="st9" d="M117.96,157.04c0,0,0.59,0.5,0.66,1.4c0.07,0.91-0.32,1.54-0.43,1.49c-0.11-0.05,0-0.68,0-1.45
				C118.19,157.71,117.85,157.1,117.96,157.04z"/>
			<path class="st9" d="M55.17,187.13c-2.92-0.97-4.88-3.71-4.85-6.79c0.35,1.38,0.93,2.7,1.7,3.89
				C52.92,185.35,53.98,186.32,55.17,187.13z"/>
			<path class="st9" d="M52.7,193.99c-0.89,0.11-1.78-0.15-2.47-0.72c-0.78-0.43-1.36-1.16-1.61-2.02c0.11,0,0.72,0.88,1.86,1.63
				C51.61,193.63,52.72,193.86,52.7,193.99z"/>
			<path class="st5" d="M110.42,178.19c0.62-0.13,1.24-0.3,1.83-0.52c1.57-0.75,2.83-2.03,3.53-3.62c1.06-2.37,0.87-5.11-0.5-7.31
				c-1.63-2.72-4.28-4.69-7.36-5.46c-3.08-0.78-6.28-0.95-9.42-0.5c-2.58,0.3-5.08,1.02-7.43,2.13c-2.14,1.05-4.04,2.54-5.57,4.37
				c0.34-0.56,0.75-1.07,1.2-1.54c1.23-1.28,2.67-2.35,4.26-3.15c2.36-1.17,4.9-1.94,7.52-2.26c3.2-0.48,6.46-0.32,9.6,0.48
				c3.19,0.82,5.92,2.86,7.61,5.68c1.41,2.33,1.57,5.2,0.43,7.68c-0.77,1.64-2.12,2.93-3.78,3.65
				C111.74,178.07,111.08,178.2,110.42,178.19z"/>
			<path class="st5" d="M93.42,180.13c0.75-0.73,1.33-1.62,1.7-2.6c0.32-1.08,0.32-2.23,0-3.31c-0.4-1.33-1.29-2.46-2.49-3.15
				c-2.26-1.2-4.62-2.19-7.07-2.94c-1.88-0.61-3.08-0.93-3.06-1c0.02-0.07,0.32,0,0.86,0.11s1.34,0.29,2.26,0.57
				c2.52,0.66,4.95,1.62,7.25,2.85c1.29,0.76,2.23,2,2.63,3.44c0.29,1.17,0.23,2.4-0.18,3.53c-0.28,0.75-0.73,1.43-1.31,1.99
				C93.84,179.83,93.64,180,93.42,180.13z"/>
			<path class="st5" d="M47.9,137.22c-0.02-0.73,0.11-1.45,0.38-2.13c0.71-1.92,2.07-3.52,3.85-4.53c2.72-1.42,5.94-1.49,8.72-0.2
				c3.39,1.65,5.88,4.72,6.79,8.38h-0.41c0.56-0.65,1.21-1.22,1.92-1.7c3.45-2.31,7.98-2.21,11.32,0.25c2.6,2.16,3.73,5.62,2.92,8.9
				c-0.56,2.16-1.93,4.03-3.83,5.21c-0.69,0.45-1.46,0.77-2.26,0.93c0.74-0.28,1.45-0.65,2.11-1.09c1.8-1.2,3.09-3.02,3.62-5.12
				c0.72-3.15-0.39-6.43-2.88-8.49c-3.21-2.33-7.54-2.4-10.82-0.18c-0.69,0.44-1.3,0.97-1.83,1.59l-0.29,0.32v-0.41
				c-0.9-3.53-3.3-6.49-6.57-8.11c-2.64-1.3-5.74-1.3-8.38,0c-1.73,0.92-3.08,2.42-3.83,4.23C48.18,135.77,48,136.49,47.9,137.22z"
				/>
			<path class="st5" d="M94.68,131.52c0.25,0.09,0.48,0.23,0.68,0.41c0.57,0.45,1.1,0.96,1.56,1.52c3.2,3.84,3.3,9.38,0.25,13.34
				c-0.44,0.57-0.94,1.1-1.49,1.56c-0.2,0.19-0.43,0.33-0.68,0.43c0.68-0.71,1.32-1.47,1.9-2.26c1.33-1.9,2.03-4.18,2.02-6.5
				c-0.08-2.33-0.87-4.57-2.26-6.43C96.04,132.85,95.38,132.16,94.68,131.52z"/>
			<path class="st5" d="M36.81,143.77c-0.76,1.92-0.91,4.02-0.43,6.02c0.5,2.16,1.84,4.04,3.71,5.23c2.3,1.46,5.14,1.8,7.72,0.93
				l0.97-0.34l-0.72,0.75l-0.32,0.32c-1.75,2.2-1.53,5.37,0.5,7.31c1.64,1.59,3.88,2.41,6.16,2.26c1.53-0.11,3.02-0.49,4.42-1.13
				c1-0.43,1.52-0.75,1.54-0.7c-0.45,0.34-0.94,0.63-1.45,0.88c-1.42,0.71-2.95,1.14-4.53,1.27c-2.38,0.22-4.75-0.61-6.48-2.26
				c-2.24-2.09-2.48-5.56-0.57-7.95l0.36-0.36l0.23,0.41c-2.72,0.91-5.7,0.53-8.11-1.02c-1.96-1.27-3.32-3.29-3.76-5.59
				c-0.38-1.49-0.38-3.04,0-4.53C36.23,144.73,36.48,144.22,36.81,143.77z"/>
		</g>
	</g>
</g>
<g id="Layer_7">
</g>
<g id="Layer_8">
</g>
<g id="Layer_9">
</g>
<g id="Layer_10">
</g>
</svg>
