<?xml version="1.0" encoding="utf-8"?>
<!-- Generator: Adobe Illustrator 24.0.0, SVG Export Plug-In . SVG Version: 6.00 Build 0)  -->
<svg version="1.1" id="Capa_1" xmlns="http://www.w3.org/2000/svg" xmlns:xlink="http://www.w3.org/1999/xlink" x="0px" y="0px"
	 viewBox="0 0 1675 565" style="enable-background:new 0 0 1675 565;" xml:space="preserve">
<style type="text/css">
	.st0{fill:#3952A2;}
	.st1{font-family:'TrajanPro-Bold';}
	.st2{font-size:104.7388px;}
	.st3{letter-spacing:-4;}
	.st4{letter-spacing:-5;}
	.st5{letter-spacing:-1;}
	.st6{letter-spacing:-2;}
</style>
<polygon class="st0" points="797.4,69.7 839.3,69.7 852.3,26.3 865.7,69.7 907.2,69.7 874.1,95.6 887.3,138.1 852.3,112.1 
	817.6,138.7 830.8,95.7 "/>
<polygon class="st0" points="981,73.7 1009.9,73.7 1018.8,43.9 1028,73.7 1056.6,73.7 1033.9,91.5 1043,120.7 1018.8,102.9 
	995,121.1 1004,91.6 "/>
<polygon class="st0" points="1113.1,76.3 1133.2,76.3 1139.5,55.5 1145.9,76.3 1165.8,76.3 1149.9,88.8 1156.3,109.2 1139.5,96.8 
	1122.9,109.5 1129.2,88.8 "/>
<polygon class="st0" points="539.6,76.3 559.6,76.3 565.9,55.5 572.4,76.3 592.3,76.3 576.4,88.8 582.7,109.2 565.9,96.8 
	549.3,109.5 555.6,88.8 "/>
<polygon class="st0" points="652,73.7 680.9,73.7 689.8,43.9 699,73.7 727.6,73.7 704.9,91.5 713.9,120.7 689.8,102.9 666,121.1 
	675,91.6 "/>
<path class="st0" d="M423.7,159.5c-149.9,0-271.4-0.8-271.4-1.9c0-1,121.5-1.8,271.4-1.8H800v3.7H423.7z"/>
<path class="st0" d="M1281.4,155.8c150,0,271.6,0.8,271.6,1.8c0,1-121.6,1.9-271.6,1.9H904.6v-3.7H1281.4z"/>
<text transform="matrix(1 0 0 1 223.4883 295.1016)"><tspan x="0" y="0" class="st0 st1 st2 st3">I</tspan><tspan x="43.2" y="0" class="st0 st1 st2 st3">NST</tspan><tspan x="265.4" y="0" class="st0 st1 st2 st3">I</tspan><tspan x="308.6" y="0" class="st0 st1 st2 st3">TU</tspan><tspan x="464" y="0" class="st0 st1 st2 st4">T</tspan><tspan x="532.9" y="0" class="st0 st1 st2 st3">O N</tspan><tspan x="748.3" y="0" class="st0 st1 st2 st3">A</tspan><tspan x="817.5" y="0" class="st0 st1 st2 st3">C</tspan><tspan x="897.2" y="0" class="st0 st1 st2 st4">I</tspan><tspan x="939.4" y="0" class="st0 st1 st2 st4">O</tspan><tspan x="1031.2" y="0" class="st0 st1 st2 st3">N</tspan><tspan x="1126.3" y="0" class="st0 st1 st2 st3">A</tspan><tspan x="1195.5" y="0" class="st0 st1 st2">L</tspan></text>
<text transform="matrix(1 0 0 1 497.9102 405.0742)"><tspan x="0" y="0" class="st0 st1 st2 st4">D</tspan><tspan x="92.8" y="0" class="st0 st1 st2 st3">E </tspan><tspan x="182.2" y="0" class="st0 st1 st2 st5">L</tspan><tspan x="243.6" y="0" class="st0 st1 st2 st3">A </tspan><tspan x="340.2" y="0" class="st0 st1 st2 st4">M</tspan><tspan x="444" y="0" class="st0 st1 st2 st3">UJE</tspan><tspan x="630.7" y="0" class="st0 st1 st2">R</tspan></text>
<text transform="matrix(1 0 0 1 693.0313 515.0625)"><tspan x="0" y="0" class="st0 st1 st2 st3">I</tspan><tspan x="43.2" y="0" class="st0 st1 st2 st3">N</tspan><tspan x="138.3" y="0" class="st0 st1 st2 st6">A</tspan><tspan x="209.5" y="0" class="st0 st1 st2">M</tspan></text>
</svg>
