<?xml version="1.0" encoding="utf-8"?>
<!-- Generator: Adobe Illustrator 24.0.0, SVG Export Plug-In . SVG Version: 6.00 Build 0)  -->
<svg version="1.1" xmlns="http://www.w3.org/2000/svg" xmlns:xlink="http://www.w3.org/1999/xlink" x="0px" y="0px"
	 viewBox="0 0 512 512" style="enable-background:new 0 0 512 512;" xml:space="preserve">
<style type="text/css">
	.st0{fill:#263238;}
	.st1{fill:#848484;}
	.st2{opacity:0.6;}
	.st3{fill:#FFFFFF;}
	.st4{opacity:0.3;}
	.st5{fill:#455A64;}
	.st6{fill:#6993F6;}
	.st7{fill:#FFB000;}
	.st8{opacity:0.2;}
	.st9{fill:#FAFAFA;}
	.st10{fill:#A36957;}
	.st11{fill:#7C3B29;}
	.st12{fill:#EA81DB;}
	.st13{fill:#B77153;}
	.st14{fill:#995037;}
	.st15{fill:none;stroke:#4E585D;stroke-width:1.5925;stroke-miterlimit:10;}
	.st16{fill:#FBFBFB;}
	.st17{fill:#FFBE9D;}
	.st18{opacity:0.6;fill:#FFFFFF;enable-background:new    ;}
	.st19{fill:#E0E0E0;}
	.st20{fill:#EB996E;}
	.st21{fill:#D1734A;}
	.st22{fill:#F7B73E;}
	.st23{fill:#FFAD9D;}
	.st24{fill:#E88774;}
	.st25{fill:#EF67D6;}
	.st26{fill:#A2CE63;}
	.st27{fill:#EAA98C;}
	.st28{fill:none;stroke:#4E585D;stroke-width:1.9822;stroke-miterlimit:10;}
	.st29{clip-path:url(#SVGID_2_);}
	.st30{fill:#3A2110;}
	.st31{fill:#231409;}
	.st32{opacity:0.4;}
	.st33{fill:#E8505B;}
	.st34{fill:#828282;}
	.st35{fill:none;stroke:#4E585D;stroke-width:1.348;stroke-miterlimit:10;}
	.st36{fill:#0C45A8;}
	.st37{clip-path:url(#SVGID_4_);}
	.st38{fill:#B78876;}
	.st39{fill:#AA6550;}
	.st40{fill:#183D72;}
	.st41{fill:none;stroke:#4E585D;stroke-width:2.5071;stroke-miterlimit:10;}
</style>
<g id="Layer_2">
</g>
<g id="Layer_3">
</g>
<g id="Layer_4">
	<g>
		<g>
			<g>
				<path class="st0" d="M503.32,464.65c0,0.14-111.5,0.26-249,0.26c-137.55,0-249.03-0.12-249.03-0.26
					c0-0.14,111.47-0.26,249.03-0.26C391.82,464.39,503.32,464.51,503.32,464.65z"/>
			</g>
		</g>
		<g id="freepik--Character--inject-2_1_">
			<path class="st0" d="M245.15,57.83c-5.39,15.91-5.69,33.1-0.86,49.18c2.96,9.82,7.85,19.63,6.36,29.76
				c-1.23,8.27-6.6,15.5-7.67,23.79c-2.15,16.86,13.87,32.82,9.58,49.26c-2.34,7.58-7.99,13.7-15.36,16.62
				c-7.32,2.85-15.23,3.85-23.03,2.91c-11.49-0.99-23.92-5.23-29.24-15.7c-4.24-8.17-2.91-17.98-1.44-27.04
				c6.49-40.1,13.98-80.49,30.23-117.78"/>
			<path class="st0" d="M250.26,181.77c-0.43,0.18-0.88,0.33-1.33,0.45c-1.33,0.31-2.7,0.42-4.06,0.34
				c-2.16-0.15-4.27-0.76-6.18-1.78c-2.55-1.35-4.62-3.47-5.92-6.05c-1.55-3.17-1.97-6.77-1.18-10.21c0.46-1.89,1.3-3.67,2.46-5.23
				c1.25-1.64,2.72-3.09,4.37-4.32c3.63-2.42,7.13-5.05,10.47-7.85c3.23-3.28,5.27-7.55,5.81-12.12c0.57-4.57,0.23-9.2-0.99-13.64
				c-1.18-4.15-2.71-8.19-4.55-12.09c-3.36-6.54-5.99-13.43-7.85-20.55c-1.2-4.87-1.2-9.95,0-14.81c0.43-1.78,1.15-3.47,2.15-5
				c-0.76,1.64-1.38,3.34-1.86,5.08c-1.06,4.82-0.99,9.82,0.21,14.61c1.94,7.06,4.63,13.88,8.04,20.36
				c1.88,3.93,3.44,8.01,4.66,12.2c1.25,4.55,1.6,9.3,1.02,13.98c-0.56,4.75-2.7,9.17-6.07,12.56c-3.34,2.82-6.83,5.44-10.47,7.85
				c-3.22,2.16-5.56,5.4-6.6,9.13c-0.8,3.28-0.44,6.74,1.02,9.79c1.23,2.5,3.19,4.56,5.63,5.92c1.84,1.01,3.87,1.64,5.97,1.86
				C246.76,182.35,248.54,182.19,250.26,181.77z"/>
			<path class="st10" d="M91.98,439.98l-6.54,25.07l-67.4-0.63c0,0,4.95-11.8,41.88-11.25l2.62-13.09L91.98,439.98z"/>
			<path class="st5" d="M337.36,64.01c-0.65,1.28-17.77,89.23-17.77,89.23l40.33,1.88l15.7-75.62L337.36,64.01z"/>
			<polygon class="st0" points="319.59,153.24 314.98,151.28 332.44,64.59 337.91,64.22 			"/>
			<path class="st0" d="M353.56,83.22c-0.15,1.15,0.66,2.2,1.8,2.35c1.15,0.15,2.2-0.66,2.35-1.8c0.15-1.15-0.66-2.2-1.8-2.35
				c-0.01,0-0.01,0-0.02,0c-1.13-0.15-2.17,0.64-2.33,1.77C353.57,83.2,353.57,83.21,353.56,83.22z"/>
			<path class="st10" d="M361.89,144.97l0.6-11.52l-17.22-7.12l6.73-15.94c3.09-7.03,11.29-10.22,18.32-7.12
				c0.35,0.15,0.69,0.32,1.02,0.5l7.01,3.8c4.93,2.67,8.5,7.3,9.82,12.75c1.85,9.3,3.19,18.69,4,28.14"/>
			<path class="st1" d="M408.01,438.09c0,0,70.88,19.63,73.73,20.63c4.27,1.52,3.56,17.14-3.09,16.91c-3.14,0-54.44,1.91-60.93,1.52
				s-26.04-8.11-26.04-8.11L408.01,438.09z"/>
			<path class="st0" d="M437.53,465.16c0.89-2.6,1.94-5.14,3.14-7.62c1.53-2.27,3.2-4.45,5-6.52
				C440.53,453.85,437.39,459.3,437.53,465.16z"/>
			<path class="st0" d="M430.15,461.81c0.34,0,1.07-3.3,2.96-6.99c1.88-3.69,4.11-6.31,3.85-6.54c-2.2,1.47-3.91,3.55-4.92,5.99
				C430.69,456.55,430.04,459.16,430.15,461.81z"/>
			<path class="st0" d="M423.21,459.95c0.37-2.53,0.93-5.04,1.68-7.49c1.11-2.31,2.4-4.53,3.85-6.65
				C424.13,448.91,421.93,454.55,423.21,459.95z"/>
			<path class="st0" d="M424.47,450.79c0.63-1.67,0.89-3.46,0.76-5.23c0-1.94-0.24-3.87-0.71-5.76c-0.27-1.12-0.62-2.22-1.05-3.3
				c-0.22-0.67-0.62-1.27-1.15-1.73c-0.71-0.58-1.73-0.58-2.43,0c-0.55,0.54-0.88,1.25-0.94,2.02c-0.05,0.62-0.05,1.24,0,1.86
				c0,1.17,0.14,2.34,0.42,3.48c0.48,1.9,1.22,3.72,2.2,5.42c0.79,1.6,1.86,3.05,3.17,4.27c0.18,0-1.02-1.75-2.43-4.66
				c-0.82-1.67-1.44-3.43-1.86-5.23c-0.22-1.07-0.34-2.16-0.34-3.25c0-1.1,0-2.46,0.65-2.98c0.27-0.23,0.67-0.23,0.94,0
				c0.36,0.35,0.62,0.78,0.79,1.26c0.41,1.02,0.77,2.06,1.07,3.11c0.49,1.81,0.8,3.67,0.92,5.55
				C424.6,448.75,424.29,450.76,424.47,450.79z"/>
			<path class="st0" d="M424.39,450.05c-1.45-0.58-3.02-0.83-4.58-0.73c-1.69,0-3.38,0.21-5.03,0.63c-1.02,0.21-2,0.57-2.91,1.07
				c-1.19,0.6-1.84,1.91-1.6,3.22c0.31,1.3,1.32,2.31,2.62,2.62c1.04,0.26,2.13,0.26,3.17,0c1.68-0.42,3.25-1.2,4.61-2.28
				c1.29-0.86,2.41-1.97,3.3-3.25c-1.32,0.77-2.58,1.65-3.77,2.62c-1.32,0.89-2.79,1.53-4.34,1.88c-0.86,0.21-1.76,0.21-2.62,0
				c-0.84-0.21-1.5-0.85-1.73-1.68c-0.12-0.83,0.31-1.64,1.07-1.99c0.83-0.44,1.71-0.78,2.62-0.99c1.56-0.44,3.15-0.72,4.76-0.84
				C422.61,449.98,424.37,450.26,424.39,450.05z"/>
			<path class="st0" d="M448.45,465.92c0.27-2.17,0.73-4.3,1.39-6.39c0.98-1.95,2.15-3.81,3.48-5.55c0-0.31-3.09,1.39-4.58,5.08
				C447.65,461.19,447.54,463.7,448.45,465.92z"/>
			<path class="st0" d="M398.98,469.19c0.83,0.51,1.71,0.94,2.62,1.28c2.56,0.99,5.18,1.8,7.85,2.43
				c8.88,1.98,17.97,2.86,27.06,2.62c10.63,0,20.21-0.58,27.14-0.86l8.22-0.44c1,0,2-0.11,2.98-0.31c-1-0.15-2-0.19-3.01-0.13h-8.22
				l-27.12,0.52c-9.01,0.23-18.02-0.51-26.88-2.2C403.01,470.71,399.06,468.95,398.98,469.19z"/>
			<path class="st0" d="M396.88,470.78c1.78-0.7,3.53-1.5,5.23-2.38c4.17-1.99,8.81-2.77,13.4-2.25c4.51,0.99,8.58,3.42,11.6,6.91
				c1.27,1.48,2.63,2.87,4.08,4.16c-0.94-1.72-2.1-3.31-3.46-4.74c-1.4-1.64-2.98-3.11-4.71-4.4c-2.16-1.61-4.67-2.67-7.33-3.09
				c-4.81-0.6-9.69,0.31-13.95,2.62C399.98,468.42,398.33,469.48,396.88,470.78z"/>
			<path class="st1" d="M332.78,418.54c0,0-66.98,43.92-69.6,45.73c-3.61,2.62,0.55,15.7,6.81,13.48
				c2.96-1.07,59.23-16.73,65.28-19.08c6.05-2.36,22.35-15.7,22.35-15.7L332.78,418.54z"/>
			<path class="st0" d="M312.92,453.27c-0.65-2.83-2.23-5.36-4.5-7.17c-1.99-2.11-4.66-3.46-7.54-3.82c2.35,1.42,4.6,2.98,6.75,4.69
				C309.51,448.97,311.27,451.08,312.92,453.27z"/>
			<path class="st0" d="M318.88,447.83c-1.7-4.98-5.54-8.95-10.47-10.81c-0.18,0.29,2.77,2.07,5.65,5.05
				C316.95,445.06,318.57,447.99,318.88,447.83z"/>
			<path class="st0" d="M324.93,443.96c-0.41-5.54-4.22-10.23-9.55-11.78c2.03,1.59,3.93,3.34,5.68,5.23
				C322.51,439.49,323.81,441.68,324.93,443.96z"/>
			<path class="st0" d="M320.95,435.61c0.16,0-0.76-1.88-1.52-5c-0.45-1.83-0.72-3.69-0.79-5.58c-0.06-1.1-0.06-2.2,0-3.3
				c0.02-0.49,0.14-0.97,0.37-1.41c0.2-0.3,0.6-0.4,0.92-0.21c0.79,0.31,1.18,1.6,1.54,2.62c0.33,1.03,0.54,2.09,0.65,3.17
				c0.17,1.87,0.11,3.75-0.18,5.6c-0.47,3.17-1.1,5.23-0.92,5.23c0.9-1.56,1.49-3.27,1.75-5.05c0.41-1.91,0.55-3.86,0.42-5.81
				c-0.09-1.17-0.3-2.33-0.63-3.46c-0.19-0.6-0.41-1.18-0.65-1.75c-0.3-0.7-0.84-1.28-1.52-1.62c-0.83-0.38-1.82-0.12-2.36,0.63
				c-0.35,0.61-0.54,1.31-0.55,2.02c-0.08,1.15-0.08,2.3,0,3.45c0.13,1.94,0.49,3.85,1.07,5.71
				C319,432.59,319.81,434.21,320.95,435.61z"/>
			<path class="st0" d="M320.77,434.9c0,0.18,1.68-0.63,4.37-1.28c1.58-0.38,3.19-0.6,4.82-0.65c0.92-0.07,1.85-0.01,2.75,0.18
				c0.83,0.09,1.49,0.74,1.6,1.57c0.03,0.86-0.4,1.67-1.13,2.12c-0.79,0.49-1.69,0.78-2.62,0.84c-1.59,0.14-3.2-0.02-4.74-0.47
				c-1.42-0.55-2.88-0.99-4.37-1.31c1.23,0.96,2.64,1.67,4.14,2.09c1.62,0.62,3.35,0.88,5.08,0.76c1.07-0.06,2.12-0.39,3.04-0.94
				c1.09-0.69,1.72-1.91,1.65-3.19c-0.16-1.37-1.24-2.46-2.62-2.62c-1.01-0.19-2.04-0.24-3.06-0.16c-1.7,0.11-3.38,0.43-5,0.94
				C323.23,433.2,321.9,433.92,320.77,434.9z"/>
			<path class="st0" d="M278.63,475.29c0,0,1.13-0.68,1.65-2.62c0.53-2.5,0.08-5.1-1.26-7.28c-0.67-1.17-1.42-2.29-2.25-3.35
				c-0.64-0.91-1.41-1.73-2.28-2.43c-0.61-0.51-1.36-0.83-2.15-0.92c-0.55,0-0.84,0-0.84,0.18c0.9,0.27,1.73,0.73,2.43,1.36
				c0.72,0.75,1.37,1.56,1.94,2.43c0.68,1.02,1.44,2.09,2.09,3.3c1.2,1.96,1.72,4.26,1.47,6.54
				C279.22,473.45,278.95,474.38,278.63,475.29z"/>
			<path class="st0" d="M302.71,457.3c-0.02-4.86-3.49-9.01-8.27-9.89c1.79,1.25,3.46,2.66,5,4.21
				C300.69,453.42,301.78,455.32,302.71,457.3z"/>
			<path class="st0" d="M350.82,445.4c-1.03,0.59-2.01,1.27-2.93,2.02c-2.66,1.85-5.42,3.55-8.27,5.08
				c-4.23,2.24-8.6,4.19-13.09,5.84c-5.08,1.91-10.78,3.69-16.8,5.44c-12.07,3.46-22.98,6.65-30.86,9l-9.34,2.88
				c-1.15,0.31-2.27,0.71-3.35,1.2c1.18-0.16,2.34-0.42,3.48-0.76l9.42-2.62c7.85-2.15,18.9-5.23,30.99-8.69
				c6.02-1.75,11.75-3.56,16.86-5.55c4.51-1.72,8.88-3.77,13.09-6.12c2.84-1.6,5.57-3.41,8.14-5.42
				C349.11,447.03,350.01,446.25,350.82,445.4z"/>
			<path class="st0" d="M353.3,446.31c-1.8-0.81-3.72-1.32-5.68-1.52c-4.76-0.9-9.68-0.3-14.08,1.73c-2.41,1.23-4.49,3.02-6.05,5.23
				c-1.25,1.74-2.31,3.62-3.14,5.6c-0.87,1.76-1.5,3.64-1.86,5.58c0.99-1.68,1.86-3.43,2.62-5.23c1.81-4.25,4.95-7.8,8.95-10.1
				c4.21-1.9,8.88-2.57,13.45-1.94C351.08,446,353.28,446.49,353.3,446.31z"/>
			<path class="st6" d="M171.92,156.88l54.97,5.23l22.35,6.33c9.54,2.71,18.28,7.72,25.44,14.58l72.01,69.13l13.09-107.31
				l35.99,3.11l-6.02,138.2c-5.44,17.09-21.33,28.68-39.26,28.66c-10.82-0.15-21.18-4.4-28.97-11.91l-51.28-48.21l-1.52,68.89
				l35.57,28.79L167.1,428.8c0,0-7.43-29.21-4.06-94.23c0.63-11.94-21.25-48.16-22.93-58.81c-6.41-40.96-5.42-100.88-5.42-100.88
				L171.92,156.88z"/>
			<path class="st6" d="M138.12,173.58c0,0-27.82,10.34-34.55,32.12c-5.97,19.34-25.89,128.02-25.89,128.02L57.93,448.88l41.38,1.57
				l47.61-196.04L138.12,173.58z"/>
			<path class="st0" d="M136.27,300.63c0.37-0.74,0.65-1.52,0.84-2.33c0.47-1.52,1.1-3.74,1.83-6.49c1.49-5.52,3.4-13.09,5.23-21.65
				s3.46-16.2,4.48-21.83c0.5-2.8,0.89-5.08,1.13-6.65c0.18-0.82,0.26-1.65,0.24-2.49c-0.32,0.77-0.56,1.58-0.71,2.41
				c-0.39,1.81-0.89,3.98-1.49,6.57c-1.28,5.84-2.96,13.37-4.79,21.72l-4.97,21.7c-0.58,2.62-1.05,4.79-1.47,6.6
				C136.39,298.99,136.28,299.81,136.27,300.63z"/>
			<path class="st0" d="M389.48,158.19c0.74-1.71,1.1-3.56,1.07-5.42c0.37-1.83,0.37-3.72,0-5.55c-0.74,1.72-1.11,3.57-1.07,5.44
				C389.11,154.49,389.11,156.36,389.48,158.19z"/>
			<path class="st0" d="M378.95,158.5c0.69-1.84,0.99-3.8,0.89-5.76c0.28-1.95,0.18-3.93-0.29-5.84c-0.69,1.85-1,3.82-0.89,5.78
				C378.38,154.63,378.48,156.6,378.95,158.5z"/>
			<path class="st0" d="M368.51,157.85c0.68-2.08,1-4.25,0.94-6.44c0.33-2.16,0.25-4.36-0.24-6.49c-0.7,2.07-1.02,4.25-0.94,6.44
				C367.95,153.51,368.03,155.72,368.51,157.85z"/>
			<path class="st0" d="M348.28,268.59c0.26-3.17,0.13-6.36-0.39-9.5c-0.13-3.19-0.65-6.34-1.57-9.4c-0.26,3.17-0.13,6.36,0.39,9.5
				C346.82,262.38,347.35,265.54,348.28,268.59z"/>
			<path class="st0" d="M92.5,438.35c-0.92,1.79-1.46,3.75-1.6,5.76c-0.53,1.94-0.69,3.97-0.44,5.97c0.92-1.79,1.46-3.75,1.6-5.76
				C92.59,442.38,92.74,440.35,92.5,438.35z"/>
			<path class="st0" d="M78.89,438.33c-0.84,1.63-1.34,3.41-1.47,5.23c-0.49,1.76-0.59,3.61-0.31,5.42c0.88-1.61,1.39-3.4,1.49-5.23
				C79.07,441.98,79.17,440.13,78.89,438.33z"/>
			<path class="st0" d="M65.99,437.02c-0.76,1.89-1.22,3.88-1.36,5.92c-0.52,1.96-0.74,3.99-0.65,6.02
				c1.06-1.77,1.69-3.76,1.83-5.81C66.32,441.14,66.39,439.05,65.99,437.02z"/>
			<path class="st0" d="M115.8,186.98c0,0.24,2.88,0,7.35,0.99c5.82,1.24,11.22,3.94,15.7,7.85c4.47,3.96,7.86,8.98,9.87,14.61
				c1.54,4.32,1.75,7.2,1.96,7.17c0.12-0.67,0.12-1.37,0-2.04c-0.21-1.83-0.6-3.63-1.15-5.39c-1.82-5.89-5.24-11.16-9.87-15.23
				c-4.65-4.07-10.33-6.78-16.41-7.85c-1.82-0.31-3.66-0.44-5.5-0.39C117.1,186.69,116.44,186.79,115.8,186.98z"/>
			<path class="st0" d="M264.39,284.06c-0.24,0,1.07-3.4,2.38-8.93c3.41-14.49,2.6-29.66-2.33-43.71c-1.88-5.37-3.53-8.51-3.32-8.61
				c0.21-0.1,0.58,0.71,1.36,2.09c1.08,1.99,2.04,4.06,2.85,6.18c5.54,14.12,6.37,29.66,2.36,44.29c-0.58,2.2-1.31,4.35-2.2,6.44
				C265.22,282.6,264.85,283.36,264.39,284.06z"/>
			<path class="st0" d="M267.9,322.04c-0.78,0.15-1.58,0.21-2.38,0.16c-1.52,0-3.74,0-6.46-0.29c-14.28-1.22-28.2-5.2-40.96-11.73
				c-2.43-1.26-4.37-2.36-5.65-3.19c-0.71-0.36-1.36-0.83-1.94-1.39c0-0.18,3.06,1.44,8.01,3.72c12.86,5.98,26.57,9.9,40.65,11.62
				C262.09,321.16,265,321.52,267.9,322.04z"/>
			<g class="st8">
				<path d="M207.17,302.88c4.29,3.87,10.99,4.42,16.75,4.32c5.76-0.1,11.52-1.26,17.3-1.15c5.82-0.24,11.5,1.91,15.7,5.94
					c1.27,1.27,2.07,2.95,2.25,4.74c0.13,1.82-0.93,3.52-2.62,4.21c-1.08,0.27-2.22,0.27-3.3,0c-16.2-3.35-33.61-7.15-46.15-17.93"
					/>
			</g>
			<g class="st8">
				<path d="M154.17,308.01c4.27-1.23,4.95-6.23,5.23-10.65c1.71-18.32-1.86-36.75-10.29-53.11c-2.02,12.01-5.37,24.55-7.85,36.8
					L154.17,308.01z"/>
			</g>
			<path class="st9" d="M146.71,257.91c-1.06-0.74-2.25-1.27-3.51-1.57c-3.47-0.56-7.01,0.46-9.66,2.77
				c-3.51,2.62-5.44,7.85-6.52,13.77c-1.07,5.92-1.73,12.77-6.15,18.61c-2.21,2.78-5.37,4.64-8.87,5.23
				c-3.13,0.43-6.29,0.66-9.45,0.68c-5.23,0.05-10.25,2.11-14,5.76c-2.55,2.45-4.45,5.49-5.55,8.85c-0.73,2.41-0.81,3.82-0.97,3.8
				c-0.05-0.34-0.05-0.68,0-1.02c0.04-0.98,0.2-1.96,0.47-2.91c1.63-6.06,5.84-11.1,11.52-13.77c2.67-1.18,5.54-1.84,8.45-1.96
				c3.1-0.05,6.2-0.3,9.27-0.73c3.2-0.57,6.07-2.3,8.06-4.87c1.93-2.65,3.32-5.66,4.08-8.85c0.84-3.09,1.28-6.2,1.91-9.16
				c1.15-5.86,3.25-11.39,7.15-14.26c2.89-2.46,6.76-3.42,10.47-2.62c0.95,0.26,1.84,0.72,2.62,1.33
				C146.5,257.62,146.74,257.86,146.71,257.91z"/>
			<path class="st9" d="M302.18,207.26c-0.82,1.94-1.98,3.71-3.43,5.23c-3.98,4.32-9.3,7.17-15.1,8.09c-4,0.67-8.11,0.35-11.96-0.94
				c-4.29-1.72-8.24-4.18-11.67-7.28c-3.66-3.35-7.69-6.27-12.01-8.72c-2.3-1.16-4.81-1.86-7.38-2.04
				c-2.66-0.12-5.31,0.21-7.85,0.99c-5.04,1.71-9.8,4.17-14.11,7.3c-4.12,3-8.5,5.63-13.09,7.85c-4.24,1.89-8.82,2.87-13.45,2.88
				c-4.02-0.03-8.01-0.69-11.83-1.96c-5.52-1.87-10.5-5.06-14.5-9.29c-1.06-1.15-2.02-2.38-2.88-3.69c-0.33-0.44-0.6-0.91-0.81-1.41
				c0.13,0,1.28,1.86,4.08,4.74c4.05,4,8.98,7,14.4,8.74c8.03,2.66,16.75,2.26,24.5-1.13c4.45-2.27,8.72-4.9,12.75-7.85
				c4.4-3.24,9.27-5.77,14.45-7.51c2.69-0.84,5.51-1.19,8.32-1.02c2.74,0.19,5.41,0.93,7.85,2.17c4.41,2.51,8.52,5.51,12.25,8.95
				c3.3,3.03,7.11,5.46,11.25,7.17c3.67,1.28,7.59,1.65,11.44,1.07c5.63-0.82,10.84-3.46,14.84-7.51
				C299.67,210.59,300.99,208.97,302.18,207.26z"/>
			<path class="st9" d="M369.95,310.99c-0.47-1.58-0.83-3.19-1.07-4.82c-0.74-4.38-1.95-8.66-3.61-12.77
				c-1.24-2.79-2.91-5.37-4.95-7.64c-2.29-2.63-5.25-4.58-8.56-5.65c-3.74-1.01-7.62-1.4-11.49-1.15c-4.29,0.27-8.59-0.04-12.8-0.92
				c-4.17-1.25-8-3.44-11.18-6.41c-3.11-2.62-5.73-5.76-8.3-8.48c-5.03-5.52-10.47-9.97-15.84-11.28c-4.3-1.16-8.88-0.46-12.64,1.91
				c-1.31,0.96-2.46,2.13-3.4,3.46c0.15-0.4,0.33-0.79,0.55-1.15c0.72-1.02,1.6-1.9,2.62-2.62c3.82-2.63,8.58-3.51,13.09-2.41
				c5.81,1.28,11.39,5.86,16.52,11.36c2.62,2.62,5.23,5.68,8.27,8.32c3.03,2.84,6.68,4.93,10.65,6.12
				c8.22,2.07,16.8-0.39,24.32,2.17c3.5,1.18,6.61,3.29,9,6.1c2.09,2.39,3.77,5.1,4.97,8.04c1.68,4.2,2.82,8.6,3.4,13.09
				c0.24,1.57,0.39,2.8,0.47,3.64C370.02,310.26,370.01,310.63,369.95,310.99z"/>
			<path class="st9" d="M267.82,271.31c-0.43,0.13-0.88,0.2-1.33,0.21c-1.29,0.1-2.59,0.06-3.87-0.13
				c-4.68-0.95-9.19-2.58-13.4-4.84c-2.9-1.43-5.92-2.6-9.03-3.51c-3.55-0.95-7.28-1.08-10.89-0.37
				c-7.67,1.49-15.13,6.41-21.67,12.62c-6.54,6.2-12.28,13.09-18.64,17.88c-5.57,4.49-12.21,7.46-19.26,8.64
				c-4.72,0.79-9.54,0.72-14.24-0.21c-1.28-0.24-2.54-0.56-3.77-0.97c-0.44-0.11-0.86-0.28-1.26-0.5c0-0.13,1.83,0.44,5.1,0.94
				c11.65,1.79,23.51-1.45,32.64-8.9c6.2-4.84,11.83-11.52,18.48-17.88c6.65-6.36,14.34-11.36,22.38-12.85
				c3.79-0.71,7.7-0.54,11.41,0.5c3.16,0.97,6.23,2.22,9.16,3.74c4.11,2.32,8.51,4.08,13.09,5.23
				C264.41,271.14,266.11,271.27,267.82,271.31z"/>
			<path class="st9" d="M243.79,317.43c-1.85,0.42-3.62,1.15-5.23,2.15c-2.62,1.88-3.04,4.55-3.43,4.48s-0.29-0.73,0-1.86
				c0.47-1.47,1.39-2.76,2.62-3.69c1.21-0.95,2.68-1.49,4.21-1.54C243.16,316.96,243.82,317.25,243.79,317.43z"/>
			<path class="st9" d="M266.22,306.75c-0.4,2.87-1.56,5.58-3.35,7.85c-1.43,2.55-3.51,4.67-6.02,6.15c1.5-2.39,3.14-4.7,4.89-6.91
				C263.12,311.41,264.61,309.04,266.22,306.75z"/>
			<path class="st9" d="M174.77,343.73c-0.13,0.37-2.96-0.42-6.49-0.42c-3.53,0-6.33,0.71-6.47,0.31c1.89-1.33,4.2-1.92,6.49-1.68
				C170.6,341.76,172.89,342.39,174.77,343.73z"/>
			<path class="st9" d="M99.65,216.69c0,0,0.6,0.31,1.7,0.63c1.59,0.36,3.26,0.21,4.76-0.42c2.22-0.99,4.13-2.57,5.5-4.58
				c1.77-2.55,3.72-4.97,5.84-7.25c4.1-4.04,9.23-6.86,14.84-8.14c1.68-0.37,3.39-0.59,5.1-0.65c1.23,0,1.88,0,1.88,0.18
				s-2.62,0.26-6.75,1.41c-5.31,1.5-10.16,4.3-14.11,8.17c-2.09,2.24-4.03,4.61-5.81,7.09c-1.57,2.12-3.71,3.74-6.18,4.69
				c-1.69,0.6-3.54,0.6-5.23,0C100.02,217.29,99.6,216.71,99.65,216.69z"/>
			<path class="st9" d="M239.63,165.15c0.13,0-0.81,1.6-2.96,3.43c-2.83,2.39-6.15,4.12-9.74,5.05c-3.58,0.95-7.33,1.08-10.97,0.37
				c-1.52-0.17-2.99-0.7-4.27-1.54c1.47,0.08,2.93,0.27,4.37,0.55c3.51,0.38,7.05,0.13,10.47-0.73c3.4-0.91,6.61-2.43,9.48-4.48
				C237.16,166.83,238.36,165.94,239.63,165.15z"/>
			<path class="st9" d="M122.21,360.2c0,0.13-1.1,0-3.01,0.52c-2.67,0.66-5.16,1.87-7.33,3.56c-3.22,2.53-5.89,5.68-7.85,9.27
				c-2.36,4-4.29,8.77-6.78,13.61c-2.2,4.7-5.38,8.88-9.32,12.25c-3.31,2.79-7.56,4.23-11.88,4.03c-2.87-0.09-5.63-1.12-7.85-2.93
				c-0.6-0.49-1.13-1.06-1.57-1.7c-0.29-0.44-0.42-0.68-0.37-0.71c0.05-0.03,0.71,0.86,2.28,2.02c2.25,1.55,4.91,2.38,7.64,2.38
				c4.06,0.04,8-1.4,11.07-4.06c3.74-3.32,6.77-7.38,8.9-11.91c2.43-4.76,4.45-9.55,6.91-13.61c2.08-3.69,4.92-6.9,8.32-9.42
				c2.32-1.7,5.01-2.83,7.85-3.3c0.77-0.08,1.54-0.08,2.3,0C121.84,360.12,122.21,360.15,122.21,360.2z"/>
			<g class="st4">
				<path d="M345.56,250.69c-4.7,5.71-6.45,13.3-4.71,20.49c0.29,1.18,0.81,2.46,1.96,2.8c0.99,0.2,2.01-0.19,2.62-0.99
					c0.54-0.79,0.92-1.68,1.1-2.62c1.53-6.67,1.41-13.62-0.37-20.23"/>
			</g>
			<path class="st9" d="M394.58,190.2c-2.54,2.31-4.76,4.95-6.6,7.85c-1.89,3.24-3.49,6.65-4.76,10.18
				c-1.49,3.95-2.96,8.45-5.05,13.09c-1.87,4.36-4.64,8.27-8.14,11.46c-2.98,2.53-6.6,4.18-10.47,4.76
				c-2.61,0.38-5.27,0.04-7.7-0.99c-0.64-0.3-1.24-0.66-1.81-1.07c-0.39-0.29-0.58-0.47-0.55-0.5c0.03-0.03,0.89,0.47,2.62,1.07
				c2.37,0.8,4.9,0.98,7.35,0.52c3.64-0.65,7.04-2.29,9.82-4.74c3.36-3.12,6.03-6.89,7.85-11.1c2.04-4.42,3.53-8.87,5.23-12.88
				c1.4-3.58,3.15-7.01,5.23-10.23c1.4-2.17,3.1-4.14,5.05-5.84C393.22,191.17,393.86,190.63,394.58,190.2z"/>
			<path class="st9" d="M396.67,161.12c-1.27,1.62-2.83,2.99-4.61,4.03c-8.34,5.53-18.53,7.54-28.35,5.6
				c-2.03-0.29-3.99-0.96-5.78-1.96c0-0.24,2.28,0.47,5.94,0.99c9.58,1.39,19.36-0.54,27.69-5.47
				C394.84,162.53,396.67,160.93,396.67,161.12z"/>
			<path class="st0" d="M416.07,437.36c0,0-164.48-107.97-171.21-110.22c-6.73-2.25-23.01-12.9-39.26-8.43
				c-16.25,4.48-30.86,19.11-38.16,40.41c-7.3,21.31-7.85,69.05-7.85,69.05s12.9,37.61,38.16,45.46c2.16,0.67,4.35,1.22,6.57,1.65
				c30.99,5.73,62.37-7.82,79.44-34.31l3.69-5.6c0,0,107.6,39.52,109.28,38.97L416.07,437.36z"/>
			<path class="st0" d="M472.16,311.44c12.18,4.85,20.18,16.63,20.21,29.73c0.16,43.21-87.32,90.96-87.32,90.96l-116.42-77.16v-8.17
				C288.63,346.8,438.55,292.9,472.16,311.44z"/>
			<path class="st5" d="M212.56,407.57l0.92,0.42l2.62,1.07l10.47,4l38.76,14.61c16.46,6.12,36.17,13.43,58.29,21.49
				c22.12,8.06,46.64,16.88,72.84,25.73l0.47,0.16l0.24-0.44l12.85-24.53l6.54-12.51l0.26-0.5l-0.47-0.29l-125.43-79.65
				l-37.69-23.77L243,326.98l-2.62-1.65l-0.92-0.52l0.86,0.63l2.62,1.73l10.13,6.57l37.48,24.08l125.27,79.96l-0.21-0.76
				l-6.54,12.51L396.15,474l0.71-0.29c-26.17-8.85-50.7-17.64-72.84-25.62l-58.39-21.2l-38.87-14.24l-10.47-3.82l-2.62-0.97
				L212.56,407.57z"/>
			<path class="st5" d="M347.6,393.86c1.06-0.61,2.08-1.3,3.04-2.07c1.91-1.36,4.63-3.43,7.85-5.99
				c6.67-5.23,15.7-12.46,25.49-20.94s18.32-16.25,24.45-22.06c3.06-2.91,5.5-5.23,7.15-6.96c0.96-0.79,1.83-1.66,2.62-2.62
				c-0.99,0.71-1.93,1.5-2.8,2.36l-7.41,6.67c-6.23,5.65-14.89,13.4-24.63,21.75c-9.74,8.35-18.71,15.7-25.26,21.1l-7.85,6.28
				C349.29,392.13,348.41,392.96,347.6,393.86z"/>
			<path class="st5" d="M439.31,327.59c-3.77-0.6-7.63-0.25-11.23,1.02c-3.71,0.87-7.14,2.68-9.97,5.23
				c0.18,0.31,4.42-2.41,10.31-4.11C434.31,328.03,439.31,327.95,439.31,327.59z"/>
			<path class="st5" d="M429.26,320.78c-5.46,2.34-9.39,7.25-10.47,13.09c0.34,0,1.62-3.53,4.55-7.12
				C426.28,323.16,429.47,321.07,429.26,320.78z"/>
			<path class="st0" d="M478.57,457.62c0-0.13-1.39-0.42-3.01,0.92c-1.89,1.78-3.08,4.17-3.35,6.75c-0.38,2.54-0.02,5.13,1.05,7.46
				c0.84,1.75,1.73,2.62,1.83,2.62c0.1,0-0.47-1.1-1.05-2.83c-0.77-2.24-1-4.64-0.65-6.99c0.26-2.33,1.22-4.53,2.75-6.31
				C477.37,457.85,478.6,457.8,478.57,457.62z"/>
			<path class="st0" d="M141.5,72.44c-6.54-6.38-17.01-6.25-23.39,0.3c-0.24,0.24-0.47,0.49-0.69,0.75
				c-3.19,4.25-5.11,9.31-5.55,14.61c-0.44,5.26-1.46,10.46-3.06,15.5c-1.65,5.13-5.79,9.07-10.99,10.47
				c-3.93,0.73-8.59-0.47-11.6,2.15c-2.38,2.58-2.67,6.47-0.68,9.37c2.04,2.76,4.84,4.87,8.06,6.05c1.23,0.55,2.62,1.33,2.62,2.62
				c0,1.75-2.25,2.38-3.87,3.06c-4.87,2.07-6.28,9-3.56,13.56c3.06,4.44,8.19,7,13.58,6.78c5.3-0.28,10.5-1.48,15.39-3.53
				c-1.86,2.17-1.93,5.35-0.16,7.59c1.84,2.14,4.64,3.19,7.43,2.77c2.74-0.47,5.26-1.78,7.22-3.74c3.8-3.9,6.28-8.88,7.09-14.26
				c0.83-5.34,1.14-10.75,0.94-16.15c0.09-19.26,1.46-38.5,4.11-57.58"/>
			<path class="st10" d="M197.1,35.27c21.23,0.99,37.93,18.48,37.95,39.73c0,16.46-0.24,34.37-1.28,44.99
				c-2.43,24.71-20.94,28.92-20.94,28.92s0.58,15.36,1.41,29.92c0.79,13.87-10.47,26.17-25.44,27.27l0,0
				c-14.68,1.18-27.27-8.87-28.27-22.61l-4.97-106.61c-1.02-21.96,15.96-40.6,37.92-41.62c1.22-0.06,2.45-0.06,3.67,0L197.1,35.27z"
				/>
			<path class="st0" d="M229.42,85.79c0.18,1.73-1.08,3.27-2.8,3.45c-0.03,0-0.05,0.01-0.08,0.01c-1.63,0.24-3.15-0.88-3.39-2.51
				c-0.01-0.03-0.01-0.07-0.01-0.1c-0.12-1.71,1.15-3.2,2.85-3.35c1.63-0.26,3.16,0.84,3.42,2.47
				C229.42,85.76,229.42,85.77,229.42,85.79z"/>
			<path class="st0" d="M229.34,80.92c-0.37,0.44-2.85-1.18-6.23-0.97c-3.38,0.21-5.73,2.04-6.12,1.65
				c-0.39-0.39,0.16-0.92,1.18-1.78c1.41-1.09,3.12-1.73,4.89-1.83c1.76-0.09,3.5,0.36,5,1.28
				C229.16,80.03,229.53,80.74,229.34,80.92z"/>
			<path class="st0" d="M194.24,87.65c0.11,1.69-1.14,3.17-2.83,3.35c-1.65,0.23-3.17-0.92-3.4-2.57c0-0.02,0-0.03-0.01-0.05
				c-0.12-1.7,1.13-3.18,2.83-3.35c1.65-0.23,3.17,0.92,3.4,2.57C194.24,87.61,194.24,87.63,194.24,87.65z"/>
			<path class="st0" d="M194.16,84.24c-0.37,0.44-2.83-1.18-6.2-0.97c-3.38,0.21-5.76,2.04-6.15,1.65c-0.39-0.39,0.16-0.94,1.2-1.78
				c1.39-1.1,3.09-1.74,4.87-1.83c1.76-0.11,3.51,0.34,5,1.28C193.95,83.33,194.35,84.01,194.16,84.24z"/>
			<path class="st0" d="M207.93,108.59c1.74-0.68,3.56-1.13,5.42-1.33c0.86-0.13,1.65-0.34,1.78-0.94c0.03-0.93-0.23-1.84-0.73-2.62
				l-2.93-6.41c-2.7-5.42-4.96-11.05-6.75-16.83c3.12,5.2,5.82,10.63,8.09,16.25c0.99,2.25,1.94,4.4,2.83,6.47
				c0.61,1,0.84,2.19,0.65,3.35c-0.23,0.63-0.73,1.13-1.36,1.36c-0.47,0.15-0.95,0.25-1.44,0.29
				C211.65,108.52,209.79,108.66,207.93,108.59z"/>
			<path class="st14" d="M212.85,148.95c-11.59,0.48-23.11-2.05-33.42-7.35c0,0,9.13,17.59,33.74,14.4L212.85,148.95z"/>
			<path class="st0" d="M183.04,74.85c0.39,0.6,2.85-0.42,5.92-1.1c3.06-0.68,5.73-0.84,5.84-1.54c0.1-0.71-2.77-1.73-6.39-0.92
				C184.79,72.1,182.62,74.32,183.04,74.85z"/>
			<path class="st0" d="M216.49,68.78c0.16,0.68,2.93,0.6,6.26,0.65s6.1,0.18,6.28-0.5c0.18-0.68-2.62-2.02-6.26-2.04
				S216.31,68.12,216.49,68.78z"/>
			<path class="st0" d="M161.79,170.7c-0.24-5.08,5.44-27.12,7.72-40.65s-6.6-15.7-8.01-23.71c-0.67-5.34,0.24-10.75,2.62-15.57
				c12.93,4.63,18.03-4.58,25.1-10.02c7.49-5.81,9.13-12.93,12.2-21.91c3.06-8.98,6.65-14.55,16.1-15.44
				c5.75,3.19,10.19,8.29,12.56,14.42c2.88,8.4,5.23,41.17,5.23,41.17c1.31-15.7,14.06-22.3,10.6-45.44
				c-1.49-9.97-9.76-23.56-22.54-25.6c-3.72-0.6-10.73-1.05-10.73-1.05c-7.62-6.86-11.33-6.65-18.64-9.89
				c-15.7-6.99-34.71,5.5-45.15,19.19c-8.06,10.47-11.96,24.79-14.16,38.19c-1.39,9.31-1.59,18.75-0.6,28.11
				c0.52,5.58-0.16,12.64-5.65,16.93c-7.85,6.1-9.89,17.72-4.48,33.22c5.42,15.5-14.55,41.88-14.55,41.88
				c5.57-4.53,11.52-8.57,17.8-12.07C135.25,178.24,161.79,170.7,161.79,170.7z"/>
			<path class="st14" d="M203.85,116.65c-1.18-1.28-2.94-1.86-4.66-1.54c-1.24,0.22-2.34,0.93-3.06,1.96
				c-0.69,1.01-0.69,2.34,0,3.35c1,0.95,2.48,1.21,3.74,0.65c1.28-0.58,2.45-1.4,3.43-2.41c0.3-0.25,0.55-0.55,0.73-0.89
				c0.21-0.32,0.21-0.73,0-1.05"/>
			<path class="st0" d="M196.44,112.36c0.44,0,0.68,2.98,3.46,4.95c2.77,1.96,5.97,1.39,6.02,1.81c0.05,0.42-0.68,0.65-2.04,0.79
				c-1.78,0.17-3.56-0.31-5.03-1.33c-1.37-1-2.31-2.49-2.62-4.16C195.94,113.14,196.23,112.36,196.44,112.36z"/>
			<path class="st0" d="M89.68,105.45c0.01,1.14,0.1,2.28,0.26,3.4c0.22,1.31,0.65,2.57,1.28,3.74c0.83,1.53,2.11,2.77,3.66,3.56
				c1.87,0.98,4.07,1.08,6.02,0.29c2.14-1.11,3.64-3.17,4.03-5.55c0.5-2.67,0.64-5.39,0.42-8.09c0-2.83-0.26-5.78-0.26-8.82
				c-0.29-5.78,0.84-11.54,3.3-16.78c2.03-4.37,5.84-7.65,10.47-9c3.09-0.89,6.4-0.63,9.32,0.73c1.01,0.51,1.9,1.23,2.62,2.09
				c-0.91-0.68-1.87-1.28-2.88-1.81c-2.87-1.2-6.08-1.36-9.06-0.44c-4.41,1.39-8.02,4.58-9.92,8.79
				c-2.35,5.13-3.43,10.75-3.14,16.39c0,3.04,0.16,5.97,0.26,8.82c0.21,2.78,0.04,5.57-0.5,8.3c-0.47,2.6-2.14,4.82-4.5,5.99
				c-2.13,0.83-4.52,0.69-6.54-0.39c-1.63-0.87-2.96-2.22-3.8-3.87c-0.63-1.22-1.03-2.54-1.2-3.9
				C89.38,107.75,89.43,106.58,89.68,105.45z"/>
			<path class="st5" d="M125.77,158.53c-0.49-0.35-0.93-0.76-1.31-1.23c-1.04-1.42-1.7-3.09-1.91-4.84
				c-0.34-2.78,0.15-5.61,1.41-8.11c1.75-3.23,4.05-6.13,6.81-8.56c3.32-2.86,6.31-6.09,8.9-9.63c2.62-4.32,3.71-9.38,3.11-14.4
				c-0.73-5.55-1.15-11.13-1.26-16.73c0.07-3.02,0.77-6,2.04-8.74c1.42-2.81,3.64-5.12,6.39-6.65c5.5-3.11,11.65-3.98,16.67-6.75
				c4.75-2.86,8.52-7.11,10.78-12.17c2.41-4.74,4.14-9.55,6.36-13.77c1.92-4.07,4.74-7.65,8.24-10.47
				c2.92-2.33,6.55-3.57,10.29-3.51c2.81,0.16,5.48,1.23,7.62,3.06c1.36,1.13,2.37,2.62,2.93,4.29c0.17,0.42,0.27,0.86,0.31,1.31
				c0,0.31,0,0.47,0,0.47s0-0.63-0.52-1.73c-0.61-1.61-1.64-3.03-2.98-4.11c-2.11-1.73-4.71-2.73-7.43-2.85
				c-3.61,0.01-7.1,1.25-9.89,3.53c-3.41,2.75-6.15,6.24-8.01,10.21c-2.17,4.19-3.87,8.98-6.31,13.79
				c-2.32,5.21-6.18,9.59-11.07,12.54c-5.23,2.88-11.33,3.72-16.62,6.75c-2.62,1.44-4.74,3.64-6.07,6.31
				c-1.22,2.64-1.89,5.5-1.99,8.4c0.11,5.57,0.52,11.12,1.23,16.65c0.6,5.14-0.52,10.33-3.19,14.76c-2.65,3.56-5.7,6.81-9.08,9.68
				c-2.73,2.37-5.02,5.19-6.78,8.35c-1.25,2.42-1.78,5.14-1.52,7.85C123.1,154.61,124.11,156.83,125.77,158.53z"/>
			<path class="st9" d="M132.31,84.24c-2.41-5.09-1.14-11.17,3.11-14.87c-1.03,2.34-1.91,4.74-2.62,7.2
				C132.46,79.12,132.29,81.68,132.31,84.24z"/>
			<path class="st0" d="M140.82,159.76c-1.82,13.12,0.88,26.46,7.64,37.85c2.26,4.13,5.46,7.66,9.34,10.31
				c3.94,2.67,8.9,3.38,13.43,1.91c4.57-1.61,7.44-6.15,6.94-10.97c-1.05-6.54-9.11-10.65-9.16-17.3c2.93,1.78,6.91,3.48,9.48,1.2
				c1.61-1.75,1.99-4.3,0.97-6.44c-1.06-2.07-2.39-3.98-3.98-5.68c-5.98-7.68-8.55-17.47-7.12-27.09c0.39-2.62,1.1-10.84,1.15-13.51
				c0.05-2.67-0.73,0-2.62-1.75c-2.12-1.65-4.91-2.16-7.49-1.39c-2.52,0.81-4.8,2.25-6.62,4.16c-6.2,6.1-9.51,14.55-9.11,23.24"/>
		</g>
	</g>
</g>
<g id="Layer_5">
</g>
<g id="Layer_6">
</g>
<g id="Layer_7">
</g>
<g id="Layer_8">
</g>
<g id="Layer_9">
</g>
<g id="Layer_10">
</g>
</svg>
