<?xml version="1.0" encoding="utf-8"?>
<!-- Generator: Adobe Illustrator 24.0.0, SVG Export Plug-In . SVG Version: 6.00 Build 0)  -->
<svg version="1.1" id="Capa_1" xmlns="http://www.w3.org/2000/svg" xmlns:xlink="http://www.w3.org/1999/xlink" x="0px" y="0px"
	 viewBox="0 0 881 768" style="enable-background:new 0 0 881 768;" xml:space="preserve">
<style type="text/css">
	.st0{fill:#0094FF;}
	.st1{fill:#FF6548;}
	.st2{fill:#AE4F32;}
	.st3{fill:#FF2B2B;}
	.st4{fill:#FF4B4B;}
	.st5{fill:#0056CB;}
	.st6{fill:#0076FF;}
	.st7{fill:#BD3607;}
	.st8{fill:#CD7151;}
	.st9{fill:#9B0203;}
	.st10{fill:#911E03;}
	.st11{fill:#002B6A;}
	.st12{fill:#072D32;}
	.st13{fill:#005053;}
	.st14{fill:none;}
</style>
<path class="st0" d="M493.4,686.1c1.9-0.3,3.9-0.6,5.9-0.9c1,5.3,2.2,10.5,3.7,15.6c-9.2,1.8-18,3.4-26.6,4.8
	c-133.5,21.7-194.1-4.8-194.1-4.8c2-5.1,3.9-10.4,5.6-15.6C287.8,685.2,347.1,708.5,493.4,686.1"/>
<path class="st1" d="M385.1,295.7c-14.8-0.3-26,8.1-31,12.6c-0.7-4.2-1.9-8.4-3.5-12.4c-2.8-7.2-5-12.9-5.1-18.7l23.7,4.1v0l6.4,1.1
	c3.7,0.7,6.7,3.3,7.7,6.9l0.9,3.1L385.1,295.7L385.1,295.7z"/>
<path class="st2" d="M368.1,246L358,225.1c2.5-7.7,8-14.2,10.9-21.7c0-0.1,0-0.1,0.1-0.1l24.1,25.9c-8.7,1.8-17,1.9-21.6,1.8
	c-2.1,0-3.8,1.6-3.7,3.7L368.1,246z"/>
<path class="st3" d="M514.1,476.9c4.6,18.8-3.2,34.8-9.9,44.2c-3.7-4.4-7.7-10.7-11.7-17.7c0.8-1.9,1.6-3.8,2.4-5.8
	c3-7.8,6.7-16.2,9.8-24.8C507.9,474.2,511,475.5,514.1,476.9"/>
<path class="st3" d="M504.8,472.8c-3.1,8.6-6.8,17-9.8,24.8c-0.8,2-1.6,3.9-2.4,5.8c-3.8-6.7-7.5-14-10.9-20.8
	c2.5-5.8,4.6-11.7,6.3-17.7C493.4,467.5,499,470.2,504.8,472.8"/>
<path class="st3" d="M469.2,455.4c5.8,3,12.1,6.2,18.7,9.5c-1.7,6-3.8,11.9-6.3,17.7C474.7,468.4,469.5,456.2,469.2,455.4"/>
<path class="st3" d="M461,316.3L461,316.3l-32.4-6l-13.5-2.5v0l13.9,9.1l7.2,4.7l20.2,13.2c1.9-0.8,3.8-1.3,5.7-1.5l7.9-6.1
	C467.6,324.8,464.4,320.8,461,316.3"/>
<path class="st4" d="M461,316.3l-32.3-6c-0.3-2.7-0.7-5.3-1.3-8c-2.1-9.7-6-19.2-11.2-27.6l4.7-2.6c1.8,1.6,3.8,3.4,5.7,5.3
	c0,0,5.4,5.9,14.9,10.9v0C441.4,288.3,451.9,304.2,461,316.3"/>
<path class="st4" d="M404.3,282c-6.2,2.8-12.1,7.9-17.1,13.8c-0.7-0.1-1.4-0.1-2-0.1v0l-0.9-3.3l20-11.1
	C404.2,281.6,404.3,281.8,404.3,282"/>
<path class="st4" d="M407.2,302.6l-1.1-0.7c-6.7-3.9-13.1-5.7-18.9-6.1c5.1-5.9,11-11,17.1-13.8c0.5,2.3,0.8,4.6,1.1,6.2
	C406.3,293.1,406.9,297.9,407.2,302.6"/>
<path class="st5" d="M363.7,156.5c3.8,14.1,1.4,25.5-4.3,36.6l-15.5-16.6L363.7,156.5z"/>
<path class="st5" d="M405,156.7c-2.6-3.4-7.4-4-10.8-1.5c-2,1.5-3.1,3.9-3.1,6.2c0,1.5,0.4,2.9,1.3,4.2
	c8.2,12.6,29.6,45.4,40.8,61.9c3.8,5.6,2.6,13.1-2.7,17.3c-2.3,1.8-5.1,2.8-7.9,2.8c-1.8,0-3.6-0.4-5.3-1.1l-13.6-6.1l0,0
	l-10.4-11.2L369,203.3l-9.6-10.3c5.7-11,8.1-22.5,4.3-36.6l23.5-23.6l5,5.3l24.7,26.1l4.6,4.9l24.1,25.4v0c1.7,10.4-5,8-5,8
	L405,156.7z"/>
<path class="st0" d="M504.1,704.7l37.5,115h-32.9l-32.4-114v0c8.5-1.4,17.4-3,26.6-4.8C503.3,702.1,503.7,703.4,504.1,704.7"/>
<path class="st6" d="M333.6,819.6h-87.7c-4.8-46.6,16-82.8,23.8-94.4c3.6-5.4,6.8-11,9.4-16.9c1.1-2.5,2.1-5,3.1-7.5
	c0,0,60.6,26.5,194.1,4.8v0l32.4,114H333.6z"/>
<path class="st4" d="M357.3,486.5c23.8-16.1,37.8-38.8,46.6-65.4c0.5-1.6,1-3.2,1.5-4.8c5.8-19.1,12.2-37.7,22.3-55
	c4.5-7.7,16.9-21.8,28.7-26.4l-20.2-13.2c-2.7,1.3-5.3,3.1-7.8,5.2c-7.7,6.7-14.1,16.6-18.4,23.5c-10.7,17-14.8,35.6-19.1,54.9
	c-0.5,2.1-1,4.2-1.6,6.4c-6.5,24.1-20.5,52.1-43.6,62.1c-15.7,6.8-31.8,7.5-47.9,12.1c-6.8,1.9-16.5,5-24.9,9.5
	c2.1,5.3,4.4,11.5,6.6,18.5c7-4.6,15.3-7.6,22.8-9.3C320.5,500.2,341.6,497.1,357.3,486.5 M345.3,413.7c6.7-9.5,12.4-19.6,16.6-30.4
	c0.9-2.2,1.7-4.4,2.5-6.7c5.9-17.9,10.3-34,22.5-49c4.8-5.9,12.1-13.2,20.4-18.5c1.7-1.1,3.5-2.1,5.3-3l2.6,1.7v0l13.5,2.5
	c-0.3-2.7-0.7-5.3-1.3-8c-2.1-9.7-6-19.2-11.2-27.6l-11.9,6.6c0.1,0.2,0.1,0.5,0.1,0.7c0.5,2.3,0.8,4.6,1.1,6.2
	c0.9,4.9,1.5,9.6,1.8,14.3l-1.1-0.7c-6.7-3.9-13.1-5.7-18.9-6.1c-5.1,5.9-9.4,12.5-12.3,18.1c-6.2,12-8.5,25.6-15,37.4
	c-0.4,0.6-0.7,1.3-1.1,1.9c-5.5,9.3-11.2,19.5-18.8,26.8c0.5,8.4,3.2,16.3,4.3,24.7C344.7,407.7,345.1,410.7,345.3,413.7
	 M302.4,560.3c16.7-14.1,39.1-19.2,59.9-24.7c22.8-6,42-10.8,61.2-25.8c19.4-15.1,29.8-36.2,39.1-57.9
	c-10.6-5.7-19.3-10.8-25.3-14.4c-1.9,3.1-3.6,6.3-5.1,9.8c-6.1,14.1-10.3,27-20.4,39.1c-15.9,19.3-32.7,30.5-58.1,31.9
	c-19.8,1.1-36.5,0.7-54.2,11.2c-4.5,2.7-9,5.4-13,8.6c2.3,9.5,4.6,19.9,6.4,31.2C295.8,566.3,298.8,563.2,302.4,560.3 M465.8,543.7
	c0.8-0.8,1.5-1.6,2.2-2.5c10.4-12,18.3-23.7,24.5-37.8c-3.8-6.7-7.5-14-10.9-20.8c-7.3,17.3-17.5,33.3-29.3,44.9
	c-13.4,13.2-30.4,24.3-48.5,31c-7.1,2.6-14.3,4.6-21.6,5.7c-26,4.2-49,12.2-71.8,25.8c-4.3,2.6-9.1,5.5-13.7,8.7
	c0.7,7,1.2,14.3,1.5,21.8c0.1,1.4,0.1,2.9,0.2,4.3c4.3-3.5,8.8-6.6,13.7-9.5c28.2-16.6,59.8-18.2,89.5-29.9
	C426.5,575.7,448.1,563.1,465.8,543.7 M494.9,539.6c-2.5,1.2-4.8,2.5-6.6,3.7c-9.1,6-17,14.4-23.2,23.3
	c-14.5,20.9-29.4,32.9-54,40.8c-25.3,8.2-54,12.9-76.8,27.2c-5.4,3.4-33.8,69-37.4,73.5c11.3,1.6,5.5,5.7,24.1,6.1
	c2-1.7,49.3-67.9,51.3-69.6c17.2-13.8,38-17.9,58.7-23.1c19.2-4.8,31.8-13.5,43.4-29.8c5.6-7.9,8.7-17.5,15.7-24.4
	c2-1.9,4.2-3.6,6.5-5.1v-22.8C496.1,539.4,495.5,539.5,494.9,539.6"/>
<path class="st4" d="M345.9,473.7c23-9.9,37.1-37.9,43.6-62.1c0.6-2.2,1.1-4.3,1.6-6.4c4.3-19.3,8.4-37.9,19.1-54.9
	c4.4-6.9,10.7-16.8,18.4-23.5c2.5-2.1,5-3.9,7.8-5.2l-7.2-4.7l-13.9-9.1l-2.6-1.7c-1.8,0.9-3.5,1.9-5.3,3
	c-8.2,5.2-15.5,12.6-20.4,18.5c-12.2,15-16.6,31.1-22.5,49c-0.8,2.3-1.6,4.5-2.5,6.7c-4.2,10.8-10,20.9-16.6,30.4
	c1.4,18.1-1.4,36.1-13.8,49.3c-1.4,1.5-2.9,2.9-4.5,4.2c-15,12.4-32.1,11-49.3,5.7c-3.4-1-6.7-1.2-10.1-1.1c-1.7,0-3.4,0.2-5.1,0.2
	c1.4,2.5,5.6,10.4,10.6,23.2c8.4-4.5,18.1-7.5,24.9-9.5C314.1,481.2,330.2,480.4,345.9,473.7 M353.8,518.3
	c25.4-1.4,42.2-12.7,58.1-31.9c10-12.1,14.2-25,20.4-39.1c1.5-3.5,3.2-6.7,5.1-9.8c-6-3.6-9.4-5.8-9.4-5.8
	c13-41.2,36.3-68.2,46-78.1c2.8-2.9,4.5-4.3,4.5-4.3l-20-13.1l-2-1.3c-11.8,4.7-24.2,18.7-28.7,26.4c-10.1,17.4-16.5,35.9-22.3,55
	c-0.5,1.6-1,3.2-1.5,4.8c-8.8,26.6-22.8,49.3-46.6,65.4c-15.6,10.6-36.7,13.7-54.9,17.9c-7.5,1.7-15.8,4.7-22.8,9.3
	c2.4,7.3,4.8,15.4,7,24.5c4.1-3.2,8.5-5.9,13-8.6C317.4,519,334,519.5,353.8,518.3 M358.7,353.2c0.4-0.6,0.7-1.3,1.1-1.9
	c6.5-11.9,8.8-25.4,15-37.4c2.9-5.6,7.2-12.2,12.3-18.1c-0.7-0.1-1.4-0.1-2-0.1c-14.8-0.3-26,8.1-31,12.6c2,11.4,0.8,23.2-3.5,34.3
	c-0.5,1.4-1.1,2.7-1.7,4.1c-4.3,10.2-9.4,20.5-9.1,31.7c0,0.5,0,1.1,0.1,1.6C347.6,372.7,353.2,362.5,358.7,353.2 M492.6,503.4
	c-6.2,14.2-14.1,25.9-24.5,37.8c-0.7,0.8-1.4,1.6-2.2,2.5c-17.7,19.4-39.4,32-64,41.6c-29.7,11.7-61.3,13.2-89.5,29.9
	c-4.9,2.9-9.5,6-13.7,9.5c0.2,5.6-19,70.1-19,76c0,0,3,5.2,17.3,7.3c3.6-4.5,32-70.1,37.4-73.5c22.8-14.4,51.4-19,76.8-27.2
	c24.6-7.9,39.5-19.9,54-40.8c6.2-8.9,14.2-17.3,23.2-23.3c1.9-1.2,4.1-2.5,6.6-3.7c0.6-0.3,1.1-0.5,1.7-0.8v-1.2
	c0-4.4,1.5-8.7,4.3-12.2c1-1.2,2.1-2.7,3.3-4.3C500.6,516.7,496.6,510.4,492.6,503.4 M382.4,564.2c7.2-1.1,14.5-3.1,21.6-5.7
	c18.1-6.7,35.1-17.8,48.5-31c11.8-11.6,22-27.6,29.3-44.9c-6.9-14.2-12.1-26.4-12.4-27.1l0,0c-2.3-1.2-4.5-2.3-6.6-3.5
	c-9.4,21.7-19.7,42.8-39.1,57.9c-19.2,14.9-38.4,19.8-61.2,25.8c-20.8,5.5-43.2,10.6-59.9,24.7c-3.6,3-6.6,6-9.3,9.1
	c1.5,9.2,2.8,18.9,3.8,29.3c4.5-3.2,9.4-6.1,13.7-8.6C333.3,576.4,356.3,568.3,382.4,564.2 M474.4,591.7
	c-11.6,16.3-24.3,25-43.4,29.8c-20.7,5.1-41.5,9.3-58.7,23.1c-2,1.6-45.4,40.6-51.3,69.6c27.7,0.6,101.6,1.8,141.7-6.5
	c8.9-1.8,30.8-4.4,40.2-6.9l-6.3-138.6c-2.4,1.5-4.6,3.2-6.5,5.1C483.1,574.2,480.1,583.8,474.4,591.7"/>
<path class="st7" d="M481.6,318.3l-11.6,9c-2.4-2.4-5.7-6.4-9.1-11h0c-9.1-12.1-19.5-27.9-19.5-27.9v0c4.6,2.5,10.1,4.7,16.4,6
	c2.8,0.6,5.4,2,7.3,4C468.5,301.7,474.1,307.9,481.6,318.3"/>
<path class="st8" d="M358,225.1l10.1,20.9l1.2,35.2l-23.7-4.1c-0.1-4.7,1.1-9.5,4.5-15.3c3.3-5.8,6-11.3,6.7-18.1
	C357.3,237.5,356.1,231.1,358,225.1"/>
<path class="st8" d="M417,164.3l-24.7-26.1c-0.5-5-1.8-9.8-2.2-14.9c5.4-3.5,10.7-7.3,15.9-11.4l-0.6,6.8c-0.4,4.4,0.5,8.8,2.6,12.7
	C411.5,138.5,417,151.2,417,164.3"/>
<path class="st8" d="M405.2,96.8c0.9,4.4,1.2,9,0.8,13.6l-0.1,1.6c-5.2,4.1-10.5,7.9-15.9,11.4c-0.2-2.1-0.3-4.2-0.1-6.3
	c0.8-8,2.6-15.8-0.6-23.7c-5.2-13-18.4-20.4-19.3-35.3c-0.1-1.1-0.1-2.3-0.2-3.5C374.2,56.2,398.7,66.7,405.2,96.8"/>
<path class="st8" d="M597.3,228.8l-68.2,52.8c-4.8-4.4-9.8-8.8-14.9-13.3c-1.8-1.5-3-3.5-3.7-5.8c-1.8-6.5-5.9-21.1-11.1-34.2
	l75.3-42c1-0.6,1.9-1.3,2.7-2.1l2.7-2.8c5-5.3,10.4-10.3,16-14.9l6.1-5c4.4-3.7,10.4-4.9,15.9-3.4l4.5,1.3l0.1,0.2l0.5-0.3
	c3.8-2.3,8.5-2.5,12.5-0.7l6.1,2.9l0.4,0.3l14-18.1c0.2-0.3,0.4-0.5,0.6-0.8c1-1.1,2.1-2.1,3.2-3l19.7-15.5c3-2.3,7.3-1.8,9.7,1.2
	c1,1.3,1.5,2.8,1.5,4.3c0,1.7-0.6,3.3-1.8,4.6l-16.3,17.8c-0.9,1-1.8,2-2.5,3.1l-23.7,32.6l17.9-9.2c4.7-2.4,10.5-0.7,13.1,4
	c0.8,1.5,1.2,3.1,1.2,4.8c0,3.5-1.9,6.9-5.2,8.7L653.1,207c-5.4,2.9-10.3,6.7-14.4,11.3c-2.4,2.7-5.3,4.9-8.4,6.6
	c-3.2,1.7-6.6,2.9-10.2,3.4l-3.2,0.5C610.4,229.8,603.8,229.8,597.3,228.8"/>
<path class="st8" d="M462.6,451.9c-10.6-5.7-19.3-10.8-25.3-14.4c-6-3.6-9.4-5.8-9.4-5.8c13-41.2,36.3-68.2,46-78.1
	c0,0,20.2,11.2,45.8,26.8c-15.6-29.1-28.5-48.9-38.2-62.1c-7.6-10.3-13.2-16.5-16.5-19.9c-2-2-4.5-3.4-7.3-4
	c-6.3-1.3-11.8-3.6-16.4-6c-9.5-5-14.9-10.9-14.9-10.9c-1.9-1.9-3.8-3.7-5.7-5.3c-3.7-3.3-7.1-5.9-9.7-7.8c-3-2.1-6.2-3.8-9.7-4.9
	c-9.5-3.2-15.9-7-20-10.2c-2.2-1.7-3.3-4.2-3.3-6.7c0-1.9,0.6-3.8,1.9-5.4c2.5-3.1,6.7-4.1,10.2-2.5l13.2,5.9l0,0l13.6,6.1
	c1.7,0.8,3.5,1.1,5.3,1.1c2.8,0,5.6-0.9,7.9-2.8c5.3-4.2,6.5-11.7,2.7-17.3c-11.2-16.5-32.6-49.3-40.8-61.9
	c-0.8-1.3-1.3-2.8-1.3-4.2c0-2.4,1.1-4.7,3.1-6.2c3.4-2.6,8.2-1.9,10.8,1.5l35.7,45.9c0,0,6.7,2.4,5-8v0l-24.1-25.4l0.5-0.5
	c0,0,25.2-10.9,35.4,9.1l3.9,8.4c16.9,0.1,25.1,16.2,27.1,20.8c0.4,0.9,0.8,1.6,1.4,2.4c3.4,4.7,6.6,11.5,9.5,18.9
	c5.2,13.1,9.4,27.7,11.1,34.2c0.6,2.3,1.9,4.3,3.7,5.8c5.1,4.5,10.1,8.9,14.9,13.3c94.4,87.1,119.9,165,124.7,182.5
	c0.7,2.6,1.3,5.2,1.4,7.8c1.3,27.1-30.6,31.4-46.9,31.9c-5.1,0.1-10.1-0.3-15.1-1.3c-27.4-5.6-54.8-15.2-79.1-25.6
	c-3.1-1.4-6.2-2.7-9.3-4.1c-5.9-2.6-11.5-5.3-16.9-7.9c-6.7-3.3-13-6.5-18.7-9.5l0,0C466.9,454.2,464.7,453.1,462.6,451.9"/>
<path class="st9" d="M428,431.7c-7.8-1.8-15.4-4.9-22.5-8.5c-7.2-3.6-14-8.1-20.3-13.2c-6.3-5.1-12.1-10.8-17.1-17.1
	c-2.5-3.2-4.9-6.4-7-9.9c-1.9-3.5-4-7-5.8-10.6c2.4,3.3,4.6,6.6,6.9,9.8c2.3,3.3,4.8,6.3,7.5,9.3c5.3,5.9,11,11.4,17.2,16.3
	c6.2,5,12.8,9.4,19.6,13.4c3.4,2,7,3.9,10.6,5.6C420.6,428.7,424.3,430.3,428,431.7"/>
<path class="st9" d="M354.1,308.3c3.9-3.9,8.5-7.1,13.5-9.6c5-2.3,10.6-3.8,16.2-4c5.7-0.3,11.3,0.9,16.5,3c2.6,1.1,5.2,2.3,7.5,3.8
	l6.9,4.5c9.1,6.1,18.3,12.1,27.4,18.3c9.1,6.2,18.1,12.4,27,18.9c-9.5-5.5-18.8-11.4-28.1-17.2c-9.3-5.8-18.5-11.8-27.7-17.8
	l-6.9-4.6c-2.2-1.5-4.6-2.7-7.1-3.7c-4.9-2.1-10.3-3.2-15.6-3.2C373.1,296.7,362.6,301.4,354.1,308.3"/>
<path class="st10" d="M550.9,302.6c-7.2-6.3-14.2-12.7-21.2-19.2l-10.7-9.4l-5.4-4.7c-2-1.6-3.5-4-4.3-6.5
	c-2.4-9.2-5.2-18.3-8.2-27.3c-1.5-4.5-3.1-9-4.9-13.4c-1.8-4.4-3.8-8.7-6.3-12.8c5.9,7.6,9.6,16.6,13.1,25.4
	c3.4,8.9,6.2,18.1,8.8,27.3c0.6,2.1,1.7,3.9,3.4,5.3l5.3,4.8c3.5,3.2,7.2,6.3,10.5,9.7C537.7,288.8,544.4,295.6,550.9,302.6"/>
<path class="st10" d="M505.3,371.6c4.9,2.6,9.6,5.3,14.5,7.9l14.2,8.3c9.4,5.6,18.7,11.6,27.9,17.6c9.1,6.2,18.2,12.4,26.9,19.2
	c8.7,6.7,17.2,13.8,24.7,21.9c-4.1-3.6-8.3-7.2-12.7-10.5c-4.3-3.4-8.7-6.7-13.2-9.8c-8.9-6.4-17.9-12.6-27.1-18.6
	c-9.1-6.2-18.3-12.1-27.5-18.1C523.8,383.6,514.5,377.7,505.3,371.6"/>
<path class="st11" d="M282.3,700.8c8.8,3.1,17.9,5.1,27,6.7c4.6,0.7,9.1,1.6,13.7,2.1l6.9,0.9l6.9,0.6c18.5,1.6,37,2,55.5,1.5
	c18.5-0.4,37-2,55.5-4c9.2-0.9,18.4-2.4,27.6-3.5l27.5-4.3h0h0c-9.1,1.9-18.2,3.7-27.3,5.5c-9.2,1.4-18.3,3.1-27.6,4.2
	c-9.2,1.2-18.5,2.3-27.8,2.9c-4.6,0.3-9.3,0.8-13.9,1l-14,0.6c-18.6,0.3-37.3,0-55.8-2.1C318.1,710.9,299.5,707.8,282.3,700.8"/>
<path class="st11" d="M351.3,724.3c-1,8.2-3.2,16.4-6.8,24c-3.9,7.4-7.5,14.7-9.4,22.6c-2.1,7.9-3.5,16-3.9,24.2
	c-0.4,8.2,0.4,16.4,2.4,24.5c-3.1-7.7-4.4-16.1-4.4-24.5c0-8.4,1.3-16.7,3.4-24.8c2-8.2,5.9-15.9,10.1-22.9
	c1.9-3.6,3.5-7.4,4.9-11.2C349.1,732.3,350.3,728.3,351.3,724.3"/>
<path class="st9" d="M311.5,562.8c6.1-0.2,12.2-0.7,18.3-1.6c3-0.3,6-0.9,9.1-1.3l9-1.7c11.9-2.5,23.7-5.7,35.1-10.1
	c5.8-2,11.3-4.6,16.8-7.1c2.7-1.3,5.4-2.8,8.1-4.2l4-2.1l3.9-2.4c2.6-1.6,5.2-3.2,7.8-4.8l7.4-5.4c1.2-0.9,2.5-1.7,3.7-2.7l3.5-3
	l7-5.9c-8.6,8.7-17.8,17.1-28.3,23.6l-3.8,2.6l-4,2.2c-2.7,1.5-5.4,3-8.1,4.4c-5.6,2.6-11.2,5.3-17,7.4c-11.6,4.2-23.5,7.6-35.6,9.6
	C336,562.3,323.7,563.4,311.5,562.8"/>
<path class="st10" d="M422.1,168.7c5.1-2.6,10.9-4,16.8-3.9c2.9,0.1,5.9,0.6,8.7,1.8c2.7,1.2,5.3,2.9,7.3,5.2l1.5,1.7
	c0.4,0.6,0.8,1.3,1.2,1.9c0.4,0.6,0.8,1.3,1.1,1.9l0.9,2c1.1,2.6,2.3,5.2,3.4,7.9c2.2,5.2,4.3,10.6,6.2,15.9c-2.8-5-5.5-10-8.1-15.1
	l-3.8-7.6l-0.9-1.9c-0.3-0.6-0.7-1.2-1.1-1.7c-0.4-0.6-0.7-1.1-1.1-1.7l-1.3-1.5c-3.5-4.1-8.8-6.2-14.2-6.8
	C433.3,166.4,427.6,167.1,422.1,168.7"/>
<path class="st10" d="M609.8,167.2c2.3-2,4.7-3.7,7.1-5.4c1.2-0.9,2.5-1.6,3.7-2.4l1.9-1.2c0.7-0.4,1.4-0.8,2.1-1.1
	c3-1.2,6.4-1.3,9.4-0.3c1.5,0.5,2.8,1.4,4.1,2.1c1.3,0.8,2.5,1.6,3.7,2.5c-1.5-0.4-2.9-0.8-4.3-1.3c-1.4-0.5-2.8-1.1-4.1-1.3
	c-2.7-0.5-5.5-0.3-7.9,0.7c-1.2,0.4-2.4,1.3-3.7,2c-1.3,0.7-2.6,1.4-3.9,2.1C615.3,164.9,612.6,166.1,609.8,167.2"/>
<path class="st10" d="M636.1,169.5c3.1-5.7,6.8-10.8,10.6-15.9c2-2.5,3.9-5,6.1-7.4c1.1-1.2,2.1-2.4,3.3-3.6c1.3-1.1,2.6-2,3.9-2.9
	c-1,1.3-2.1,2.5-3,3.7l-2.6,4c-1.8,2.6-3.7,5.2-5.6,7.7C644.9,160.2,640.8,165.1,636.1,169.5"/>
<path class="st10" d="M638.7,218.2c-2.5,3.5-5.9,6.5-9.9,8.5c-2,1-4.1,1.8-6.2,2.3c-2.2,0.5-4.3,0.8-6.4,1.1
	c-4.3,0.6-8.7,0.7-13.1,0.2c-2.2-0.2-4.3-0.6-6.4-1.2c-2.1-0.7-4.2-1.2-6.2-2c4.3,0.4,8.5,1.1,12.7,1.1c4.2,0.1,8.4-0.1,12.6-0.8
	c4.3-0.6,8.3-1.1,12.2-2.8C631.8,223.3,635.4,221.1,638.7,218.2"/>
<path class="st10" d="M641.9,190.2c1.3-1.2,2.8-2.2,4.2-3.2l-0.2,0.2l0,0l0,0l0.2-0.1c2.8-1.8,5.8-3.5,8.8-4.9
	c3-1.4,6.2-2.7,9.5-3.5c-2.6,2.3-5.5,4.1-8.4,5.7c-2.9,1.6-6,3.1-9.1,4.3l0.2-0.2l0,0l-0.2,0.1l0,0
	C645.3,189.3,643.6,189.8,641.9,190.2"/>
<path class="st12" d="M387.2,132.9l5,5.3c-0.5-5-1.8-9.8-2.2-14.9c-0.2-2.1-0.3-4.2-0.1-6.3c0.8-8,2.6-15.8-0.6-23.7
	c-5.2-13-18.4-20.4-19.3-35.3c-0.1-1.1-0.1-2.3-0.2-3.5c-0.2-4-0.6-8-1.5-11.9c-1.6-6.9-4.9-13.1-12.5-16.7
	c-5.1-2.4-11.3-3.1-17.4-2.9c-3.9,0.1-7.8,0.7-11.2,1.5c-5.5,1.3-14.6,0.7-19.3,2.4c-1.3,0.4-2.6,0.8-4,1c-7.6,1.3-17.1,0-24.4,0.8
	c-0.5,0.1-1.1,0.1-1.7,0.2c-12.6,1.4-25.8,3.2-34.8,13.1c-6.7,7.4-10.5,17.8-14.8,26.6c-4.6,9.4-13,14.5-20.4,20.7
	c-4.5,3.9-8.7,8.3-11.3,14.4c-4.4,10.3-5.5,20.2-5.3,31.3c0.3,11.5,1.6,21.9-2.7,32.9c-2.6,6.6-6.6,12.2-10.3,18.1
	c-1.3,2-2.5,4.1-3.7,6.2c-4.9,9.1-7.5,19.5-8.3,29.8c-0.7,9.4,0.4,19,2.7,28.1c3.1,12.8,3.3,24.3,2.5,37.6
	c-0.9,15.8-2.6,33.4-8.5,48.2c-3.6,9.1-8.1,16.9-7.6,27c0.4,9.3,2.7,21.3,8.2,29c3.8,5.3,9.6,9.2,14.1,13.8
	c4.3,4.4,8.2,9.2,10.5,14.9c0.3,0.8,0.6,1.7,0.9,2.6c2,6.7,2.1,13.8,5.3,20.2c4.9,9.8,12.8,13.5,22.4,14.8c2.4,0.3,4.9,0.5,7.5,0.6
	c11.6,0.4,15.5,9.5,25.6,12.4c4.2,1.2,8.4,1,12.7,0.8c1.7-0.1,3.4-0.2,5.1-0.2c3.3-0.1,6.7,0.1,10.1,1.1c17.2,5.2,34.3,6.7,49.3-5.7
	c1.6-1.3,3.1-2.7,4.5-4.2c12.5-13.2,15.2-31.2,13.8-49.3c-0.2-3-0.6-6-1-9c-1.2-8.3-3.8-16.3-4.3-24.7c0-0.5-0.1-1.1-0.1-1.6
	c-0.3-11.2,4.8-21.6,9.1-31.7c0.6-1.4,1.1-2.7,1.7-4.1c4.3-11.1,5.4-22.8,3.5-34.3c-0.7-4.2-1.9-8.4-3.5-12.4
	c-2.8-7.2-5-12.9-5.1-18.7c-0.1-4.7,1.1-9.5,4.5-15.3c3.3-5.8,6-11.3,6.7-18.1c0.6-6.2-0.6-12.6,1.3-18.5c2.5-7.7,8-14.2,10.9-21.7
	c0,0,0-0.1,0.1-0.1l-9.6-10.3l-15.5-16.6l19.8-19.9L387.2,132.9z"/>
<path class="st13" d="M188.4,421.3c0-0.2,0.1-0.3,0.1-0.5v-0.1c1.2-7,0.3-14-0.5-20.8c-0.1-0.9-0.2-1.7-0.3-2.6
	c-0.8-7.1-2-14.3-3.1-21.3c-1.6-10.5-3.3-21.3-4.1-32c-2-28.3,7.4-52.8,18.1-77.4c5.9-13.6,11-26.2,13-42.6
	c1.7-13.6,2.1-26.3,1.3-38.6c-0.1-1.9-0.3-3.9-0.4-5.8l-0.1-0.4c-0.7-7.4-1.6-15.1-2.5-22.4c-2.1-17.2-4.3-35-3.3-52.1
	c0.3-5.2,0.9-10.3,1.8-15.2c0-0.1,0-0.2,0.1-0.4l-0.8,0.7c-0.8,4.7-1.4,9.7-1.8,14.8c-1,17.1,1.1,35,3.3,52.2
	c0.9,7.4,1.8,15,2.5,22.4l0,0.4c0.2,2,0.3,3.9,0.5,5.8c0.8,12.3,0.4,24.9-1.3,38.5c-2,16.3-7.1,28.8-13,42.4
	c-10.8,24.7-20.2,49.2-18.2,77.7c0.8,10.7,2.5,21.6,4.1,32.1c1.1,7,2.2,14.2,3.1,21.3c0.1,0.9,0.2,1.7,0.3,2.6
	c0.8,6.6,1.7,13.4,0.7,20.1v0L188.4,421.3z M217,458.3L217,458.3c0.7-6.1,2.2-12.3,3.6-18.3c1.2-4.9,2.3-9.6,3-14.1
	c1.8-12.1,0.1-24.7-1.6-37l-0.3-2.1c-0.9-6.7-2.2-13.2-3.5-19.5c-3.2-16.3-6.2-31.7-3.4-49.3c3.4-21.7,10-40.1,21.9-61.4
	c9.6-17.2,10.5-41.3,11.2-58.8c0.3-8.1,0.1-16.5-0.5-24.9c-1-12.9-3.3-26-6.8-39.1c-10.7-40.3,3.7-80.3,37.6-104.5
	c0.2-0.1,0.3-0.2,0.5-0.3l-1.3,0.2c-33.9,24.3-48.2,64.4-37.5,104.8c3.5,13.1,5.8,26.2,6.8,39c0.7,8.4,0.8,16.8,0.5,24.9
	c-0.7,17.5-1.5,41.5-11.1,58.5c-11.9,21.4-18.5,39.9-22,61.6c-2.8,17.8,0.2,33.2,3.4,49.5c1.3,6.3,2.5,12.7,3.5,19.5l0.3,2.1
	c1.7,12.2,3.4,24.8,1.7,36.8c-0.7,4.5-1.8,9.1-2.9,14.1c-1.4,6-2.9,12.2-3.6,18.4L217,458.3z M268,471.8c0-0.1-0.1-0.1-0.2-0.2
	c-22.6-25.1-29.1-70.9-14.6-102.2c2-4.2,4.5-8.2,7.1-12c2.5-3.8,5-7.7,7-11.9c4.9-10.3,5.3-23.6,4.9-33c-0.5-9.6-3-19.4-5.5-28.8
	c-2.8-10.8-5.7-22-5.4-32.9c0.4-13.8,6.6-26.6,12.6-38.9c2.9-6,5.9-12.1,8.2-18.2c3.3-9,5-18.5,5.1-29.1c0.2-13.6-2.2-26.9-4.7-41
	c-0.4-2-0.7-3.9-1.1-5.9c-4.4-25.3-6.7-54.1,10.3-75.8c2.8-3.6,7.5-9,12.6-13.7c0.1-0.1,0.3-0.3,0.4-0.4l-0.2,0.1l-1,0.2
	c-4.9,4.7-9.5,10-12.3,13.5c-7.8,9.9-12.1,21.9-13.3,36.8c-1.1,14.5,1,29.5,2.8,39.5c0.3,2,0.7,4,1,6c2.5,14.1,4.9,27.4,4.7,40.9
	c-0.1,10.5-1.8,19.9-5.1,28.8c-2.2,6.1-5.2,12.2-8.1,18.2c-6,12.4-12.3,25.2-12.7,39.2c-0.3,11,2.6,22.2,5.5,33
	c2.4,9.4,4.9,19,5.4,28.6c0.4,9.3,0,22.5-4.8,32.7c-1.9,4.1-4.5,8-6.9,11.8c-2.5,3.9-5.1,7.9-7.1,12.1c-7,15.1-9.5,34-6.8,53.3
	c2.7,19.5,10.2,37,21.4,49.4L268,471.8z M331.2,463.2c-12.1-2.5-22.1-10.1-28.9-22.1c-9.4-16.5-11.1-39.3-4.4-58.1
	c1.9-5.2,4.4-10.4,6.8-15.3c3.2-6.6,6.5-13.5,8.4-20.6c3.9-14.7-0.7-30.8-4.7-45l-0.7-2.5c-0.4-1.4-0.8-2.9-1.2-4.3
	c-4.9-17-9-31.7-6.2-50.3c2.6-17.3,10.5-29.2,19.6-43c0.8-1.2,1.6-2.4,2.4-3.7c9-13.6,11-27.7,6.6-45.7c-2-8.2-5.1-16.5-8.2-24.6
	c-5.1-13.5-10.3-27.3-10.7-41.6c-0.6-19.9,6.3-38.6,20.4-55.6c2.5-3,5-5.6,7.7-7.8l1.1,0c-0.1,0.1-0.2,0.2-0.3,0.3
	c-2.7,2.2-5.4,4.9-7.9,8c-14,16.9-20.7,35.4-20.2,55.2c0.4,14.1,5.6,28,10.7,41.4c3.1,8.1,6.2,16.4,8.2,24.6
	c4.4,18.2,2.4,32.4-6.7,46.2c-0.8,1.2-1.6,2.4-2.4,3.6c-9.1,13.7-16.9,25.6-19.5,42.8c-2.7,18.4,1.4,33.1,6.2,50
	c0.4,1.4,0.8,2.8,1.2,4.3l0.7,2.5c4.1,14.3,8.6,30.4,4.7,45.3c-1.9,7.2-5.2,14.1-8.4,20.7c-2.4,4.9-4.9,10.1-6.7,15.3
	c-6.6,18.6-4.9,41.2,4.3,57.6c6.7,11.9,16.6,19.4,28.6,21.8c0.1,0,0.1,0,0.2,0L331.2,463.2z M349.1,346.4
	c-9.9-6.4-15.8-17.1-15.3-27.8c0.1-1.9,0.2-3.7,0.3-5.5c0.5-8.7,1-16.9-0.7-25.8c-0.5-2.4-1-4.9-1.5-7.3c-2.1-10-4.3-20.2-3-30.7
	c1.6-13.8,9.9-26,16-33.9c5.3-7,10.8-14.5,14.8-22.2c0,0,0-0.1,0-0.1c6.5-12.6,7.8-23.9,4.3-36.8c0,0,0-0.1,0-0.2
	c-0.3-1-0.6-2.1-1-3.2c-1.3-3.8-2.8-7.6-5-12c-2.1-4.3-4.5-8.6-6.9-12.8c-1.4-2.5-2.9-5.1-4.3-7.7c-5.5-10.1-7.6-24.3-5.8-37.9
	c1.7-12.9,8.1-25.2,17.4-33.9c3.1-2.9,6.7-4.4,9.9-5.7l-0.1-0.7l-0.1,0c-3.3,1.4-6.9,2.9-10.2,5.9c-9.5,8.8-15.9,21.2-17.6,34.2
	c-1.9,13.8,0.3,28.1,5.8,38.3c1.4,2.6,2.9,5.2,4.3,7.7c2.4,4.2,4.8,8.4,6.9,12.8c2.1,4.3,3.7,8.1,4.9,11.9c0.4,1.1,0.7,2.3,1,3.3
	c0,0,0,0.1,0.1,0.2c3.4,12.6,2,23.7-4.3,36c0,0,0,0.1-0.1,0.1c-3.9,7.7-9.5,15.2-14.8,22.2c-6.1,8-14.4,20.3-16.1,34.3
	c-1.3,10.6,0.9,20.9,3,30.9c0.5,2.4,1,4.8,1.5,7.2c1.7,8.9,1.2,17,0.7,25.7c-0.1,1.8-0.2,3.6-0.3,5.5c-0.5,11,5.5,21.9,15.6,28.4
	c0,0,0,0,0.1,0L349.1,346.4z"/>
<rect x="68.4" y="-45.1" class="st14" width="665.9" height="730.3"/>
</svg>
