<?xml version="1.0" encoding="utf-8"?>
<!-- Generator: Adobe Illustrator 24.0.0, SVG Export Plug-In . SVG Version: 6.00 Build 0)  -->
<svg version="1.1" id="Capa_1" xmlns="http://www.w3.org/2000/svg" xmlns:xlink="http://www.w3.org/1999/xlink" x="0px" y="0px"
	 viewBox="0 0 881 768" style="enable-background:new 0 0 881 768;" xml:space="preserve">
<style type="text/css">
	.st0{fill:#1A2E35;}
	.st1{fill:#375A64;}
	.st2{fill:#FF4F5B;}
	.st3{opacity:0.3;}
	.st4{clip-path:url(#SVGID_2_);}
	.st5{clip-path:url(#SVGID_4_);}
	.st6{fill:#CD7151;}
	.st7{fill:#AE4F32;}
	.st8{clip-path:url(#SVGID_6_);}
	.st9{clip-path:url(#SVGID_8_);}
	.st10{clip-path:url(#SVGID_10_);}
	.st11{clip-path:url(#SVGID_12_);}
	.st12{clip-path:url(#SVGID_14_);}
	.st13{clip-path:url(#SVGID_16_);}
	.st14{fill:#FAFAFA;}
	.st15{fill:#FF9B6C;}
	.st16{fill:none;}
</style>
<path class="st0" d="M569.1,683.1c0,0,30.7,81.8,38.3,185.6c7.3,100.9-54.5,734.1-54.5,734.1L432,1581c0,0,27-223.1,40.8-332.1
	c13.5-107.3-40.8-483-40.8-483L560,683.1"/>
<path class="st0" d="M289.2,711.6c0,0-25.6,109.8,31.4,229.3c34.3,71.8,286.7,675,286.7,675l104.3-53.2L456.3,759.9L289.2,711.6z"/>
<path class="st1" d="M616.7,1264.1c-0.7,0.2-32.8-96.7-71.9-216.5c-39-119.8-70.2-217-69.5-217.3c0.6-0.2,32.8,96.7,71.9,216.5
	C586.2,1166.6,617.3,1263.9,616.7,1264.1"/>
<path class="st1" d="M607.3,1615.9c-0.6,0.3-51.5-118.3-113.6-264.8c-62.1-146.6-112-265.6-111.3-265.8
	c0.6-0.3,51.5,118.3,113.6,264.9C558.1,1496.6,608,1615.6,607.3,1615.9"/>
<path class="st1" d="M468.7,812.6c-0.3,0.3-3.5-2.2-9.1-5.6c-5.6-3.4-13.8-7.3-23.2-10.9c-4.7-1.7-9.1-3.4-13.3-5
	c-4.1-1.5-7.8-2.8-10.9-3.6c-6.3-1.6-10.4-0.6-10.5-1c-0.1-0.2,4-1.9,10.8-0.7c3.3,0.6,7.2,1.8,11.3,3.2c4.2,1.4,8.7,3,13.4,4.8
	c9.5,3.6,17.8,7.9,23.3,11.7C466.1,809.3,468.9,812.4,468.7,812.6"/>
<path class="st1" d="M531.9,749.4c0.5,0.5-7.5,9.8-17.2,21.4c-9.8,11.6-17.6,21.1-18.1,20.7c-0.5-0.4,6.5-10.6,16.3-22.2
	C522.7,757.6,531.5,749,531.9,749.4"/>
<path class="st1" d="M341.3,751.9c0.2-0.1,1.2,4.3-0.5,11.1c-1.6,6.6-6.5,15.7-15.6,21.5c-9.3,5.8-19.4,5.8-26,5.6
	c-6.8-0.3-10.9-1.1-10.9-1.3c0-0.4,4.2-0.3,10.9-0.4c6.6-0.2,16.2-0.6,24.7-6c8.5-5.3,13.3-13.7,15.3-19.9
	C341.2,756.1,340.9,751.9,341.3,751.9"/>
<path class="st1" d="M576.3,732.6c-0.2,0.6-7.4-1.6-14.3-7.6c-7-5.9-10.3-12.7-9.7-13c0.6-0.4,4.6,5.5,11.3,11.2
	C570.1,728.8,576.6,731.9,576.3,732.6"/>
<path class="st0" d="M503.1,204.1c9.6,0.5,18.7,6.4,23.1,14.9c2.9,5.5,3.8,11.8,5.7,17.7c1.9,5.9,5.1,11.9,10.6,14.7
	c4.9,2.4,10.7,1.8,16.1,2.8c12.8,2.5,22.4,15.9,20.6,28.8c-0.2,1.8-0.6,3.6,0.1,5.2c0.5,1.1,1.6,1.9,2.6,2.5
	c7.3,4.3,17,3.6,23.5,9.1c4.3,3.6,6.3,9.3,7.2,14.9c1.6,10.7-0.5,21.8-5.9,31.1c-2.2,3.7-4.9,7.2-8.5,9.6c-5,3.4-11.2,4.3-17.2,4.8
	c-20.3,1.4-41.8-3.1-57-16.6c-20.1-17.8-52.1-85.3-55.6-111.9L503.1,204.1z"/>
<path class="st2" d="M353.6,276.2l-71.9,34.5l51,215.9c0,0-30.3,89-40.5,138l-10.2,49.1c103.1,70.2,209.4,61.2,296.6-28.6l-45.6-104
	l38.3-149.8L470.4,266.1l-24.9-1.3L353.6,276.2z"/>
<g class="st3">
	<g>
		<defs>
			<rect id="SVGID_1_" x="298" y="595.8" width="253.3" height="79.5"/>
		</defs>
		<clipPath id="SVGID_2_">
			<use xlink:href="#SVGID_1_"  style="overflow:visible;"/>
		</clipPath>
		<g class="st4">
			<defs>
				<rect id="SVGID_3_" x="298" y="595.8" width="253.3" height="79.5"/>
			</defs>
			<clipPath id="SVGID_4_">
				<use xlink:href="#SVGID_3_"  style="overflow:visible;"/>
			</clipPath>
			<path class="st5" d="M298.8,651.7c2.1-4.3,43.6-40.1,48-42.2c62.6-30.2,100.8-1.8,170.5,3.8c1.8,0.1,0,1.4,1.8,1.5
				c7.9,0.7,20.1-3.6,27.9-2.4l4.4,13.6c-47,18.7-101.5,2.5-150.1,16.7c-14.2,4.2-27.8,10.9-42.4,13.3c-4.2,0.7-8.8,1.2-11.7,4.3
				c-1.6,1.7-2.4,4-3.7,6c-3.5,5.3-10.1,7.6-16.3,8.5c-6.6,1-13.8,0.8-19.5-2.7C301.8,668.5,295.9,657.8,298.8,651.7"/>
		</g>
	</g>
</g>
<path class="st6" d="M291,634.1c-3.7,1.1-2.4,13.7,6.7,11.7c20-4.5,46.2-15.2,46.2-15.2l31.3-25.5l140.2,8.6l-21.7-65.8
	c0,0-145.2,13.7-165.7,22.1c-15,6.1-25.6,12.2-32.7,20"/>
<path class="st6" d="M295.3,589.9c0,0-3.4,3.8-5.3,7.6c-2,3.8,3.6,8.9,3.6,8.9s-12.4,3.9-8.1,9c4.3,5.1,5.9,5.4,5.9,5.4
	s-10.1,7.7-8,11.6c2.1,3.9,7.6,1.6,7.6,1.6"/>
<path class="st7" d="M289.9,634.7c-0.4-0.5,3.1-4.2,9-6.6c5.8-2.4,11-2.2,11-1.5c0.1,0.7-4.7,1.6-10.1,3.8
	C294.4,632.6,290.4,635.3,289.9,634.7"/>
<path class="st7" d="M303.5,615.6c0.1,0.7-2.8,1.6-6.1,3c-3.3,1.4-5.9,3-6.3,2.4c-0.4-0.5,1.7-3,5.4-4.6
	C300.1,614.8,303.5,614.9,303.5,615.6"/>
<path class="st7" d="M302.4,605.3c-0.2,0.3-0.6,0.4-1.3,0.6c-0.7,0.2-1.8,0.6-2.9,0.8c-2.3,0.4-4.3,0.2-4.5-0.5
	c-0.2-0.6,1.7-1.5,4.2-1.9c1.3-0.2,2.3-0.3,3.3-0.1C302.1,604.4,302.6,605,302.4,605.3"/>
<path class="st2" d="M470.4,266.1c0,0,61.1,1.6,84.8,48.2c11.8,23.3,42.8,102.9,53.6,136.5c7.3,22.7,31.7,137,4.1,148.3
	c-35.4,14.5-97.4,16.8-97.3,16.8h-0.1l-22.8-66.3c-3.2-10.7,2.7-22.1,13.3-25.7l18.8,4l21.7-6.5l-14.8-133.8l-20.8-26L470.4,266.1z"
	/>
<g class="st3">
	<g>
		<defs>
			<rect id="SVGID_5_" x="395.5" y="319.3" width="34" height="230.9"/>
		</defs>
		<clipPath id="SVGID_6_">
			<use xlink:href="#SVGID_5_"  style="overflow:visible;"/>
		</clipPath>
		<g class="st8">
			<defs>
				<rect id="SVGID_7_" x="395.5" y="319.3" width="34" height="230.9"/>
			</defs>
			<clipPath id="SVGID_8_">
				<use xlink:href="#SVGID_7_"  style="overflow:visible;"/>
			</clipPath>
			<path class="st9" d="M412.6,319.3c2.8,10.5-0.2,25.6,1.2,35c5.4,37.4,7.7,75.5,4.4,113.1c-0.2,2.1-0.4,4.2,0.3,6.1
				c0.6,1.8,1.9,3.3,3,4.8c7.4,10.1,9.2,23.6,7.5,36c-1.7,12.5-6.6,24.2-11.4,35.9c-0.1-10.1,0.6-25.1,1.6-35.2
				c0.2-2,1.2-0.7,1.3-2.7c0.5-12.1-1.4-23.3-9.7-32c-1.7-1.7-3.6-3.3-4.7-5.5c-1-2-1.3-4.3-1.5-6.5c-4.6-42.2-7.6-84.7-8.9-127.2
				c-0.1-2.4-0.1-5.1,1.5-6.9c1.2-1.5,3.1-2.1,4.7-3.1c3.3-2.1,5.4-5.9,8.9-7.5"/>
		</g>
	</g>
</g>
<path class="st2" d="M281.7,310.7c0,0-43.6,17.6-34.4,91.3c4.5,36.3,26.2,134.2,49.2,190.6c10.8,26.6,36,45.1,64.5,41.8
	c12.4-1.5,24.7,0.7,33.1-4.2c12.7-7.4,18.6-33,21.4-60.7c1.9-18.8,1.5-38.5,4.2-54.6c4.5-26.2-7.4-38.8-22.8-42.1l-60.4-12.9
	l-3.9,32L281.7,310.7z"/>
<path class="st0" d="M356.6,533.2c0.2-0.1,1.1,1.3,3.4,3c2.3,1.8,6.1,3.9,11.2,4.6c5.1,0.8,11.4,0,18-2.3
	c6.5-2.4,13.7-5.5,19.5-10.9c5.8-5.4,9.2-12.5,10.3-19.2c1.2-6.8,0-13.1-1.9-17.9c-4-9.8-9.8-13.7-9.4-14c0.1-0.1,1.5,0.7,3.7,2.8
	c2.2,2.1,5.1,5.5,7.3,10.6c2.2,5,3.6,11.7,2.5,18.9c-1.1,7.2-4.7,14.9-10.9,20.6c-6.3,5.7-13.7,8.9-20.4,11.2
	c-6.8,2.3-13.5,3-19,1.9c-5.4-1-9.3-3.5-11.6-5.6C357.2,534.9,356.5,533.3,356.6,533.2"/>
<path class="st0" d="M293,583.5c0.2-0.1,1.2,3.2,4,8.8c2.7,5.6,7.4,13.4,15.3,21.2c7.8,7.8,19.1,15.3,33.2,19
	c14,3.7,30.9,3.6,46.4-2.6c7.8-3,10.7-11.6,13.8-18.8c2.8-7.4,4.8-14.9,6.1-22.1c2.7-14.4,3.4-27.8,4.4-38.9
	c1-10.9,1.7-19.8,2.3-26.4c0.3-2.9,0.6-5.3,0.7-7.2c0.2-1.6,0.4-2.5,0.4-2.5c0.1,0,0.1,0.9,0.1,2.5c-0.1,1.9-0.2,4.3-0.3,7.2
	c-0.4,6.6-0.9,15.5-1.5,26.4c-0.8,11.1-1.3,24.5-3.9,39.2c-1.3,7.3-3.2,15-6.1,22.6c-1.5,3.8-3.1,7.6-5.3,11.3
	c-2.1,3.7-5.6,7.1-9.7,8.8c-16.3,6.5-33.6,6.4-48,2.5c-14.5-3.9-26.1-11.8-33.9-19.9c-7.9-8.1-12.5-16.2-14.9-22
	c-1.3-2.9-2.1-5.2-2.5-6.8C293.1,584.4,292.9,583.6,293,583.5"/>
<path class="st0" d="M316.4,539.4c-0.3,0-0.2-4.7,0.3-12.3c0.5-7.6,1.4-18.1,2.5-29.6c0.6-5.8,1.1-11.2,1.7-16.3
	c0.7-5,2.2-9.7,4.9-12.8c2.6-3.1,5.7-4.6,7.8-5c2.2-0.4,3.4,0.1,3.4,0.2c0,0.2-1.2,0.1-3.2,0.7c-1.9,0.6-4.6,2.2-6.7,5.1
	c-4.6,5.9-4.2,16.8-5.5,28.3c-1.1,11.5-2.2,22-3.2,29.5C317.5,534.7,316.7,539.4,316.4,539.4"/>
<path class="st0" d="M295.5,317.4c0-0.1,1.9,0.3,4.9,1.8c3,1.6,7,4.4,10.8,9.1c3.9,4.6,7.3,11.1,9.8,18.6c2.5,7.5,4.2,16,6.2,24.8
	c3.9,17.6,7.2,33.6,9.5,45.2c1.2,5.8,2,10.5,2.6,13.8c0.6,3.3,0.8,5.1,0.6,5.1c-0.2,0-0.7-1.7-1.6-4.9c-0.8-3.2-2-7.8-3.4-13.6
	c-2.7-11.5-6.4-27.4-10.2-45.1c-2-8.8-3.6-17.3-5.9-24.6c-2.3-7.4-5.4-13.6-9-18.2C302.8,320,295.3,317.8,295.5,317.4"/>
<path class="st0" d="M571.5,609.6c0,0.1-1.4,0.4-4,0.8c-3,0.4-6.7,0.9-11.4,1.6c-10.2,1.2-24,2.9-40.5,5l-0.8,0.1l-0.3-0.8
	c-2.5-7.3-4.9-15.3-7.2-23.8c-2.4-8.5-4.8-17.4-7.9-26.4c-1.2-3.5-2.5-7-3.9-10.4c-0.7-1.7-1.4-3.4-2.1-5c-0.7-1.5-1.5-3.5-1.8-5.4
	c-0.5-3.7-0.4-7.2,0-10.7c0.4-3.8,3-7,5.9-8.8c3-1.9,6.2-2.9,9.6-2.9c3.4,0,6.3,1,9.1,1.9c2.8,0.9,5.4,1.8,7.9,2.2
	c2.6,0.3,5.1,0.4,7.5,0.1c4.8-0.4,9-1.9,12.7-3c3.8-1.1,7.1-1.8,9.9-2c2.8-0.1,5,0.1,6.4,0.4c1.4,0.3,2.2,0.5,2.2,0.6
	c0,0.3-3.1-0.6-8.5-0.1c-2.7,0.3-5.9,1.1-9.6,2.3c-3.7,1.2-7.9,2.9-13,3.4c-2.5,0.3-5.1,0.3-7.9,0c-2.8-0.4-5.5-1.3-8.2-2.2
	c-2.7-0.8-5.6-1.7-8.4-1.7c-2.8,0.1-5.8,1-8.4,2.7c-2.5,1.7-4.6,4.2-4.8,7.2c-0.4,3.3-0.4,6.7,0.1,10.1c0.2,1.7,0.9,3,1.6,4.8
	c0.7,1.7,1.4,3.3,2.1,5.1c1.4,3.4,2.7,6.9,3.9,10.5c3.2,9.1,5.6,18.1,7.9,26.6c2.3,8.5,4.6,16.5,7,23.8l-1.1-0.7
	c16.5-1.7,30.4-3.1,40.6-4.1c4.6-0.4,8.4-0.7,11.4-1C570.1,609.5,571.5,609.4,571.5,609.6"/>
<path class="st0" d="M578.7,527.9c0.1-0.3,1.9,0,4.3,1.4c2.5,1.4,5.3,4.3,7.5,7.9c4.3,7.4,5.5,14.1,5,14.3c-0.7,0.3-3-6.1-7.1-13
	c-2-3.4-4.4-6.1-6.4-7.8C580,529,578.5,528.2,578.7,527.9"/>
<path class="st0" d="M529.9,527.9c-0.1,0-0.4-2.2-0.4-6.2c-0.1-4,0.2-9.8,1-16.9c1.4-14.3,6.4-33.5,8.9-54.9
	c2.4-21.5,0.4-41.3-4.6-54.6c-4.8-13.3-11.1-19.9-10.6-20.2c0.1-0.1,0.5,0.3,1.2,1.1c0.7,0.8,1.8,1.9,2.9,3.6
	c2.4,3.2,5.5,8.2,8.1,14.9c5.6,13.4,7.9,33.7,5.5,55.4c-1.2,10.9-3.2,21.1-5.1,30.3c-1.9,9.2-3.5,17.5-4.5,24.6
	c-1,7-1.6,12.8-1.8,16.7C530.1,525.7,530.1,527.9,529.9,527.9"/>
<g class="st3">
	<g>
		<defs>
			<rect id="SVGID_9_" x="530" y="398.8" width="19.4" height="128.4"/>
		</defs>
		<clipPath id="SVGID_10_">
			<use xlink:href="#SVGID_9_"  style="overflow:visible;"/>
		</clipPath>
		<g class="st10">
			<defs>
				<rect id="SVGID_11_" x="530" y="398.8" width="19.4" height="128.4"/>
			</defs>
			<clipPath id="SVGID_12_">
				<use xlink:href="#SVGID_11_"  style="overflow:visible;"/>
			</clipPath>
			<path class="st11" d="M536.9,398.9c2.4,8.4,4.7,16.9,7.1,25.3c2.5,9,5.1,18.1,5.4,27.5c0.3,7.8-0.9,15.7-2.1,23.4
				c-1.4,8.9-2.7,17.8-4.2,26.6c-1.5,9.2,1.3,16.3-4,24l-9.1,1.6c1.3-39.3,16.8-90.2,7.4-128.4"/>
		</g>
	</g>
</g>
<path class="st0" d="M500.4,316.4c0.7-0.2,4.4,9.9,8.8,22.4c4.4,12.5,8.5,22.4,7.9,22.7c-0.6,0.3-5.7-9.3-10.2-21.9
	C502.5,327,499.8,316.6,500.4,316.4"/>
<g class="st3">
	<g>
		<defs>
			<rect id="SVGID_13_" x="301.2" y="452.2" width="38.5" height="77.2"/>
		</defs>
		<clipPath id="SVGID_14_">
			<use xlink:href="#SVGID_13_"  style="overflow:visible;"/>
		</clipPath>
		<g class="st12">
			<defs>
				<rect id="SVGID_15_" x="301.2" y="452.2" width="38.5" height="77.2"/>
			</defs>
			<clipPath id="SVGID_16_">
				<use xlink:href="#SVGID_15_"  style="overflow:visible;"/>
			</clipPath>
			<path class="st13" d="M339.6,452.8c-5.5-0.3-10.9,2-15.5,5c-10.1,6.6-17.4,17-20.8,28.6c-3.3,11.6-2.8,24.1,1.1,35.5
				c1.2,3.6,3.6,7.6,7.3,7.5c4.4-0.1,6.3-5.6,6.9-9.9c1.9-12.1,3.7-24.1,5.6-36.2c0.6-4.1,1.3-8.3,3.4-11.9
				c2.1-3.6,5.9-6.5,10.1-6.2c0.4-4.3,0.9-8.6,1.3-12.9"/>
		</g>
	</g>
</g>
<path class="st14" d="M330.7,401.3c0,0.3-4.6,1-11.9,3.3c-7.3,2.2-17.1,6.2-27.5,11.4c-10.4,5.2-19.5,10.6-26,14.5
	c-2.8,1.7-5.4,3.3-7.7,4.7c-1.8,1.1-2.9,1.7-2.9,1.6c-0.1-0.1,0.9-0.8,2.6-2.1c1.7-1.3,4.3-3,7.5-5.1c6.4-4.2,15.5-9.7,25.9-15
	c10.5-5.2,20.4-9.1,27.8-11.1c3.7-1.1,6.7-1.7,8.9-2C329.5,401.3,330.7,401.2,330.7,401.3"/>
<path class="st14" d="M337,428.2c0,0.1-1.1,0.5-3.2,1.2c-2.1,0.7-5.1,1.6-8.7,2.9c-7.3,2.5-17.3,6.4-27.9,11.5
	c-10.6,5.1-19.9,10.5-26.3,14.8c-3.2,2.1-5.8,3.9-7.5,5.2c-1.7,1.3-2.7,2-2.8,1.9c-0.1-0.1,0.8-0.9,2.5-2.3c1.6-1.4,4.1-3.4,7.3-5.6
	c6.3-4.5,15.6-10.1,26.3-15.2c10.7-5.1,20.8-8.9,28.3-11.1c3.7-1.2,6.8-2,8.9-2.5C335.8,428.3,337,428.1,337,428.2"/>
<path class="st14" d="M576.9,368.5c0,0.2-2.6,0.8-6.7,1.8c-4.2,1-9.9,2.7-16,5c-6.1,2.3-11.4,5-15.2,7c-3.8,2-6.1,3.4-6.2,3.2
	c-0.1-0.1,2-1.8,5.7-4.1c3.7-2.3,9-5.1,15.2-7.4c6.2-2.4,12-3.9,16.3-4.7C574.2,368.5,576.9,368.3,576.9,368.5"/>
<path class="st14" d="M591.3,401.8c0,0.2-3,0-7.7,0.4c-4.7,0.3-11.1,1.4-18,3.7c-13.7,4.6-23.6,11.1-23.9,10.6
	c-0.1-0.2,2.3-1.9,6.4-4.3c4.1-2.4,10-5.4,17-7.7c6.9-2.3,13.6-3.3,18.4-3.4c2.4,0,4.3,0,5.7,0.2
	C590.6,401.6,591.3,401.7,591.3,401.8"/>
<path class="st0" d="M486.2,50.2c16.7,9,24.7,29.8,22.6,42.6c-1,6.5-3.5,13.1-1.7,19.4c1.5,5.5,5.8,9.6,9.2,14.1
	c11.1,15.2,11.1,37.7-0.1,52.9c-11.2,15.2-32.7,21.8-50.5,15.5"/>
<path class="st0" d="M502,132.6C534.3,44.2,438.7,8.2,389.3,26.3c-46.4,17-64.8,42.1-70.2,74.4c-5.4,32.3-2.4,66.6,12.3,95.9
	c7.3,14.4,19.4,28.7,35.6,29.4"/>
<path class="st6" d="M372.4,306.4L349.5,93.5c-0.8-8.3,4.9-15.9,13.2-17.4L446.5,48c27.2-5,47.9,27.4,51.7,54.7
	c4.2,30.4,8.2,67.6,6.3,90.7c-3.8,46.3-38.5,54.8-38.5,54.8c0-0.2,2.7,40.4,5,78.2c0.4,6.3-5.7,11-11.7,9L372.4,306.4z"/>
<path class="st0" d="M490.3,133.5c0.4,3.1-1.9,5.9-5.1,6.4c-3.2,0.5-6.1-1.7-6.5-4.7c-0.4-3.1,1.9-5.9,5.1-6.4
	C487,128.3,489.9,130.5,490.3,133.5"/>
<path class="st0" d="M430.4,138.1c0.4,3.1-1.9,5.9-5.1,6.4c-3.2,0.4-6.1-1.7-6.5-4.7c-0.4-3.1,1.9-5.9,5.1-6.4
	C427.1,132.9,430,135,430.4,138.1"/>
<path class="st0" d="M490.6,120.7c-0.6,0.8-5.4-2-11.7-1.3c-6.3,0.6-10.6,4.4-11.3,3.7c-0.4-0.3,0.2-1.8,2.1-3.4
	c1.8-1.7,5.1-3.5,9-3.9c3.9-0.4,7.4,0.7,9.5,1.9C490.1,119,490.9,120.3,490.6,120.7"/>
<path class="st0" d="M430.7,126.8c-0.7,0.8-5.4-2.2-11.7-1.7c-6.3,0.4-10.7,4-11.5,3.2c-0.4-0.3,0.3-1.8,2.2-3.4
	c1.9-1.6,5.2-3.3,9.1-3.5c3.9-0.3,7.4,1,9.4,2.3C430.3,125.1,431.1,126.4,430.7,126.8"/>
<path class="st0" d="M456.1,173.8c-0.1-0.4,3.8-1.3,10.1-2.6c1.6-0.3,3.1-0.7,3.3-1.8c0.3-1.2-0.5-2.9-1.4-4.7
	c-1.8-3.8-3.7-7.8-5.7-11.9c-8-17-13.8-31-13.2-31.3c0.7-0.3,7.7,13.2,15.7,30.2c1.9,4.2,3.8,8.2,5.5,12c0.7,1.8,2,3.8,1.3,6.3
	c-0.3,1.2-1.5,2.2-2.5,2.6c-1,0.4-1.9,0.5-2.7,0.6C460.1,173.8,456.1,174.1,456.1,173.8"/>
<path class="st7" d="M466.1,248.2c0,0-30.7,4.3-62.6-11.7c0,0,17.9,30.7,63.4,22.9L466.1,248.2z"/>
<path class="st7" d="M454.6,189.2c-2.5-2.8-6.6-4.2-10.5-3.5c-2.7,0.5-5.4,2-6.9,4.4c-1.5,2.4-1.6,5.6,0.1,7.6
	c1.9,2.3,5.5,2.6,8.4,1.5c2.9-1.1,5.4-3.3,7.7-5.4c0.6-0.6,1.3-1.2,1.7-2c0.4-0.8,0.4-1.8-0.2-2.4"/>
<path class="st0" d="M437.8,179.6c1-0.1,1.6,6.7,7.8,11.2c6.2,4.4,13.5,3.1,13.6,4.1c0.1,0.4-1.5,1.5-4.6,1.8c-3,0.3-7.5-0.3-11.3-3
	c-3.8-2.7-5.6-6.6-6.1-9.4C436.7,181.3,437.3,179.6,437.8,179.6"/>
<path class="st0" d="M431.6,117.4c-0.5,1.8-6.9,1.4-14.2,2.9c-7.4,1.3-13.2,3.9-14.3,2.5c-0.5-0.7,0.4-2.4,2.7-4.2
	c2.3-1.8,6-3.7,10.4-4.5c4.4-0.8,8.5-0.4,11.3,0.5C430.3,115.3,431.8,116.5,431.6,117.4"/>
<path class="st0" d="M487.9,104.7c-1,1.5-5.5,0.4-10.7,0.7c-5.3,0.1-9.6,1.7-10.7,0.3c-0.5-0.7,0.1-2.2,1.9-3.7
	c1.8-1.5,4.9-2.9,8.5-3c3.6-0.2,6.8,0.9,8.8,2.2C487.6,102.5,488.4,103.9,487.9,104.7"/>
<path class="st6" d="M361.9,153c-0.7-0.3-25.3-9-23.5,18.4c1.8,27.4,29,20,29,19.2C367.3,189.8,361.9,153,361.9,153"/>
<path class="st15" d="M358.3,180.7c-0.1-0.1-0.5,0.4-1.2,0.8c-0.8,0.4-2.1,0.7-3.6,0.3c-3-0.9-5.7-5.3-6.2-10.2
	c-0.2-2.5,0.1-4.9,0.9-6.9c0.7-2.1,1.9-3.5,3.3-3.9c1.4-0.4,2.5,0.4,2.9,1.1c0.4,0.7,0.3,1.3,0.4,1.3c0.1,0.1,0.6-0.5,0.3-1.6
	c-0.1-0.5-0.5-1.2-1.2-1.6c-0.7-0.5-1.7-0.7-2.7-0.5c-2.1,0.3-3.9,2.4-4.7,4.6c-0.9,2.2-1.4,5-1.2,7.8c0.5,5.5,3.7,10.5,7.7,11.4
	c2,0.4,3.5-0.3,4.3-1C358.3,181.4,358.4,180.8,358.3,180.7"/>
<path class="st0" d="M454.6,33.5c15.9,6.7,24.5,37.5,19.4,53.9s-21.5,25.5-38,30.5c-16.5,4.9-32.9,6.6-49.8,3.3
	c-0.3,11.2-6.1,23.1-16.7,26.9c-14,5-29.4-7-33.7-21.2c-4.3-14.2-0.6-29.5,3-43.9"/>
<path class="st0" d="M341.2,142.2c-0.1,0.1,0.7,0.7,2.3,1.8c1.5,1.1,3.8,2.6,6.7,4.3c2.9,1.6,6.6,3.4,11,4.4c4.4,0.9,9.7,1,14.5-1.3
	c4.8-2.3,8.3-6.3,10.3-10.4c2.1-4.1,2.8-8.1,3.1-11.5c0.3-3.4,0-6.1-0.2-8c-0.2-1.9-0.5-2.9-0.6-2.9c-0.3,0,0.3,4.2-0.4,10.7
	c-0.4,3.3-1.3,7.1-3.3,10.9c-2,3.8-5.2,7.5-9.7,9.6c-4.4,2.1-9.4,2.1-13.6,1.3c-4.2-0.8-7.9-2.4-10.8-3.9
	C344.8,144.3,341.3,142,341.2,142.2"/>
<path class="st1" d="M333.3,75.2c0.1,0,0.3-1.5,1.3-4.2c1-2.6,3-6.2,6.5-9.8c3.5-3.6,8.6-7,14.7-9.3c6.2-2.4,13.4-3.8,21-5.1
	c15.3-2.4,28.7-6.6,38.1-10.4c4.7-1.9,8.4-3.6,10.9-4.9c1.3-0.6,2.2-1.1,2.9-1.5c0.7-0.4,1-0.6,1-0.6c0,0-0.4,0.1-1.1,0.4
	c-0.8,0.4-1.8,0.8-3,1.3c-2.6,1.2-6.3,2.8-11,4.6c-9.4,3.6-22.8,7.7-38,10.1c-7.6,1.3-14.9,2.8-21.1,5.2c-6.3,2.4-11.4,6-14.9,9.7
	c-3.6,3.7-5.5,7.4-6.4,10.1c-0.4,1.3-0.7,2.4-0.8,3.2C333.3,74.8,333.3,75.2,333.3,75.2"/>
<path class="st1" d="M327.6,179.8c-0.1,0.1-0.5-0.3-1.3-0.9c-0.8-0.7-1.9-1.8-3.2-3.4c-2.5-3.1-5.6-8.5-6.8-15.9
	c-1.3-7.4-0.2-16.8,4.3-26c2.3-4.6,5.3-9.1,9.1-13.3c3.8-4.1,8.8-8.2,15.3-9.2l-0.9,1.5c-3.9-11.3-0.6-25.9,9.7-34.8
	c6.6-5.7,15.1-7.7,22.8-8.9c7.8-1.1,15.2-1.8,22.1-3.4c13.9-3,25.6-8.9,33.3-16.4c7.7-7.4,11.5-15.6,12.9-21.4
	c1.5-5.8,1.2-9.2,1.5-9.2c0.1,0,0.2,0.8,0.2,2.4c0,1.6-0.1,4-0.8,7c-1.2,6-4.8,14.6-12.7,22.4c-7.8,7.9-19.8,14.1-34,17.3
	c-7,1.7-14.7,2.4-22.3,3.6c-7.6,1.2-15.6,3.1-21.6,8.4c-9.5,8.2-12.7,21.9-9.1,32.3l0.4,1.3l-1.4,0.2c-5.6,0.8-10.3,4.5-14,8.4
	c-3.7,4-6.7,8.3-9,12.7c-4.5,8.8-5.7,17.8-4.6,24.9c1,7.2,3.8,12.4,6,15.6C326.1,178.3,327.8,179.7,327.6,179.8"/>
<path class="st0" d="M465.6,248c0,0,5.1,69.1,8.9,104.4c1.3,12,2.9,24.5,9.9,34.4c11.4,16.2,36.6,20,52.6,8.4
	c16-11.6,20.5-36.1,10.1-53c-3.6-5.9-9-12.7-5.9-18.9c1.2-2.4,3.4-4.1,5.3-6c9.5-10.2,6.5-26.7,0.4-39.1c-1.5-3-3.4-6.2-6.5-7.4
	c-3.4-1.4-7.4,0-11-1c-7.8-2.2-8.3-12.7-10.1-20.6c-2.6-11.6-11.7-23.9-23.4-25.6C495.9,223.5,484.5,242.4,465.6,248"/>
<path class="st1" d="M546.4,312.9c-0.5-0.2,3.3-5.9,3.9-16.2c0.2-5.1-0.5-11.3-3.3-17.5c-2.8-6.1-7.6-12.1-14.1-16.3
	c-3.2-2.1-7-3.4-10.2-5.9c-1.6-1.2-3-2.8-3.8-4.7c-0.9-1.9-1.1-3.8-1.2-5.6c-0.2-3.6,0.1-6.8-0.7-9.6c-0.9-2.7-2.6-4.9-4.4-6.7
	c-3.7-3.5-7.2-6.1-9.1-8.5c-1.9-2.3-2.5-3.9-2.4-4c0.2-0.1,1,1.3,3.1,3.3c2,2.1,5.6,4.3,9.6,7.9c2,1.8,4.1,4.2,5.1,7.3
	c1,3.2,0.8,6.7,1,10c0.2,3.4,1.3,6.5,4.3,8.6c2.8,2.2,6.5,3.5,10,5.8c7,4.5,12,10.9,14.9,17.5c2.9,6.6,3.5,13.2,3,18.5
	c-0.5,5.4-2,9.5-3.2,12.2C547.6,311.7,546.5,313,546.4,312.9"/>
<path class="st1" d="M518.4,401.4c-0.1-0.2,2.2-1.5,5.6-4.7c3.3-3.2,7.7-8.7,10.3-16.6c2.7-7.8,3.3-18.4-1.3-28.3
	c-4.6-10.1-13.8-18.5-22.4-28.2c-4.3-4.9-8.1-10.2-10.7-15.9c-2.6-5.7-3.7-11.9-3-17.7c0.7-5.7,2.3-10.8,3.2-15.7
	c0.9-4.8,0.8-9.4,0-13.5c-1.5-8.2-5.3-14.1-8.2-17.7c-3-3.6-5.1-5.2-5-5.3c0.1-0.1,0.6,0.3,1.6,1c1,0.7,2.4,2,4.1,3.7
	c3.2,3.5,7.4,9.5,9.2,18c0.9,4.2,1.2,9.1,0.3,14.1c-0.8,5-2.4,10.1-2.9,15.6c-0.6,5.4,0.5,11.1,3,16.5c2.5,5.4,6.2,10.5,10.4,15.3
	c8.4,9.6,17.9,18.2,22.6,28.8c4.8,10.6,3.9,21.8,0.9,29.8c-3,8.2-7.7,13.6-11.3,16.7c-1.9,1.5-3.4,2.6-4.5,3.2
	C519,401.2,518.4,401.5,518.4,401.4"/>
<path class="st6" d="M335.6,472.5l17.6-168l50.1,20.6l4.1,171.2c0,0-16.5,24.2-43.6,13.8C336.7,499.7,335.6,472.5,335.6,472.5"/>
<polygon class="st0" points="349.9,157.1 442.9,241.3 425,302.9 418.1,304.8 336.9,219.4 343,159 "/>
<polygon class="st1" points="343,159 436,243.2 418.1,304.9 330.1,221.3 "/>
<path class="st6" d="M405.3,330.5c0,0,9.8-10,9.8-23c0-12.7-3.1-43.2-3.1-43.2s16.8-34.2,16.5-38.8c-0.3-4.6-1.1-4.5-7-2.8
	c-5.9,1.8-24.6,32.9-24.6,32.9l-5.6-23.4c0,0,15.5-24.2,16.8-27.6c1.3-3.4,3.3-6.2-0.5-6.6c-3.8-0.4-32.7,26.9-32.7,26.9l1.9,25.5
	c0,0-0.6,2-4.6-1.6c-4.1-3.6-2.6-34.1-2.6-34.1s10-17.9,9.8-20.5c-0.2-2.6,1.9-5.4,0-9.9c-1.8-4.5-7.5,0.6-7.5,0.6l-19.3,24.5
	l-6.4-24.6c0,0,0.4-5.2-6.4-5.4l1.5,79.6l16.4,61.5L405.3,330.5z"/>
<path class="st7" d="M407.4,496.3c0,0-0.1-1-0.2-3c-0.1-2.1-0.2-5-0.3-8.8c-0.2-7.8-0.6-19.1-1-33.4c-0.7-29-1.8-70.4-3.1-120.4
	l0-0.5l0.4-0.3c3.9-3.3,7.3-7.7,9.3-12.8c2.1-5.1,2.4-10.7,2.1-16.5c-0.4-11.7-1.7-23.8-3.2-36.2l0-0.3l0.1-0.3
	c3.2-6.5,6.4-13.2,9.4-20.1c1.5-3.4,3.1-6.9,4.5-10.5c0.7-1.8,1.4-3.6,1.9-5.4l0.4-1.3c0.1-0.4,0.1-0.7,0.1-1.1
	c-0.1-0.9-0.2-1.9-0.4-2.4c0.2-0.6-2.4,0-4.1,0.5c-1.1,0.3-1.5,0.5-2.2,1.1c-0.7,0.6-1.4,1.2-2,1.9c-2.6,2.8-5,6-7.3,9.3
	c-4.6,6.5-9,13.4-13.3,20.4l-1.5,2.5l-0.7-2.8c-1.8-7.4-3.7-15.3-5.6-23.4l-0.1-0.5l0.3-0.4c2.5-4,5.2-8.2,7.9-12.5
	c3-4.9,6.3-10,8.7-14.8c0.5-1.4,1.2-2.8,1.5-3.9c0.2-0.6,0.1-0.9,0.1-0.8c0-0.1-0.8-0.3-1.1-0.2c-0.1,0-0.8,0.4-1.4,0.7
	c-0.6,0.3-1.1,0.7-1.7,1.1c-1.1,0.8-2.3,1.6-3.4,2.5c-8.8,7-17.1,14.7-25.2,22.2l0.4-0.9c0.7,8.6,1.3,17.2,1.9,25.5l0,0.2l-0.1,0.2
	c-0.4,1.2-1.6,1.5-2.3,1.4c-0.7-0.1-1.2-0.3-1.7-0.5c-0.9-0.5-1.6-1.1-2.3-1.6c-1.7-1.6-2-3.6-2.4-5.2c-0.7-3.5-0.8-6.8-1-10.2
	c-0.3-6.7-0.2-13.3,0.1-19.8l0-0.3l0.1-0.2c3.4-6.3,7-12.6,9.4-18.8c0.1-0.4,0.2-0.8,0.2-0.9c0-0.3,0-1,0.1-1.4
	c0.1-1,0.3-1.8,0.5-2.6c0.3-1.6,0.4-3.1-0.1-4.6c-0.5-1.7-1-2.4-2.3-2.2c-1.3,0.2-2.7,1.2-3.9,2.1l0.1-0.1
	c-6.7,8.5-13.1,16.6-19.3,24.5l-1.3,1.6l-0.5-2c-2.2-8.5-4.3-16.7-6.3-24.6l0-0.1v-0.2c0-1.3-0.6-2.6-1.7-3.3
	c-1.1-0.7-2.5-1-3.9-1.1l0.9-0.9c0.5,32.4,0.9,59.2,1.2,79.6l0-0.1c3.6,14.7,6.3,26,8.2,33.9c0.9,3.8,1.6,6.7,2,8.7
	c0.4,2,0.6,3,0.6,3s-0.3-1-0.9-2.9c-0.6-2.1-1.3-4.9-2.3-8.7c-2-7.8-5-19.1-8.8-33.7l0-0.1l0-0.1c-0.5-20.4-1.1-47.2-1.8-79.6l0-0.9
	l0.9,0c1.6,0,3.3,0.3,4.9,1.4c1.5,1.1,2.5,2.9,2.5,5l0-0.3c2.1,7.9,4.2,16.1,6.5,24.6l-1.8-0.4c6.2-7.9,12.5-16,19.2-24.6l0.1-0.1
	l0.1,0c1.4-1.2,2.9-2.2,4.9-2.6c1-0.2,2.4,0,3.3,0.9c0.9,0.9,1.1,1.9,1.4,2.7c0.6,1.8,0.5,3.8,0.2,5.6c-0.2,0.9-0.4,1.7-0.5,2.5
	c-0.1,0.4,0,0.6,0,1.2c0,0.7-0.2,1.1-0.3,1.6c-2.6,6.8-6.1,12.9-9.5,19.3l0.1-0.5c-0.3,6.4-0.4,13-0.1,19.6c0.2,3.3,0.3,6.7,1,9.8
	c0.4,1.6,0.7,3.1,1.6,3.9c0.6,0.5,1.2,1,1.9,1.3c0.3,0.1,0.6,0.3,0.8,0.3h0.1c0,0,0.1,0.2,0.1,0.2l0,0.1l0,0l0.1,0l0.1,0.1l0,0
	c0.6,0.2-0.7-0.3-0.6-0.2l0,0.1l0,0.4c-0.6-8.4-1.3-16.9-2-25.5l0-0.6l0.4-0.4c8.1-7.5,16.4-15.2,25.3-22.3c1.1-0.9,2.3-1.8,3.5-2.6
	c0.6-0.4,1.2-0.8,1.9-1.2c0.7-0.3,1.2-0.8,2.5-1c1,0,1.8,0.1,2.9,0.9c1.1,1.1,0.8,2.5,0.6,3.2c-0.5,1.6-1.1,2.8-1.6,4.1
	c-2.7,5.5-5.9,10.1-8.9,15.2c-2.7,4.3-5.4,8.5-7.9,12.5l0.2-0.9c1.9,8,3.8,16,5.6,23.4l-2.2-0.3c4.3-7.1,8.7-13.9,13.4-20.5
	c2.4-3.3,4.7-6.5,7.5-9.5c0.7-0.7,1.4-1.5,2.3-2.2c0.8-0.7,2.2-1.3,3-1.5c1-0.3,1.9-0.6,3-0.7c0.5-0.1,1.1-0.2,1.9-0.1
	c0.8,0.1,1.7,0.7,2,1.4c0.6,1.3,0.6,2.3,0.7,3.3c0,0.5-0.1,1.3-0.2,1.8l-0.4,1.5c-0.6,1.9-1.3,3.8-2,5.6c-1.4,3.6-3,7.1-4.5,10.6
	c-3.1,6.9-6.3,13.6-9.5,20.1l0.1-0.6c1.4,12.5,2.7,24.6,3.1,36.4c0.3,5.8,0,12-2.4,17.4c-2.2,5.4-5.7,10-10,13.6l0.4-0.8
	c0.9,50.1,1.7,91.5,2.2,120.5c0.2,14.3,0.4,25.6,0.5,33.4c0,3.8,0,6.7,0,8.8C407.4,495.3,407.4,496.3,407.4,496.3"/>
<path class="st7" d="M355.9,252.7c-0.7,0.1-1.8-9.7-2.6-21.8c-0.8-12.1-0.9-21.9-0.2-21.9c0.7,0,1.8,9.7,2.6,21.8
	C356.5,242.8,356.6,252.6,355.9,252.7"/>
<rect x="18.5" y="-92" class="st16" width="988.1" height="816.8"/>
</svg>
