<?xml version="1.0" encoding="utf-8"?>
<!-- Generator: Adobe Illustrator 24.0.0, SVG Export Plug-In . SVG Version: 6.00 Build 0)  -->
<svg version="1.1" xmlns="http://www.w3.org/2000/svg" xmlns:xlink="http://www.w3.org/1999/xlink" x="0px" y="0px"
	 viewBox="0 0 512 512" style="enable-background:new 0 0 512 512;" xml:space="preserve">
<style type="text/css">
	.st0{fill:#263238;}
	.st1{fill:#848484;}
	.st2{opacity:0.6;}
	.st3{fill:#FFFFFF;}
	.st4{opacity:0.3;}
	.st5{fill:#455A64;}
	.st6{fill:#6993F6;}
	.st7{fill:#FFB000;}
	.st8{opacity:0.2;}
	.st9{fill:#FAFAFA;}
	.st10{fill:#A36957;}
	.st11{fill:#7C3B29;}
	.st12{fill:#EA81DB;}
	.st13{fill:#B77153;}
	.st14{fill:#995037;}
	.st15{fill:none;stroke:#4E585D;stroke-width:1.5925;stroke-miterlimit:10;}
	.st16{fill:#FBFBFB;}
	.st17{fill:#FFBE9D;}
	.st18{opacity:0.6;fill:#FFFFFF;enable-background:new    ;}
	.st19{fill:#E0E0E0;}
	.st20{fill:#EB996E;}
	.st21{fill:#D1734A;}
	.st22{fill:#F7B73E;}
	.st23{fill:#FFAD9D;}
	.st24{fill:#E88774;}
	.st25{fill:#EF67D6;}
	.st26{fill:#A2CE63;}
	.st27{fill:#EAA98C;}
	.st28{fill:none;stroke:#4E585D;stroke-width:1.9822;stroke-miterlimit:10;}
	.st29{clip-path:url(#SVGID_2_);}
	.st30{fill:#3A2110;}
	.st31{fill:#231409;}
	.st32{opacity:0.4;}
	.st33{fill:#E8505B;}
	.st34{fill:#828282;}
	.st35{fill:none;stroke:#4E585D;stroke-width:1.348;stroke-miterlimit:10;}
	.st36{fill:#0C45A8;}
	.st37{clip-path:url(#SVGID_4_);}
	.st38{fill:#B78876;}
	.st39{fill:#AA6550;}
	.st40{fill:#183D72;}
	.st41{fill:none;stroke:#4E585D;stroke-width:2.5071;stroke-miterlimit:10;}
</style>
<g id="Layer_2">
</g>
<g id="Layer_3">
</g>
<g id="Layer_4">
</g>
<g id="Layer_5">
</g>
<g id="Layer_6">
</g>
<g id="Layer_7">
</g>
<g id="Layer_8">
</g>
<g id="Layer_9">
	<g>
		<g>
			<g id="freepik--character-1--inject-2_3_">
				
					<rect x="153.9" y="166.71" transform="matrix(0.9963 -0.0856 0.0856 0.9963 -15.0039 13.9609)" class="st34" width="2.82" height="30.5"/>
				<path class="st0" d="M154.1,104.02c-9.35,5.05-59.99,9.17-65.83,0.32c-5.74-9.38-3.76-21.54,4.66-28.62
					c-5.01-5.29-7.91-12.24-8.16-19.53c-0.16-7.35,3.31-14.3,9.28-18.59c6.15-4.14,14.22-4.02,20.25,0.29
					c-4.11-2.96-2.67-9.53,0.32-13.61c8.91-12.06,25.9-14.61,37.96-5.71c2.02,1.49,3.82,3.25,5.35,5.24
					c4.41-12.97,18.49-19.91,31.45-15.5c9.49,3.23,16.11,11.85,16.77,21.85c8.37-3.39,18.3,2.78,21.66,11.15
					c3.36,8.37,1.8,18.05-1.01,26.56"/>
				<path class="st26" d="M128.04,136.25c-4.17-5.12-6.25-11.64-5.81-18.23c0.47-6.55,2.33-12.92,5.45-18.7
					c13.61-26.25,40.6-42.83,70.16-43.13c11.68-0.35,23.13,3.26,32.48,10.25c9.39,7.29,13.8,19.3,11.37,30.93"/>
				<path class="st13" d="M223.51,223.89c-0.51-11.12-0.76-21.19-0.76-21.19s24.47-5.27,23.39-30.61s-8.63-83.3-8.63-83.3
					l-47.43-18.05l-37,39.45l14.22,117.73c2.53,16.64,12.7,30.1,29.38,27.86l0,0C212.53,253.68,224.15,239.85,223.51,223.89z"/>
				<path class="st0" d="M172.87,82.69c-7.22,11.87-2.13,19.06,7.22,29.31c3.88,4.82,9.84,7.51,16.03,7.22
					c6.06-0.72,11.44-6.97,9.64-12.81c-1.55,6.78,2.7,13.54,9.48,15.08c6.78,1.55,13.54-2.7,15.08-9.48
					c0.55-2.41,0.38-4.92-0.49-7.23c0.75,2.7,1.97,5.24,3.61,7.51c1.66,2.27,4.43,3.44,7.22,3.07c3.61-0.83,8.59-1.08,9.02-7.22
					c1.01-13.68-3.36-24.62-12.24-31.94c-10.28-7.39-23.01-10.53-35.55-8.77c-11.44,2-21.91,7.69-29.81,16.21"/>
				<path class="st0" d="M180.23,82.08c3.8,6.87,6.18,14.43,7,22.23c0.82,7.86-1.45,15.74-6.35,21.94c-5.07,6.21-13.26,8.93-21.04,7
					c2.6,6.69,2.08,14.19-1.41,20.46c-3.79,6.23-11.43,8.94-18.3,6.5c-5.85-2.56-8.84-9.13-10.14-15.38
					c-5.86-28.04,12.12-55.52,40.15-61.38c3.66-0.77,7.39-1.13,11.13-1.1"/>
				<path class="st13" d="M158,146.29c-3.83-1.42-8.14-0.09-10.5,3.25c-5.32,5.94-4.83,15.06,1.11,20.39
					c4.07,3.65,9.86,4.69,14.95,2.68"/>
				<path class="st14" d="M158.47,165.38c0,0-1.08,0.36-2.89,0c-2.42-0.47-4.47-2.08-5.49-4.33c-0.5-1.3-0.5-2.74,0-4.04
					c0.4-1.04,1.07-1.95,1.95-2.63c1.48-1.12,2.67-1.15,2.71-1.05c0.04,0.11-0.97,0.54-2.17,1.7c-1.54,1.43-2.03,3.66-1.23,5.59
					c0.91,1.91,2.59,3.34,4.62,3.93C157.39,164.91,158.47,164.98,158.47,165.38z"/>
				<path class="st0" d="M207.63,160.69c0,0,0.32,0.51,0,1.26c-0.22,1.03-0.73,1.97-1.48,2.71c-0.74,0.74-1.68,1.24-2.71,1.44
					c-0.79,0-1.26,0-1.3,0s1.73-0.69,3.14-2.13C206.69,162.53,207.3,160.65,207.63,160.69z"/>
				<path class="st0" d="M239.32,133.87c0.23,1.98-1.19,3.77-3.17,4c-0.03,0-0.05,0.01-0.08,0.01c-1.95,0.28-3.76-1.05-4.08-3
					c-0.23-1.98,1.19-3.77,3.17-4c0.03,0,0.05-0.01,0.08-0.01C237.19,130.59,239,131.93,239.32,133.87z"/>
				<path class="st0" d="M241.74,128.53c-0.4,0.51-3.36-1.34-7.22-0.97c-3.86,0.36-6.68,2.6-7.22,2.13s0-1.08,1.34-2.13
					c1.61-1.33,3.59-2.13,5.67-2.31c2.07-0.17,4.14,0.31,5.92,1.37C241.48,127.45,241.95,128.28,241.74,128.53z"/>
				<path class="st0" d="M202.32,137.41c0.23,1.98-1.19,3.77-3.17,4c-0.03,0-0.05,0.01-0.08,0.01c-1.95,0.28-3.76-1.05-4.08-3
					c-0.23-1.98,1.19-3.77,3.17-4c0.03,0,0.05-0.01,0.08-0.01C200.19,134.13,202.01,135.47,202.32,137.41z"/>
				<path class="st0" d="M202.83,131.85c-0.43,0.51-3.39-1.3-7.22-0.94c-3.83,0.36-6.68,2.56-7.22,2.13c-0.54-0.43,0-1.12,1.34-2.13
					c1.61-1.35,3.61-2.16,5.7-2.31c2.06-0.19,4.12,0.29,5.88,1.37C202.54,130.8,203.01,131.63,202.83,131.85z"/>
				<path class="st0" d="M218.92,160.47c2.03-0.83,4.15-1.42,6.32-1.73c1.01,0,1.95-0.47,2.06-1.15c0.01-1.06-0.32-2.1-0.94-2.96
					l-3.61-7.44c-3.34-6.28-6.16-12.83-8.45-19.56c3.8,6,7.11,12.3,9.89,18.84l3.61,7.51c0.74,1.16,1.05,2.54,0.87,3.9
					c-0.23,0.76-0.81,1.36-1.55,1.62c-0.55,0.21-1.12,0.34-1.7,0.4C223.29,160.37,221.11,160.56,218.92,160.47z"/>
				<path class="st14" d="M218.38,174.22c0.79-1.83-0.05-3.95-1.88-4.75c-0.76-0.33-1.62-0.39-2.42-0.16
					c-0.01-1.42-1-2.64-2.38-2.96c-1.37-0.31-2.81,0.07-3.86,1.01c-2.02,1.83-2.58,4.78-1.37,7.22c1.31,2.4,3.97,3.74,6.68,3.39
					c2.7-0.39,4.95-2.28,5.81-4.87"/>
				<path class="st0" d="M207.48,164.19c0.65,0,1.05,4.22,4.98,6.97c3.93,2.74,8.48,1.84,8.55,2.45c0.07,0.61-0.94,0.94-2.89,1.15
					c-2.55,0.26-5.11-0.39-7.22-1.84c-2.02-1.36-3.42-3.46-3.9-5.85C206.8,165.38,207.19,164.19,207.48,164.19z"/>
				<path class="st0" d="M205.68,124.63c-0.29,1.12-4.3,0.94-8.88,1.88c-4.58,0.94-8.27,2.56-8.95,1.66
					c-0.69-0.9,0.25-1.52,1.66-2.71c3.89-2.91,8.9-3.9,13.61-2.67C204.88,123.33,205.79,124.09,205.68,124.63z"/>
				<path class="st0" d="M240.54,120.91c-0.61,0.97-3.61,0.25-6.71,0.51c-3.1,0.25-5.99,1.12-6.71,0.22c-0.72-0.9,0-1.37,1.15-2.31
					c1.54-1.18,3.4-1.86,5.34-1.95c1.93-0.12,3.84,0.35,5.49,1.37C240.36,119.54,240.8,120.45,240.54,120.91z"/>
				<path class="st14" d="M222.75,202.7c-11.76,0.69-23.46-2.07-33.67-7.94c0,0,9.28,17.76,33.78,14.15L222.75,202.7z"/>
				<path class="st9" d="M138.08,104.75c0,0-0.76-0.47-1.73-1.55c-1.29-1.42-2.31-3.08-3-4.87c-0.66-1.81-0.93-3.74-0.79-5.67
					c-0.02-0.8,0.14-1.59,0.47-2.31c-0.05,2.61,0.3,5.22,1.05,7.72C135.17,100.43,136.51,102.66,138.08,104.75z"/>
				<path class="st9" d="M146.96,94.93c-0.63-0.42-1.18-0.94-1.62-1.55c-1.18-1.37-2.19-2.89-3-4.51c-0.78-1.63-1.39-3.34-1.84-5.09
					c-0.25-0.71-0.38-1.45-0.36-2.2c0.25,0,1.12,3.21,2.89,6.97C144.79,92.29,147.17,94.75,146.96,94.93z"/>
				<path class="st9" d="M160.56,86.52c0,0-0.76-0.65-1.8-1.88c-1.34-1.61-2.55-3.32-3.61-5.13c-1.02-1.82-1.93-3.7-2.71-5.63
					c-0.37-0.78-0.63-1.61-0.79-2.45c0.25,0,1.8,3.61,4.15,7.72C158.14,83.27,160.78,86.37,160.56,86.52z"/>
				<path class="st9" d="M177.6,78.36c-0.29,0-1.59-3.93-4.26-8.3s-5.92-7.22-5.7-7.22c0.78,0.5,1.48,1.11,2.09,1.8
					c1.58,1.57,2.99,3.3,4.22,5.16c1.19,1.89,2.16,3.92,2.89,6.03C177.2,76.64,177.45,77.49,177.6,78.36z"/>
				<path class="st9" d="M192,70.06c-0.52-2.44-1.18-4.85-1.99-7.22c-1.33-2.02-2.82-3.94-4.44-5.74c0,0,0.76,0.4,1.77,1.3
					c1.37,1.16,2.51,2.57,3.36,4.15c0.74,1.63,1.18,3.38,1.3,5.16C192.15,68.49,192.15,69.29,192,70.06z"/>
				<path class="st9" d="M208.89,66.78c-0.22,0-0.97-2.53-2.67-5.38c-1.7-2.85-3.61-4.73-3.39-4.91c1.73,1.13,3.13,2.7,4.04,4.55
					C208.03,62.74,208.73,64.72,208.89,66.78z"/>
				<path class="st9" d="M223.47,69.19c-0.22,0-0.58-2.35-1.7-4.98c-0.77-1.56-1.77-2.99-2.96-4.26c1.71,0.74,3.02,2.17,3.61,3.93
					C223.26,65.53,223.62,67.36,223.47,69.19z"/>
				<path class="st9" d="M232.6,68.65c0,0,0.94,0.79,1.05,2.24s-0.51,2.45-0.69,2.38c-0.18-0.07,0-1.08,0-2.31
					C232.96,69.74,232.42,68.76,232.6,68.65z"/>
				<path class="st9" d="M132.52,116.62c-4.66-1.54-7.78-5.92-7.72-10.83c0.56,2.2,1.48,4.3,2.71,6.21
					C128.94,113.78,130.63,115.34,132.52,116.62z"/>
				<path class="st9" d="M128.58,127.56c-1.41,0.17-2.84-0.24-3.93-1.15c-1.25-0.69-2.17-1.84-2.56-3.21c0.18,0,1.15,1.41,2.96,2.6
					C126.85,126.98,128.62,127.34,128.58,127.56z"/>
				<path class="st5" d="M220.58,102.36c0.99-0.2,1.97-0.48,2.92-0.83c2.51-1.19,4.51-3.24,5.63-5.77
					c1.69-3.78,1.39-8.15-0.79-11.66c-2.6-4.34-6.82-7.47-11.73-8.7c-4.91-1.24-10.01-1.51-15.01-0.79
					c-4.1,0.48-8.1,1.63-11.84,3.39c-3.41,1.67-6.44,4.05-8.88,6.97c0.55-0.88,1.19-1.71,1.91-2.45c1.96-2.05,4.25-3.74,6.79-5.02
					c3.76-1.87,7.81-3.09,11.98-3.61c5.1-0.76,10.3-0.5,15.3,0.76c5.08,1.3,9.44,4.56,12.13,9.06c2.25,3.71,2.5,8.3,0.69,12.24
					c-1.23,2.61-3.38,4.67-6.03,5.81C222.69,102.18,221.64,102.39,220.58,102.36z"/>
				<path class="st5" d="M193.48,105.47c1.2-1.16,2.13-2.58,2.71-4.15c0.51-1.72,0.51-3.55,0-5.27c-0.63-2.12-2.05-3.92-3.97-5.02
					c-3.6-1.92-7.37-3.49-11.26-4.69c-3-0.97-4.91-1.48-4.87-1.59s0.51,0,1.37,0.18c0.87,0.18,2.13,0.47,3.61,0.9
					c4.02,1.05,7.9,2.58,11.55,4.55c2.06,1.21,3.56,3.18,4.19,5.49c0.46,1.86,0.36,3.82-0.29,5.63c-0.45,1.2-1.17,2.29-2.09,3.18
					C194.15,104.99,193.83,105.25,193.48,105.47z"/>
				<path class="st5" d="M120.93,37.07c-0.03-1.16,0.18-2.32,0.61-3.39c1.13-3.05,3.3-5.61,6.14-7.22c4.33-2.26,9.46-2.38,13.9-0.32
					c5.41,2.63,9.37,7.52,10.83,13.35h-0.65c0.89-1.04,1.93-1.95,3.07-2.71c5.5-3.68,12.72-3.53,18.05,0.4
					c4.14,3.45,5.95,8.95,4.66,14.18c-0.89,3.45-3.08,6.42-6.1,8.3c-1.1,0.72-2.32,1.23-3.61,1.48c1.18-0.45,2.3-1.03,3.36-1.73
					c2.87-1.91,4.93-4.82,5.77-8.16c1.15-5.01-0.63-10.25-4.58-13.53c-5.12-3.71-12.01-3.83-17.25-0.29
					c-1.09,0.7-2.08,1.55-2.92,2.53l-0.47,0.51v-0.65c-1.43-5.63-5.26-10.35-10.47-12.92c-4.21-2.08-9.15-2.08-13.35,0
					c-2.76,1.47-4.92,3.86-6.1,6.75C121.38,34.75,121.09,35.9,120.93,37.07z"/>
				<path class="st5" d="M195.5,27.98c0.4,0.15,0.76,0.37,1.08,0.65c0.91,0.72,1.75,1.53,2.49,2.42c5.09,6.12,5.26,14.95,0.4,21.26
					c-0.7,0.91-1.5,1.75-2.38,2.49c-0.31,0.3-0.68,0.53-1.08,0.69c1.09-1.14,2.1-2.34,3.03-3.61c2.12-3.04,3.24-6.66,3.21-10.36
					c-0.12-3.71-1.38-7.29-3.61-10.25C197.66,30.1,196.61,29.01,195.5,27.98z"/>
				<path class="st5" d="M103.25,47.5c-1.21,3.05-1.45,6.41-0.69,9.6c0.8,3.45,2.93,6.44,5.92,8.34c3.67,2.32,8.19,2.86,12.31,1.48
					l1.55-0.54l-1.15,1.19l-0.51,0.51c-2.79,3.51-2.45,8.56,0.79,11.66c2.62,2.53,6.18,3.84,9.82,3.61c2.44-0.17,4.82-0.79,7.04-1.8
					c1.59-0.69,2.42-1.19,2.45-1.12c-0.72,0.54-1.5,1.01-2.31,1.41c-2.26,1.13-4.71,1.81-7.22,2.02c-3.8,0.34-7.56-0.97-10.32-3.61
					c-3.56-3.34-3.96-8.86-0.9-12.67l0.58-0.58l0.36,0.65c-4.33,1.45-9.08,0.85-12.92-1.62c-3.13-2.03-5.29-5.25-5.99-8.91
					c-0.6-2.37-0.6-4.85,0-7.22C102.33,49.04,102.73,48.23,103.25,47.5z"/>
			</g>
			<g>
				<defs>
					<rect id="SVGID_3_" x="58" y="41.18" width="396.28" height="461.82"/>
				</defs>
				<clipPath id="SVGID_2_">
					<use xlink:href="#SVGID_3_"  style="overflow:visible;"/>
				</clipPath>
				<g id="freepik--Character--inject-2" class="st29">
					<path class="st26" d="M206.69,236.98l29.5,3.99c11.14,3.69,21.22,10.09,29.34,18.64l81.64,85.96l20.7-127.42l42.3,5.48
						l-12.71,151.92c-1.75,24.45-21.34,43.69-45.56,44.78c-1.13,0-2.25,0-3.38,0c-12.68-0.74-24.61-6.31-33.38-15.6l-53.52-47.16"/>
					<path class="st0" d="M402.02,234.95c0.93-1.98,1.44-4.14,1.5-6.33c0.45-2.17,0.45-4.41,0-6.58c-0.95,1.97-1.46,4.13-1.5,6.33
						C401.56,230.54,401.56,232.78,402.02,234.95z"/>
					<path class="st0" d="M389.59,234.82c1.33-4.47,1.75-9.16,1.25-13.8c-0.88,2.17-1.33,4.49-1.32,6.84
						C389.06,230.16,389.08,232.53,389.59,234.82z"/>
					<path class="st0" d="M377.25,233.53c0.94-2.43,1.43-5.02,1.44-7.63c0.45-2.56,0.45-5.19,0-7.75c-0.95,2.43-1.44,5.02-1.44,7.63
						C376.8,228.34,376.8,230.96,377.25,233.53z"/>
					<path class="st5" d="M345.03,120.09c-0.81,1.49-25.24,105.55-25.24,105.55l47.44,4.21l21.92-89.44L345.03,120.09z"/>
					<polygon class="st0" points="319.79,225.65 314.44,223.08 339.21,120.54 345.69,120.38 					"/>
					<path class="st0" d="M363.26,143.8c-0.21,1.36,0.7,2.64,2.04,2.88c1.33,0.23,2.59-0.68,2.81-2.03c0-0.01,0-0.02,0.01-0.03
						c0.23-1.36-0.68-2.65-2.03-2.88c0,0,0,0,0,0c-1.33-0.23-2.59,0.68-2.81,2.03C363.26,143.78,363.26,143.79,363.26,143.8z"/>
					<path class="st38" d="M369.99,218.87l1.38-14.75l-20.01-9.31l8.71-18.71c4-8.24,13.85-11.65,22-7.61
						c0.4,0.2,0.79,0.41,1.17,0.64l7.95,4.81c5.73,3.44,9.72,9.21,10.96,15.82c1.74,11.18,2.86,22.44,3.38,33.74"/>
					<path class="st26" d="M216.93,235.58c37.76,4.27,50.1,32.79,67.64,58.3l25.46,47.47l-48.54,16.27l3.48,85.68l22.3,69.63
						l-173.98-10.38l14.09-65.99l-9.9-75.33l-9.39-62.82c-3.41-21.41,8.2-42.37,28.03-50.64c23.42-9.24,24.05-10.98,42.68-11.81
						c5.92-0.25,33.35-1.42,38.14-0.22"/>
					<path class="st0" d="M264.9,441.31c-0.27-1.71-0.43-3.43-0.47-5.16c0-3.64-0.41-8.39-0.69-14.15
						c-0.5-11.93-1.06-28.48-1.63-46.62c-0.56-18.14-0.94-34.81-1.16-46.65c0-5.76,0-10.51-0.16-14.15
						c-0.1-1.73-0.04-3.47,0.16-5.19c0.31,1.7,0.47,3.43,0.47,5.16c0.19,3.61,0.41,8.39,0.69,14.12c0.5,11.93,1.1,28.48,1.63,46.65
						c0.53,18.17,0.97,34.81,1.16,46.65c0,5.76,0,10.54,0.16,14.15C265.17,437.85,265.12,439.59,264.9,441.31z"/>
					<path class="st26" d="M232.58,242.2v-17.76c0-4.27-3.35-7.78-7.58-7.91l-61.09-1.96c-4.3-0.14-7.91,3.27-8.05,7.62
						c0,0.01,0,0.03,0,0.04l-0.88,28.83l35.7,33.11l34.7,3.64l5.92-19.43L232.58,242.2z"/>
					<path class="st26" d="M153.39,244.16c8.98,7.61,15.98,17.32,20.39,28.29l41.68,101.47l29.65-97.29l38.23,7.69
						c8.69,1.74,14.33,10.27,12.61,19.05c-0.1,0.5-0.22,1-0.37,1.5l-37.29,127.68c-10.8,21.87-40.71,30.19-63.44,21.62l-3.13-1.23
						c-11.5-5.44-20.54-15.09-25.27-27l-32.41-63.87l-21.64-49.94c-0.44-1.04-0.85-2.09-1.25-3.16
						c-10.24-28.83,9.39-59.82,39.52-64.38l2.54-0.41"/>
					<path class="st0" d="M211.29,395.32c1.28-3.57,2.13-7.29,2.51-11.08c0.81-3.71,1.18-7.5,1.1-11.3"/>
					<path class="st0" d="M285.03,284.74c0,0,1.25,0.28,3.41,1.33c3.11,1.64,5.44,4.46,6.48,7.85c0.8,2.4,1.1,4.95,0.88,7.47
						c-0.44,3-1.17,5.95-2.19,8.8c-1.88,6.33-4.01,13.51-6.26,21.43c-4.7,15.82-10.27,34.81-16.47,55.83l-9.74,32.98
						c-3.64,11.67-11.04,21.77-21.01,28.71c-9.98,6.96-22.18,9.89-34.19,8.2c-11.17-1.72-21.26-7.72-28.18-16.74
						c-3.03-4.32-5.68-8.9-7.89-13.7c-2.35-4.62-4.67-9.08-6.89-13.42c-4.48-8.64-8.64-16.68-12.53-24.05l-18.07-34.72l-5.01-9.49
						l-1.32-2.44c-0.31-0.54-0.5-0.82-0.53-0.79l0.38,0.85c0.31,0.66,0.69,1.49,1.19,2.5c1.13,2.31,2.72,5.51,4.73,9.49
						c4.2,8.39,10.21,20.32,17.63,35l12.24,24.15l6.86,13.51c2.21,4.89,4.87,9.57,7.95,13.96c7.13,9.37,17.54,15.61,29.09,17.44
						c12.41,1.77,25.02-1.25,35.32-8.45c10.28-7.15,17.89-17.56,21.64-29.59c3.34-11.46,6.56-22.46,9.64-33.01l16.16-55.93
						c2.29-7.94,4.32-15.16,6.26-21.52c1.01-2.91,1.72-5.93,2.1-8.99c0.19-2.62-0.17-5.25-1.06-7.72c-1.13-3.51-3.65-6.38-6.95-7.94
						C287.54,285.19,286.3,284.86,285.03,284.74z"/>
					<path class="st0" d="M245.11,276.63c-0.33,0.58-0.58,1.19-0.75,1.84c-0.5,1.39-1.1,3.16-1.85,5.38
						c-1.63,4.91-3.82,11.65-6.54,19.91l-20.92,65.83c-0.34,1.04-0.69,2.12-0.97,3.16h1.5l-25.52-61.81
						c-3.29-7.69-5.95-13.99-7.89-18.55c-0.88-2.06-1.63-3.7-2.19-5c-0.23-0.6-0.53-1.17-0.88-1.71c0.14,0.63,0.32,1.24,0.56,1.84
						l1.94,5.13l7.39,18.74c6.48,15.98,15.28,37.76,25.05,62l0.85,2.09l0.69-2.15c0.31-0.98,0.66-2.06,0.97-3.16
						c7.99-25.67,15.19-48.9,20.51-65.99c2.51-8.32,4.54-15.1,6.01-20.03c0.66-2.25,1.16-4.05,1.57-5.48
						C244.88,278.01,245.04,277.33,245.11,276.63z"/>
					<path class="st0" d="M138.02,253.4c0,0.28,2.6,0,6.67,0.44c10.71,1.1,20.37,6.99,26.33,16.05c2.29,3.45,3.13,5.89,3.48,5.76
						c-0.35-2.28-1.2-4.44-2.51-6.33c-5.67-9.87-15.93-16.13-27.21-16.62C142.5,252.45,140.2,252.68,138.02,253.4z"/>
					<path class="st0" d="M220.72,242.55c0.62-4.34,0.7-8.74,0.25-13.1c0.05-4.4-0.42-8.79-1.41-13.07
						c-0.62,4.35-0.69,8.76-0.22,13.13C219.27,233.89,219.73,238.27,220.72,242.55z"/>
					<path class="st0" d="M204.4,240.96c1.16-4.01,1.64-8.2,1.41-12.38c0.32-4.17-0.04-8.36-1.06-12.41
						c-0.6,4.1-0.79,8.24-0.56,12.38C203.88,232.69,203.96,236.84,204.4,240.96z"/>
					<path class="st0" d="M188.18,240.74c1.04-4.13,1.41-8.41,1.1-12.66c0.26-4.26-0.18-8.54-1.28-12.66
						c-0.56,4.2-0.67,8.44-0.34,12.66C187.4,232.31,187.58,236.55,188.18,240.74z"/>
					<path class="st0" d="M170.96,239.92c0.82-4.08,1.1-8.25,0.85-12.41c0.28-4.14,0.02-8.3-0.75-12.38
						c-0.83,4.07-1.12,8.23-0.88,12.38C169.91,231.67,170.18,235.84,170.96,239.92z"/>
					<path class="st0" d="M350.07,377.38c3.91-11.25,2.77-23.66-3.13-33.99c1.62,5.51,2.84,11.12,3.66,16.81
						C350.83,365.92,350.66,371.67,350.07,377.38z"/>
					<path class="st38" d="M249.93,278.28c0,0,2.16-24.24,3.76-36.75c1.6-12.5,9.17-11.05,9.86-17.82c0.69-6.77,3.76-6.33,3.76-6.33
						c3.66-1.33,2.82,8.74,2.82,8.74s29.53-7.22,31.75-8.13c1.98-0.56,4.04,0.6,4.6,2.61c0.22,0.79,0.18,1.63-0.12,2.39
						c-0.47,1.17-16.94,8.13-16.94,8.13s13.53,13.17,13.81,18.74c0.28,5.57-17.82,18.52-17.82,18.52l-0.38,16.49L249.93,278.28z"/>
					<path class="st39" d="M276.11,238.31c0.22,0,0.59-0.66,1.78-1.2c1.19-0.54,3.13-1.2,5.07-2.09c3.98-1.77,7.05-3.54,6.86-3.99
						c-2.64,0.31-5.2,1.15-7.52,2.47c-1.76,0.71-3.45,1.59-5.04,2.63C275.95,237.07,275.86,238.31,276.11,238.31z"/>
					<path class="st39" d="M283.03,245.11c0.31,0.35,2.85-1.68,6.26-3.77c3.41-2.09,5.92-3.77,5.92-4.08
						c-2.5,0.18-4.89,1.12-6.86,2.69C284.85,242.17,282.69,244.79,283.03,245.11z"/>
					<path class="st39" d="M287.54,250.4c2.43-0.32,4.76-1.18,6.83-2.5c3.57-1.8,6.26-3.61,6.07-4.02
						c-2.43,0.35-4.75,1.21-6.83,2.53C290.05,248.21,287.32,249.98,287.54,250.4z"/>
					<path class="st39" d="M249.93,277.58c0.69-2.93,1.13-5.92,1.32-8.93c0.66-5.51,1.41-13.17,2.85-21.49
						c0.63-3.88,1.68-7.68,3.13-11.33c0.58-1.51,1.57-2.83,2.85-3.8c1.19-0.87,2.44-1.66,3.73-2.37c4.85-2.47,8.14-3.54,8.02-3.83
						c-0.13-0.28-0.88,0-2.35,0.51c-2.14,0.6-4.23,1.37-6.26,2.28c-1.4,0.65-2.74,1.43-4.01,2.31c-1.52,1.08-2.71,2.55-3.44,4.27
						c-1.51,3.75-2.56,7.67-3.13,11.68c-1.19,7.18-2,14.41-2.41,21.68C249.84,271.55,249.75,274.57,249.93,277.58z"/>
					<path class="st9" d="M183.2,290.5c2.51,1.45,5.17,2.62,7.92,3.51c6.51,2.61,13.3,4.45,20.23,5.48
						c7.03,0.99,14.18,0.28,20.89-2.06c2.02-0.72,3.95-1.67,5.76-2.82c1.25-0.85,1.88-1.42,1.82-1.49
						c-0.06-0.06-2.91,1.65-7.92,3.16c-6.6,1.92-13.52,2.43-20.32,1.49c-6.83-1.01-13.55-2.65-20.07-4.91
						C188.81,291.83,186.03,291.04,183.2,290.5z"/>
					<path class="st9" d="M114.69,312.71c3.42-12.81,13.67-22.6,26.52-25.32c8.9-2.07,18.06-2.67,27.15-1.77
						c3.78,0.44,7.59,0.67,11.4,0.66c-1.01-0.36-2.06-0.58-3.13-0.66c-1.94-0.35-4.79-0.76-8.3-1.14
						c-9.23-1.27-18.61-0.82-27.68,1.33c-9.18,2.36-17.17,8.07-22.45,16.01c-1.48,2.43-2.54,5.09-3.13,7.88
						C114.77,310.68,114.64,311.7,114.69,312.71z"/>
					<path class="st9" d="M149.79,385.26c0.31,0,1.35-3.86,4.26-9.65c1.69-3.39,3.68-6.62,5.95-9.65c2.8-3.69,5.94-7.09,9.39-10.16
						c3.5-3,7.28-5.66,11.27-7.94c3.29-1.83,6.72-3.38,10.27-4.62c6.11-2.06,10.11-2.56,10.05-2.88c-0.94-0.12-1.88-0.12-2.82,0
						c-1.11,0.11-2.2,0.29-3.29,0.54c-1.45,0.27-2.88,0.63-4.29,1.08c-3.69,1.1-7.26,2.57-10.65,4.4
						c-8.36,4.46-15.59,10.81-21.14,18.55c-2.26,3.14-4.2,6.5-5.79,10.03c-0.62,1.35-1.17,2.73-1.63,4.15
						c-0.42,1.03-0.76,2.08-1,3.17C150.04,383.22,149.84,384.23,149.79,385.26z"/>
					<path class="st9" d="M199.55,455.11c0.28,0-1.06-4.84-2.07-12.66c-0.59-4.61-0.87-9.25-0.85-13.89
						c0.08-5.66,0.59-11.31,1.5-16.9c0.98-5.59,2.38-11.09,4.2-16.46c1.53-4.38,3.32-8.66,5.39-12.82
						c3.57-7.09,6.42-11.11,6.26-11.3c-0.83,0.82-1.56,1.74-2.19,2.72c-1.85,2.56-3.51,5.24-4.98,8.04
						c-2.25,4.06-4.19,8.29-5.79,12.66c-1.92,5.44-3.39,11.03-4.42,16.71c-0.93,5.7-1.39,11.47-1.38,17.25
						c0.04,4.71,0.44,9.41,1.19,14.05c0.48,3.14,1.17,6.23,2.07,9.27C198.68,452.94,199.04,454.06,199.55,455.11z"/>
					<path class="st9" d="M270.16,382.28c0-0.28-3.35-0.51-8.58-1.84c-13.76-3.52-25.82-11.89-34.01-23.61
						c-3.13-4.46-4.51-7.56-4.76-7.44c-0.25,0.13,0.16,0.85,0.75,2.28c0.87,2.03,1.92,3.98,3.13,5.82
						c7.89,12.4,20.38,21.08,34.66,24.09c2.13,0.46,4.3,0.73,6.48,0.79C268.62,382.46,269.4,382.43,270.16,382.28z"/>
					<path class="st9" d="M234.93,310.94c0,0,0.44,0.73,1.5,1.8c1.57,1.46,3.26,2.76,5.07,3.89c6.06,3.63,12.84,5.86,19.85,6.52
						c6.96,0.64,13.96,0.51,20.89-0.41c2.87-0.19,5.72-0.69,8.49-1.49c-2.87-0.13-5.75-0.03-8.61,0.32c-6.84,0.6-13.73,0.6-20.57,0
						c-6.81-0.66-13.43-2.66-19.48-5.89C237.47,313.09,235.12,310.72,234.93,310.94z"/>
					<path class="st9" d="M158.81,247.07c0.97,0.68,2.02,1.22,3.13,1.61c2.04,0.95,4.98,2.25,8.67,3.7
						c9.6,4.07,19.8,6.53,30.19,7.28c10.53,0.66,21-2.1,29.87-7.88c2.61-1.77,4.96-3.9,6.98-6.33c0.79-0.86,1.45-1.85,1.94-2.91
						c-2.86,3.16-6.08,5.98-9.58,8.39c-8.78,5.32-18.94,7.83-29.15,7.22c-10.22-0.78-20.28-3.04-29.87-6.71l-8.8-3.16
						C161.11,247.75,159.98,247.35,158.81,247.07z"/>
					<path class="st9" d="M291.49,384.28c0.28,0,1.16-3.83,3.32-9.84c2.82-7.82,6.59-15.26,11.21-22.15
						c4.66-6.86,10.15-13.1,16.35-18.58c4.76-4.21,8.02-6.33,7.86-6.68c-0.88,0.31-1.7,0.76-2.44,1.33
						c-2.18,1.35-4.28,2.84-6.26,4.46c-13.08,10.66-22.78,24.97-27.9,41.14c-0.77,2.44-1.4,4.92-1.88,7.44
						C291.52,382.34,291.44,383.31,291.49,384.28z"/>
					<path class="st9" d="M340.93,420.48c0.08-3.68-0.05-7.35-0.41-11.01c-0.34-6.8-0.63-16.17-0.28-26.55
						c0.34-10.38,1.22-19.69,2-26.46c0.57-3.63,0.96-7.28,1.16-10.95c-0.43,0.9-0.7,1.86-0.81,2.85c-0.44,1.87-0.94,4.59-1.5,7.94
						c-1.36,8.8-2.18,17.68-2.47,26.59c-0.31,8.89-0.06,17.79,0.75,26.65c0.31,3.42,0.66,6.17,0.94,8.04
						C340.39,418.56,340.6,419.54,340.93,420.48z"/>
					<path class="st9" d="M349.42,333.64c1.61,2.27,3.53,4.29,5.7,6.01c5.03,4.41,10.64,8.1,16.66,10.98
						c5.97,2.86,12.29,4.92,18.79,6.11c2.69,0.62,5.45,0.85,8.2,0.66c-9.09-1.74-17.95-4.51-26.43-8.26
						C364.15,344.86,356.46,339.65,349.42,333.64z"/>
					<path class="st9" d="M356.37,294.14c1.85,1.66,3.97,2.98,6.26,3.92c10.72,5.16,22.79,6.73,34.45,4.46
						c2.43-0.33,4.78-1.09,6.95-2.25c-8.02,1.57-16.23,1.98-24.36,1.2C371.59,300.16,363.75,297.69,356.37,294.14z"/>
					<path class="st9" d="M366.89,242.48c1.69,1.38,3.61,2.45,5.67,3.16c4.83,1.97,9.91,3.24,15.09,3.77
						c5.22,0.53,10.49,0.32,15.66-0.63c2.17-0.28,4.29-0.91,6.26-1.87c-7.14,1-14.35,1.29-21.54,0.85
						C380.82,246.74,373.74,244.97,366.89,242.48z"/>
					<path class="st9" d="M125.96,438.62c0,0,2.1,0,5.82,0.25c5.24,0.43,10.41,1.49,15.41,3.16c7.41,2.58,14.6,5.76,21.51,9.49
						c8.52,4.62,17.35,8.62,26.43,11.96c9.27,3.04,19.02,4.26,28.75,3.61c7.91-0.52,15.71-2.25,23.11-5.13
						c4.99-1.9,9.74-4.38,14.15-7.41c1.6-1.01,2.72-1.99,3.51-2.56c0.42-0.29,0.8-0.63,1.13-1.01c-6.04,3.97-12.47,7.29-19.2,9.91
						c-7.34,2.66-15.01,4.24-22.8,4.68c-9.54,0.59-19.1-0.65-28.18-3.67c-9-3.3-17.77-7.22-26.24-11.74
						c-7.03-3.67-14.37-6.72-21.92-9.12c-5.08-1.59-10.34-2.48-15.66-2.66c-1.44-0.11-2.88-0.11-4.32,0
						C126.95,438.38,126.45,438.46,125.96,438.62z"/>
					<path class="st9" d="M123.71,393.87c5.09,2.54,10.54,4.27,16.16,5.13c5.51,1.37,11.19,1.86,16.85,1.46
						c0-0.47-7.45-1.27-16.53-3.17C131.1,395.38,123.86,393.39,123.71,393.87z"/>
					<path class="st9" d="M118.32,475.62c0.48,0.28,1,0.51,1.53,0.66l4.45,1.58c3.88,1.36,9.58,3.16,16.66,5.06
						c36.97,10.19,75.25,14.63,113.54,13.17c7.33-0.28,13.25-0.7,17.35-1.14l4.7-0.51c0.55-0.02,1.1-0.11,1.63-0.28
						c-0.55-0.07-1.11-0.07-1.66,0l-4.73,0.19c-4.07,0.25-9.99,0.47-17.32,0.6c-19.07,0.38-38.14-0.52-57.08-2.69
						c-18.93-2.23-37.7-5.71-56.18-10.41c-7.08-1.84-12.81-3.42-16.75-4.56l-4.54-1.3C119.4,475.83,118.86,475.7,118.32,475.62z"/>
					<g class="st4">
						<path d="M206.63,458.15c-8.5,3.54-17.58,5.44-26.77,5.6c-9.25,0.13-18.25-3.05-25.4-8.99c-8.39-7.5-12.15-18.99-15.16-29.75
							c-5.84-24.16-8.87-48.93-9.05-73.81c0,0,18.19,37.98,24.71,49.66c5.79,10.29,11.74,20.79,18.79,35.76
							c5.64,12.12,19.13,20.41,32.91,21.52"/>
					</g>
					<g class="st4">
						<path d="M297.25,298.54c12.5,28.8,12.21,61.63-0.78,90.2l-20.04-18.23L297.25,298.54z"/>
					</g>
				</g>
			</g>
		</g>
		<g>
			<g>
				<path class="st0" d="M430,502.83c0,0.14-80.75,0.26-180.35,0.26c-99.63,0-180.36-0.12-180.36-0.26
					c0-0.14,80.74-0.26,180.36-0.26C349.25,502.57,430,502.68,430,502.83z"/>
			</g>
		</g>
	</g>
</g>
<g id="Layer_10">
</g>
</svg>
