<?xml version="1.0" encoding="utf-8"?>
<!-- Generator: Adobe Illustrator 24.0.0, SVG Export Plug-In . SVG Version: 6.00 Build 0)  -->
<svg version="1.1" xmlns="http://www.w3.org/2000/svg" xmlns:xlink="http://www.w3.org/1999/xlink" x="0px" y="0px"
	 viewBox="0 0 512 512" style="enable-background:new 0 0 512 512;" xml:space="preserve">
<style type="text/css">
	.st0{fill:#263238;}
	.st1{fill:#848484;}
	.st2{opacity:0.6;}
	.st3{fill:#FFFFFF;}
	.st4{opacity:0.3;}
	.st5{fill:#455A64;}
	.st6{fill:#6993F6;}
	.st7{fill:#FFB000;}
	.st8{opacity:0.2;}
	.st9{fill:#FAFAFA;}
	.st10{fill:#A36957;}
	.st11{fill:#7C3B29;}
	.st12{fill:#EA81DB;}
	.st13{fill:#B77153;}
	.st14{fill:#995037;}
	.st15{fill:none;stroke:#4E585D;stroke-width:1.5925;stroke-miterlimit:10;}
	.st16{fill:#FBFBFB;}
	.st17{fill:#FFBE9D;}
	.st18{opacity:0.6;fill:#FFFFFF;enable-background:new    ;}
	.st19{fill:#E0E0E0;}
	.st20{fill:#EB996E;}
	.st21{fill:#D1734A;}
	.st22{fill:#F7B73E;}
	.st23{fill:#FFAD9D;}
	.st24{fill:#E88774;}
	.st25{fill:#EF67D6;}
	.st26{fill:#A2CE63;}
	.st27{fill:#EAA98C;}
	.st28{fill:none;stroke:#4E585D;stroke-width:1.9822;stroke-miterlimit:10;}
	.st29{clip-path:url(#SVGID_2_);}
	.st30{fill:#3A2110;}
	.st31{fill:#231409;}
	.st32{opacity:0.4;}
	.st33{fill:#E8505B;}
	.st34{fill:#828282;}
	.st35{fill:none;stroke:#4E585D;stroke-width:1.348;stroke-miterlimit:10;}
	.st36{fill:#0C45A8;}
	.st37{clip-path:url(#SVGID_4_);}
	.st38{fill:#B78876;}
	.st39{fill:#AA6550;}
	.st40{fill:#183D72;}
	.st41{fill:none;stroke:#4E585D;stroke-width:2.5071;stroke-miterlimit:10;}
</style>
<g id="Layer_2">
</g>
<g id="Layer_3">
</g>
<g id="Layer_4">
</g>
<g id="Layer_5">
</g>
<g id="Layer_6">
</g>
<g id="Layer_7">
</g>
<g id="Layer_8">
</g>
<g id="Layer_9">
</g>
<g id="Layer_10">
	<g>
		<g>
			<g>
				<path class="st0" d="M505,475.78c0,0.14-111.5,0.26-249,0.26c-137.55,0-249.03-0.12-249.03-0.26c0-0.14,111.47-0.26,249.03-0.26
					C393.5,475.52,505,475.64,505,475.78z"/>
			</g>
		</g>
		<g id="freepik--Character--inject-2_6_">
			<path class="st38" d="M93.06,450.42l-6.64,25.44l-68.39-0.64c0,0,5.02-11.98,42.49-11.42l2.66-13.28L93.06,450.42z"/>
			<path class="st5" d="M342.05,68.94c-0.66,1.3-18.03,90.54-18.03,90.54l40.93,1.91l15.93-76.73L342.05,68.94z"/>
			<polygon class="st0" points="324.02,159.47 319.34,157.48 337.06,69.52 342.61,69.15 			"/>
			<path class="st0" d="M358.49,88.43c-0.15,1.16,0.67,2.23,1.83,2.38s2.23-0.67,2.38-1.83c0.15-1.16-0.67-2.23-1.83-2.38
				c-0.01,0-0.01,0-0.02,0c-1.15-0.15-2.2,0.65-2.36,1.8C358.49,88.41,358.49,88.42,358.49,88.43z"/>
			<path class="st38" d="M366.93,151.08l0.61-11.69l-17.48-7.22l6.83-16.17c3.14-7.13,11.46-10.36,18.59-7.23
				c0.35,0.16,0.7,0.33,1.04,0.51l7.12,3.85c5,2.71,8.62,7.41,9.96,12.93c1.88,9.43,3.23,18.97,4.06,28.55"/>
			<path class="st1" d="M413.73,448.51c0,0,71.92,19.92,74.81,20.93c4.33,1.54,3.61,17.4-3.13,17.16c-3.19,0-55.24,1.94-61.83,1.54
				s-26.43-8.23-26.43-8.23L413.73,448.51z"/>
			<path class="st0" d="M443.69,475.97c0.9-2.64,1.97-5.22,3.19-7.73c1.56-2.3,3.25-4.51,5.07-6.61
				C446.73,464.49,443.55,470.02,443.69,475.97z"/>
			<path class="st0" d="M436.2,472.57c0.35,0,1.09-3.35,3-7.09c1.91-3.74,4.17-6.4,3.9-6.64c-2.23,1.49-3.97,3.61-4.99,6.08
				C436.75,467.23,436.08,469.89,436.2,472.57z"/>
			<path class="st0" d="M429.16,470.68c0.38-2.57,0.94-5.11,1.7-7.6c1.13-2.35,2.43-4.6,3.9-6.75
				C430.09,459.49,427.86,465.2,429.16,470.68z"/>
			<path class="st0" d="M430.43,461.39c0.64-1.69,0.9-3.51,0.77-5.31c0-1.97-0.24-3.93-0.72-5.84c-0.28-1.14-0.63-2.26-1.06-3.35
				c-0.22-0.68-0.63-1.29-1.17-1.75c-0.72-0.59-1.75-0.59-2.47,0c-0.55,0.54-0.89,1.27-0.96,2.04c-0.05,0.63-0.05,1.26,0,1.89
				c0,1.19,0.14,2.38,0.42,3.53c0.48,1.93,1.23,3.78,2.23,5.5c0.8,1.63,1.89,3.09,3.21,4.33c0.19,0-1.04-1.78-2.47-4.73
				c-0.83-1.69-1.46-3.48-1.89-5.31c-0.23-1.08-0.34-2.19-0.35-3.29c0-1.12,0-2.5,0.66-3.03c0.28-0.23,0.68-0.23,0.96,0
				c0.36,0.36,0.63,0.79,0.8,1.27c0.42,1.03,0.78,2.09,1.09,3.16c0.5,1.84,0.81,3.73,0.93,5.63
				C430.57,459.32,430.25,461.36,430.43,461.39z"/>
			<path class="st0" d="M430.35,460.64c-1.47-0.59-3.06-0.85-4.65-0.74c-1.72,0-3.43,0.22-5.1,0.64c-1.03,0.21-2.03,0.58-2.95,1.09
				c-1.21,0.61-1.87,1.94-1.62,3.27c0.31,1.32,1.34,2.34,2.66,2.66c1.05,0.27,2.16,0.27,3.21,0c1.71-0.42,3.3-1.21,4.67-2.31
				c1.31-0.88,2.45-1.99,3.35-3.29c-1.34,0.79-2.62,1.67-3.82,2.66c-1.34,0.91-2.83,1.56-4.41,1.91c-0.87,0.21-1.78,0.21-2.66,0
				c-0.85-0.21-1.52-0.86-1.75-1.7c-0.13-0.84,0.32-1.66,1.09-2.02c0.84-0.45,1.73-0.79,2.66-1.01c1.58-0.44,3.2-0.73,4.83-0.85
				C428.55,460.56,430.33,460.86,430.35,460.64z"/>
			<path class="st0" d="M454.76,476.74c0.27-2.2,0.74-4.37,1.41-6.48c1-1.98,2.18-3.87,3.53-5.63c0-0.32-3.13,1.41-4.65,5.15
				C453.95,471.95,453.85,474.49,454.76,476.74z"/>
			<path class="st0" d="M404.57,480.06c0.84,0.52,1.73,0.96,2.66,1.3c2.6,1,5.26,1.83,7.97,2.47c9.01,2.01,18.23,2.9,27.46,2.66
				c10.78,0,20.5-0.58,27.54-0.88l8.34-0.45c1.02,0,2.03-0.11,3.03-0.32c-1.01-0.15-2.03-0.2-3.05-0.13h-8.34l-27.51,0.53
				c-9.15,0.23-18.29-0.52-27.28-2.23C408.66,481.6,404.65,479.82,404.57,480.06z"/>
			<path class="st0" d="M402.44,481.68c1.81-0.71,3.58-1.52,5.31-2.42c4.23-2.02,8.94-2.81,13.6-2.28c4.58,1.01,8.7,3.47,11.77,7.01
				c1.28,1.5,2.67,2.91,4.14,4.22c-0.96-1.75-2.13-3.36-3.51-4.81c-1.42-1.66-3.03-3.16-4.78-4.46c-2.19-1.63-4.74-2.71-7.44-3.13
				c-4.88-0.61-9.83,0.32-14.16,2.66C405.58,479.28,403.91,480.36,402.44,481.68z"/>
			<path class="st1" d="M337.4,428.67c0,0-67.96,44.56-70.62,46.4c-3.67,2.66,0.56,15.93,6.91,13.68c3-1.09,60.1-16.97,66.24-19.36
				s22.68-15.93,22.68-15.93L337.4,428.67z"/>
			<path class="st0" d="M317.24,463.91c-0.65-2.87-2.27-5.44-4.57-7.28c-2.02-2.14-4.73-3.52-7.65-3.88
				c2.38,1.44,4.67,3.03,6.85,4.75C313.78,459.54,315.57,461.68,317.24,463.91z"/>
			<path class="st0" d="M323.3,458.39c-1.73-5.06-5.62-9.08-10.62-10.97c-0.19,0.29,2.82,2.1,5.74,5.13
				C321.33,455.57,322.98,458.55,323.3,458.39z"/>
			<path class="st0" d="M329.43,454.46c-0.42-5.62-4.28-10.38-9.69-11.95c2.06,1.61,3.99,3.39,5.76,5.31
				C326.98,449.93,328.29,452.15,329.43,454.46z"/>
			<path class="st0" d="M325.4,445.98c0.16,0-0.77-1.91-1.54-5.07c-0.46-1.85-0.73-3.75-0.8-5.66c-0.07-1.11-0.07-2.23,0-3.35
				c0.02-0.5,0.14-0.99,0.37-1.43c0.2-0.31,0.61-0.4,0.93-0.21c0.8,0.32,1.2,1.62,1.57,2.66c0.33,1.05,0.55,2.12,0.66,3.21
				c0.17,1.89,0.11,3.8-0.19,5.68c-0.48,3.21-1.12,5.31-0.93,5.31c0.91-1.58,1.51-3.32,1.78-5.13c0.42-1.94,0.56-3.92,0.42-5.9
				c-0.09-1.19-0.3-2.36-0.64-3.51c-0.19-0.6-0.41-1.2-0.66-1.78c-0.3-0.71-0.85-1.3-1.54-1.65c-0.85-0.39-1.85-0.12-2.39,0.64
				c-0.36,0.62-0.55,1.33-0.56,2.04c-0.08,1.17-0.08,2.34,0,3.51c0.14,1.97,0.5,3.91,1.09,5.79
				C323.42,442.92,324.24,444.57,325.4,445.98z"/>
			<path class="st0" d="M325.21,445.27c0,0.19,1.7-0.64,4.44-1.3c1.6-0.38,3.24-0.61,4.89-0.66c0.93-0.07,1.87-0.01,2.79,0.19
				c0.84,0.09,1.51,0.75,1.62,1.59c0.03,0.87-0.4,1.69-1.14,2.15c-0.8,0.5-1.71,0.79-2.66,0.85c-1.62,0.14-3.25-0.02-4.81-0.48
				c-1.44-0.56-2.92-1-4.44-1.33c1.25,0.97,2.67,1.69,4.2,2.12c1.64,0.63,3.4,0.89,5.15,0.77c1.09-0.06,2.15-0.39,3.08-0.96
				c1.1-0.7,1.74-1.94,1.67-3.24c-0.16-1.39-1.26-2.49-2.66-2.66c-1.02-0.19-2.07-0.25-3.11-0.16c-1.72,0.11-3.43,0.43-5.07,0.96
				C327.71,443.54,326.36,444.28,325.21,445.27z"/>
			<path class="st0" d="M282.45,486.25c0,0,1.14-0.69,1.67-2.66c0.54-2.53,0.08-5.18-1.27-7.38c-0.68-1.19-1.44-2.32-2.28-3.4
				c-0.65-0.93-1.43-1.76-2.31-2.47c-0.62-0.52-1.37-0.85-2.18-0.93c-0.56,0-0.85,0-0.85,0.19c0.92,0.27,1.76,0.74,2.47,1.38
				c0.74,0.76,1.39,1.58,1.97,2.47c0.69,1.04,1.46,2.12,2.12,3.35c1.22,1.99,1.74,4.32,1.49,6.64
				C283.05,484.38,282.78,485.32,282.45,486.25z"/>
			<path class="st0" d="M306.89,468c-0.02-4.93-3.55-9.15-8.39-10.04c1.81,1.27,3.51,2.7,5.07,4.28
				C304.83,464.06,305.94,465.99,306.89,468z"/>
			<path class="st0" d="M355.7,455.92c-1.04,0.6-2.04,1.29-2.97,2.04c-2.7,1.88-5.5,3.6-8.39,5.15c-4.29,2.27-8.73,4.25-13.28,5.92
				c-5.15,1.94-10.94,3.74-17.05,5.52c-12.24,3.51-23.32,6.75-31.31,9.14l-9.48,2.92c-1.17,0.31-2.3,0.72-3.4,1.22
				c1.2-0.17,2.38-0.42,3.53-0.77l9.56-2.66c7.97-2.18,19.17-5.31,31.45-8.82c6.11-1.78,11.92-3.61,17.1-5.63
				c4.57-1.75,9.01-3.82,13.28-6.21c2.89-1.62,5.65-3.46,8.26-5.5C353.97,457.57,354.88,456.79,355.7,455.92z"/>
			<path class="st0" d="M358.22,456.85c-1.83-0.82-3.77-1.34-5.76-1.54c-4.83-0.92-9.82-0.3-14.29,1.75
				c-2.45,1.24-4.55,3.07-6.13,5.31c-1.27,1.77-2.34,3.68-3.19,5.68c-0.88,1.79-1.52,3.69-1.89,5.66c1-1.71,1.89-3.48,2.66-5.31
				c1.83-4.31,5.02-7.91,9.08-10.25c4.28-1.93,9.01-2.61,13.65-1.97C355.97,456.53,358.2,457.03,358.22,456.85z"/>
			<path class="st7" d="M174.17,163.17l55.77,5.31l22.68,6.43c9.68,2.75,18.54,7.83,25.81,14.79l73.06,70.14l13.28-108.89
				l36.52,3.16l-6.11,140.23c-5.52,17.34-21.64,29.11-39.84,29.08c-10.98-0.15-21.49-4.47-29.4-12.08l-52.03-48.92l-1.54,69.9
				l36.09,29.21l-139.19,77.55c0,0-7.54-29.64-4.12-95.61c0.64-12.11-21.57-48.87-23.27-59.68c-6.51-41.56-5.5-102.36-5.5-102.36
				L174.17,163.17z"/>
			<path class="st7" d="M139.89,180.11c0,0-28.23,10.49-35.06,32.59c-6.06,19.63-26.27,129.9-26.27,129.9L58.51,459.45l41.99,1.59
				l48.31-198.92L139.89,180.11z"/>
			<path class="st0" d="M138,309.02c0.38-0.75,0.66-1.54,0.85-2.36c0.48-1.54,1.12-3.8,1.86-6.59c1.51-5.6,3.45-13.28,5.31-21.96
				c1.86-8.68,3.51-16.44,4.54-22.15c0.5-2.84,0.9-5.15,1.14-6.75c0.19-0.83,0.27-1.68,0.24-2.52c-0.33,0.79-0.57,1.61-0.72,2.44
				c-0.4,1.83-0.9,4.04-1.51,6.67c-1.3,5.92-3,13.57-4.86,22.04l-5.05,22.02c-0.58,2.66-1.06,4.86-1.49,6.69
				C138.12,307.36,138.02,308.19,138,309.02z"/>
			<path class="st0" d="M394.93,164.49c0.75-1.73,1.12-3.61,1.09-5.5c0.37-1.86,0.37-3.77,0-5.63c-0.75,1.74-1.12,3.63-1.09,5.52
				C394.55,160.74,394.55,162.64,394.93,164.49z"/>
			<path class="st0" d="M384.25,164.81c0.7-1.86,1.01-3.85,0.9-5.84c0.28-1.97,0.18-3.99-0.29-5.92c-0.7,1.87-1.01,3.87-0.9,5.87
				C383.67,160.88,383.77,162.88,384.25,164.81z"/>
			<path class="st0" d="M373.65,164.15c0.69-2.11,1.01-4.32,0.96-6.53c0.33-2.19,0.25-4.43-0.24-6.59c-0.71,2.1-1.03,4.32-0.96,6.53
				C373.08,159.75,373.16,161.99,373.65,164.15z"/>
			<path class="st0" d="M353.12,276.52c0.26-3.22,0.13-6.46-0.4-9.64c-0.13-3.23-0.66-6.44-1.59-9.53c-0.26,3.22-0.13,6.46,0.4,9.64
				C351.65,270.22,352.18,273.42,353.12,276.52z"/>
			<path class="st0" d="M93.6,448.77c-0.93,1.82-1.48,3.81-1.62,5.84c-0.54,1.97-0.7,4.03-0.45,6.06c0.93-1.82,1.48-3.81,1.62-5.84
				C93.69,452.86,93.84,450.8,93.6,448.77z"/>
			<path class="st0" d="M79.79,448.75c-0.86,1.65-1.36,3.46-1.49,5.31c-0.49,1.79-0.6,3.66-0.32,5.5c0.89-1.64,1.41-3.45,1.51-5.31
				C79.97,452.45,80.07,450.58,79.79,448.75z"/>
			<path class="st0" d="M66.69,447.42c-0.77,1.92-1.24,3.94-1.38,6c-0.53,1.99-0.75,4.05-0.66,6.11c1.07-1.79,1.71-3.81,1.86-5.9
				C67.03,451.6,67.1,449.48,66.69,447.42z"/>
			<path class="st0" d="M117.23,193.71c0,0.24,2.92,0,7.46,1.01c5.9,1.26,11.39,4,15.93,7.97c4.54,4.01,7.98,9.11,10.01,14.82
				c1.57,4.38,1.78,7.3,1.99,7.28c0.13-0.68,0.13-1.39,0-2.07c-0.22-1.86-0.61-3.69-1.17-5.47c-1.85-5.98-5.31-11.33-10.01-15.46
				c-4.72-4.13-10.48-6.88-16.65-7.97c-1.84-0.31-3.71-0.44-5.58-0.4C118.55,193.42,117.88,193.52,117.23,193.71z"/>
			<path class="st0" d="M268,292.21c-0.24,0,1.09-3.45,2.42-9.06c3.46-14.71,2.64-30.1-2.36-44.35c-1.91-5.44-3.59-8.63-3.37-8.74
				c0.21-0.11,0.58,0.72,1.38,2.12c1.1,2.02,2.07,4.12,2.89,6.27c5.63,14.33,6.46,30.09,2.39,44.94c-0.58,2.23-1.33,4.41-2.23,6.53
				C268.85,290.74,268.48,291.5,268,292.21z"/>
			<path class="st0" d="M271.56,330.75c-0.8,0.15-1.61,0.21-2.42,0.16c-1.54,0-3.8,0-6.56-0.29c-14.49-1.24-28.61-5.28-41.56-11.9
				c-2.47-1.27-4.44-2.39-5.74-3.24c-0.72-0.37-1.38-0.84-1.97-1.41c0-0.19,3.11,1.46,8.13,3.77c13.05,6.07,26.96,10.05,41.25,11.79
				C265.67,329.85,268.63,330.23,271.56,330.75z"/>
			<g class="st8">
				<path d="M209.95,311.31c4.36,3.93,11.15,4.49,17,4.38c5.84-0.11,11.69-1.27,17.55-1.17c5.91-0.24,11.66,1.94,15.93,6.03
					c1.29,1.29,2.1,2.99,2.28,4.81c0.13,1.85-0.94,3.57-2.66,4.28c-1.1,0.28-2.25,0.28-3.35,0c-16.44-3.4-34.1-7.25-46.82-18.19"/>
			</g>
			<g class="st8">
				<path d="M156.17,316.51c4.33-1.25,5.02-6.32,5.31-10.81c1.73-18.59-1.89-37.29-10.44-53.89c-2.04,12.19-5.44,24.91-7.97,37.34
					L156.17,316.51z"/>
			</g>
			<path class="st9" d="M148.6,265.68c-1.08-0.75-2.28-1.29-3.56-1.59c-3.52-0.56-7.11,0.47-9.8,2.82
				c-3.56,2.66-5.52,7.97-6.61,13.97c-1.09,6-1.75,12.96-6.24,18.88c-2.24,2.82-5.45,4.71-9,5.31c-3.18,0.44-6.38,0.67-9.59,0.69
				c-5.31,0.05-10.4,2.14-14.21,5.84c-2.58,2.49-4.52,5.57-5.63,8.98c-0.74,2.44-0.82,3.88-0.98,3.85c-0.05-0.34-0.05-0.69,0-1.04
				c0.04-1,0.21-1.99,0.48-2.95c1.65-6.15,5.93-11.26,11.69-13.97c2.71-1.2,5.62-1.87,8.58-1.99c3.15-0.05,6.29-0.3,9.4-0.74
				c3.25-0.57,6.16-2.34,8.18-4.94c1.96-2.69,3.37-5.74,4.14-8.98c0.85-3.13,1.3-6.29,1.94-9.3c1.17-5.95,3.29-11.55,7.25-14.47
				c2.93-2.49,6.86-3.47,10.62-2.66c0.97,0.27,1.87,0.73,2.66,1.35C148.39,265.39,148.62,265.63,148.6,265.68z"/>
			<path class="st9" d="M306.35,214.29c-0.83,1.96-2.01,3.76-3.48,5.31c-4.04,4.39-9.44,7.28-15.32,8.21
				c-4.06,0.68-8.23,0.35-12.14-0.96c-4.35-1.74-8.36-4.24-11.85-7.38c-3.72-3.4-7.81-6.37-12.19-8.84
				c-2.33-1.18-4.88-1.88-7.49-2.07c-2.69-0.12-5.39,0.22-7.97,1.01c-5.12,1.74-9.94,4.24-14.31,7.41
				c-4.18,3.04-8.63,5.71-13.28,7.97c-4.3,1.91-8.95,2.91-13.65,2.92c-4.08-0.03-8.13-0.7-12-1.99c-5.6-1.89-10.65-5.13-14.71-9.43
				c-1.07-1.17-2.05-2.42-2.92-3.74c-0.33-0.44-0.61-0.92-0.82-1.43c0.13,0,1.3,1.89,4.14,4.81c4.11,4.06,9.11,7.1,14.61,8.87
				c8.14,2.7,17,2.3,24.86-1.14c4.52-2.3,8.84-4.97,12.93-7.97c4.46-3.29,9.41-5.86,14.66-7.62c2.73-0.86,5.59-1.21,8.45-1.04
				c2.78,0.19,5.49,0.94,7.97,2.2c4.47,2.55,8.64,5.59,12.43,9.08c3.35,3.07,7.22,5.54,11.42,7.28c3.72,1.3,7.71,1.68,11.61,1.09
				c5.71-0.84,11-3.51,15.06-7.62C303.8,217.67,305.14,216.03,306.35,214.29z"/>
			<path class="st9" d="M375.11,319.54c-0.47-1.6-0.84-3.23-1.09-4.89c-0.75-4.44-1.98-8.78-3.67-12.96
				c-1.26-2.83-2.95-5.45-5.02-7.76c-2.32-2.66-5.32-4.65-8.68-5.74c-3.8-1.02-7.74-1.42-11.66-1.17
				c-4.35,0.28-8.72-0.04-12.99-0.93c-4.23-1.27-8.11-3.49-11.34-6.51c-3.16-2.66-5.82-5.84-8.42-8.6
				c-5.1-5.6-10.62-10.12-16.07-11.45c-4.36-1.17-9.01-0.47-12.83,1.94c-1.33,0.98-2.49,2.16-3.45,3.51
				c0.15-0.41,0.33-0.8,0.56-1.17c0.73-1.03,1.63-1.93,2.66-2.66c3.87-2.67,8.71-3.56,13.28-2.44c5.9,1.3,11.55,5.95,16.76,11.53
				c2.66,2.66,5.31,5.76,8.39,8.45c3.08,2.88,6.78,5,10.81,6.21c8.34,2.1,17.05-0.4,24.67,2.2c3.55,1.2,6.71,3.34,9.14,6.19
				c2.12,2.42,3.82,5.18,5.05,8.15c1.71,4.26,2.87,8.73,3.45,13.28c0.24,1.59,0.4,2.84,0.48,3.69
				C375.18,318.8,375.17,319.17,375.11,319.54z"/>
			<path class="st9" d="M271.48,279.28c-0.44,0.13-0.9,0.2-1.35,0.21c-1.31,0.1-2.63,0.06-3.93-0.13c-4.75-0.96-9.33-2.62-13.6-4.91
				c-2.95-1.45-6.01-2.64-9.16-3.56c-3.61-0.97-7.39-1.09-11.05-0.37c-7.78,1.51-15.35,6.51-21.99,12.8
				c-6.64,6.29-12.46,13.28-18.91,18.14c-5.66,4.55-12.39,7.57-19.55,8.76c-4.79,0.8-9.68,0.73-14.45-0.21
				c-1.3-0.24-2.57-0.57-3.82-0.98c-0.44-0.11-0.87-0.28-1.27-0.5c0-0.13,1.86,0.45,5.18,0.96c11.82,1.81,23.85-1.47,33.12-9.03
				c6.29-4.91,12-11.69,18.75-18.14c6.75-6.45,14.55-11.53,22.71-13.04c3.85-0.72,7.81-0.55,11.58,0.5c3.21,0.98,6.32,2.25,9.3,3.8
				c4.17,2.35,8.64,4.14,13.28,5.31C268.02,279.1,269.75,279.23,271.48,279.28z"/>
			<path class="st9" d="M247.1,326.07c-1.88,0.43-3.67,1.16-5.31,2.18c-2.66,1.91-3.08,4.62-3.48,4.54s-0.29-0.74,0-1.89
				c0.48-1.49,1.41-2.8,2.66-3.74c1.22-0.96,2.72-1.51,4.28-1.57C246.47,325.6,247.13,325.89,247.1,326.07z"/>
			<path class="st9" d="M269.86,315.24c-0.41,2.91-1.58,5.66-3.4,7.97c-1.45,2.58-3.56,4.74-6.11,6.24
				c1.52-2.43,3.18-4.77,4.97-7.01C266.71,319.96,268.23,317.56,269.86,315.24z"/>
			<path class="st9" d="M177.07,352.76c-0.13,0.37-3-0.42-6.59-0.42c-3.59,0-6.43,0.72-6.56,0.32c1.92-1.35,4.26-1.95,6.59-1.7
				C172.84,350.76,175.17,351.4,177.07,352.76z"/>
			<path class="st9" d="M100.85,223.85c0,0,0.61,0.32,1.73,0.64c1.62,0.36,3.31,0.22,4.83-0.42c2.25-1,4.19-2.61,5.58-4.65
				c1.8-2.59,3.78-5.05,5.92-7.36c4.16-4.1,9.37-6.96,15.06-8.26c1.7-0.37,3.44-0.6,5.18-0.66c1.25,0,1.91,0,1.91,0.19
				s-2.66,0.27-6.85,1.43c-5.39,1.52-10.31,4.37-14.31,8.29c-2.12,2.27-4.09,4.67-5.9,7.2c-1.59,2.15-3.77,3.8-6.27,4.75
				c-1.72,0.61-3.59,0.61-5.31,0C101.22,224.46,100.79,223.88,100.85,223.85z"/>
			<path class="st9" d="M242.88,171.56c0.13,0-0.82,1.62-3,3.48c-2.87,2.43-6.24,4.18-9.88,5.13c-3.63,0.97-7.44,1.1-11.13,0.37
				c-1.55-0.17-3.03-0.71-4.33-1.57c1.49,0.08,2.97,0.27,4.44,0.56c3.56,0.39,7.15,0.13,10.62-0.74c3.45-0.92,6.71-2.46,9.61-4.54
				C240.37,173.26,241.6,172.37,242.88,171.56z"/>
			<path class="st9" d="M123.74,369.47c0,0.13-1.12,0-3.05,0.53c-2.7,0.67-5.24,1.9-7.44,3.61c-3.26,2.56-5.98,5.76-7.97,9.4
				c-2.39,4.06-4.36,8.9-6.88,13.81c-2.23,4.77-5.45,9.01-9.45,12.43c-3.36,2.83-7.67,4.29-12.06,4.09
				c-2.91-0.09-5.71-1.14-7.97-2.97c-0.61-0.49-1.15-1.08-1.59-1.73c-0.29-0.45-0.42-0.69-0.37-0.72c0.05-0.03,0.72,0.88,2.31,2.04
				c2.28,1.57,4.98,2.42,7.76,2.42c4.12,0.04,8.12-1.42,11.23-4.12c3.8-3.37,6.87-7.49,9.03-12.08c2.47-4.83,4.51-9.69,7.01-13.81
				c2.11-3.75,4.99-7.01,8.45-9.56c2.36-1.73,5.09-2.87,7.97-3.35c0.78-0.08,1.56-0.08,2.34,0
				C123.37,369.39,123.74,369.42,123.74,369.47z"/>
			<g class="st4">
				<path d="M350.36,258.35c-4.77,5.8-6.54,13.5-4.78,20.8c0.29,1.2,0.82,2.5,1.99,2.84c1.01,0.21,2.04-0.19,2.66-1.01
					c0.55-0.8,0.93-1.7,1.12-2.66c1.56-6.77,1.43-13.82-0.37-20.53"/>
			</g>
			<path class="st9" d="M400.1,196.97c-2.58,2.34-4.83,5.02-6.69,7.97c-1.92,3.29-3.54,6.75-4.83,10.33
				c-1.51,4.01-3,8.58-5.13,13.28c-1.89,4.42-4.71,8.39-8.26,11.63c-3.02,2.57-6.7,4.25-10.62,4.83c-2.65,0.39-5.35,0.04-7.81-1.01
				c-0.65-0.3-1.26-0.67-1.83-1.09c-0.4-0.29-0.58-0.48-0.56-0.5s0.9,0.48,2.66,1.09c2.4,0.81,4.97,0.99,7.46,0.53
				c3.7-0.66,7.14-2.32,9.96-4.81c3.41-3.16,6.12-7,7.97-11.26c2.07-4.49,3.59-9,5.31-13.07c1.42-3.63,3.2-7.11,5.31-10.38
				c1.42-2.21,3.15-4.2,5.13-5.92C398.73,197.96,399.38,197.41,400.1,196.97z"/>
			<path class="st9" d="M402.23,167.47c-1.29,1.64-2.87,3.03-4.67,4.09c-8.46,5.61-18.8,7.66-28.76,5.68
				c-2.06-0.3-4.05-0.97-5.87-1.99c0-0.24,2.31,0.48,6.03,1.01c9.73,1.41,19.64-0.55,28.1-5.55
				C400.37,168.9,402.23,167.28,402.23,167.47z"/>
			<path class="st36" d="M421.91,447.76c0,0-166.89-109.55-173.72-111.84s-23.34-13.09-39.84-8.55s-31.31,19.39-38.72,41.01
				c-7.41,21.62-7.97,70.06-7.97,70.06s13.09,38.16,38.72,46.13c2.19,0.68,4.42,1.23,6.67,1.67c31.44,5.82,63.29-7.94,80.6-34.82
				l3.74-5.68c0,0,109.18,40.1,110.88,39.55L421.91,447.76z"/>
			<path class="st36" d="M478.82,319.99c12.35,4.93,20.47,16.87,20.5,30.17c0.16,43.85-88.6,92.29-88.6,92.29L292.6,364.16v-8.29
				C292.6,355.87,444.72,301.19,478.82,319.99z"/>
			<path class="st40" d="M215.42,417.54l0.93,0.42l2.66,1.09l10.62,4.06l39.33,14.82c16.71,6.21,36.7,13.62,59.15,21.8
				s47.33,17.13,73.91,26.11l0.48,0.16l0.24-0.45l13.04-24.89l6.64-12.69l0.27-0.5l-0.48-0.29l-127.27-80.82l-38.24-24.11
				l-10.38-6.48l-2.66-1.67l-0.93-0.53l0.88,0.64l2.66,1.75l10.28,6.67l38.03,24.43l127.11,81.14l-0.21-0.77l-6.64,12.69
				l-13.12,24.83l0.72-0.29c-26.56-8.98-51.44-17.9-73.91-26l-59.25-21.51l-39.44-14.45l-10.62-3.88l-2.66-0.98L215.42,417.54z"/>
			<path class="st40" d="M352.43,403.62c1.08-0.62,2.11-1.32,3.08-2.1c1.94-1.38,4.7-3.48,7.97-6.08
				c6.77-5.31,15.93-12.64,25.87-21.25c9.93-8.6,18.59-16.49,24.81-22.39c3.11-2.95,5.58-5.31,7.25-7.06
				c0.97-0.8,1.86-1.69,2.66-2.66c-1.01,0.72-1.96,1.52-2.84,2.39l-7.52,6.77c-6.32,5.74-15.11,13.6-24.99,22.07
				c-9.88,8.47-18.99,15.93-25.63,21.41l-7.97,6.37C354.15,401.87,353.26,402.71,352.43,403.62z"/>
			<path class="st40" d="M445.49,336.38c-3.82-0.61-7.74-0.25-11.39,1.04c-3.77,0.89-7.25,2.72-10.12,5.31
				c0.19,0.32,4.49-2.44,10.46-4.17C440.42,336.83,445.49,336.75,445.49,336.38z"/>
			<path class="st40" d="M435.29,329.47c-5.54,2.37-9.53,7.35-10.62,13.28c0.35,0,1.65-3.59,4.62-7.22S435.51,329.77,435.29,329.47z
				"/>
			<path class="st0" d="M485.33,468.32c0-0.13-1.41-0.42-3.05,0.93c-1.92,1.8-3.12,4.23-3.4,6.85c-0.38,2.57-0.02,5.2,1.06,7.57
				c0.85,1.78,1.75,2.66,1.86,2.66c0.11,0-0.48-1.12-1.06-2.87c-0.79-2.28-1.01-4.71-0.66-7.09c0.27-2.37,1.24-4.6,2.79-6.4
				C484.11,468.56,485.36,468.51,485.33,468.32z"/>
			<g>
				<g>
					<g>
						<path class="st0" d="M227.11,142.92c7.97,2.37,17.3-1.07,21.83-8.04c4.53-6.97,3.89-16.89-1.51-23.22
							c10.82-3.75,16.62-17.1,13.42-28.09c-3.2-10.99-13.95-18.87-25.3-20.32c-4.34-0.56-8.87-0.27-12.9,1.44
							c-4.03,1.71-7.51,4.96-8.93,9.11"/>
					</g>
					<g>
						<g>
							<path class="st7" d="M223.41,118.04c0.05,0.12-1.41,0.5-3.64,1.92c-2.18,1.4-5.16,4.14-6.7,8.59
								c-0.74,2.2-1.14,4.8-0.76,7.51c0.39,2.69,1.41,5.54,3.33,7.94c0.92,1.22,2.08,2.32,3.38,3.24c1.29,0.95,2.77,1.71,4.35,2.21
								c3.15,1.09,6.76,1.12,10.13,0.07c3.35-1.11,6.27-3.23,8.2-5.95c0.99-1.34,1.75-2.81,2.25-4.33c0.52-1.51,0.83-3.07,0.87-4.61
								c0.17-3.07-0.66-5.98-1.91-8.4c-1.27-2.43-3.1-4.31-4.99-5.67c-3.85-2.73-7.86-3.22-10.45-3.09
								C224.85,117.63,223.44,118.16,223.41,118.04c-0.01-0.03,0.34-0.16,1.01-0.38c0.67-0.23,1.7-0.46,3.04-0.58
								c2.64-0.26,6.82,0.12,10.89,2.89c2,1.38,3.95,3.32,5.32,5.86c1.35,2.53,2.26,5.59,2.1,8.84c-0.03,1.62-0.34,3.28-0.88,4.89
								c-0.52,1.62-1.32,3.19-2.37,4.61c-2.04,2.9-5.14,5.16-8.71,6.34c-3.58,1.12-7.43,1.08-10.77-0.09
								c-1.68-0.55-3.24-1.36-4.61-2.37c-1.38-0.99-2.59-2.16-3.56-3.46c-2.02-2.56-3.06-5.58-3.43-8.41
								c-0.37-2.86,0.1-5.58,0.92-7.86c1.7-4.62,4.88-7.36,7.18-8.69c1.16-0.69,2.13-1.1,2.81-1.3
								C223.05,118.11,223.4,118.01,223.41,118.04z"/>
						</g>
					</g>
					<g>
						<path class="st0" d="M229.16,86.9c7.95-1.14,14.79-7.83,16.1-15.75c1.31-7.93-3.02-16.46-10.18-20.09
							c2.5-9.52-1.7-20.42-9.94-25.8c-8.24-5.39-19.9-4.86-27.62,1.24c-7.2-10.43-21.15-15.7-33.45-12.63
							c-12.3,3.07-22.13,14.27-23.59,26.87c-11.62-3.67-25.3,0.51-32.89,10.05c-7.58,9.54-8.57,23.81-2.38,34.31
							c-12.11,2.11-21.23,15.03-19.14,27.15c2.09,12.12,15,21.25,27.12,19.18c-1.79,8.32,2.15,17.57,9.4,22.03
							c7.25,4.46,17.29,3.82,23.91-1.53c5.11,6.86,14.33,10.39,22.71,8.69c8.38-1.7,15.5-8.54,17.53-16.85"/>
					</g>
					<g>
						<g>
							<path class="st13" d="M213.72,179.46c-0.41-9.43-0.63-17.99-0.63-17.99s20.78-4.46,19.84-25.98
								c-0.94-21.52-7.32-70.72-7.32-70.72l-40.27-15.24l-31.41,33.42l12.1,99.96c2.16,14.11,10.81,25.54,24.96,23.66l0,0
								C204.44,204.78,214.3,193.02,213.72,179.46z"/>
						</g>
					</g>
					<g>
						<path class="st0" d="M173.58,51.76c-6.04,10.07-4.67,24.03,3.21,32.74c3.47,3.84,8.47,6.76,13.61,6.13
							c5.13-0.63,9.7-5.94,8.17-10.88c-1.47,6.48,4.54,13.49,11.16,13.04c6.62-0.45,11.62-8.22,9.29-14.43
							c0.73,2.24,1.48,4.54,2.97,6.37c1.49,1.83,3.89,3.11,6.19,2.61c3.2-0.7,4.78-4.34,5.24-7.58c1.39-9.69-3-19.81-10.56-26.02
							c-7.56-6.21-17.93-8.59-27.6-7.09c-9.67,1.5-18.59,6.68-25.32,13.77"/>
					</g>
					<g>
						<path class="st0" d="M176.96,59.08c3.03,5.91,5.47,12.25,5.97,18.87c0.5,6.62-1.1,13.59-5.4,18.66
							c-4.29,5.07-11.5,7.85-17.86,5.95c1.97,5.66,2.01,12.27-1.18,17.35c-3.19,5.08-10.05,7.97-15.54,5.55
							c-4.96-2.19-7.5-7.76-8.62-13.06c-2.69-12.84,0.73-26.82,9.04-36.96c8.31-10.14,21.35-16.24,34.47-16.12"/>
					</g>
					<g>
						<g>
							<g>
								<path class="st13" d="M158.11,113.61c-2.98-1.58-6.79,0.14-8.9,2.77c-3.32,4.14-3.52,10.49-0.47,14.83
									c3.05,4.34,9.08,6.32,14.11,4.61"/>
							</g>
							<g>
								<g>
									<path class="st14" d="M158.51,129.65c0.01,0.12-0.94,0.32-2.45,0c-1.44-0.3-3.69-1.3-4.68-3.65
										c-0.48-1.14-0.49-2.42-0.11-3.44c0.37-1.02,1.03-1.75,1.64-2.23c1.26-0.96,2.28-1,2.3-0.89c0.06,0.16-0.83,0.46-1.81,1.43
										c-0.99,0.92-1.91,2.81-1.06,4.73c0.78,1.9,2.63,2.89,3.92,3.35C157.6,129.42,158.52,129.49,158.51,129.65z"/>
								</g>
							</g>
						</g>
					</g>
					<g>
						<g>
							<path class="st7" d="M174.7,147.78c-0.12,0.02-0.15-1.49-0.99-3.99c-0.83-2.46-2.77-6.01-6.72-8.58
								c-1.96-1.25-4.38-2.27-7.1-2.55c-2.71-0.27-5.72,0.03-8.51,1.32c-1.41,0.6-2.75,1.46-3.96,2.5c-1.23,1.03-2.32,2.27-3.2,3.69
								c-1.82,2.8-2.72,6.29-2.51,9.81c0.27,3.52,1.62,6.87,3.79,9.4c1.06,1.29,2.31,2.38,3.66,3.23c1.34,0.88,2.78,1.54,4.26,1.95
								c2.94,0.91,5.96,0.8,8.61,0.18c2.66-0.64,4.93-1.97,6.7-3.47c3.58-3.07,5.02-6.85,5.52-9.4
								C174.75,149.28,174.58,147.78,174.7,147.78c0.04,0,0.08,0.36,0.12,1.07c0.06,0.7,0.04,1.76-0.17,3.09
								c-0.39,2.63-1.77,6.59-5.44,9.87c-1.82,1.61-4.17,3.04-6.97,3.75c-2.78,0.7-5.97,0.84-9.09-0.09
								c-1.57-0.42-3.1-1.12-4.53-2.04c-1.44-0.9-2.77-2.05-3.9-3.41c-2.32-2.68-3.77-6.24-4.05-9.98
								c-0.22-3.75,0.75-7.47,2.69-10.43c0.94-1.5,2.11-2.81,3.42-3.9c1.29-1.1,2.72-1.99,4.22-2.62c2.97-1.34,6.15-1.62,8.99-1.3
								c2.87,0.34,5.39,1.44,7.41,2.79c4.07,2.77,5.96,6.51,6.7,9.06c0.39,1.29,0.55,2.34,0.58,3.04
								C174.73,147.41,174.74,147.78,174.7,147.78z"/>
						</g>
					</g>
					<g>
						<g>
							<path class="st5" d="M222.81,45.27c0.01-0.03,0.19,0,0.55,0.08c0.34,0.11,0.87,0.3,1.42,0.75c1.1,0.84,2.43,2.78,2.21,5.48
								c-0.19,2.72-2.68,5.52-6.17,6.49c-3.55,1.07-7.71,0.06-11.54-1.73l-4.18-1.96l4.5,1.06c1.54,0.36,2.74,1.66,3.24,3.13
								c0.53,1.47,0.5,3.17-0.21,4.67c-0.74,1.5-2.14,2.56-3.69,3.12c-1.56,0.56-3.26,0.64-4.9,0.31c-4.03-0.88-6.84-3.85-9.03-6.54
								l-3.15-3.85l3.85,3.14c2.2,1.79,2.9,4.69,2.54,7.13c-0.34,2.49-1.86,4.68-3.83,5.81c-3.97,2.33-8.48,1.47-11.1-0.39
								c-2.72-1.86-4.01-4.24-4.69-5.84c-0.34-0.81-0.52-1.47-0.63-1.91c-0.09-0.45-0.13-0.68-0.1-0.69
								c0.08-0.02,0.29,0.91,1.04,2.46c0.76,1.51,2.11,3.76,4.73,5.44c2.5,1.7,6.73,2.36,10.29,0.19c1.76-1.05,3.05-2.96,3.34-5.2
								c0.31-2.2-0.37-4.73-2.23-6.22l0.7-0.71c2.15,2.63,4.87,5.39,8.45,6.16c2.89,0.63,6.24-0.4,7.48-2.86
								c1.21-2.4,0.07-5.85-2.35-6.43l0.31-0.9c3.73,1.79,7.66,2.75,10.93,1.83c3.26-0.85,5.57-3.36,5.81-5.79
								c0.29-2.45-0.85-4.33-1.83-5.18C223.57,45.44,222.77,45.36,222.81,45.27z"/>
						</g>
					</g>
					<g>
						<g>
							<path class="st5" d="M174.35,84.18c0.02,0.01-0.06,0.15-0.22,0.4c-0.16,0.25-0.43,0.61-0.82,1.04
								c-0.78,0.85-2.08,2.03-4.09,2.93c-1.98,0.89-4.75,1.5-7.79,0.8c-3-0.67-6.24-2.63-8.23-5.97l0.8-0.18
								c-0.31,4.53-3.58,9.38-8.78,11.05c-5.14,1.65-11.72-0.59-14.65-5.89c-2.6-4.76-1.68-10.71,1.49-14.34l0.73,0.67
								c-2.19,2.18-5.07,3.38-7.86,3.64c-2.8,0.29-5.54-0.26-7.8-1.42c-2.26-1.17-4.03-2.98-5.02-4.97
								c-1.02-1.98-1.43-4.04-1.47-5.89c-0.06-3.74,1.32-6.53,2.5-8.12c1.22-1.61,2.19-2.16,2.19-2.16
								c0.07,0.07-0.82,0.73-1.91,2.35c-1.06,1.6-2.29,4.34-2.14,7.91c0.08,1.76,0.51,3.71,1.5,5.55c0.97,1.85,2.63,3.49,4.75,4.56
								c2.12,1.06,4.7,1.55,7.31,1.25c2.61-0.26,5.27-1.4,7.25-3.4l0.73,0.67c-2.89,3.31-3.72,8.86-1.34,13.19
								c2.65,4.82,8.77,6.94,13.46,5.44c4.78-1.5,7.9-6,8.22-10.18l0.11-1.38l0.69,1.19c1.81,3.12,4.83,5.03,7.65,5.72
								c2.85,0.72,5.5,0.22,7.44-0.58c1.96-0.8,3.28-1.88,4.1-2.66C173.94,84.64,174.3,84.14,174.35,84.18z"/>
						</g>
					</g>
					<g>
						<g>
							<path class="st5" d="M139.01,121.81c0.03,0.03-0.46,0.53-1.58,1.14c-1.11,0.59-2.91,1.28-5.27,1.29
								c-2.32,0.02-5.29-0.72-7.68-2.96c-2.35-2.17-4.09-5.73-3.75-9.65l0.92,0.32c-1.59,2.51-3.86,4.88-6.74,6.54
								c-2.16,1.24-4.54,1.98-6.91,2.1c-2.36,0.12-4.65-0.32-6.62-1.22c-4.03-1.71-6.51-5.37-6.93-8.61
								c-0.53-3.26,0.42-5.9,1.36-7.41c0.5-0.76,0.96-1.28,1.32-1.6c0.36-0.31,0.55-0.46,0.58-0.43c0.08,0.07-0.7,0.71-1.55,2.23
								c-0.8,1.51-1.58,4.04-0.99,7.08c0.49,3.02,2.82,6.3,6.6,7.86c3.7,1.66,8.57,1.5,12.63-0.91c2.71-1.56,4.89-3.81,6.41-6.18
								l1.11-1.72l-0.19,2.04c-0.34,3.55,1.21,6.88,3.35,8.93c2.16,2.11,4.89,2.88,7.1,2.95c2.24,0.08,3.99-0.49,5.11-0.97
								C138.41,122.14,138.97,121.75,139.01,121.81z"/>
						</g>
					</g>
					<g>
						<g>
							<path class="st5" d="M244.73,70.59c0.1-0.04,0.7,1.26,0.73,3.53c0.05,2.23-0.64,5.48-2.84,8.23
								c-2.21,2.74-5.24,4.11-7.43,4.54c-2.22,0.45-3.62,0.15-3.6,0.04c0-0.17,1.37-0.14,3.43-0.75c2.03-0.58,4.77-1.96,6.8-4.48
								c2.02-2.52,2.78-5.49,2.91-7.6C244.88,71.96,244.56,70.62,244.73,70.59z"/>
						</g>
					</g>
					<g>
						<g>
							<path class="st5" d="M258.28,89.78c0.05-0.02,0.35,0.45,0.61,1.42c0.25,0.96,0.45,2.47-0.04,4.27
								c-0.46,1.73-1.78,3.93-4.3,4.7c-1.21,0.37-2.6,0.41-3.94,0c-1.34-0.38-2.64-1.33-3.33-2.72l0.94-0.41
								c0.2,0.58,0.38,1.22,0.4,1.88c0.19,3.23-1.76,6.12-4.25,7.29c-1.26,0.59-2.63,0.7-3.83,0.49c-1.2-0.23-2.22-0.74-3.04-1.35
								c-1.65-1.22-2.42-2.77-2.69-3.85c-0.27-1.09-0.14-1.72-0.09-1.71c0.1-0.01,0.11,0.61,0.48,1.59
								c0.36,0.97,1.17,2.34,2.72,3.37c1.49,1.04,3.87,1.67,6.03,0.6c2.11-1.04,3.8-3.62,3.63-6.37c-0.02-0.56-0.17-1.09-0.33-1.58
								l0.94-0.41c1.12,2.25,4.04,2.89,6.08,2.28c2.13-0.58,3.39-2.44,3.89-4.01c0.53-1.62,0.46-3.05,0.33-3.99
								C258.38,90.32,258.2,89.81,258.28,89.78z"/>
						</g>
					</g>
					<g>
						<g>
							<path class="st0" d="M200.25,125.82c0.13,0.01,0.25,0.42,0.14,1.09c-0.11,0.66-0.51,1.55-1.25,2.28
								c-0.74,0.73-1.64,1.12-2.3,1.22c-0.67,0.1-1.08-0.02-1.09-0.16c-0.02-0.29,1.45-0.56,2.67-1.8
								C199.67,127.26,199.96,125.8,200.25,125.82z"/>
						</g>
					</g>
					<g>
						<g>
							<g>
								<g>
									<g>
										<g>
											<path class="st0" d="M228,101.65c0.2,1.64-1.03,3.17-2.74,3.41c-1.71,0.24-3.26-0.89-3.46-2.54
												c-0.2-1.64,1.03-3.17,2.74-3.41C226.24,98.87,227.8,100.01,228,101.65z"/>
										</g>
									</g>
								</g>
							</g>
						</g>
						<g>
							<g>
								<g>
									<g>
										<g>
											<g>
												<path class="st0" d="M229.2,98.5c-0.35,0.44-2.87-1.11-6.23-0.81c-3.36,0.25-5.68,2.19-6.08,1.81
													c-0.19-0.17,0.14-0.94,1.14-1.81c0.99-0.87,2.73-1.78,4.82-1.95c2.09-0.17,3.92,0.45,5,1.15
													C228.96,97.59,229.37,98.3,229.2,98.5z"/>
											</g>
										</g>
									</g>
								</g>
							</g>
						</g>
					</g>
					<g>
						<g>
							<g>
								<g>
									<g>
										<g>
											<path class="st0" d="M196.66,105.62c0.2,1.64-1.03,3.17-2.74,3.41c-1.71,0.24-3.26-0.89-3.46-2.54
												c-0.2-1.64,1.03-3.17,2.74-3.41C194.9,102.83,196.46,103.97,196.66,105.62z"/>
										</g>
									</g>
								</g>
							</g>
						</g>
						<g>
							<g>
								<g>
									<g>
										<g>
											<g>
												<path class="st0" d="M197.32,101.34c-0.35,0.44-2.87-1.11-6.23-0.81c-3.36,0.25-5.68,2.19-6.08,1.81
													c-0.19-0.17,0.13-0.94,1.14-1.81c0.99-0.87,2.73-1.78,4.82-1.95c2.09-0.17,3.92,0.45,5,1.15
													C197.07,100.44,197.49,101.14,197.32,101.34z"/>
											</g>
										</g>
									</g>
								</g>
							</g>
						</g>
					</g>
					<g>
						<g>
							<g>
								<g>
									<g>
										<g>
											<path class="st0" d="M209.82,125.63c-0.03-0.19,2.03-0.73,5.38-1.45c0.85-0.16,1.65-0.4,1.74-1
												c0.15-0.64-0.29-1.53-0.79-2.5c-0.99-2.01-2.02-4.11-3.1-6.32c-4.33-9-7.54-16.44-7.17-16.61
												c0.36-0.17,4.17,6.99,8.49,15.99c1.05,2.22,2.05,4.34,3,6.37c0.41,0.95,1.06,2.01,0.73,3.33
												c-0.18,0.66-0.77,1.18-1.3,1.38c-0.54,0.22-1.02,0.27-1.44,0.33C211.96,125.62,209.85,125.82,209.82,125.63z"/>
										</g>
									</g>
								</g>
							</g>
						</g>
					</g>
					<g>
						<g>
							<path class="st14" d="M209.37,137.29c0.54-1.05,0.37-2.43-0.41-3.32c-0.78-0.89-2.13-1.23-3.24-0.83
								c0.06-1.17-0.88-2.24-2.02-2.53c-1.13-0.29-2.36,0.12-3.26,0.87c-1.73,1.45-2.21,4.15-1.18,6.16
								c1.03,2.01,3.43,3.18,5.67,2.88c2.24-0.3,4.2-1.99,4.94-4.13"/>
						</g>
					</g>
					<g>
						<g>
							<g>
								<g>
									<g>
										<g>
											<path class="st0" d="M200.13,128.8c0.54-0.08,0.86,3.57,4.21,5.89c3.34,2.33,7.2,1.59,7.27,2.09
												c0.07,0.22-0.81,0.78-2.44,0.97c-1.61,0.19-4-0.12-6.05-1.54c-2.04-1.42-3.04-3.47-3.3-4.96
												C199.55,129.74,199.88,128.81,200.13,128.8z"/>
										</g>
									</g>
								</g>
							</g>
						</g>
					</g>
					<g>
						<g>
							<g>
								<g>
									<g>
										<path class="st0" d="M198.58,95.21c-0.25,0.94-3.65,0.8-7.55,1.61c-3.92,0.74-7,2.16-7.59,1.39
											c-0.27-0.37,0.21-1.28,1.42-2.28c1.2-0.99,3.16-2.01,5.5-2.48c2.35-0.46,4.55-0.27,6.03,0.19
											C197.89,94.1,198.68,94.76,198.58,95.21z"/>
									</g>
								</g>
							</g>
						</g>
					</g>
					<g>
						<g>
							<g>
								<g>
									<g>
										<path class="st0" d="M228.17,92.05c-0.53,0.81-2.91,0.22-5.7,0.42c-2.79,0.1-5.1,0.96-5.71,0.2
											c-0.27-0.37,0.03-1.16,1-1.98c0.95-0.81,2.6-1.54,4.52-1.65c1.92-0.1,3.64,0.45,4.67,1.14
											C228.01,90.9,228.4,91.66,228.17,92.05z"/>
									</g>
								</g>
							</g>
						</g>
					</g>
				</g>
				<g>
					<g>
						<path class="st14" d="M213.09,161.47c0,0-14.02,1.61-28.6-6.71c0,0,7.88,15.06,28.69,12.01L213.09,161.47z"/>
					</g>
				</g>
			</g>
		</g>
	</g>
</g>
</svg>
