<?xml version="1.0" encoding="utf-8"?>
<!-- Generator: Adobe Illustrator 24.0.0, SVG Export Plug-In . SVG Version: 6.00 Build 0)  -->
<svg version="1.1" xmlns="http://www.w3.org/2000/svg" xmlns:xlink="http://www.w3.org/1999/xlink" x="0px" y="0px"
	 viewBox="0 0 512 512" style="enable-background:new 0 0 512 512;" xml:space="preserve">
<style type="text/css">
	.st0{fill:#263238;}
	.st1{fill:#848484;}
	.st2{opacity:0.6;}
	.st3{fill:#FFFFFF;}
	.st4{opacity:0.3;}
	.st5{fill:#455A64;}
	.st6{fill:#6993F6;}
	.st7{fill:#FFB000;}
	.st8{opacity:0.2;}
	.st9{fill:#FAFAFA;}
	.st10{fill:#EAA98C;}
	.st11{fill:#7C3B29;}
	.st12{fill:#EA81DB;}
	.st13{fill:#B77153;}
	.st14{fill:#995037;}
	.st15{fill:none;stroke:#4E585D;stroke-width:1.5925;stroke-miterlimit:10;}
	.st16{fill:#FBFBFB;}
	.st17{fill:#FFBE9D;}
	.st18{opacity:0.6;fill:#FFFFFF;enable-background:new    ;}
	.st19{fill:#E0E0E0;}
	.st20{fill:#EB996E;}
	.st21{fill:#D1734A;}
	.st22{fill:#F7B73E;}
	.st23{fill:#FFAD9D;}
	.st24{fill:#E88774;}
	.st25{fill:#EF67D6;}
	.st26{fill:#A2CE63;}
	.st27{fill:#EAA98C;}
	.st28{fill:none;stroke:#4E585D;stroke-width:1.9822;stroke-miterlimit:10;}
	.st29{clip-path:url(#SVGID_2_);}
	.st30{fill:#3A2110;}
	.st31{fill:#231409;}
	.st32{opacity:0.4;}
	.st33{fill:#E8505B;}
	.st34{fill:#828282;}
	.st35{fill:none;stroke:#4E585D;stroke-width:1.348;stroke-miterlimit:10;}
	.st36{fill:#0C45A8;}
	.st37{clip-path:url(#SVGID_4_);}
	.st38{fill:#B78876;}
	.st39{fill:#AA6550;}
	.st40{fill:#183D72;}
	.st41{fill:none;stroke:#4E585D;stroke-width:2.5071;stroke-miterlimit:10;}
</style>
<g id="Layer_2">
</g>
<g id="Layer_3">
</g>
<g id="Layer_4">
</g>
<g id="Layer_5">
</g>
<g id="Layer_6">
</g>
<g id="Layer_7">
</g>
<g id="Layer_8">
	<g>
		<g>
			<g>
				<path class="st0" d="M470,485.3c0,0.14-99.77,0.26-222.82,0.26c-123.09,0-222.84-0.12-222.84-0.26
					c0-0.14,99.75-0.26,222.84-0.26C370.23,485.04,470,485.16,470,485.3z"/>
			</g>
		</g>
		<g>
			<g>
				<g>
					<g>
						<g>
							<g>
								<g>
									<path class="st10" d="M422.56,107.31c-1.39-6.02,5.72-26.83,1.13-27.3c-5.85-0.59-6.84,23.07-7.05,25.2
										c-0.2,2.06-3.28,1.81-2.98-0.09c0.42-2.74,4.31-29.51-1.59-29.58c-3.27-0.04-3.41,5.92-3.41,5.92s-2.2,26.39-4.99,26.26
										c-2.83-0.12-0.79-15.14-0.51-20.73c0.27-5.35-2.41-8.43-4.39-6.12c-2.91,3.39-2.89,16.99-3.25,22.35
										c-0.36,5.36-1.8,20.75-7.33,13.05c-5.53-7.7-12.61-11.59-15.23-11.33c-2.61,0.27-3.1,4.03-0.56,5.51
										c2.05,1.19,4.88,4.23,6.91,6.6c1.68,1.95,2.79,4.27,3.98,6.54c0.85,1.62,2.25,4.85,2.9,9.33
										c0.76,5.19,3.75,9.79,8.14,12.67l-0.31,42.28l-1.31,20.91l32.91,11.42l-4.32-74.59c1.61-14.33,7.93-32.47,10.23-40.87
										c3.67-13.4,1.96-13.98,0.32-14.05C428.22,90.53,423.92,113.19,422.56,107.31z"/>
								</g>
							</g>
						</g>
					</g>
				</g>
				<g>
					<g>
						<g>
							<g>
								<path class="st11" d="M418.34,125.49c0,0.13-1.6-0.01-4.04,0.68c-2.41,0.67-5.67,2.37-8.05,5.49
									c-0.64,0.83-1.15,1.73-1.59,2.6l-0.22,0.43l-0.32-0.33c-2.17-2.24-4.51-3.7-6.24-4.56c-1.74-0.87-2.86-1.22-2.83-1.31
									c0.02-0.06,1.19,0.14,3.02,0.91c1.82,0.77,4.27,2.19,6.53,4.47l-0.54,0.1c0.45-0.93,0.98-1.87,1.66-2.74
									c1.24-1.63,2.75-2.89,4.23-3.8c1.5-0.9,2.98-1.45,4.24-1.75c1.27-0.32,2.32-0.33,3.04-0.34
									C417.95,125.39,418.34,125.45,418.34,125.49z"/>
							</g>
						</g>
					</g>
				</g>
				<g>
					<g>
						<g>
							<g>
								<path class="st11" d="M416.72,145.3c0.05,0.16-3.08,1.18-7.12,1.3c-4.03,0.14-7.23-0.67-7.18-0.83
									c0.03-0.2,3.22,0.3,7.16,0.16C413.52,145.8,416.67,145.1,416.72,145.3z"/>
							</g>
						</g>
					</g>
				</g>
			</g>
			<g>
				<g>
					<g>
						<path class="st0" d="M217.75,35.02c0.66-10.81,9.54-20.56,20.25-22.23c2.81-0.44,5.75-0.39,8.35-1.55
							c2.12-0.95,3.83-2.63,5.79-3.88c6.3-4.01,15.42-2.78,20.43,2.76c4.72,5.21,5.92-2.6,16.55,2.73c8.81,4.42,4.9,11.72,4.9,11.72
							c8.69-0.99,17.64,5.15,19.83,13.62c1.39,5.38,0.76,12.09,5.26,15.34c2.18,1.58,5.08,1.85,7.33,3.33
							c4.17,2.77,4.73,8.64,4.19,13.62c-0.54,4.97-1.7,10.27,0.46,14.78c3.53,7.4,14.59,9.65,16.51,17.62
							c0.91,3.77-0.37,8.45,2.49,11.07c1.15,1.05,2.72,1.47,4.16,2.05c5.84,2.36,10.15,8.15,10.73,14.43
							c0.58,6.28-2.58,12.76-7.89,16.16c-1.48,0.95-3.26,1.85-3.73,3.55c-0.53,1.89,0.84,3.72,1.84,5.4
							c3.66,6.17,2.69,14.73-2.25,19.93c-4.95,5.2-13.44,6.6-19.79,3.26c-2.83,6.04-8.11,10.89-14.37,13.2
							c-2.88,1.06-6.05,1.6-9.04,0.89c-2.39-0.57-4.53-1.91-6.5-3.39c-9.37-7.05-22.59-17.93-24.24-29.54"/>
					</g>
				</g>
				<g>
					<g>
						<path class="st10" d="M217.54,53.1l-0.42-8.31l49.67-11.05c15.36-2.11,32.5,12.82,33.95,28.25
							c1.62,17.15,2.91,38.14,1.27,51.02c-3.29,25.9-22.95,29.79-22.95,29.79l0.69,25.59l-56.98,2.48L217.54,53.1z"/>
					</g>
				</g>
				<g>
					<g>
						<g>
							<g>
								<g>
									<g>
										<g>
											<g>
												<g>
													<g>
														<path class="st0" d="M291.39,80.71c0.12,1.74-1.27,3.28-3.08,3.43c-1.82,0.15-3.38-1.13-3.5-2.87
															c-0.12-1.74,1.26-3.28,3.08-3.44C289.7,77.68,291.27,78.96,291.39,80.71z"/>
													</g>
												</g>
											</g>
										</g>
									</g>
								</g>
							</g>
						</g>
					</g>
				</g>
				<g>
					<g>
						<g>
							<g>
								<g>
									<g>
										<g>
											<g>
												<g>
													<g>
														<g>
															<path class="st0" d="M295.63,73.1c-0.4,0.44-2.96-1.33-6.51-1.21c-3.55,0.07-6.11,1.98-6.51,1.56
																c-0.2-0.19,0.2-0.98,1.31-1.84c1.09-0.86,2.98-1.72,5.19-1.78c2.22-0.06,4.1,0.7,5.2,1.5
																C295.43,72.13,295.82,72.9,295.63,73.1z"/>
														</g>
													</g>
												</g>
											</g>
										</g>
									</g>
								</g>
							</g>
						</g>
					</g>
				</g>
				<g>
					<g>
						<g>
							<g>
								<g>
									<g>
										<g>
											<g>
												<g>
													<g>
														<path class="st0" d="M258.18,82.37c0.12,1.74-1.27,3.28-3.08,3.43c-1.82,0.15-3.38-1.13-3.5-2.87
															c-0.12-1.74,1.26-3.28,3.08-3.44C256.5,79.34,258.07,80.63,258.18,82.37z"/>
													</g>
												</g>
											</g>
										</g>
									</g>
								</g>
							</g>
						</g>
					</g>
				</g>
				<g>
					<g>
						<g>
							<g>
								<g>
									<g>
										<g>
											<g>
												<g>
													<g>
														<g>
															<path class="st0" d="M260.68,74.85c-0.4,0.44-2.96-1.33-6.52-1.21c-3.55,0.07-6.11,1.98-6.51,1.56
																c-0.19-0.19,0.19-0.98,1.31-1.84c1.09-0.86,2.98-1.72,5.19-1.78c2.22-0.06,4.1,0.7,5.2,1.5
																C260.48,73.88,260.88,74.65,260.68,74.85z"/>
														</g>
													</g>
												</g>
											</g>
										</g>
									</g>
								</g>
							</g>
						</g>
					</g>
				</g>
				<g>
					<g>
						<g>
							<g>
								<g>
									<g>
										<g>
											<g>
												<g>
													<g>
														<path class="st0" d="M274.41,100.82c-0.02-0.2,2.18-0.65,5.74-1.22c0.91-0.12,1.76-0.33,1.89-0.95
															c0.19-0.66-0.22-1.63-0.69-2.67c-0.92-2.17-1.89-4.45-2.9-6.83c-4.04-9.73-6.99-17.74-6.59-17.9
															c0.39-0.16,3.98,7.6,8.02,17.33c0.97,2.4,1.9,4.69,2.79,6.88c0.38,1.02,1,2.17,0.58,3.55
															c-0.22,0.69-0.88,1.2-1.45,1.37c-0.58,0.2-1.09,0.22-1.54,0.26C276.67,100.94,274.43,101.03,274.41,100.82z"/>
													</g>
												</g>
											</g>
										</g>
									</g>
								</g>
							</g>
						</g>
					</g>
				</g>
				<g>
					<g>
						<g>
							<g>
								<g>
									<g>
										<g>
											<g>
												<g>
													<path class="st11" d="M279.06,142.86c0,0-18.19,1.63-35.68-8.16c0,0,9.27,17.78,35.87,14.59L279.06,142.86z"/>
												</g>
											</g>
										</g>
									</g>
								</g>
							</g>
						</g>
					</g>
				</g>
				<g>
					<g>
						<g>
							<g>
								<g>
									<g>
										<g>
											<g>
												<g>
													<path class="st11" d="M273.17,109.44c-1.33-1.65-3.6-2.51-5.82-2.2c-1.54,0.21-3.08,1.01-3.97,2.29
														c-0.9,1.29-1.04,3.08-0.15,4.25c1,1.32,3.02,1.57,4.7,1.03c1.68-0.54,3.11-1.7,4.46-2.85
														c0.37-0.32,0.76-0.65,0.98-1.08c0.23-0.43,0.26-0.98-0.05-1.32"/>
												</g>
											</g>
										</g>
									</g>
								</g>
							</g>
						</g>
					</g>
				</g>
				<g>
					<g>
						<g>
							<g>
								<g>
									<g>
										<g>
											<g>
												<g>
													<g>
														<path class="st0" d="M264.02,103.61c0.58-0.05,0.7,3.81,4.09,6.45c3.38,2.65,7.49,2.09,7.53,2.62
															c0.06,0.24-0.89,0.78-2.63,0.88c-1.7,0.11-4.21-0.36-6.28-1.97c-2.07-1.62-3-3.83-3.19-5.41
															C263.35,104.56,263.75,103.6,264.02,103.61z"/>
													</g>
												</g>
											</g>
										</g>
									</g>
								</g>
							</g>
						</g>
					</g>
				</g>
				<g>
					<g>
						<g>
							<g>
								<g>
									<g>
										<path class="st0" d="M261.17,60.88c-0.32,0.98-3.89,0.63-8.04,1.26c-4.17,0.55-7.5,1.88-8.08,1.02
											c-0.26-0.41,0.3-1.33,1.63-2.31c1.32-0.98,3.44-1.93,5.94-2.29c2.5-0.35,4.8-0.02,6.34,0.55
											C260.51,59.68,261.31,60.41,261.17,60.88z"/>
									</g>
								</g>
							</g>
						</g>
					</g>
				</g>
				<g>
					<g>
						<g>
							<g>
								<g>
									<g>
										<path class="st0" d="M294,62.84c-0.6,0.83-3.08,0.06-6.02,0.12c-2.95-0.05-5.42,0.71-6.03-0.12
											c-0.26-0.4,0.1-1.22,1.17-2.02c1.05-0.8,2.83-1.47,4.85-1.48c2.03,0,3.8,0.68,4.85,1.47
											C293.9,61.62,294.26,62.44,294,62.84z"/>
									</g>
								</g>
							</g>
						</g>
					</g>
				</g>
				<g>
					<g>
						<path class="st0" d="M305.11,30.37c-3.49,9.29-11.81,23.34-21.59,25.01s-20.32-2.19-26.7-9.79
							c-1.13,7.41-9.08,11.7-16.41,13.27c-5.18,1.11-10.69,1.43-15.7-0.29c-5.01-1.73-9.43-5.8-10.48-11
							c-1.05-5.19,5.77-18.41,10.92-19.64"/>
					</g>
				</g>
				<g>
					<g>
						<path class="st0" d="M234.33,167.46c0.12,8.33-5.63,16.42-13.54,19.04c0.74,6.73-3.94,13.64-10.46,15.45
							c-6.52,1.8-14.1-1.72-16.92-7.87c-0.74-1.61-1.21-3.41-2.4-4.72c-2.75-3.01-7.61-2.02-11.56-3
							c-7.12-1.75-10.75-10.07-10.48-17.4c0.05-1.45,0.21-2.91-0.1-4.32c-0.64-2.89-3.08-4.95-4.96-7.24
							c-7.71-9.42-5.83-24.04,1.27-33.93c2.36-3.3,5.4-6.79,4.87-10.81c-0.29-2.25-1.68-4.18-2.65-6.22
							c-3.16-6.63-1.69-15.18,3.51-20.38c0.8-0.8,1.72-1.6,1.94-2.71c0.14-0.7-0.03-1.42-0.17-2.13
							c-2.03-10.66,5.83-22.2,16.5-24.22c0.64-0.12,1.31-0.22,1.87-0.56c1.59-0.98,1.48-3.26,1.56-5.12
							c0.22-4.93,3.35-14.33,6.86-17.79c9.74-9.6,20.31-3.11,24.14,0c0,0,9.62,34.7,8.72,41.35c-0.9,6.65-4.55,23.35-2.11,30.64
							c2.44,7.29,6.66,22.27,4.14,29.18C231.81,141.61,234.33,167.46,234.33,167.46z"/>
					</g>
				</g>
			</g>
			<g>
				<g>
					<g>
						<g>
							<g>
								<g>
									<g>
										<g>
											<g>
												<g>
													<path class="st1" d="M296.83,456.46c0,0,75.23,20.82,78.25,21.88c4.53,1.6,3.77,18.2-3.28,17.94
														c-3.34-0.12-57.78,2.03-64.66,1.6s-27.63-8.61-27.63-8.61L296.83,456.46z"/>
												</g>
											</g>
										</g>
									</g>
								</g>
							</g>
						</g>
					</g>
					<g>
						<g>
							<g>
								<g>
									<g>
										<g>
											<g>
												<g>
													<g>
														<path class="st0" d="M328.17,485.16c0.38,0.05,0.89-3.93,3.32-8.08c2.37-4.19,5.55-6.62,5.32-6.92
															c-0.13-0.29-3.87,1.83-6.41,6.3C327.8,480.9,327.85,485.2,328.17,485.16z"/>
													</g>
												</g>
											</g>
										</g>
									</g>
								</g>
							</g>
						</g>
					</g>
					<g>
						<g>
							<g>
								<g>
									<g>
										<g>
											<g>
												<g>
													<g>
														<path class="st0" d="M320.32,481.61c0.37,0.06,1.13-3.49,3.13-7.42c1.96-3.95,4.37-6.68,4.1-6.94
															c-0.21-0.25-3.15,2.21-5.22,6.37C320.23,477.76,320,481.59,320.32,481.61z"/>
													</g>
												</g>
											</g>
										</g>
									</g>
								</g>
							</g>
						</g>
					</g>
					<g>
						<g>
							<g>
								<g>
									<g>
										<g>
											<g>
												<g>
													<g>
														<path class="st0" d="M312.96,479.64c0.38-0.02,0.09-3.78,1.76-7.95c1.6-4.2,4.36-6.76,4.1-7.03
															c-0.15-0.29-3.52,2.04-5.27,6.58C311.76,475.75,312.66,479.75,312.96,479.64z"/>
													</g>
												</g>
											</g>
										</g>
									</g>
								</g>
							</g>
						</g>
					</g>
					<g>
						<g>
							<g>
								<g>
									<g>
										<g>
											<g>
												<g>
													<g>
														<path class="st0" d="M314.3,469.92c0.13,0.03,0.8-2.07,0.81-5.6c0-1.76-0.21-3.86-0.76-6.13
															c-0.28-1.14-0.65-2.31-1.12-3.49c-0.24-0.6-0.52-1.28-1.2-1.84c-0.7-0.63-1.98-0.5-2.58,0.13
															c-0.69,0.6-0.91,1.45-1,2.13c-0.08,0.69-0.11,1.34-0.1,1.99c0.02,1.29,0.19,2.54,0.46,3.68
															c0.56,2.3,1.45,4.22,2.32,5.75c1.75,3.05,3.27,4.61,3.38,4.53c0.17-0.12-1.09-1.87-2.59-4.94
															c-0.74-1.53-1.51-3.42-1.97-5.59c-0.23-1.08-0.36-2.24-0.36-3.44c0.03-1.16,0.02-2.6,0.69-3.16
															c0.36-0.3,0.68-0.32,0.99-0.08c0.33,0.25,0.61,0.77,0.82,1.31c0.47,1.12,0.85,2.24,1.14,3.32
															c0.59,2.16,0.88,4.18,1,5.87C314.44,467.76,314.09,469.89,314.3,469.92z"/>
													</g>
												</g>
											</g>
										</g>
									</g>
								</g>
							</g>
						</g>
					</g>
					<g>
						<g>
							<g>
								<g>
									<g>
										<g>
											<g>
												<g>
													<g>
														<path class="st0" d="M314.21,469.16c0.03-0.14-1.78-0.76-4.85-0.78c-1.53,0-3.36,0.16-5.34,0.65
															c-0.97,0.26-2.02,0.52-3.07,1.13c-1.03,0.52-2.11,1.95-1.7,3.44c0.32,1.4,1.52,2.38,2.71,2.69
															c1.2,0.33,2.36,0.21,3.37-0.01c2.06-0.47,3.67-1.49,4.89-2.4c2.41-1.89,3.59-3.34,3.5-3.44
															c-0.13-0.16-1.56,1.08-4.01,2.71c-1.23,0.79-2.78,1.64-4.61,2c-0.91,0.17-1.9,0.23-2.79-0.04
															c-0.89-0.24-1.62-0.92-1.83-1.79c-0.22-0.84,0.29-1.61,1.12-2.1c0.81-0.5,1.8-0.79,2.73-1.06
															c1.86-0.53,3.6-0.78,5.07-0.89C312.33,469.06,314.17,469.36,314.21,469.16z"/>
													</g>
												</g>
											</g>
										</g>
									</g>
								</g>
							</g>
						</g>
					</g>
					<g>
						<g>
							<g>
								<g>
									<g>
										<g>
											<g>
												<g>
													<g>
														<path class="st0" d="M339.72,485.97c0.37-0.04,0-3.26,1.48-6.79c1.41-3.56,3.92-5.6,3.68-5.89
															c-0.12-0.31-3.27,1.48-4.85,5.41C338.42,482.63,339.42,486.1,339.72,485.97z"/>
													</g>
												</g>
											</g>
										</g>
									</g>
								</g>
							</g>
						</g>
					</g>
					<g>
						<g>
							<g>
								<g>
									<g>
										<g>
											<g>
												<g>
													<g>
														<path class="st0" d="M287.23,489.44c-0.03,0.08,1,0.56,2.91,1.37c1.93,0.73,4.76,1.75,8.37,2.59
															c7.19,1.81,17.45,2.84,28.72,2.72c11.27-0.12,21.43-0.64,28.8-0.93c3.49-0.18,6.41-0.34,8.72-0.46
															c2.06-0.14,3.19-0.25,3.19-0.34c0-0.09-1.14-0.14-3.21-0.15c-2.31,0.02-5.24,0.04-8.73,0.06
															c-7.62,0.15-17.67,0.35-28.78,0.56c-11.22,0.12-21.35-0.76-28.52-2.33C291.52,491.06,287.32,489.21,287.23,489.44z"/>
													</g>
												</g>
											</g>
										</g>
									</g>
								</g>
							</g>
						</g>
					</g>
					<g>
						<g>
							<g>
								<g>
									<g>
										<g>
											<g>
												<g>
													<g>
														<path class="st0" d="M285.01,491.16c0.1,0.17,2.16-1.03,5.64-2.55c3.43-1.47,8.58-3.24,14.24-2.37
															c5.67,0.87,9.69,4.68,12.3,7.32c2.64,2.74,4.18,4.56,4.34,4.43c0.11-0.09-1.17-2.09-3.68-5.03
															c-1.27-1.45-2.88-3.14-4.99-4.66c-2.08-1.53-4.77-2.84-7.77-3.29c-6.06-0.93-11.41,1.1-14.81,2.8
															C286.82,489.56,284.93,491.03,285.01,491.16z"/>
													</g>
												</g>
											</g>
										</g>
									</g>
								</g>
							</g>
						</g>
					</g>
				</g>
				<g>
					<g>
						<g>
							<g>
								<g>
									<g>
										<g>
											<path class="st0" d="M213.25,370.05l-16.24,33.37c0,0-86.83-26.41-108.71-25.19c-21.88,1.22-39.8,9.98-44.05,27.75
												s-4.84,42.29,20.69,59.3c25.53,17.02,152.38,26.42,152.38,26.42h50.2l82.04-108.18l-13.22-10.72L213.25,370.05z"/>
										</g>
									</g>
								</g>
							</g>
						</g>
						<g>
							<g>
								<g>
									<g>
										<g>
											<g>
												<path class="st5" d="M240.56,443.27c0,0.04-0.57,0.03-1.65-0.03c-1.07-0.09-2.68-0.08-4.71-0.37
													c-4.09-0.4-9.96-1.46-17.02-3.51c-7.07-2.03-15.23-5.24-24-9.39c-8.78-4.14-18.14-9.24-27.98-14.52
													c-9.84-5.27-19.38-10.01-28.34-13.6c-8.97-3.58-17.33-6.07-24.52-7.33c-7.18-1.29-13.11-1.61-17.19-1.5
													c-2.04-0.05-3.62,0.17-4.7,0.18c-1.08,0.05-1.64,0.06-1.65,0.02c0-0.04,0.56-0.12,1.63-0.24
													c1.07-0.08,2.66-0.37,4.71-0.39c4.1-0.24,10.08-0.04,17.34,1.16c7.26,1.18,15.72,3.61,24.76,7.16
													c9.04,3.56,18.63,8.29,28.49,13.57c9.85,5.29,19.18,10.4,27.9,14.57c8.71,4.18,16.8,7.45,23.79,9.56
													c6.98,2.13,12.8,3.3,16.85,3.83c2.02,0.35,3.61,0.41,4.67,0.57C240,443.15,240.56,443.23,240.56,443.27z"/>
											</g>
										</g>
									</g>
								</g>
							</g>
						</g>
						<g>
							<g>
								<g>
									<g>
										<g>
											<path class="st0" d="M299.89,482.88c16.13-6.34,104.81-34.55,136.21-70.84c8.71-10.07,10.32-20.58,8.6-30.12
												c-4.38-24.2-26.63-40.33-49.72-31.19c-3.28,1.3-10.83,4.23-13.98,5.92c-8.61,4.63-148.13,93.11-148.13,93.11
												s24.31,47.4,23.7,49.23L299.89,482.88z"/>
										</g>
									</g>
								</g>
							</g>
						</g>
						<g>
							<g>
								<g>
									<g>
										<g>
											<g>
												<path class="st5" d="M343.57,377.69c0.01,0.02-0.12,0.12-0.38,0.3c-0.32,0.22-0.7,0.48-1.17,0.79
													c-1.12,0.73-2.64,1.72-4.55,2.97c-4.06,2.59-9.8,6.24-16.85,10.73c-14.35,9.02-34.04,21.4-55.8,35.07
													c-10.74,6.7-20.98,13.08-30.31,18.9l0.2-0.62c6.46,15.53,11.96,28.77,15.89,38.24c1.89,4.63,3.39,8.33,4.47,10.97
													c0.48,1.22,0.86,2.19,1.15,2.93c0.25,0.67,0.37,1.02,0.34,1.03c-0.03,0.01-0.2-0.32-0.5-0.97
													c-0.33-0.73-0.76-1.68-1.3-2.87c-1.14-2.61-2.73-6.28-4.73-10.86c-4.02-9.43-9.65-22.62-16.26-38.08l-0.17-0.39
													l0.36-0.23c9.31-5.84,19.54-12.24,30.27-18.97c21.82-13.56,41.57-25.84,55.97-34.8c7.13-4.37,12.92-7.92,17.03-10.44
													c1.96-1.17,3.51-2.11,4.66-2.79c0.49-0.28,0.89-0.51,1.23-0.7C343.41,377.74,343.56,377.67,343.57,377.69z"/>
											</g>
										</g>
									</g>
								</g>
							</g>
						</g>
						<g>
							<g>
								<g>
									<g>
										<g>
											<g>
												<path class="st5" d="M221.03,419.52c-0.05,0.13-1.66-0.39-4.12-1.55c-2.46-1.15-5.75-3-9.11-5.46
													c-3.35-2.46-6.11-5.04-7.96-7.04c-1.85-2-2.83-3.37-2.72-3.46c0.25-0.23,4.69,4.79,11.32,9.62
													C215.04,416.5,221.17,419.21,221.03,419.52z"/>
											</g>
										</g>
									</g>
								</g>
							</g>
						</g>
						<g>
							<g>
								<g>
									<g>
										<g>
											<g>
												<path class="st5" d="M269.33,380.2c0.16,0.01,0.16,2.13,0.21,5.55c0.05,3.42,0.19,8.14,0.65,13.33
													c0.47,5.19,1.19,9.86,1.75,13.23c0.57,3.37,0.95,5.46,0.79,5.5c-0.14,0.03-0.78-2-1.55-5.35
													c-0.76-3.35-1.6-8.05-2.08-13.28c-0.47-5.24-0.49-10-0.34-13.44C268.92,382.3,269.19,380.19,269.33,380.2z"/>
											</g>
										</g>
									</g>
								</g>
							</g>
						</g>
						<g>
							<g>
								<g>
									<g>
										<g>
											<g>
												<path class="st5" d="M279.7,379.05c0.01-0.05,0.41-0.1,1.09,0.15c0.67,0.24,1.58,0.85,2.31,1.94
													c0.68,1.08,1.22,2.72,0.66,4.47c-0.52,1.79-2.47,3.1-4.5,3.17c-2.02,0.13-4.12-0.99-4.76-2.77
													c-0.65-1.75-0.1-3.42,0.62-4.48c0.75-1.08,1.73-1.64,2.43-1.8c0.71-0.17,1.11-0.05,1.1,0c0.07,0.18-1.7,0.17-2.88,2.21
													c-0.55,0.96-0.89,2.39-0.34,3.69c0.51,1.31,2.1,2.16,3.77,2.07c1.68-0.07,3.16-1.06,3.61-2.41
													c0.49-1.34,0.15-2.76-0.37-3.74C281.31,379.47,279.61,379.23,279.7,379.05z"/>
											</g>
										</g>
									</g>
								</g>
							</g>
						</g>
						<g>
							<g>
								<g>
									<g>
										<g>
											<g>
												<path class="st5" d="M236.79,375.54c0.06-0.02,0.38,0.54,0.76,1.65c0.39,1.1,0.74,2.79,0.73,4.91
													c0,2.11-0.45,4.64-1.62,7.2c-1.15,2.55-3.09,5.11-5.79,6.96c-2.73,1.81-5.83,2.64-8.63,2.74
													c-2.81,0.11-5.33-0.42-7.28-1.22c-1.96-0.79-3.39-1.75-4.27-2.53c-0.88-0.77-1.28-1.29-1.24-1.33
													c0.14-0.19,1.93,1.79,5.77,3.13c1.9,0.67,4.31,1.1,6.96,0.94c2.64-0.15,5.53-0.97,8.07-2.64
													c2.51-1.72,4.35-4.09,5.49-6.48c1.15-2.4,1.66-4.79,1.76-6.8C237.73,378,236.57,375.6,236.79,375.54z"/>
											</g>
										</g>
									</g>
								</g>
							</g>
						</g>
						<g>
							<g>
								<g>
									<g>
										<g>
											<g>
												<path class="st5" d="M319.55,392.06c0,0.12-1.31,0.21-3.29-0.46c-1.95-0.65-4.55-2.24-6.33-4.95
													c-1.77-2.72-2.18-5.74-1.99-7.79c0.18-2.08,0.79-3.24,0.9-3.2c0.17,0.05-0.16,1.26-0.13,3.22
													c0.02,1.94,0.52,4.69,2.13,7.17c1.62,2.47,3.93,4.04,5.7,4.83C318.33,391.69,319.57,391.88,319.55,392.06z"/>
											</g>
										</g>
									</g>
								</g>
							</g>
						</g>
					</g>
					<g>
						<g>
							<g>
								<g>
									<path class="st5" d="M362.93,458.4c-0.01-0.01,0.18-0.11,0.53-0.29c0.39-0.19,0.92-0.45,1.6-0.78
										c1.44-0.69,3.5-1.69,6.15-2.96c5.33-2.59,13.05-6.33,22.37-11.36c9.29-5.05,20.27-11.41,30.88-20.55
										c5.25-4.58,10.41-9.9,14.77-16.08c4.19-6.29,5.95-14.35,5.35-22.31c-0.34-3.99-1.33-7.88-2.94-11.42
										c-0.8-1.77-1.76-3.46-2.86-5.03c-1.11-1.56-2.35-3.02-3.65-4.39c-2.62-2.74-5.48-5.14-8.3-7.48
										c-2.79-2.35-5.7-4.48-9.05-5.41c-3.31-0.98-6.75-1.15-10.04-1.11c-3.3,0.06-6.49,0.43-9.53,1.05
										c-6.09,1.21-11.42,3.59-16.08,6.08c-9.24,5.12-16.73,9.27-21.95,12.16c-2.57,1.41-4.58,2.52-5.98,3.29
										c-0.66,0.36-1.18,0.63-1.56,0.84c-0.35,0.19-0.54,0.28-0.54,0.26c-0.01-0.01,0.17-0.12,0.51-0.33
										c0.37-0.22,0.88-0.52,1.53-0.9c1.38-0.8,3.37-1.94,5.91-3.41c5.16-2.93,12.57-7.22,21.85-12.37
										c4.66-2.52,10.04-4.96,16.2-6.21c3.07-0.64,6.3-1.03,9.64-1.1c3.33-0.05,6.81,0.11,10.24,1.11c3.47,0.95,6.5,3.17,9.3,5.52
										c2.83,2.34,5.72,4.75,8.38,7.53c1.32,1.39,2.59,2.87,3.72,4.47c1.13,1.6,2.12,3.33,2.93,5.14c1.64,3.63,2.65,7.59,3,11.66
										c0.61,8.11-1.18,16.32-5.48,22.76c-4.44,6.28-9.62,11.59-14.92,16.2c-10.69,9.16-21.74,15.5-31.07,20.49
										c-9.36,4.99-17.12,8.65-22.49,11.17c-2.67,1.22-4.76,2.18-6.21,2.84c-0.69,0.3-1.23,0.54-1.63,0.71
										C363.13,458.33,362.93,458.41,362.93,458.4z"/>
								</g>
							</g>
						</g>
					</g>
				</g>
				<g>
					<g>
						<g>
							<g>
								<g>
									<g>
										<g>
											<g>
												<g>
													<g>
														<path class="st1" d="M238.72,456.93c0,0-75.48,19.89-78.51,20.91c-4.55,1.54-4,18.15,3.06,17.98
															c3.34-0.08,57.75,2.74,64.64,2.4c6.88-0.35,25.49-7.43,25.49-7.43L238.72,456.93z"/>
													</g>
												</g>
											</g>
										</g>
									</g>
								</g>
							</g>
						</g>
						<g>
							<g>
								<g>
									<g>
										<g>
											<g>
												<g>
													<g>
														<g>
															<path class="st0" d="M207.03,485.24c-0.38,0.05-0.84-3.94-3.22-8.12c-2.32-4.22-5.47-6.69-5.23-6.99
																c0.14-0.29,3.85,1.88,6.33,6.38C207.44,480.98,207.35,485.28,207.03,485.24z"/>
														</g>
													</g>
												</g>
											</g>
										</g>
									</g>
								</g>
							</g>
						</g>
						<g>
							<g>
								<g>
									<g>
										<g>
											<g>
												<g>
													<g>
														<g>
															<path class="st0" d="M214.92,481.79c-0.37,0.06-1.09-3.51-3.04-7.46c-1.92-3.97-4.28-6.73-4.01-6.99
																c0.21-0.24,3.12,2.25,5.14,6.44C215.06,477.94,215.24,481.77,214.92,481.79z"/>
														</g>
													</g>
												</g>
											</g>
										</g>
									</g>
								</g>
							</g>
						</g>
						<g>
							<g>
								<g>
									<g>
										<g>
											<g>
												<g>
													<g>
														<g>
															<path class="st0" d="M222.3,479.91c-0.38-0.03-0.04-3.78-1.66-7.97c-1.55-4.22-4.28-6.81-4.01-7.09
																c0.15-0.28,3.5,2.08,5.19,6.64C223.55,476.03,222.6,480.02,222.3,479.91z"/>
														</g>
													</g>
												</g>
											</g>
										</g>
									</g>
								</g>
							</g>
						</g>
						<g>
							<g>
								<g>
									<g>
										<g>
											<g>
												<g>
													<g>
														<g>
															<path class="st0" d="M221.08,470.17c-0.13,0.03-0.78-2.08-0.74-5.61c0.03-1.76,0.26-3.86,0.84-6.12
																c0.29-1.13,0.68-2.3,1.16-3.48c0.25-0.59,0.54-1.28,1.23-1.83c0.71-0.62,1.98-0.47,2.58,0.16
																c0.68,0.61,0.89,1.46,0.98,2.14c0.07,0.69,0.1,1.34,0.07,1.99c-0.03,1.29-0.22,2.53-0.51,3.68
																c-0.58,2.29-1.5,4.21-2.39,5.72c-1.79,3.03-3.33,4.57-3.44,4.49c-0.17-0.12,1.11-1.86,2.65-4.91
																c0.76-1.53,1.55-3.4,2.04-5.57c0.25-1.08,0.39-2.24,0.4-3.43c-0.02-1.16,0.02-2.6-0.65-3.17
																c-0.36-0.3-0.68-0.33-0.99-0.1c-0.34,0.25-0.62,0.76-0.84,1.3c-0.48,1.12-0.87,2.23-1.18,3.3
																c-0.62,2.15-0.93,4.16-1.07,5.86C220.97,468.01,221.29,470.15,221.08,470.17z"/>
														</g>
													</g>
												</g>
											</g>
										</g>
									</g>
								</g>
							</g>
						</g>
						<g>
							<g>
								<g>
									<g>
										<g>
											<g>
												<g>
													<g>
														<g>
															<path class="st0" d="M221.19,469.41c-0.03-0.14,1.79-0.74,4.86-0.72c1.53,0.02,3.36,0.2,5.33,0.72
																c0.97,0.28,2.01,0.54,3.06,1.17c1.02,0.54,2.08,1.98,1.66,3.46c-0.34,1.39-1.55,2.36-2.74,2.65
																c-1.2,0.32-2.36,0.19-3.37-0.05c-2.06-0.5-3.65-1.54-4.86-2.46c-2.39-1.92-3.55-3.38-3.46-3.49
																c0.13-0.16,1.54,1.1,3.97,2.76c1.22,0.8,2.76,1.67,4.59,2.05c0.91,0.19,1.9,0.25,2.79,0
																c0.89-0.23,1.63-0.9,1.85-1.77c0.23-0.84-0.27-1.61-1.09-2.11c-0.8-0.51-1.79-0.81-2.72-1.1
																c-1.85-0.55-3.59-0.82-5.06-0.95C223.07,469.33,221.22,469.61,221.19,469.41z"/>
														</g>
													</g>
												</g>
											</g>
										</g>
									</g>
								</g>
							</g>
						</g>
						<g>
							<g>
								<g>
									<g>
										<g>
											<g>
												<g>
													<g>
														<g>
															<path class="st0" d="M195.46,485.91c-0.37-0.05,0.04-3.26-1.4-6.8c-1.36-3.57-3.85-5.65-3.61-5.93
																c0.13-0.31,3.25,1.52,4.78,5.47C196.81,482.58,195.76,486.04,195.46,485.91z"/>
														</g>
													</g>
												</g>
											</g>
										</g>
									</g>
								</g>
							</g>
						</g>
						<g>
							<g>
								<g>
									<g>
										<g>
											<g>
												<g>
													<g>
														<g>
															<path class="st0" d="M247.91,490.03c0.03,0.08-1.01,0.55-2.93,1.33c-1.94,0.71-4.78,1.69-8.4,2.49
																c-7.22,1.72-17.49,2.63-28.75,2.37c-11.27-0.26-21.42-0.9-28.79-1.29c-3.48-0.23-6.4-0.42-8.71-0.57
																c-2.06-0.16-3.19-0.29-3.19-0.38c0-0.09,1.15-0.12,3.21-0.11c2.31,0.04,5.24,0.1,8.73,0.17
																c7.62,0.24,17.66,0.56,28.77,0.92c11.22,0.26,21.36-0.5,28.55-1.98C243.6,491.59,247.82,489.79,247.91,490.03z"/>
														</g>
													</g>
												</g>
											</g>
										</g>
									</g>
								</g>
							</g>
						</g>
						<g>
							<g>
								<g>
									<g>
										<g>
											<g>
												<g>
													<g>
														<g>
															<path class="st0" d="M250.11,491.77c-0.1,0.17-2.15-1.06-5.6-2.62c-3.42-1.52-8.54-3.35-14.21-2.54
																c-5.68,0.8-9.74,4.56-12.39,7.17c-2.67,2.71-4.24,4.5-4.39,4.37c-0.11-0.1,1.2-2.08,3.74-4.99
																c1.29-1.44,2.92-3.1,5.05-4.6c2.1-1.51,4.8-2.78,7.81-3.2c6.08-0.85,11.39,1.24,14.77,2.98
																C248.32,490.15,250.19,491.65,250.11,491.77z"/>
														</g>
													</g>
												</g>
											</g>
										</g>
									</g>
								</g>
							</g>
						</g>
					</g>
					<g>
						<g>
							<g>
								<g>
									<g>
										<g>
											<path class="st0" d="M174.61,494.09c-0.14-0.09,0.52-1.08,1.13-2.83c0.62-1.73,1.11-4.3,0.64-7.06
												c-0.48-2.76-1.8-5.02-2.96-6.45c-1.16-1.44-2.11-2.16-2.01-2.29c0.06-0.1,1.18,0.41,2.55,1.81
												c1.37,1.37,2.91,3.76,3.43,6.75c0.51,2.99-0.15,5.76-0.98,7.51C175.58,493.31,174.7,494.17,174.61,494.09z"/>
										</g>
									</g>
								</g>
							</g>
						</g>
					</g>
				</g>
			</g>
			<g>
				<g>
					<g>
						<g>
							<g>
								<path class="st26" d="M235.24,163.77l-38.81,10.87l12.61,120.73c0,0-7.26,43.1-7.26,54.43c0,14.72,11.45,20.24,11.45,20.24
									l123.97,3.74l6.34-5.48c3.26-3.82,4.76-8.84,4.14-13.83l-23.03-184.22l-43.16-9.36L235.24,163.77z"/>
							</g>
						</g>
					</g>
					<g>
						<g>
							<g>
								<g>
									<path class="st0" d="M209.2,295.23c-0.02,0-0.1-0.31-0.23-0.91c-0.13-0.68-0.31-1.55-0.52-2.64
										c-0.44-2.39-1.04-5.69-1.79-9.74c-1.45-8.31-3.44-19.65-5.63-32.19c-2.11-12.55-4.02-23.91-5.42-32.23
										c-0.65-4.07-1.18-7.39-1.56-9.78c-0.16-1.1-0.29-1.98-0.39-2.67c-0.08-0.61-0.11-0.93-0.09-0.94c0.02,0,0.1,0.31,0.23,0.91
										c0.13,0.68,0.31,1.55,0.52,2.64c0.44,2.38,1.04,5.69,1.79,9.74c1.45,8.31,3.44,19.66,5.63,32.19
										c2.11,12.55,4.02,23.9,5.42,32.23c0.65,4.07,1.18,7.39,1.56,9.78c0.16,1.1,0.29,1.98,0.39,2.67
										C209.19,294.9,209.22,295.23,209.2,295.23z"/>
								</g>
							</g>
						</g>
					</g>
					<g>
						<g>
							<g>
								<g>
									<path class="st0" d="M286.95,163.11c0.03,0.04-0.6,0.54-1.79,1.42c-0.6,0.42-1.38,0.87-2.26,1.43
										c-0.93,0.47-1.96,1.09-3.18,1.58c-2.4,1.07-5.39,2.07-8.81,2.75c-3.41,0.69-7.22,1.07-11.23,1.17
										c-4,0.1-7.82-0.08-11.27-0.35c-3.45-0.25-6.57-0.62-9.13-1.2c-2.57-0.57-4.58-1.33-5.9-1.97c-0.66-0.33-1.16-0.6-1.49-0.81
										c-0.33-0.21-0.49-0.32-0.48-0.34c0.03-0.06,0.74,0.34,2.08,0.9c1.34,0.55,3.34,1.23,5.89,1.73
										c2.55,0.5,5.64,0.82,9.08,1.03c3.44,0.23,7.23,0.39,11.2,0.29c3.97-0.09,7.74-0.46,11.12-1.1
										c3.38-0.63,6.34-1.56,8.73-2.56C284.36,165.11,286.85,162.94,286.95,163.11z"/>
								</g>
							</g>
						</g>
					</g>
					<g>
						<g>
							<g>
								<g>
									<path class="st0" d="M327.04,349.29c0,0.02-0.29,0.08-0.84,0.17c-0.63,0.09-1.44,0.21-2.44,0.35
										c-1.06,0.15-2.36,0.32-3.87,0.45c-1.51,0.14-3.24,0.34-5.15,0.43c-3.82,0.27-8.38,0.39-13.45,0.32
										c-5.06-0.12-10.63-0.45-16.44-1.13c-5.81-0.71-11.29-1.7-16.24-2.78c-4.94-1.13-9.35-2.32-12.99-3.48
										c-1.84-0.54-3.46-1.14-4.9-1.63c-1.44-0.48-2.67-0.95-3.66-1.35c-0.94-0.37-1.69-0.68-2.29-0.92
										c-0.52-0.22-0.79-0.34-0.78-0.37c0.01-0.02,0.29,0.06,0.83,0.23c0.61,0.21,1.38,0.47,2.33,0.79
										c1.01,0.36,2.24,0.79,3.69,1.23c1.45,0.45,3.08,1.02,4.92,1.53c3.66,1.1,8.06,2.24,12.99,3.32
										c4.94,1.04,10.4,2.01,16.19,2.71c5.78,0.68,11.32,1.03,16.37,1.18c5.04,0.11,9.59,0.04,13.4-0.17
										c1.91-0.06,3.63-0.22,5.14-0.32c1.52-0.09,2.82-0.22,3.88-0.33c1-0.09,1.82-0.16,2.45-0.22
										C326.74,349.28,327.03,349.27,327.04,349.29z"/>
								</g>
							</g>
						</g>
					</g>
					<g>
						<g>
							<g>
								<g>
									<path class="st0" d="M341.42,245.79c-0.05,0.01-0.26-0.59-0.59-1.68c-0.34-1.09-0.79-2.68-1.33-4.65
										c-1.07-3.94-2.45-9.42-3.81-15.5c-1.35-6.09-2.43-11.63-3.12-15.66c-0.35-2.01-0.61-3.64-0.77-4.78
										c-0.16-1.13-0.23-1.76-0.18-1.77c0.05-0.01,0.21,0.6,0.45,1.72c0.27,1.26,0.6,2.84,1,4.73c0.83,4,1.98,9.52,3.33,15.6
										c1.35,6.08,2.65,11.56,3.6,15.53c0.44,1.88,0.81,3.45,1.1,4.71C341.35,245.15,341.46,245.78,341.42,245.79z"/>
								</g>
							</g>
						</g>
					</g>
				</g>
				<g>
					<g>
						<g class="st4">
							<g>
								<g>
									<g>
										<path d="M248.79,169.26c1.55,5.4,0.11,13.26,0.87,18.09c3.05,19.33,4.51,38.99,3.11,58.51c-0.08,1.06-0.16,2.16,0.2,3.17
											c0.33,0.92,0.98,1.67,1.57,2.45c3.92,5.19,4.94,12.13,4.15,18.59c-0.79,6.46-3.21,12.59-5.62,18.64
											c-0.14-5.21,0.14-13.01,0.55-18.21c0.08-1.04,0.61-0.37,0.64-1.41c0.18-6.25-0.87-12.05-5.26-16.51
											c-0.88-0.89-1.89-1.7-2.49-2.8c-0.55-1.01-0.7-2.19-0.85-3.34c-2.69-21.83-4.53-43.76-5.52-65.73
											c-0.06-1.25-0.07-2.62,0.71-3.59c0.62-0.77,1.6-1.11,2.42-1.66c1.68-1.11,2.73-3.07,4.55-3.93"/>
									</g>
								</g>
							</g>
						</g>
						<g>
							<g>
								<g>
									<path class="st26" d="M196.44,174.65c0,0-35.43,8.35-26.84,61.45c3.02,18.67,8.83,46.41,21.14,75.4
										c5.8,13.67,18.96,23.07,33.68,21.14c6.43-0.84,12.8,0.18,17.11-2.42c6.54-3.94,9.38-17.23,10.61-31.56
										c0.84-9.76,0.49-19.94,1.78-28.27c2.11-13.61-4.13-20.02-12.12-21.61l-31.32-6.24l-1.8,16.57L196.44,174.65z"/>
								</g>
							</g>
						</g>
						<g>
							<g>
								<g>
									<g>
										<path class="st0" d="M221.39,280.34c0.09-0.07,0.59,0.64,1.8,1.55c1.19,0.91,3.18,1.96,5.85,2.32
											c2.65,0.38,5.91-0.08,9.27-1.32c3.35-1.27,7.04-2.96,10.01-5.77c2.95-2.81,4.67-6.53,5.2-10.02
											c0.56-3.51-0.08-6.76-1.11-9.24c-2.13-5.03-5.2-7.03-4.98-7.2c0.04-0.06,0.8,0.37,1.95,1.44
											c1.15,1.06,2.65,2.83,3.84,5.41c1.18,2.55,1.97,6,1.44,9.76c-0.5,3.73-2.3,7.72-5.48,10.75c-3.2,3.01-7.02,4.7-10.49,5.95
											c-3.51,1.23-6.98,1.64-9.79,1.11c-2.82-0.5-4.87-1.75-6.02-2.82C221.71,281.19,221.34,280.37,221.39,280.34z"/>
									</g>
								</g>
							</g>
						</g>
						<g>
							<g>
								<g>
									<g>
										<path class="st0" d="M188.84,306.85c0.11-0.04,0.67,1.67,2.12,4.54c1.44,2.86,3.95,6.86,8.07,10.84
											c4.09,3.97,10,7.78,17.34,9.59c7.27,1.81,16.01,1.66,24-1.68c4.01-1.62,5.46-6.08,6.99-9.8
											c1.41-3.86,2.35-7.75,2.99-11.49c1.27-7.5,1.57-14.39,2-20.16c0.41-5.63,0.75-10.26,1-13.66c0.14-1.5,0.25-2.72,0.34-3.71
											c0.09-0.85,0.16-1.29,0.2-1.29c0.04,0,0.06,0.45,0.05,1.3c-0.03,0.99-0.06,2.22-0.1,3.73c-0.15,3.41-0.36,8.04-0.61,13.69
											c-0.32,5.77-0.52,12.69-1.75,20.29c-0.61,3.8-1.54,7.76-2.97,11.72c-0.75,1.97-1.55,3.95-2.64,5.88
											c-1.06,1.94-2.84,3.72-4.98,4.63c-8.37,3.5-17.31,3.58-24.8,1.66c-7.55-1.92-13.58-5.94-17.68-10.07
											c-4.14-4.15-6.56-8.3-7.89-11.26c-0.69-1.48-1.11-2.67-1.36-3.49C188.91,307.29,188.8,306.86,188.84,306.85z"/>
									</g>
								</g>
							</g>
						</g>
						<g>
							<g>
								<g>
									<g>
										<path class="st0" d="M200.64,283.82c-0.17-0.01-0.13-2.45,0.08-6.38c0.21-3.93,0.58-9.35,1.07-15.33
											c0.26-3,0.46-5.82,0.77-8.45c0.33-2.62,1.08-5.04,2.41-6.66c1.3-1.63,2.89-2.41,4.02-2.62c1.14-0.23,1.77,0,1.75,0.06
											c0,0.11-0.63,0.06-1.63,0.41c-0.99,0.33-2.35,1.15-3.44,2.68c-2.32,3.07-2.05,8.75-2.65,14.68
											c-0.49,5.98-1,11.39-1.44,15.3C201.17,281.42,200.82,283.83,200.64,283.82z"/>
									</g>
								</g>
							</g>
						</g>
						<g>
							<g>
								<path class="st0" d="M211.7,227.41c-0.32-1.68-0.81-4.11-1.45-7.1c-1.28-5.99-3.13-14.24-5.25-23.33
									c-1.08-4.53-2-8.91-3.37-12.78c-1.34-3.87-3.15-7.18-5.19-9.55l-0.69,0.56c1.88,2.35,3.54,5.57,4.79,9.36
									c1.27,3.79,2.16,8.14,3.24,12.69c2.12,9.1,4.11,17.31,5.61,23.25c0.75,2.97,1.38,5.36,1.84,7.01
									c0.46,1.65,0.76,2.55,0.84,2.53C212.15,230.03,212.02,229.09,211.7,227.41z"/>
							</g>
						</g>
						<g class="st4">
							<g>
								<g>
									<g>
										<path d="M212.03,238.83c-2.85-0.09-5.61,1.1-7.97,2.69c-5.17,3.47-8.9,8.93-10.55,14.93c-1.65,6-1.25,12.5,0.82,18.37
											c0.65,1.83,1.9,3.9,3.84,3.83c2.28-0.09,3.2-2.93,3.52-5.19c0.88-6.26,1.75-12.52,2.63-18.78
											c0.3-2.13,0.61-4.31,1.66-6.19c1.05-1.87,3.02-3.4,5.16-3.28c0.19-2.23,0.39-4.46,0.58-6.68"/>
									</g>
								</g>
							</g>
						</g>
					</g>
				</g>
				<g>
					<g>
						<g>
							<path class="st26" d="M422.91,267.4c0,0,6.62-9.94,7.32-24.58c0.69-14.64-3.48-27.02-3.48-27.02l-37.64-11.67l-0.24,12.57
								L422.91,267.4z"/>
						</g>
					</g>
					<g>
						<g>
							<path class="st26" d="M388.87,216.7l-64.2-46.44v3.22l6.93,72.29c0,0,53.08,23.78,67.14,27.28
								c14.06,3.5,24.17-5.66,24.17-5.66L388.87,216.7z"/>
						</g>
					</g>
					<g>
						<g>
							<g>
								<path class="st0" d="M407.91,251.81c-0.03,0.05-0.56-0.2-1.45-0.77c-0.9-0.56-2.13-1.47-3.53-2.76
									c-2.82-2.54-6.08-6.75-8.58-11.97c-2.49-5.22-3.93-10.26-4.89-13.88c-0.48-1.82-0.82-3.3-1.04-4.33
									c-0.22-1.03-0.31-1.6-0.25-1.62c0.13-0.04,0.82,2.19,1.92,5.77c1.12,3.57,2.65,8.53,5.1,13.66c2.45,5.13,5.55,9.3,8.2,11.9
									C406,250.45,408,251.67,407.91,251.81z"/>
							</g>
						</g>
					</g>
					<g>
						<g>
							<g>
								<path class="st0" d="M426.56,224.9c0,0.06-0.6,0.07-1.66,0.02c-1.07-0.03-2.61-0.19-4.5-0.49
									c-3.78-0.59-8.95-1.93-14.27-4.39c-5.31-2.48-9.68-5.56-12.56-8.07c-1.45-1.25-2.56-2.33-3.28-3.12
									c-0.72-0.79-1.1-1.24-1.06-1.29c0.11-0.11,1.78,1.55,4.75,3.9c2.96,2.35,7.31,5.3,12.54,7.74c5.23,2.42,10.29,3.85,14,4.59
									C424.22,224.54,426.57,224.74,426.56,224.9z"/>
							</g>
						</g>
					</g>
					<g>
						<g>
							<g>
								<path class="st0" d="M391.7,245.77c-0.09,0.05-1.03-1.39-2-3.98c-0.99-2.58-1.84-6.34-2.14-10.53
									c-0.29-4.2-0.11-7.99,0.08-10.72c0.21-2.73,0.43-4.41,0.55-4.4c0.13,0.01,0.14,1.7,0.1,4.43c-0.03,2.73-0.1,6.5,0.18,10.63
									c0.29,4.13,1.03,7.81,1.83,10.39C391.11,244.17,391.84,245.7,391.7,245.77z"/>
							</g>
						</g>
					</g>
				</g>
				<g>
					<g>
						<g>
							<path class="st0" d="M323.7,198.03c0.06-0.02,0.3,0.69,0.67,1.97c0.37,1.28,0.87,3.14,1.46,5.45
								c1.18,4.62,2.69,11.03,4.18,18.15c1.49,7.12,2.67,13.6,3.44,18.3c0.39,2.35,0.67,4.26,0.85,5.58
								c0.17,1.32,0.24,2.06,0.18,2.07c-0.06,0.01-0.25-0.7-0.53-2.01c-0.31-1.5-0.69-3.34-1.13-5.53
								c-0.99-4.87-2.28-11.22-3.71-18.23c-1.51-7-2.87-13.32-3.92-18.18c-0.46-2.18-0.86-4.02-1.18-5.52
								C323.75,198.77,323.64,198.04,323.7,198.03z"/>
						</g>
					</g>
				</g>
			</g>
			<g>
				<g>
					<g>
						<g>
							<path class="st10" d="M210.09,249.09l7.87-87.05l26.07,10.3l3.36,88.54c0,0-8.35,12.63-22.44,7.45
								C210.86,263.14,210.09,249.09,210.09,249.09z"/>
						</g>
					</g>
				</g>
				<g>
					<g>
						<g>
							<polygon class="st0" points="215.17,85.79 263.91,128.67 255.09,160.69 251.55,161.73 208.93,118.12 211.63,86.84 							"/>
						</g>
					</g>
				</g>
				<g>
					<g>
						<g>
							<polygon class="st5" points="211.63,86.84 260.38,129.72 251.55,161.73 205.4,119.16 							"/>
						</g>
					</g>
				</g>
				<g>
					<g>
						<g>
							<path class="st10" d="M245.13,175.12c0,0,5.01-5.25,4.9-11.98c-0.11-6.56-1.92-22.35-1.92-22.35s8.47-17.83,8.25-20.2
								c-0.21-2.37-0.6-2.33-3.64-1.38c-3.04,0.96-12.48,17.21-12.48,17.21l-3.09-12.05c0,0,7.85-12.65,8.47-14.41
								c0.62-1.76,1.66-3.22-0.3-3.39s-16.71,14.13-16.71,14.13l1.19,13.2c0,0-0.29,1.05-2.42-0.81c-2.12-1.86-1.59-17.6-1.59-17.6
								s5.02-9.33,4.9-10.68c-0.12-1.35,0.92-2.81-0.07-5.11c-0.99-2.3-3.88,0.35-3.88,0.35l-9.79,12.83l-3.49-12.69
								c0,0,0.15-2.71-3.37-2.73l1.36,41.17l8.92,31.68L245.13,175.12z"/>
						</g>
					</g>
				</g>
				<g>
					<g>
						<g>
							<g>
								<path class="st11" d="M247.39,260.87c0,0-0.07-0.53-0.14-1.55c-0.06-1.09-0.14-2.6-0.24-4.53
									c-0.18-4.04-0.44-9.87-0.77-17.28c-0.6-15-1.45-36.39-2.47-62.29l-0.01-0.25l0.21-0.18c1.99-1.71,3.7-4.05,4.71-6.66
									c1.07-2.64,1.17-5.54,0.99-8.57c-0.31-6.03-1.06-12.3-1.9-18.71l-0.02-0.17l0.07-0.16c1.59-3.39,3.19-6.88,4.74-10.47
									c0.77-1.79,1.54-3.61,2.24-5.45c0.35-0.92,0.69-1.86,0.96-2.78l0.17-0.69c0.03-0.21,0.05-0.35,0.06-0.57
									c-0.04-0.47-0.12-0.99-0.24-1.24c0.09-0.29-1.25,0.01-2.11,0.31c-0.56,0.17-0.78,0.28-1.15,0.59c-0.36,0.29-0.7,0.63-1.04,1
									c-1.34,1.47-2.54,3.16-3.72,4.85c-2.34,3.41-4.56,7-6.71,10.65l-0.77,1.3l-0.37-1.46c-0.98-3.82-2.03-7.92-3.09-12.05
									l-0.07-0.26l0.14-0.23c1.26-2.06,2.62-4.28,3.98-6.51c1.52-2.57,3.18-5.2,4.41-7.72c0.25-0.71,0.6-1.44,0.77-2.03
									c0.09-0.33,0.04-0.47,0.03-0.44c0-0.03-0.39-0.17-0.59-0.11c-0.08,0.02-0.43,0.18-0.71,0.36c-0.29,0.16-0.59,0.39-0.88,0.59
									c-0.58,0.42-1.16,0.86-1.73,1.32c-4.52,3.71-8.75,7.72-12.87,11.65l0.18-0.5c0.4,4.47,0.79,8.87,1.18,13.2l0.01,0.12
									l-0.03,0.1c-0.21,0.63-0.82,0.77-1.17,0.73c-0.37-0.03-0.61-0.16-0.86-0.27c-0.46-0.24-0.84-0.53-1.2-0.83
									c-0.89-0.79-1.04-1.84-1.27-2.69c-0.37-1.78-0.49-3.53-0.59-5.27c-0.18-3.48-0.18-6.89-0.08-10.26l0-0.13l0.07-0.13
									c1.71-3.28,3.52-6.57,4.72-9.82c0.06-0.19,0.11-0.41,0.12-0.49c0.02-0.15-0.01-0.51,0.02-0.73c0.05-0.5,0.16-0.95,0.24-1.37
									c0.16-0.83,0.16-1.61-0.08-2.37c-0.27-0.86-0.53-1.22-1.2-1.1c-0.66,0.12-1.41,0.62-1.98,1.11l0.07-0.07
									c-3.41,4.45-6.67,8.71-9.81,12.81l-0.64,0.83l-0.27-1.01c-1.2-4.39-2.35-8.63-3.46-12.7l-0.02-0.06l0-0.09
									c0-0.66-0.35-1.36-0.89-1.71c-0.55-0.38-1.27-0.51-2-0.52l0.47-0.49c0.49,16.75,0.89,30.64,1.19,41.18l-0.01-0.07
									c1.95,7.57,3.46,13.42,4.5,17.45c0.48,1.94,0.86,3.44,1.12,4.51c0.24,1.02,0.33,1.54,0.33,1.54s-0.19-0.5-0.48-1.5
									c-0.3-1.07-0.73-2.55-1.27-4.47c-1.1-4.01-2.71-9.85-4.78-17.38l-0.01-0.03l0-0.04c-0.39-10.53-0.91-24.42-1.53-41.17
									l-0.02-0.49l0.49,0c0.83,0.01,1.73,0.14,2.53,0.67c0.8,0.55,1.33,1.48,1.32,2.55l-0.02-0.15c1.13,4.07,2.3,8.29,3.52,12.68
									l-0.91-0.18c3.13-4.11,6.37-8.38,9.76-12.85l0.04-0.05l0.03-0.03c0.73-0.61,1.47-1.16,2.54-1.4c0.52-0.11,1.25,0,1.7,0.46
									c0.46,0.45,0.6,0.96,0.76,1.4c0.31,0.93,0.3,1.98,0.12,2.9c-0.08,0.46-0.18,0.89-0.22,1.28c-0.03,0.22-0.01,0.31-0.02,0.61
									c-0.01,0.37-0.1,0.59-0.16,0.83c-1.29,3.52-3.05,6.69-4.78,10.04l0.07-0.26c-0.09,3.33-0.09,6.74,0.1,10.16
									c0.11,1.7,0.23,3.44,0.58,5.09c0.2,0.81,0.4,1.62,0.87,2.02c0.32,0.27,0.65,0.51,0.97,0.68c0.15,0.07,0.32,0.14,0.4,0.14
									l0.03,0c0,0.02,0.03,0.11,0.04,0.13l0.02,0.03l0.01,0.01l0.04,0.02l0.07,0.03l0.02,0.01c0.29,0.11-0.37-0.14-0.31-0.11
									l-0.01,0.03l-0.02,0.22c-0.39-4.34-0.79-8.74-1.2-13.2l-0.03-0.29l0.21-0.2c4.14-3.96,8.35-7.97,12.94-11.74
									c0.58-0.47,1.17-0.93,1.79-1.37c0.32-0.21,0.61-0.44,0.97-0.64c0.37-0.19,0.64-0.43,1.31-0.53
									c0.51-0.02,0.92,0.02,1.49,0.46c0.56,0.56,0.41,1.3,0.31,1.66c-0.25,0.84-0.56,1.45-0.81,2.15
									c-1.38,2.86-2.96,5.3-4.51,7.93c-1.37,2.23-2.73,4.46-3.99,6.52l0.07-0.48c1.06,4.13,2.11,8.23,3.08,12.05l-1.14-0.16
									c2.17-3.68,4.4-7.27,6.77-10.73c1.2-1.72,2.41-3.42,3.83-4.98c0.35-0.39,0.73-0.78,1.18-1.13c0.39-0.36,1.13-0.7,1.55-0.79
									c0.5-0.15,0.99-0.3,1.54-0.41c0.27-0.05,0.59-0.09,0.96-0.04c0.39,0.03,0.87,0.38,1.03,0.73c0.31,0.67,0.32,1.18,0.38,1.71
									c0.01,0.28-0.03,0.65-0.07,0.93l-0.2,0.78c-0.29,1-0.64,1.95-1,2.89c-0.72,1.87-1.5,3.7-2.28,5.5
									c-1.57,3.6-3.17,7.09-4.78,10.49l0.05-0.33c0.83,6.44,1.56,12.71,1.85,18.82c0.18,3.01,0.06,6.21-1.09,9.01
									c-1.12,2.81-2.86,5.21-5.08,7.1l0.2-0.43c0.85,25.9,1.54,47.31,2.03,62.31c0.21,7.42,0.37,13.25,0.48,17.29
									c0.04,1.94,0.07,3.45,0.09,4.54C247.43,260.34,247.39,260.87,247.39,260.87z"/>
							</g>
						</g>
					</g>
				</g>
				<g>
					<g>
						<g>
							<g>
								<path class="st11" d="M219.01,135.21c-0.34,0.04-1.02-5-1.51-11.26c-0.49-6.26-0.61-11.34-0.27-11.35
									c0.34-0.02,1.02,5.02,1.51,11.26C219.24,130.09,219.36,135.17,219.01,135.21z"/>
							</g>
						</g>
					</g>
				</g>
			</g>
		</g>
	</g>
</g>
<g id="Layer_9">
</g>
<g id="Layer_10">
</g>
</svg>
