<?xml version="1.0" encoding="utf-8"?>
<!-- Generator: Adobe Illustrator 24.0.0, SVG Export Plug-In . SVG Version: 6.00 Build 0)  -->
<svg version="1.1" id="Capa_1" xmlns="http://www.w3.org/2000/svg" xmlns:xlink="http://www.w3.org/1999/xlink" x="0px" y="0px"
	 viewBox="0 0 881 768" style="enable-background:new 0 0 881 768;" xml:space="preserve">
<style type="text/css">
	.st0{fill:#CD7151;}
	.st1{fill:#AE4F32;}
	.st2{fill:#1A2E35;}
	.st3{fill:#375A64;}
	.st4{fill:#6993F6;}
	.st5{opacity:0.3;}
	.st6{clip-path:url(#SVGID_2_);}
	.st7{fill:#FAFAFA;}
</style>
<g>
	<path class="st0" d="M118.5,354.8c0,0-26.1-15.6-32-11c-8.5,6.6-11.3,17.8-11.3,17.8s-13.8-51.8-26.9-49.8
		c-7.5,1.1-3.8,6.9-0.5,14.2c3.1,6.8,8.5,31.5,8.5,31.5S31.4,328.3,24,328.8c-5.7,0.4-6.5,5.3,1.7,13.2c8.1,7.9,21.7,32.7,21.7,32.7
		s-17.5-16-24.7-16.1c-5.8-0.1-9.5,3.9-2,10.2c7.4,6.4,18.7,11.2,24.7,22.7c7.4,14.2,23.2,49.6,23.2,49.6l55.3-19.3
		c0,0,9-36.2,9.4-44.9c0,0-0.8-18.6-0.6-21.9c0.1-3.3-8.8-4.2-11.5,2.2c-2.7,6.3-1.5,13-2.6,17.2c-1.1,4.2-3,8.1-6.2,10
		c-3.1,1.9-11.1,2-13.1-0.3c-2-2.3-4.5-9.1-5-13.3s0.2-10.8,0.2-10.8S117.3,369.3,118.5,354.8"/>
	<path class="st0" d="M739.7,523.4l38.4-14.2c0,0,39.1-22.6,46.4-14.6c0,0,7.7-3.6,11.2,4.5c2,4.7-4.6,11.6-4.6,11.6s2,2-1.2,9
		c-3.2,6.9-40.4,28.7-40.4,28.7s-48.3,25.9-67.8,38.4L688,541.7l4.7-1.7c0,0,2.8-22.5,12.1-28.5c10.2-6.5,22.4-24.2,25.1-31.1
		c2.7-6.9,15.7-3.7,13.5,10.6c-2.2,14.4-13.5,18.1-12.4,27.7C732.1,528.2,739.7,523.4,739.7,523.4"/>
	<path class="st1" d="M798.6,528.7c0.2,0.3,7.6-3.6,16.7-8.6c9.1-5,16.3-9.3,16.2-9.6c-0.2-0.3-7.6,3.6-16.7,8.6
		C805.7,524.1,798.4,528.4,798.6,528.7"/>
	<path class="st1" d="M779.8,518c0.1,0.1,2.7-0.9,6.9-2.7c4.2-1.8,10-4.4,16.2-7.5c6.2-3.1,11.7-6.3,15.6-8.8
		c1.9-1.3,3.4-2.3,4.5-3.1c1-0.8,1.6-1.2,1.5-1.3c-0.1-0.1-2.5,1.4-6.4,3.7c-3.9,2.3-9.5,5.3-15.7,8.4c-6.2,3.1-11.9,5.8-16,7.8
		C782.3,516.6,779.8,517.9,779.8,518"/>
	<path class="st1" d="M771.7,538.9c0,0.1,1.3-0.6,3.4-1.8c2.3-1.4,5.4-3.2,9.1-5.3l0.1-0.1l0.1-0.1c1.7-3.6,3.8-7.9,6.5-12.3
		c1.4-2.2,2.9-4.5,4.9-6.4c2-1.8,5.2-2.1,7.6-0.6c0.5,0.3,1.1,0.9,1.2,1.1c-0.1,0.1-0.1,0.1-0.1,0.3l-0.2,0.5
		c-0.1,0.3-0.2,0.6-0.3,0.9c-0.5,1.3-1,2.5-1.5,3.7c-1,2.4-2,4.8-2.9,7.1c-1.9,4.5-3.7,8.6-5.2,12.2l0.1-0.1
		c-3.2,3.6-5.8,6.7-7.7,8.9c-0.8,1-1.5,1.8-2.1,2.5c-0.5,0.6-0.7,0.9-0.7,0.9c0,0,0.3-0.2,0.8-0.8c0.6-0.6,1.3-1.4,2.2-2.3
		c2-2.2,4.7-5.1,8-8.7l0,0l0-0.1c1.6-3.5,3.4-7.6,5.4-12.1c1-2.3,2-4.6,3-7.1c0.5-1.2,1-2.5,1.5-3.8c0.1-0.3,0.2-0.6,0.4-1l0.2-0.5
		c0.1-0.2,0.1-0.5,0.1-0.8c-0.2-0.7-0.5-0.8-0.8-1.1c-0.3-0.3-0.6-0.5-0.9-0.7c-1.4-0.9-3-1.3-4.6-1.2c-1.6,0.1-3.1,0.9-4.3,1.8
		c-2.2,2.1-3.7,4.4-5.1,6.7c-2.7,4.5-4.8,8.8-6.4,12.5l0.2-0.2c-3.6,2.3-6.6,4.2-8.9,5.6C772.8,538.1,771.7,538.8,771.7,538.9"/>
	<path class="st1" d="M733.2,539.3c0.1,0.2,1.8-0.3,4.7-1.1c2.9-0.8,6.9-1.9,11.4-2c4.5-0.1,8.5,1.1,10.9,2.6c2.5,1.5,3.6,3,3.8,2.9
		c0.1,0-0.8-1.8-3.4-3.5c-2.5-1.8-6.7-3.2-11.4-3.1c-4.7,0.1-8.7,1.4-11.6,2.3C734.9,538.4,733.2,539.1,733.2,539.3"/>
	<path class="st1" d="M736.1,529.3c-0.3,0.2,0.7,1.8,1.6,3.9c0.9,2.1,1.5,3.9,1.8,3.8c0.3,0,0.2-2.1-0.8-4.3
		C737.8,530.5,736.3,529.1,736.1,529.3"/>
	<path class="st2" d="M514.7,349.2c-2.7-17.8-23.7-43.4-42.4-43.5c10.7-15.3,10.9-36.8,0.4-52.2c-7.2-10.6-18.8-18.4-23.7-30.2
		c-5.6-13.3-1.3-28.4-1.8-42.7c-0.8-21-11.9-40.2-22.7-58.5c-9.9-16.7-22-35-41.4-39.1c-12.3-2.6-25.1,1.2-36.7,6.1
		C291,112.4,248,161.3,233.2,217.8c-3.5,13.5-5.9,28.2-15.5,38.6c-10.1,11.1-27.9,17.1-30.9,31.6c-2.2,10.4,4.6,20.8,3.6,31.4
		c-0.8,8.8-17.6,34.6-21.5,42.7c-6.7,13.9-4.3,28.9,2.5,42.7c6.8,13.8,24.1,27.3,39.4,31l171.5-56.3c16.1,9.1,32.2,44.1,50.7,46.2
		c18.5,2.2,41.1,10.1,59-9.1C510.7,396.4,517.3,367.1,514.7,349.2"/>
	<path class="st2" d="M230.3,181.1c1.9,14.1-2,37.5-9.9,49.6c-5.3,8.1-14,13.4-22.7,18c-8.7,4.6-17.7,9.1-24.3,16.3
		c-6.6,7.2-10.1,17.9-5.7,26.5c-15.5,5.7-22.4,25.1-16.7,40.1c5.7,15,21.2,25.1,37.4,28.1l70.7-21l15.5-89l-40.8-68.6"/>
	<path class="st3" d="M221.6,271.8c0,0-0.5,0.2-1.4,0.6c-0.9,0.5-2.3,1-3.9,2c-3.3,1.9-7.8,5.1-12.4,10.2c-2.3,2.5-4.5,5.6-6.6,9
		c-1.9,3.5-3.9,7.4-5.1,11.9c-2.8,8.7-3.4,19.3-0.2,29.7l0.3-0.6c-4.1,2.2-8,5.2-11.5,8.6c-9,8.8-14.2,20.3-15.4,31
		c-1.2,10.8,1.4,20.6,5.1,27.9c3.7,7.3,8.2,12.3,11.6,15.4c1.7,1.5,3.1,2.6,4.1,3.3c1,0.7,1.5,1,1.5,1c0,0-0.5-0.4-1.4-1.2
		c-1-0.7-2.3-1.9-4-3.4c-3.3-3.1-7.7-8.2-11.2-15.4c-3.5-7.2-6-16.9-4.8-27.4c1.3-10.5,6.3-21.7,15.2-30.4c3.4-3.4,7.3-6.3,11.3-8.4
		l0.4-0.2l-0.1-0.4c-3.1-10.1-2.6-20.5,0.1-29.1c1.2-4.4,3.1-8.2,5-11.7c2-3.4,4.1-6.5,6.4-9c4.5-5.1,8.9-8.4,12.1-10.3
		c1.6-1,2.9-1.6,3.7-2.1C221.2,272.1,221.6,271.8,221.6,271.8"/>
	<path class="st4" d="M430.9,364c0,0,31.6,9.5,42.7,25.4c7.8,11.2,88.1,182.5,88.1,182.5l121.8-36.1l43.6,56.7l-135.5,74.1
		c-25.1,13.7-55.7,13.6-80.7-0.4c-13.9-7.7-25.2-19.3-32.5-33.2l-34.5-65.1L430.9,364z"/>
	<path class="st4" d="M463.2,768l-0.3-104.5l-4.3-65.9c9.3-30.2,17.2-79.4,7.1-119.1l-33.7-114l-37-16.8l-84.8-14.4
		c-3.3,1.1-88.6,24.8-88.6,24.8c-11.8,2.7-16.6,4.6-16.6,4.6l-9.8,62.4L224.7,528l4.8,104.5L209.3,768H463.2z"/>
	<path class="st0" d="M414.2,356.4l-24.6-10.8l-110.8,1.5l-26.2,15c0,0,91.5,99.6,114.5,102.9C424.9,473.2,414.2,356.4,414.2,356.4"
		/>
	<path class="st4" d="M207.5,361.9c0,0-16.6,3.7-30.8,33.6c-14.2,29.9-37.2,113.2-37.2,113.2l-9.8-88.2l-80.1,8.7L65,639.9
		c0,0,28.3,40.5,75.8,36.8c47.4-3.7,107.6-151.5,107.6-151.5L207.5,361.9z"/>
	<path class="st2" d="M151.9,616.4c0,0,0-0.2,0-0.5c0-0.4,0-0.9-0.1-1.5c-0.1-1.4-0.2-3.3-0.3-5.7c-0.3-5-0.9-12.2-1.7-21.1
		c-1.7-17.8-4.7-42.3-8.5-69.2c-3.7-27-6.9-51.4-8.8-69.2c-0.9-8.9-1.7-16.1-2.1-21c-0.2-2.4-0.4-4.3-0.6-5.7
		c-0.1-0.6-0.1-1.1-0.2-1.5c0-0.3-0.1-0.5-0.1-0.5c0,0,0,0.2,0,0.5c0,0.4,0,0.9,0.1,1.5c0.1,1.4,0.2,3.3,0.4,5.7
		c0.3,5,0.9,12.2,1.7,21.1c1.7,17.8,4.7,42.3,8.5,69.2c3.7,27,6.9,51.4,8.8,69.2c0.9,8.9,1.7,16.1,2.1,21c0.2,2.4,0.4,4.3,0.6,5.7
		c0.1,0.6,0.1,1.1,0.2,1.5C151.9,616.2,151.9,616.4,151.9,616.4"/>
	<path class="st2" d="M560.3,617.4c0.1,0,0.4-0.5,0.9-1.6c0.5-1,1.2-2.6,1.9-4.5c1.4-3.9,2.9-9.5,3.5-15.8
		c0.6-6.3,0.3-12.1-0.4-16.2c-0.3-2-0.6-3.7-0.9-4.8c-0.3-1.1-0.5-1.7-0.6-1.7c-0.2,0,0.3,2.5,0.7,6.6c0.4,4.1,0.6,9.7,0,16
		c-0.6,6.2-1.9,11.7-3.1,15.7C561.1,614.9,560.1,617.3,560.3,617.4"/>
	<path class="st2" d="M546.8,619.3c0.1,0,0.6-0.5,1.4-1.6c0.9-1,2-2.6,3.3-4.7c2.7-4.1,5.9-10,8.3-17c2.5-7,3.7-13.6,4.2-18.4
		c0.2-2.4,0.3-4.4,0.3-5.7c0-1.3,0-2.1-0.1-2.1c-0.2,0-0.3,3-1,7.7c-0.7,4.7-2,11.2-4.4,18.2c-2.4,6.9-5.5,12.8-8,16.9
		C548.4,616.8,546.6,619.2,546.8,619.3"/>
	<path class="st2" d="M452,430.9c0,0,0.1,0.6,0.4,1.7c0.3,1.2,0.8,2.8,1.4,4.8c1.2,4.3,3,10.4,5.1,17.8c4.2,15,10,35.9,12.7,59.5
		c1.4,11.8,1.7,23.2,0.5,33.4c-1.1,10.2-3.4,19.3-5.6,26.7c-2.3,7.5-4.4,13.4-5.9,17.5c-0.7,2-1.3,3.6-1.7,4.7
		c-0.4,1.1-0.6,1.7-0.5,1.7c0,0,0.3-0.5,0.7-1.6c0.5-1.2,1.1-2.7,1.9-4.7c1.6-4.1,3.9-10,6.2-17.4c2.4-7.4,4.7-16.5,5.9-26.8
		c1.3-10.3,1-21.8-0.4-33.6c-2.8-23.7-8.7-44.6-13.1-59.6c-2.2-7.5-4.1-13.5-5.5-17.7c-0.7-2-1.2-3.6-1.6-4.8
		C452.2,431.5,452,430.9,452,430.9"/>
	<path class="st2" d="M228,569.9c0,0,0.1-0.2,0.3-0.5c0.2-0.4,0.4-0.9,0.8-1.6c0.7-1.5,1.6-3.5,2.8-6.1c1.2-2.6,2.7-5.9,4.3-9.6
		c1.6-3.8,3.3-8.2,5.3-13c1.9-4.8,3.7-10.2,5.8-15.9c0.9-2.9,1.9-5.9,2.8-9c0.5-1.6,1-3.1,1.5-4.7c0.5-1.6,0.9-3.2,1.3-4.9
		c3.6-13.2,6.7-28.1,7.6-43.9c1-15.8-0.5-31-4.6-44.2c-3.8-13.2-10.6-24.1-17.7-31.7c-7.2-7.7-14.6-12.1-20-14.5
		c-2.7-1.2-4.8-1.9-6.3-2.3c-0.7-0.2-1.3-0.3-1.7-0.5c-0.4-0.1-0.6-0.1-0.6-0.1c0,0,0.2,0.1,0.6,0.2c0.4,0.1,1,0.3,1.7,0.6
		c1.5,0.4,3.6,1.3,6.2,2.5c5.3,2.5,12.6,6.9,19.6,14.6c7,7.6,13.6,18.3,17.3,31.5c4,13,5.5,28.2,4.5,43.8
		c-0.9,15.7-3.9,30.5-7.5,43.7c-0.4,1.7-0.9,3.3-1.3,4.9c-0.5,1.6-1,3.2-1.4,4.7c-1,3.1-1.9,6.1-2.8,9c-2,5.7-3.8,11.1-5.7,15.9
		c-1.9,4.8-3.6,9.2-5.1,13c-1.6,3.8-3,7-4.1,9.7c-1.1,2.6-2,4.7-2.6,6.1c-0.3,0.7-0.5,1.2-0.6,1.6C228,569.7,227.9,569.8,228,569.9"
		/>
	<g class="st5">
		<g>
			<defs>
				<rect id="SVGID_1_" x="229.5" y="474.3" width="36.2" height="158.2"/>
			</defs>
			<clipPath id="SVGID_2_">
				<use xlink:href="#SVGID_1_"  style="overflow:visible;"/>
			</clipPath>
			<path class="st6" d="M258.5,474.3c10.5,48.8,10.6,99.1-7.4,145.7c-1,2.7-5.2,12.3-8.1,12.5c-3.7,0.2-5.5-4.4-6.1-8
				c-1.3-7.4-2.1-19.7-3.5-27.1c-1.7-9.3-3.9-30.8-3.9-30.8s8.7-19.5,12.5-30c7.1-19.4,13-38,16.3-60.7"/>
		</g>
	</g>
	<path class="st2" d="M267,663.5c0,0,0.3,0.5,0.8,1.3c0.7,0.9,1.5,2.1,2.6,3.5c0.6,0.8,1.2,1.6,1.9,2.5c0.7,0.9,1.6,1.8,2.5,2.9
		c1.8,2,3.7,4.4,6.3,6.7c1.2,1.2,2.5,2.4,3.9,3.7c1.4,1.3,2.9,2.5,4.4,3.8c3,2.7,6.6,5.1,10.3,7.7c7.6,4.9,16.4,9.7,26.1,13.5
		c9.8,3.7,19.6,6.1,28.5,7.5c4.5,0.5,8.8,1.1,12.8,1.2c2,0.1,4,0.2,5.8,0.2c1.9-0.1,3.7-0.1,5.4-0.2c3.4,0,6.5-0.5,9.2-0.8
		c1.4-0.2,2.6-0.3,3.8-0.5c1.1-0.2,2.2-0.4,3.1-0.6c1.8-0.4,3.2-0.7,4.3-0.9c1-0.2,1.5-0.3,1.5-0.4c0,0-0.5,0-1.5,0.2
		c-1.1,0.2-2.5,0.4-4.3,0.7c-1,0.2-2,0.3-3.1,0.5c-1.2,0.2-2.4,0.2-3.8,0.4c-2.7,0.2-5.8,0.7-9.2,0.6c-1.7,0-3.5,0.1-5.4,0.1
		c-1.9,0-3.8-0.2-5.8-0.3c-4-0.1-8.3-0.7-12.7-1.3c-8.9-1.5-18.5-3.8-28.3-7.5c-9.7-3.8-18.4-8.5-25.9-13.3
		c-3.7-2.6-7.2-4.9-10.3-7.5c-1.5-1.3-3.1-2.4-4.4-3.7c-1.3-1.3-2.6-2.5-3.9-3.6c-2.6-2.2-4.5-4.6-6.4-6.6c-0.9-1-1.8-1.9-2.5-2.8
		c-0.7-0.9-1.4-1.7-2-2.5c-1.1-1.4-2-2.5-2.7-3.4C267.4,663.9,267.1,663.5,267,663.5"/>
	<path class="st2" d="M284.5,631.2c-0.1,0,0,0.8,0.3,2.3c0.2,1.5,0.7,3.6,1.5,6.2c1.5,5.2,4.4,12.1,8.9,19c4.5,6.9,9.8,12.3,14,15.8
		c2.1,1.7,3.8,3.1,5.1,3.9c1.3,0.8,2,1.3,2,1.2c0.1-0.2-2.6-2.1-6.6-5.7c-4-3.6-9.1-9-13.6-15.8c-4.5-6.8-7.4-13.6-9.1-18.6
		C285.4,634.4,284.7,631.2,284.5,631.2"/>
	<path class="st4" d="M323.5,69.5c-30,0.2-59.3,16.9-74.5,42.4c-15.2,25.5-15.7,58.9-1.2,84.8c4.9,8.8,12,17.2,21.7,20.3
		c-3.3-50.7,17.2-102.4,54.4-137.4"/>
	<path class="st4" d="M288.4,77.2c4.5-9.1-0.3-20.5-8.3-27c-7.9-6.4-18.3-9-28.3-11.4c-10-2.4-20.3-4.8-28.5-11
		c1.2,15.9,5.2,32.2,15.6,44.3c10.4,12.2,28.5,18.9,43.3,12.7"/>
	<path class="st4" d="M278.1,87.6c6.8,2.8,15,1.1,21.1-3.1c6.1-4.1,10.5-10.3,14.1-16.7c4.4-7.9,7.9-16.4,9.1-25.3
		c1.2-8.9-0.1-18.3-4.5-26.1c-11.8,12.4-24.7,22.7-31.4,38.3c-4,9.2-3.5,23.8,0.8,32.9"/>
	<path class="st2" d="M244.8,139c-0.1,0-0.3,1-0.6,2.9c-0.2,1-0.3,2.1-0.4,3.5c-0.1,1.4-0.3,2.9-0.3,4.7c-0.2,3.5-0.1,7.6,0.2,12.2
		c0.4,4.6,1.2,9.6,2.4,14.7c1.3,5.1,2.9,9.9,4.6,14.2c1.8,4.2,3.6,7.9,5.4,10.9c0.8,1.5,1.7,2.8,2.4,4c0.7,1.2,1.4,2.1,2,2.9
		c1.1,1.6,1.8,2.4,1.9,2.4c0.1,0-0.5-1-1.5-2.6c-0.5-0.8-1.2-1.8-1.8-3c-0.7-1.2-1.5-2.5-2.3-4.1c-1.6-3-3.4-6.7-5.1-10.9
		c-1.6-4.2-3.2-9-4.5-14.1c-1.2-5.1-2-10-2.4-14.5c-0.4-4.5-0.5-8.6-0.5-12c0-1.7,0.1-3.3,0.2-4.6c0-1.4,0.2-2.5,0.2-3.5
		C244.8,140.1,244.9,139,244.8,139"/>
	<path class="st2" d="M251.5,82.2c0,0.1,0.8,0.7,2.4,1.9c1.7,0.9,4.3,2.3,7.8,3c6.9,1.6,16.9,1.2,27.4-1.5l0.3-0.1l0.1-0.3
		c0.1-0.6,0.3-1.3,0.5-2c1.1-5.5,1.4-10.9,0.7-15.8c-0.6-4.8-2.3-9.1-4.5-12.1c-2.1-3.1-4.7-4.8-6.4-6c-1.8-1-2.9-1.5-2.9-1.4
		c0,0.1,0.9,0.7,2.6,1.8c1.6,1.3,4,3,6,6.1c2,3,3.6,7.1,4.1,11.8c0.6,4.7,0.3,10-0.8,15.4c-0.1,0.7-0.3,1.3-0.4,2l0.4-0.4
		c-10.3,2.7-20.2,3.2-27,1.9c-3.4-0.6-6-1.8-7.7-2.6C252.5,82.7,251.6,82.1,251.5,82.2"/>
	<path class="st2" d="M242.7,54.8c0,0.2,3.1,0.6,8.1,2.1c2.5,0.7,5.3,1.7,8.4,3.1c3.1,1.4,6.4,3.1,9.7,5.2c3.3,2.1,6.2,4.4,8.7,6.7
		c2.5,2.3,4.6,4.5,6.2,6.4c3.3,3.9,5,6.6,5.2,6.5c0.1,0-0.3-0.7-1-2c-0.7-1.2-1.9-3-3.5-5c-1.6-2-3.7-4.3-6.2-6.7
		c-2.5-2.3-5.5-4.7-8.8-6.8c-3.3-2.1-6.7-3.9-9.9-5.2c-3.2-1.3-6.1-2.3-8.6-2.9c-2.5-0.6-4.6-1-6-1.2
		C243.5,54.7,242.7,54.7,242.7,54.8"/>
	<path class="st2" d="M278.6,87.4c0,0,0,0.2,0.1,0.6c0.1,0.4,0.3,1,0.6,1.8c0.6,1.5,1.9,3.5,4.3,5.3c2.3,1.7,5.7,3.3,9.7,3.1
		c4-0.1,8.1-2.5,10.6-6.2c2.6-3.7,3.3-8.3,2-12c-1.2-3.7-3.9-6.3-6.4-7.8c-2.5-1.5-4.9-2-6.5-2c-0.8,0-1.4,0-1.9,0.1
		c-0.4,0.1-0.6,0.1-0.6,0.2c0,0.1,0.9,0,2.5,0.2c1.6,0.2,3.8,0.7,6.2,2.2c2.3,1.5,4.7,4,5.8,7.4c1.1,3.4,0.4,7.6-1.9,11.1
		c-2.4,3.4-6.1,5.6-9.8,5.8c-3.6,0.2-6.9-1.1-9.1-2.7c-2.3-1.6-3.6-3.5-4.3-4.9C278.9,88.2,278.7,87.4,278.6,87.4"/>
	<path class="st2" d="M304.6,87.9c0.1,0.1,0.7-1.2-0.3-2.8c-0.5-0.8-1.4-1.6-2.6-2c-1.2-0.4-2.5-0.5-3.8-0.4
		c-5.4,0.4-9.3,2.4-9.1,2.7c0.1,0.3,4.1-1.2,9.2-1.6c2.5-0.3,4.7,0.4,5.7,1.7C304.7,86.8,304.5,87.9,304.6,87.9"/>
	<path class="st2" d="M317.8,16.5c-0.2,0.1,2.4,3.1,3.3,9.1c0.5,2.9,0.6,6.5,0.5,10.5c0,4-0.2,8.4-1.1,12.8
		c-2,8.9-5.7,16.6-9.2,21.4c-1.7,2.5-3.3,4.4-4.4,5.7c-1.1,1.3-1.8,1.9-1.7,2c0.1,0.2,3.1-2.3,6.7-7.2c3.7-4.9,7.5-12.6,9.6-21.7
		c0.9-4.6,1.1-9,1.1-13c0-4-0.1-7.6-0.8-10.7c-0.6-3-1.6-5.3-2.5-6.8C318.6,17.1,317.9,16.4,317.8,16.5"/>
	<path class="st2" d="M306.7,41.6c-0.1-0.1-1.3,1.3-3,3.6c-1.7,2.4-3.8,5.8-5.7,9.8c-1.9,4-3.1,7.9-3.8,10.7
		c-0.7,2.8-0.9,4.6-0.7,4.6c0.3,0.1,1.8-6.9,5.5-14.9C302.7,47.6,307,41.8,306.7,41.6"/>
	<path class="st2" d="M310.3,54.8c-0.2-0.2-3.8,3.4-8.6,7.6c-4.7,4.2-8.5,7.7-8.3,8c0.2,0.2,4.3-2.9,9-7.1
		C307.3,59,310.6,55,310.3,54.8"/>
	<path class="st7" d="M254.1,104.5c0,0,0.1,0.1,0.3,0.3c0.3,0.3,0.6,0.5,0.9,0.8c0.8,0.7,2.1,1.6,3.7,2.7c3.2,2.1,7.9,4.7,13.5,6.5
		c5.6,1.8,11,2.5,14.8,2.7c1.9,0.1,3.5,0.1,4.6,0c0.4,0,0.8-0.1,1.2-0.1c0.3,0,0.4,0,0.4-0.1c0,0-0.2,0-0.4,0c-0.4,0-0.8,0-1.2,0
		c-1.1,0-2.6,0-4.5-0.1c-3.8-0.2-9.1-1-14.7-2.8c-5.6-1.8-10.3-4.3-13.5-6.3c-1.6-1-2.9-1.9-3.7-2.6c-0.4-0.3-0.7-0.5-1-0.7
		C254.2,104.6,254.1,104.5,254.1,104.5"/>
	<path class="st7" d="M241.4,130.1c0,0,0.1,0.1,0.3,0.3c0.3,0.2,0.6,0.5,1,0.8c0.8,0.7,2.1,1.6,3.7,2.7c3.2,2.1,7.9,4.7,13.5,6.7
		c5.6,2,10.9,2.9,14.7,3.3c1.9,0.2,3.5,0.3,4.6,0.3c0.4,0,0.8,0,1.2,0c0.3,0,0.4,0,0.4,0c0,0-0.2,0-0.4-0.1c-0.4,0-0.8-0.1-1.2-0.1
		c-1.1,0-2.6-0.2-4.5-0.4c-3.8-0.4-9.1-1.4-14.6-3.4c-5.5-2-10.2-4.5-13.4-6.6c-1.6-1-2.9-1.9-3.8-2.5c-0.4-0.3-0.7-0.5-1-0.7
		C241.6,130.2,241.5,130.1,241.4,130.1"/>
	<path class="st7" d="M245,167.5c0,0,0.3,0.3,0.9,0.7c0.6,0.4,1.5,0.9,2.6,1.6c2.3,1.2,5.6,2.7,9.5,3.7c3.9,1,7.5,1.3,10.1,1.4
		c1.3,0,2.4,0,3.1-0.1c0.7-0.1,1.1-0.1,1.1-0.1c0,0-0.4,0-1.1,0c-0.7,0-1.8,0-3.1-0.1c-2.6-0.1-6.1-0.5-10-1.5
		c-3.8-1-7.1-2.4-9.4-3.5c-1.2-0.6-2.1-1.1-2.7-1.4C245.3,167.7,245,167.5,245,167.5"/>
	<path class="st7" d="M237.7,161.8c0,0.1,1.3,0.5,2.9,0.8c1.6,0.3,3,0.5,3,0.3c0-0.1-1.3-0.5-2.9-0.8
		C239,161.9,237.7,161.7,237.7,161.8"/>
	<path class="st7" d="M259,205.8c0,0.1,2.2,0.4,4.9,0.2c2.7-0.2,4.8-0.8,4.8-0.9c0-0.1-2.2,0.3-4.8,0.5
		C261.2,205.8,259,205.7,259,205.8"/>
	<path class="st7" d="M299.8,95c-0.1,0.1,1.2,0.9,2.9,1.8c1.6,0.9,3,1.5,3.1,1.4c0.1-0.1-1.2-0.9-2.9-1.8
		C301.2,95.5,299.8,94.9,299.8,95"/>
	<path class="st7" d="M310.5,72.8c-0.1,0.1,3.1,1.1,6.3,3.4c3.3,2.3,5.2,4.9,5.3,4.8c0,0-0.4-0.7-1.2-1.7c-0.8-1-2.2-2.3-3.8-3.4
		c-1.7-1.2-3.3-2-4.5-2.4C311.3,72.9,310.5,72.7,310.5,72.8"/>
	<path class="st7" d="M291.1,97.4c0.1,0-0.6-2.9-0.1-6.4c0.4-3.5,1.9-6.1,1.8-6.2c0,0-0.5,0.6-1,1.7c-0.5,1.1-1,2.7-1.3,4.5
		c-0.2,1.8-0.1,3.5,0.1,4.6C290.8,96.7,291,97.4,291.1,97.4"/>
	<path class="st7" d="M224.6,28.3c0,0,0.8,1,2.4,2.5c1.6,1.5,4.1,3.5,7.4,5.6c3.3,2.1,7.6,4.2,12.4,6.3c4.8,2.1,10.2,4.2,15.6,6.7
		c5.4,2.6,10.4,5.5,14.3,9c3.9,3.4,6.7,7.2,8.4,10.7c1.7,3.5,2.4,6.6,2.6,8.8c0.2,2.2,0,3.4,0.1,3.4c0,0,0-0.3,0.1-0.9
		c0.1-0.6,0-1.4,0-2.5c-0.1-2.2-0.8-5.4-2.4-8.9c-1.7-3.5-4.5-7.4-8.4-10.9c-3.9-3.5-8.9-6.5-14.3-9.1c-5.5-2.6-10.8-4.6-15.6-6.7
		c-4.8-2.1-9-4.1-12.4-6.2c-3.4-2.1-5.9-4-7.5-5.5c-0.8-0.7-1.4-1.3-1.8-1.7C224.8,28.5,224.6,28.3,224.6,28.3"/>
	<path class="st7" d="M230.4,53.5c0,0,0.1,0.2,0.3,0.5c0.3,0.4,0.6,0.8,0.9,1.3c0.8,1.2,2,2.8,3.6,4.7c3.1,3.9,7.9,8.9,14,13.5
		c6.1,4.6,12.2,8,16.8,10c2.3,1,4.2,1.8,5.5,2.2c0.6,0.2,1.1,0.4,1.5,0.5c0.4,0.1,0.5,0.2,0.5,0.2c0,0-0.2-0.1-0.5-0.2
		c-0.5-0.2-1-0.4-1.5-0.6c-1.3-0.5-3.2-1.3-5.4-2.3c-4.5-2.1-10.6-5.5-16.6-10.1c-6-4.6-10.8-9.6-14-13.4c-1.6-1.9-2.8-3.5-3.7-4.6
		c-0.4-0.5-0.7-0.9-1-1.3C230.5,53.6,230.4,53.4,230.4,53.5"/>
	<path class="st7" d="M320.1,23.7c0,0-2.7,1-6.5,3.4c-3.9,2.4-8.8,6.4-13.2,11.7c-4.3,5.4-7.1,11.1-8.6,15.3c-1.5,4.3-1.9,7-1.9,7
		c0,0,0.1-0.2,0.2-0.5c0.1-0.4,0.2-0.9,0.4-1.4c0.3-1.2,0.8-3,1.6-5c1.5-4.2,4.3-9.8,8.6-15.2c4.3-5.3,9.2-9.3,13-11.8
		c1.9-1.2,3.5-2.1,4.6-2.7c0.5-0.2,0.9-0.5,1.3-0.7C320,23.8,320.1,23.7,320.1,23.7"/>
	<path class="st2" d="M427.9,103.4c-0.8,11.2,6.7,21.3,14.3,29.7c7.6,8.4,16,17.2,17.7,28.3c2.9,19.7-16.7,38.1-12.7,57.6
		c2.2,10.5,10.9,18.9,12.4,29.5c1.5,10.2-4.1,20.3-11,28c-6.9,7.8-14.9,6.7-21,15.1c-6.4,8.9-16.8,18-26.5,23.2
		c-22,11.9-48.4-5.3-59-8.4"/>
	<path class="st2" d="M261.7,149.4c-10.1-4.3-10.9-40.1,14.5-44.3c10.2-1.7,18.7-6.6,27.3-12.3c7.6-5,9.8-17.8,16.3-24.2
		c15.8-15.8,40.4-22.3,62-16.5c21.7,5.8,39.5,23.8,45,45.2c3.7,14.5,1.2,31.6-10.4,41.3c-13.5,11.2-33.4,8.7-50.7,5.2
		c-17.2-3.5-36.8-6.9-51.2,3.1c-8.7,6-13.7,15.8-19,24.9c-5.3,9.1-12,18.3-22,21.7c0,0-7.6,17.7-1.4,30c6.2,12.3-7.3-8.7-7.3-8.7
		S240,171.5,261.7,149.4"/>
	<path class="st0" d="M390.4,400.6c0.1-23.4,0-89,0-88.9c0,0,37.7-6.2,45.4-54.7c3.8-24.1,2.5-63.6,0.4-95.9
		c-1.9-29.1-21.5-64.7-50.9-61.6l-91.7,23.1c-8.9,0.9-15.6,8.5-15.4,17.3l5.6,224.4L390.4,400.6z"/>
	<path class="st2" d="M420.6,188.8c0.1,3.3-2.6,6.1-6.1,6.3c-3.5,0.2-6.4-2.3-6.5-5.6c-0.1-3.3,2.6-6.1,6.1-6.3
		C417.5,183,420.4,185.5,420.6,188.8"/>
	<path class="st2" d="M353.7,192.1c0.1,3.3-2.6,6.1-6.1,6.3c-3.5,0.2-6.4-2.3-6.5-5.6c-0.1-3.3,2.6-6.1,6.1-6.3
		C350.7,186.3,353.6,188.8,353.7,192.1"/>
	<path class="st2" d="M427.5,181.7c-0.8,0.8-5.6-2.7-12.3-2.6c-6.8-0.1-11.7,3.4-12.5,2.6c-0.4-0.4,0.4-1.8,2.6-3.4
		c2.1-1.6,5.8-3.1,10-3.1c4.2,0,7.8,1.5,9.8,3.1C427.2,179.8,427.9,181.3,427.5,181.7"/>
	<path class="st2" d="M360.8,186.4c-0.8,0.8-5.6-2.7-12.3-2.6c-6.8-0.1-11.7,3.4-12.5,2.6c-0.4-0.4,0.4-1.8,2.6-3.4
		c2.1-1.6,5.8-3.1,10-3.1c4.2,0,7.8,1.5,9.8,3.1C360.5,184.6,361.2,186,360.8,186.4"/>
	<path class="st2" d="M385.6,232.6c0-0.4,4.2-1.1,11-2c1.7-0.2,3.4-0.5,3.7-1.7c0.4-1.2-0.3-3.1-1.2-5.1c-1.6-4.1-3.4-8.5-5.1-13
		c-7.2-18.5-12.3-33.7-11.6-34c0.8-0.3,7.2,14.5,14.3,33c1.7,4.6,3.4,8.9,4.9,13.1c0.7,1.9,1.8,4.1,0.9,6.7
		c-0.5,1.3-1.7,2.2-2.8,2.5c-1.1,0.3-2.1,0.4-2.9,0.4C389.9,232.9,385.6,233,385.6,232.6"/>
	<path class="st1" d="M390.4,311.7c0,0-33.1,2.2-65.9-17.2c0.6,0.1,18.1,33.7,65.2,28.6L390.4,311.7z"/>
	<path class="st1" d="M383.6,251.9c0.8-4.1-4.1-5.4-7.7-7.7c-3.6-2.2-5.7-5.2-9.1-2.6c-1.9,1.4-3.3,3.5-4.2,5.8
		c-0.6,1.5-1,3.1-0.7,4.7c0.3,1.9,1.6,3.6,3,4.9c2,1.9,4.6,3.3,7.4,3.8c2.8,0.5,5.8-0.1,8-1.8c2.2-1.7,3.5-4.6,3-7.3"/>
	<path class="st2" d="M365.6,237.3c1.1-0.1,1.1,7.2,7.4,12.3c6.3,5.2,14.1,4.3,14.2,5.3c0.1,0.5-1.7,1.4-5.1,1.5
		c-3.2,0.1-8-0.9-11.9-4c-3.9-3.1-5.5-7.4-5.8-10.3C364.3,239,365.1,237.2,365.6,237.3"/>
	<path class="st2" d="M361.8,162.8c-0.7,1.8-7.4,1-15.4,1.9c-8,0.8-14.4,3.1-15.4,1.5c-0.5-0.8,0.6-2.5,3.2-4.3
		c2.6-1.8,6.7-3.4,11.4-4c4.8-0.5,9.1,0.2,12.1,1.4C360.7,160.5,362.1,161.9,361.8,162.8"/>
	<path class="st2" d="M426.6,158.5c-1.2,1.5-5.9,0-11.5-0.1c-5.6-0.3-10.4,1-11.5-0.5c-0.5-0.8,0.3-2.3,2.3-3.7
		c2-1.4,5.5-2.6,9.3-2.5c3.9,0.1,7.2,1.5,9.2,3C426.4,156.2,427.1,157.8,426.6,158.5"/>
	<path class="st2" d="M272.8,284.7c13.5,2.7,14.7-4.1,24.8-13.3c10.1-9.3,15.3-23.4,13.6-36.9c-1.5-11.9-8-24-3.9-35.3
		c5.5-14.9,26.7-19.5,32.3-34.3c3.3-8.6,0.3-18.7,4-27.2c3.5-8,12-12.5,20.2-15.5c8.3-2.9,17.1-5,24.1-10.3
		c6.9-5.3,11.3-15.4,6.8-22.8c-36.7,4.3-72.8,13-107.4,25.7c-8,3-16.4,6.5-21.2,13.5c-5,7.4-4.8,17-4.4,26
		c2.1,43.5,4.1,87,6.2,130.5"/>
	<path class="st3" d="M241.4,268.4c0,0-0.2-0.2-0.5-0.6c-0.3-0.4-0.8-1-1.4-1.9c-1.1-1.8-2.4-4.6-3.2-8.5c-0.8-3.9-0.9-8.9,0.8-14.3
		c1.5-5.4,5.4-11.2,11.4-15.2c5.8-4.1,13.4-6.9,18.2-13.3c2.4-3.1,3.4-7.2,2.7-11.4c-0.7-4.2-2.6-8.2-4.3-12.6
		c-3.8-8.7-3.8-19.5,0.6-28.9c2.2-4.7,5.5-9,10-12.2c4.4-3.3,9.8-5,15.1-6.2c5.3-1.2,10.6-1.9,15.6-3.4c4.9-1.4,9.6-3.6,13-7
		c3.5-3.4,5-8,5.7-12.7c0.7-4.7,1-9.5,2.3-14.1c2.4-9.1,7.1-17.1,13.3-22.9c6.2-5.8,13.7-9.2,20.9-10.2c7.2-1.1,13.9,0.2,19,2.8
		c5.1,2.6,8.7,6.1,11,9.4c2.3,3.3,3.3,6.2,3.8,8.2c0.5,2,0.5,3.1,0.5,3.1c-0.3,0.1-0.4-4.5-5-10.9c-2.3-3.1-5.9-6.4-10.8-8.8
		c-4.9-2.4-11.4-3.6-18.2-2.4c-6.8,1.1-14,4.4-19.9,10c-5.9,5.6-10.3,13.4-12.6,22.1c-1.2,4.4-1.5,9-2.2,13.9
		c-0.6,4.8-2.3,10.1-6.2,13.9c-3.8,3.8-8.8,6.1-13.9,7.6c-5.2,1.5-10.5,2.2-15.7,3.4c-5.2,1.2-10.2,2.8-14.3,5.8
		c-4.1,2.9-7.2,7-9.3,11.4c-4.2,8.9-4.2,19-0.7,27.3c1.6,4.3,3.6,8.5,4.3,13c0.8,4.5-0.4,9.3-3.1,12.7c-5.4,7-13.2,9.7-18.8,13.5
		c-5.9,3.7-9.5,9.1-11.1,14.3c-1.7,5.2-1.8,10-1.1,13.8C238.5,264.9,241.8,268.3,241.4,268.4"/>
	<path class="st2" d="M305.4,220.3c11.1,25.2,13.2,54.3,5.7,80.8c-2.2,7.9-5.3,16.1-3.4,24.1c2.1,8.7,9.4,14.9,14.8,22.1
		c9.2,12.3,12.8,28.6,9.6,43.6c-3.2,15-13.1,28.5-26.6,36.1c-1.4-8-8.9-13.4-16.4-16.9c-7.4-3.5-15.6-6-21.3-11.9
		c-5.7-5.9-7.3-16.6-0.7-21.4c-18.9-4.9-29.6-27-25.7-45.9c4-18.9,19.6-33.8,37.3-42"/>
	<path class="st2" d="M285.2,408.4c3.4,1.8,6.7,3.5,7.1,7.2c0.5,4.4-3.8,12.2-5.4,16.4c-3,8.2-0.7,18.1,5.6,24.2
		c6.3,6.1,16.4,8.1,24.6,4.9c-6.1,0.5-11.2-5.4-11.7-11.3c-0.5-6,2.4-11.7,6-16.5c3.6-4.8,8-9.1,11-14.3
		c6.2-10.5,15.5-39.2,8.4-55.2"/>
	<path class="st3" d="M268,377.6c0,0-0.4-0.4-1.2-1c-0.8-0.6-1.9-1.5-3.4-2.7c-2.9-2.4-6.9-6-11-11.3c-4.1-5.2-8.3-12.1-10.5-20.6
		c-2.1-8.4-2.3-18.4,1.4-27.8c1.8-4.7,4.6-8.8,7.8-12.4c3.2-3.6,6.6-6.7,9.8-9.7c3.2-3,6.3-6,8.8-9c2.5-3.1,4.5-6.3,5.8-9.4
		c2.8-6.2,2.9-11.9,1.9-15.6c-0.5-1.8-1.1-3.2-1.6-4c-0.5-0.8-0.8-1.3-0.8-1.3c-0.1,0.1,1.2,1.8,2,5.4c0.8,3.6,0.6,9.1-2.2,15.2
		c-1.3,3-3.3,6.1-5.8,9.1c-2.5,3-5.6,5.9-8.8,8.9c-3.2,3-6.7,6.1-10,9.8c-3.3,3.6-6.1,7.9-8,12.7c-3.8,9.7-3.6,19.9-1.3,28.5
		c2.3,8.6,6.6,15.6,10.8,20.8c4.2,5.2,8.4,8.8,11.4,11.1c1.5,1.1,2.7,2,3.5,2.5C267.5,377.3,268,377.6,268,377.6"/>
</g>
</svg>
